%TF.GenerationSoftware,KiCad,Pcbnew,7.0.6*%
%TF.CreationDate,2023-08-11T13:22:00+02:00*%
%TF.ProjectId,MagLev,4d61674c-6576-42e6-9b69-6361645f7063,rev?*%
%TF.SameCoordinates,Original*%
%TF.FileFunction,Legend,Bot*%
%TF.FilePolarity,Positive*%
%FSLAX46Y46*%
G04 Gerber Fmt 4.6, Leading zero omitted, Abs format (unit mm)*
G04 Created by KiCad (PCBNEW 7.0.6) date 2023-08-11 13:22:00*
%MOMM*%
%LPD*%
G01*
G04 APERTURE LIST*
%ADD10C,0.153000*%
%ADD11C,0.100000*%
%ADD12C,0.120000*%
%ADD13C,0.500000*%
G04 APERTURE END LIST*
D10*
X160400000Y-101600000D02*
G75*
G03*
X160400000Y-101600000I-8000000J0D01*
G01*
X123960180Y-72569663D02*
X123626847Y-72093472D01*
X123388752Y-72569663D02*
X123388752Y-71569663D01*
X123388752Y-71569663D02*
X123769704Y-71569663D01*
X123769704Y-71569663D02*
X123864942Y-71617282D01*
X123864942Y-71617282D02*
X123912561Y-71664901D01*
X123912561Y-71664901D02*
X123960180Y-71760139D01*
X123960180Y-71760139D02*
X123960180Y-71902996D01*
X123960180Y-71902996D02*
X123912561Y-71998234D01*
X123912561Y-71998234D02*
X123864942Y-72045853D01*
X123864942Y-72045853D02*
X123769704Y-72093472D01*
X123769704Y-72093472D02*
X123388752Y-72093472D01*
X124293514Y-71569663D02*
X124960180Y-72569663D01*
X124960180Y-71569663D02*
X124293514Y-72569663D01*
X123195895Y-66069663D02*
X123767323Y-66069663D01*
X123481609Y-67069663D02*
X123481609Y-66069663D01*
X124005419Y-66069663D02*
X124672085Y-67069663D01*
X124672085Y-66069663D02*
X124005419Y-67069663D01*
X122965829Y-88360735D02*
X123302546Y-88024018D01*
X122359737Y-88495422D02*
X122965829Y-88360735D01*
X122965829Y-88360735D02*
X122831142Y-88966827D01*
X123470905Y-89000498D02*
X123369890Y-88966827D01*
X123369890Y-88966827D02*
X123302546Y-88966827D01*
X123302546Y-88966827D02*
X123201531Y-89000498D01*
X123201531Y-89000498D02*
X123167859Y-89034170D01*
X123167859Y-89034170D02*
X123134188Y-89135185D01*
X123134188Y-89135185D02*
X123134188Y-89202529D01*
X123134188Y-89202529D02*
X123167859Y-89303544D01*
X123167859Y-89303544D02*
X123302546Y-89438231D01*
X123302546Y-89438231D02*
X123403562Y-89471903D01*
X123403562Y-89471903D02*
X123470905Y-89471903D01*
X123470905Y-89471903D02*
X123571920Y-89438231D01*
X123571920Y-89438231D02*
X123605592Y-89404560D01*
X123605592Y-89404560D02*
X123639264Y-89303544D01*
X123639264Y-89303544D02*
X123639264Y-89236201D01*
X123639264Y-89236201D02*
X123605592Y-89135185D01*
X123605592Y-89135185D02*
X123470905Y-89000498D01*
X123470905Y-89000498D02*
X123437233Y-88899483D01*
X123437233Y-88899483D02*
X123437233Y-88832140D01*
X123437233Y-88832140D02*
X123470905Y-88731124D01*
X123470905Y-88731124D02*
X123605592Y-88596437D01*
X123605592Y-88596437D02*
X123706607Y-88562766D01*
X123706607Y-88562766D02*
X123773951Y-88562766D01*
X123773951Y-88562766D02*
X123874966Y-88596437D01*
X123874966Y-88596437D02*
X124009653Y-88731124D01*
X124009653Y-88731124D02*
X124043325Y-88832140D01*
X124043325Y-88832140D02*
X124043325Y-88899483D01*
X124043325Y-88899483D02*
X124009653Y-89000498D01*
X124009653Y-89000498D02*
X123874966Y-89135185D01*
X123874966Y-89135185D02*
X123773951Y-89168857D01*
X123773951Y-89168857D02*
X123706607Y-89168857D01*
X123706607Y-89168857D02*
X123605592Y-89135185D01*
X121399715Y-92875403D02*
X121938463Y-93414151D01*
X117807613Y-89283301D02*
X118346361Y-89822049D01*
X118346361Y-89283301D02*
X117807613Y-89822049D01*
X157908094Y-99604663D02*
X157908094Y-100414186D01*
X157908094Y-100414186D02*
X157860475Y-100509424D01*
X157860475Y-100509424D02*
X157812856Y-100557044D01*
X157812856Y-100557044D02*
X157717618Y-100604663D01*
X157717618Y-100604663D02*
X157527142Y-100604663D01*
X157527142Y-100604663D02*
X157431904Y-100557044D01*
X157431904Y-100557044D02*
X157384285Y-100509424D01*
X157384285Y-100509424D02*
X157336666Y-100414186D01*
X157336666Y-100414186D02*
X157336666Y-99604663D01*
X156336666Y-100604663D02*
X156908094Y-100604663D01*
X156622380Y-100604663D02*
X156622380Y-99604663D01*
X156622380Y-99604663D02*
X156717618Y-99747520D01*
X156717618Y-99747520D02*
X156812856Y-99842758D01*
X156812856Y-99842758D02*
X156908094Y-99890377D01*
X155384285Y-100604663D02*
X155955713Y-100604663D01*
X155669999Y-100604663D02*
X155669999Y-99604663D01*
X155669999Y-99604663D02*
X155765237Y-99747520D01*
X155765237Y-99747520D02*
X155860475Y-99842758D01*
X155860475Y-99842758D02*
X155955713Y-99890377D01*
X140295422Y-110640262D02*
X140059720Y-109461750D01*
X140766827Y-110168857D02*
X139588315Y-109933155D01*
X140935185Y-109865811D02*
X141002529Y-109865811D01*
X141002529Y-109865811D02*
X141103544Y-109832140D01*
X141103544Y-109832140D02*
X141271903Y-109663781D01*
X141271903Y-109663781D02*
X141305575Y-109562766D01*
X141305575Y-109562766D02*
X141305575Y-109495422D01*
X141305575Y-109495422D02*
X141271903Y-109394407D01*
X141271903Y-109394407D02*
X141204559Y-109327063D01*
X141204559Y-109327063D02*
X141069872Y-109259720D01*
X141069872Y-109259720D02*
X140261750Y-109259720D01*
X140261750Y-109259720D02*
X140699483Y-108821987D01*
X141083301Y-115192386D02*
X141622049Y-114653638D01*
X141083301Y-114653638D02*
X141622049Y-115192386D01*
X144675403Y-111600284D02*
X145214151Y-111061536D01*
X143965829Y-89360735D02*
X144302546Y-89024018D01*
X143359737Y-89495422D02*
X143965829Y-89360735D01*
X143965829Y-89360735D02*
X143831142Y-89966827D01*
X144100516Y-90101514D02*
X144100516Y-90168857D01*
X144100516Y-90168857D02*
X144134188Y-90269872D01*
X144134188Y-90269872D02*
X144302546Y-90438231D01*
X144302546Y-90438231D02*
X144403562Y-90471903D01*
X144403562Y-90471903D02*
X144470905Y-90471903D01*
X144470905Y-90471903D02*
X144571920Y-90438231D01*
X144571920Y-90438231D02*
X144639264Y-90370888D01*
X144639264Y-90370888D02*
X144706607Y-90236201D01*
X144706607Y-90236201D02*
X144706607Y-89428079D01*
X144706607Y-89428079D02*
X145144340Y-89865811D01*
X142399715Y-93875403D02*
X142938463Y-94414151D01*
X138807613Y-90283301D02*
X139346361Y-90822049D01*
X139346361Y-90283301D02*
X138807613Y-90822049D01*
X152471428Y-99399901D02*
X152566666Y-99352282D01*
X152566666Y-99352282D02*
X152661904Y-99257044D01*
X152661904Y-99257044D02*
X152804761Y-99114186D01*
X152804761Y-99114186D02*
X152899999Y-99066567D01*
X152899999Y-99066567D02*
X152995237Y-99066567D01*
X152947618Y-99304663D02*
X153042856Y-99257044D01*
X153042856Y-99257044D02*
X153138094Y-99161805D01*
X153138094Y-99161805D02*
X153185713Y-98971329D01*
X153185713Y-98971329D02*
X153185713Y-98637996D01*
X153185713Y-98637996D02*
X153138094Y-98447520D01*
X153138094Y-98447520D02*
X153042856Y-98352282D01*
X153042856Y-98352282D02*
X152947618Y-98304663D01*
X152947618Y-98304663D02*
X152757142Y-98304663D01*
X152757142Y-98304663D02*
X152661904Y-98352282D01*
X152661904Y-98352282D02*
X152566666Y-98447520D01*
X152566666Y-98447520D02*
X152519047Y-98637996D01*
X152519047Y-98637996D02*
X152519047Y-98971329D01*
X152519047Y-98971329D02*
X152566666Y-99161805D01*
X152566666Y-99161805D02*
X152661904Y-99257044D01*
X152661904Y-99257044D02*
X152757142Y-99304663D01*
X152757142Y-99304663D02*
X152947618Y-99304663D01*
X151566666Y-99304663D02*
X152138094Y-99304663D01*
X151852380Y-99304663D02*
X151852380Y-98304663D01*
X151852380Y-98304663D02*
X151947618Y-98447520D01*
X151947618Y-98447520D02*
X152042856Y-98542758D01*
X152042856Y-98542758D02*
X152138094Y-98590377D01*
X150709523Y-98304663D02*
X150899999Y-98304663D01*
X150899999Y-98304663D02*
X150995237Y-98352282D01*
X150995237Y-98352282D02*
X151042856Y-98399901D01*
X151042856Y-98399901D02*
X151138094Y-98542758D01*
X151138094Y-98542758D02*
X151185713Y-98733234D01*
X151185713Y-98733234D02*
X151185713Y-99114186D01*
X151185713Y-99114186D02*
X151138094Y-99209424D01*
X151138094Y-99209424D02*
X151090475Y-99257044D01*
X151090475Y-99257044D02*
X150995237Y-99304663D01*
X150995237Y-99304663D02*
X150804761Y-99304663D01*
X150804761Y-99304663D02*
X150709523Y-99257044D01*
X150709523Y-99257044D02*
X150661904Y-99209424D01*
X150661904Y-99209424D02*
X150614285Y-99114186D01*
X150614285Y-99114186D02*
X150614285Y-98876091D01*
X150614285Y-98876091D02*
X150661904Y-98780853D01*
X150661904Y-98780853D02*
X150709523Y-98733234D01*
X150709523Y-98733234D02*
X150804761Y-98685615D01*
X150804761Y-98685615D02*
X150995237Y-98685615D01*
X150995237Y-98685615D02*
X151090475Y-98733234D01*
X151090475Y-98733234D02*
X151138094Y-98780853D01*
X151138094Y-98780853D02*
X151185713Y-98876091D01*
X164504577Y-92559737D02*
X164740279Y-93738249D01*
X164033172Y-93031142D02*
X165211684Y-93266844D01*
X164100516Y-94378012D02*
X164504577Y-93973951D01*
X164302546Y-94175981D02*
X163595440Y-93468875D01*
X163595440Y-93468875D02*
X163763798Y-93502546D01*
X163763798Y-93502546D02*
X163898485Y-93502546D01*
X163898485Y-93502546D02*
X163999501Y-93468875D01*
X163716698Y-88007613D02*
X163177950Y-88546361D01*
X163716698Y-88546361D02*
X163177950Y-88007613D01*
X160124596Y-91599715D02*
X159585848Y-92138463D01*
X181834170Y-114839264D02*
X181497453Y-115175981D01*
X182440262Y-114704577D02*
X181834170Y-114839264D01*
X181834170Y-114839264D02*
X181968857Y-114233172D01*
X181396437Y-113660752D02*
X181733155Y-113997470D01*
X181733155Y-113997470D02*
X181430109Y-114367859D01*
X181430109Y-114367859D02*
X181430109Y-114300516D01*
X181430109Y-114300516D02*
X181396437Y-114199501D01*
X181396437Y-114199501D02*
X181228079Y-114031142D01*
X181228079Y-114031142D02*
X181127063Y-113997470D01*
X181127063Y-113997470D02*
X181059720Y-113997470D01*
X181059720Y-113997470D02*
X180958705Y-114031142D01*
X180958705Y-114031142D02*
X180790346Y-114199501D01*
X180790346Y-114199501D02*
X180756674Y-114300516D01*
X180756674Y-114300516D02*
X180756674Y-114367859D01*
X180756674Y-114367859D02*
X180790346Y-114468875D01*
X180790346Y-114468875D02*
X180958705Y-114637233D01*
X180958705Y-114637233D02*
X181059720Y-114670905D01*
X181059720Y-114670905D02*
X181127063Y-114670905D01*
X183400284Y-110324596D02*
X182861536Y-109785848D01*
X186992386Y-113916698D02*
X186453638Y-113377950D01*
X186453638Y-113916698D02*
X186992386Y-113377950D01*
X123639264Y-114165829D02*
X123975981Y-114502546D01*
X123504577Y-113559737D02*
X123639264Y-114165829D01*
X123639264Y-114165829D02*
X123033172Y-114031142D01*
X123470905Y-115007623D02*
X123336218Y-115142310D01*
X123336218Y-115142310D02*
X123235203Y-115175981D01*
X123235203Y-115175981D02*
X123167859Y-115175981D01*
X123167859Y-115175981D02*
X122999501Y-115142310D01*
X122999501Y-115142310D02*
X122831142Y-115041294D01*
X122831142Y-115041294D02*
X122561768Y-114771920D01*
X122561768Y-114771920D02*
X122528096Y-114670905D01*
X122528096Y-114670905D02*
X122528096Y-114603562D01*
X122528096Y-114603562D02*
X122561768Y-114502546D01*
X122561768Y-114502546D02*
X122696455Y-114367859D01*
X122696455Y-114367859D02*
X122797470Y-114334188D01*
X122797470Y-114334188D02*
X122864814Y-114334188D01*
X122864814Y-114334188D02*
X122965829Y-114367859D01*
X122965829Y-114367859D02*
X123134188Y-114536218D01*
X123134188Y-114536218D02*
X123167859Y-114637233D01*
X123167859Y-114637233D02*
X123167859Y-114704577D01*
X123167859Y-114704577D02*
X123134188Y-114805592D01*
X123134188Y-114805592D02*
X122999501Y-114940279D01*
X122999501Y-114940279D02*
X122898485Y-114973951D01*
X122898485Y-114973951D02*
X122831142Y-114973951D01*
X122831142Y-114973951D02*
X122730127Y-114940279D01*
X119124596Y-112599715D02*
X118585848Y-113138463D01*
X122716698Y-109007613D02*
X122177950Y-109546361D01*
X122716698Y-109546361D02*
X122177950Y-109007613D01*
X181160735Y-89034170D02*
X180824018Y-88697453D01*
X181295422Y-89640262D02*
X181160735Y-89034170D01*
X181160735Y-89034170D02*
X181766827Y-89168857D01*
X182305575Y-88630109D02*
X182170888Y-88764796D01*
X182170888Y-88764796D02*
X182069872Y-88798468D01*
X182069872Y-88798468D02*
X182002529Y-88798468D01*
X182002529Y-88798468D02*
X181834170Y-88764796D01*
X181834170Y-88764796D02*
X181665811Y-88663781D01*
X181665811Y-88663781D02*
X181396437Y-88394407D01*
X181396437Y-88394407D02*
X181362766Y-88293392D01*
X181362766Y-88293392D02*
X181362766Y-88226048D01*
X181362766Y-88226048D02*
X181396437Y-88125033D01*
X181396437Y-88125033D02*
X181531124Y-87990346D01*
X181531124Y-87990346D02*
X181632140Y-87956674D01*
X181632140Y-87956674D02*
X181699483Y-87956674D01*
X181699483Y-87956674D02*
X181800498Y-87990346D01*
X181800498Y-87990346D02*
X181968857Y-88158705D01*
X181968857Y-88158705D02*
X182002529Y-88259720D01*
X182002529Y-88259720D02*
X182002529Y-88327063D01*
X182002529Y-88327063D02*
X181968857Y-88428079D01*
X181968857Y-88428079D02*
X181834170Y-88562766D01*
X181834170Y-88562766D02*
X181733155Y-88596437D01*
X181733155Y-88596437D02*
X181665811Y-88596437D01*
X181665811Y-88596437D02*
X181564796Y-88562766D01*
X185675403Y-90600284D02*
X186214151Y-90061536D01*
X182083301Y-94192386D02*
X182622049Y-93653638D01*
X182083301Y-93653638D02*
X182622049Y-94192386D01*
X148304663Y-100361905D02*
X149114186Y-100361905D01*
X149114186Y-100361905D02*
X149209424Y-100409524D01*
X149209424Y-100409524D02*
X149257044Y-100457143D01*
X149257044Y-100457143D02*
X149304663Y-100552381D01*
X149304663Y-100552381D02*
X149304663Y-100742857D01*
X149304663Y-100742857D02*
X149257044Y-100838095D01*
X149257044Y-100838095D02*
X149209424Y-100885714D01*
X149209424Y-100885714D02*
X149114186Y-100933333D01*
X149114186Y-100933333D02*
X148304663Y-100933333D01*
X149304663Y-101933333D02*
X149304663Y-101361905D01*
X149304663Y-101647619D02*
X148304663Y-101647619D01*
X148304663Y-101647619D02*
X148447520Y-101552381D01*
X148447520Y-101552381D02*
X148542758Y-101457143D01*
X148542758Y-101457143D02*
X148590377Y-101361905D01*
X148399901Y-102314286D02*
X148352282Y-102361905D01*
X148352282Y-102361905D02*
X148304663Y-102457143D01*
X148304663Y-102457143D02*
X148304663Y-102695238D01*
X148304663Y-102695238D02*
X148352282Y-102790476D01*
X148352282Y-102790476D02*
X148399901Y-102838095D01*
X148399901Y-102838095D02*
X148495139Y-102885714D01*
X148495139Y-102885714D02*
X148590377Y-102885714D01*
X148590377Y-102885714D02*
X148733234Y-102838095D01*
X148733234Y-102838095D02*
X149304663Y-102266667D01*
X149304663Y-102266667D02*
X149304663Y-102885714D01*
X150404663Y-104611905D02*
X151214186Y-104611905D01*
X151214186Y-104611905D02*
X151309424Y-104659524D01*
X151309424Y-104659524D02*
X151357044Y-104707143D01*
X151357044Y-104707143D02*
X151404663Y-104802381D01*
X151404663Y-104802381D02*
X151404663Y-104992857D01*
X151404663Y-104992857D02*
X151357044Y-105088095D01*
X151357044Y-105088095D02*
X151309424Y-105135714D01*
X151309424Y-105135714D02*
X151214186Y-105183333D01*
X151214186Y-105183333D02*
X150404663Y-105183333D01*
X151404663Y-106183333D02*
X151404663Y-105611905D01*
X151404663Y-105897619D02*
X150404663Y-105897619D01*
X150404663Y-105897619D02*
X150547520Y-105802381D01*
X150547520Y-105802381D02*
X150642758Y-105707143D01*
X150642758Y-105707143D02*
X150690377Y-105611905D01*
X150404663Y-106802381D02*
X150404663Y-106897619D01*
X150404663Y-106897619D02*
X150452282Y-106992857D01*
X150452282Y-106992857D02*
X150499901Y-107040476D01*
X150499901Y-107040476D02*
X150595139Y-107088095D01*
X150595139Y-107088095D02*
X150785615Y-107135714D01*
X150785615Y-107135714D02*
X151023710Y-107135714D01*
X151023710Y-107135714D02*
X151214186Y-107088095D01*
X151214186Y-107088095D02*
X151309424Y-107040476D01*
X151309424Y-107040476D02*
X151357044Y-106992857D01*
X151357044Y-106992857D02*
X151404663Y-106897619D01*
X151404663Y-106897619D02*
X151404663Y-106802381D01*
X151404663Y-106802381D02*
X151357044Y-106707143D01*
X151357044Y-106707143D02*
X151309424Y-106659524D01*
X151309424Y-106659524D02*
X151214186Y-106611905D01*
X151214186Y-106611905D02*
X151023710Y-106564286D01*
X151023710Y-106564286D02*
X150785615Y-106564286D01*
X150785615Y-106564286D02*
X150595139Y-106611905D01*
X150595139Y-106611905D02*
X150499901Y-106659524D01*
X150499901Y-106659524D02*
X150452282Y-106707143D01*
X150452282Y-106707143D02*
X150404663Y-106802381D01*
X160834170Y-113839264D02*
X160497453Y-114175981D01*
X161440262Y-113704577D02*
X160834170Y-113839264D01*
X160834170Y-113839264D02*
X160968857Y-113233172D01*
X159655659Y-113334188D02*
X160059720Y-113738249D01*
X159857689Y-113536218D02*
X160564796Y-112829111D01*
X160564796Y-112829111D02*
X160531124Y-112997470D01*
X160531124Y-112997470D02*
X160531124Y-113132157D01*
X160531124Y-113132157D02*
X160564796Y-113233172D01*
X165992386Y-112916698D02*
X165453638Y-112377950D01*
X165453638Y-112916698D02*
X165992386Y-112377950D01*
X162400284Y-109324596D02*
X161861536Y-108785848D01*
%TO.C,PB2*%
D11*
X181894400Y-144602800D02*
X181894400Y-150597200D01*
X178897200Y-153594400D01*
X172902800Y-153594400D01*
X169905600Y-150597200D01*
X169905600Y-144602800D01*
X172902800Y-141605600D01*
X178897200Y-141605600D01*
X181894400Y-144602800D01*
D12*
%TO.C,D18*%
X208360000Y-101740000D02*
X208360000Y-104600000D01*
X206440000Y-101740000D02*
X208360000Y-101740000D01*
X206440000Y-104600000D02*
X206440000Y-101740000D01*
%TO.C,D15*%
X98360000Y-94289999D02*
X98360000Y-97149999D01*
X96440000Y-94289999D02*
X98360000Y-94289999D01*
X96440000Y-97149999D02*
X96440000Y-94289999D01*
D10*
%TO.C,Y8*%
X122276060Y-85844470D02*
G75*
G03*
X126135775Y-89712556I9123940J5244470D01*
G01*
D13*
X141150000Y-80600000D02*
G75*
G03*
X141150000Y-80600000I-9750000J0D01*
G01*
D10*
X126135775Y-89712557D02*
X125580794Y-89795782D01*
X125940004Y-89221046D01*
X126135775Y-89712557D01*
G36*
X126135775Y-89712557D02*
G01*
X125580794Y-89795782D01*
X125940004Y-89221046D01*
X126135775Y-89712557D01*
G37*
D12*
%TO.C,U11*%
X158800000Y-101900000D02*
X158800000Y-100950000D01*
X158650000Y-102050000D02*
X158800000Y-101900000D01*
X157950000Y-102700000D02*
X158200000Y-102450000D01*
X157950000Y-102700000D02*
X155350000Y-102700000D01*
X155350000Y-102700000D02*
X155100000Y-102450000D01*
X154700000Y-102050000D02*
X154550000Y-101900000D01*
X154550000Y-100950000D02*
X154550000Y-101900000D01*
%TO.C,D13*%
X144815000Y-45640000D02*
X147675000Y-45640000D01*
X144815000Y-47560000D02*
X144815000Y-45640000D01*
X147675000Y-47560000D02*
X144815000Y-47560000D01*
D10*
%TO.C,X2*%
X137644470Y-110723940D02*
G75*
G03*
X141512556Y-106864225I-5244470J9123940D01*
G01*
D13*
X142150000Y-101600000D02*
G75*
G03*
X142150000Y-101600000I-9750000J0D01*
G01*
D10*
X141595782Y-107419206D02*
X141021046Y-107059996D01*
X141512557Y-106864225D01*
X141595782Y-107419206D01*
G36*
X141595782Y-107419206D02*
G01*
X141021046Y-107059996D01*
X141512557Y-106864225D01*
X141595782Y-107419206D01*
G37*
%TO.C,Y2*%
X143276060Y-86844470D02*
G75*
G03*
X147135775Y-90712556I9123940J5244470D01*
G01*
D13*
X162150000Y-81600000D02*
G75*
G03*
X162150000Y-81600000I-9750000J0D01*
G01*
D10*
X147135775Y-90712557D02*
X146580794Y-90795782D01*
X146940004Y-90221046D01*
X147135775Y-90712557D01*
G36*
X147135775Y-90712557D02*
G01*
X146580794Y-90795782D01*
X146940004Y-90221046D01*
X147135775Y-90712557D01*
G37*
D12*
%TO.C,Q16*%
X148290000Y-95890000D02*
X151150000Y-95890000D01*
X148290000Y-97810000D02*
X148290000Y-95890000D01*
X151150000Y-97810000D02*
X148290000Y-97810000D01*
D10*
%TO.C,X1*%
X167155530Y-92476060D02*
G75*
G03*
X163287444Y-96335775I5244470J-9123940D01*
G01*
D13*
X182150000Y-101600000D02*
G75*
G03*
X182150000Y-101600000I-9750000J0D01*
G01*
D10*
X163778954Y-96140004D02*
X163287443Y-96335775D01*
X163204218Y-95780794D01*
X163778954Y-96140004D01*
G36*
X163778954Y-96140004D02*
G01*
X163287443Y-96335775D01*
X163204218Y-95780794D01*
X163778954Y-96140004D01*
G37*
%TO.C,Y5*%
X182523940Y-117355530D02*
G75*
G03*
X178664225Y-113487444I-9123940J-5244470D01*
G01*
D13*
X183150000Y-122600000D02*
G75*
G03*
X183150000Y-122600000I-9750000J0D01*
G01*
D10*
X178859996Y-113978954D02*
X178664225Y-113487443D01*
X179219206Y-113404218D01*
X178859996Y-113978954D01*
G36*
X178859996Y-113978954D02*
G01*
X178664225Y-113487443D01*
X179219206Y-113404218D01*
X178859996Y-113978954D01*
G37*
%TO.C,Y9*%
X126155530Y-113476060D02*
G75*
G03*
X122287444Y-117335775I5244470J-9123940D01*
G01*
D13*
X141150000Y-122600000D02*
G75*
G03*
X141150000Y-122600000I-9750000J0D01*
G01*
D10*
X122778954Y-117140004D02*
X122287443Y-117335775D01*
X122204218Y-116780794D01*
X122778954Y-117140004D01*
G36*
X122778954Y-117140004D02*
G01*
X122287443Y-117335775D01*
X122204218Y-116780794D01*
X122778954Y-117140004D01*
G37*
D12*
%TO.C,D16*%
X152464998Y-155640000D02*
X155324998Y-155640000D01*
X152464998Y-157560000D02*
X152464998Y-155640000D01*
X155324998Y-157560000D02*
X152464998Y-157560000D01*
D10*
%TO.C,Y6*%
X178644470Y-89723940D02*
G75*
G03*
X182512556Y-85864225I-5244470J9123940D01*
G01*
D13*
X183150000Y-80600000D02*
G75*
G03*
X183150000Y-80600000I-9750000J0D01*
G01*
D10*
X182595782Y-86419206D02*
X182021046Y-86059996D01*
X182512557Y-85864225D01*
X182595782Y-86419206D01*
G36*
X182595782Y-86419206D02*
G01*
X182021046Y-86059996D01*
X182512557Y-85864225D01*
X182595782Y-86419206D01*
G37*
D12*
%TO.C,D19*%
X208360000Y-94290002D02*
X208360000Y-97150002D01*
X206440000Y-94290002D02*
X208360000Y-94290002D01*
X206440000Y-97150002D02*
X206440000Y-94290002D01*
%TO.C,D12*%
X152330000Y-45615000D02*
X155190000Y-45615000D01*
X152330000Y-47535000D02*
X152330000Y-45615000D01*
X155190000Y-47535000D02*
X152330000Y-47535000D01*
%TO.C,U12*%
X147100000Y-103730000D02*
X148050000Y-103730000D01*
X146950000Y-103580000D02*
X147100000Y-103730000D01*
X146300000Y-102880000D02*
X146550000Y-103130000D01*
X146300000Y-102880000D02*
X146300000Y-100280000D01*
X146300000Y-100280000D02*
X146550000Y-100030000D01*
X146950000Y-99630000D02*
X147100000Y-99480000D01*
X148050000Y-99480000D02*
X147100000Y-99480000D01*
%TO.C,D25*%
X148739999Y-155640000D02*
X151599999Y-155640000D01*
X148739999Y-157560000D02*
X148739999Y-155640000D01*
X151599999Y-157560000D02*
X148739999Y-157560000D01*
%TO.C,D20*%
X156030000Y-45615000D02*
X158890000Y-45615000D01*
X156030000Y-47535000D02*
X156030000Y-45615000D01*
X158890000Y-47535000D02*
X156030000Y-47535000D01*
%TO.C,U10*%
X152700000Y-103720000D02*
X151750000Y-103720000D01*
X152850000Y-103870000D02*
X152700000Y-103720000D01*
X153500000Y-104570000D02*
X153250000Y-104320000D01*
X153500000Y-104570000D02*
X153500000Y-107170000D01*
X153500000Y-107170000D02*
X153250000Y-107420000D01*
X152850000Y-107820000D02*
X152700000Y-107970000D01*
X151750000Y-107970000D02*
X152700000Y-107970000D01*
%TO.C,D17*%
X145040000Y-155640000D02*
X147900000Y-155640000D01*
X145040000Y-157560000D02*
X145040000Y-155640000D01*
X147900000Y-157560000D02*
X145040000Y-157560000D01*
%TO.C,PB1*%
D11*
X135144400Y-144602800D02*
X135144400Y-150597200D01*
X132147200Y-153594400D01*
X126152800Y-153594400D01*
X123155600Y-150597200D01*
X123155600Y-144602800D01*
X126152800Y-141605600D01*
X132147200Y-141605600D01*
X135144400Y-144602800D01*
D12*
%TO.C,D26*%
X208360000Y-105440000D02*
X208360000Y-108300000D01*
X206440000Y-105440000D02*
X208360000Y-105440000D01*
X206440000Y-108300000D02*
X206440000Y-105440000D01*
%TO.C,D24*%
X156165000Y-155640000D02*
X159025000Y-155640000D01*
X156165000Y-157560000D02*
X156165000Y-155640000D01*
X159025000Y-157560000D02*
X156165000Y-157560000D01*
%TO.C,D22*%
X98360000Y-105540001D02*
X98360000Y-108400001D01*
X96440000Y-105540001D02*
X98360000Y-105540001D01*
X96440000Y-108400001D02*
X96440000Y-105540001D01*
%TO.C,D23*%
X98360000Y-98040001D02*
X98360000Y-100900001D01*
X96440000Y-98040001D02*
X98360000Y-98040001D01*
X96440000Y-100900001D02*
X96440000Y-98040001D01*
%TO.C,D21*%
X148579999Y-45615000D02*
X151439999Y-45615000D01*
X148579999Y-47535000D02*
X148579999Y-45615000D01*
X151439999Y-47535000D02*
X148579999Y-47535000D01*
%TO.C,D14*%
X98360000Y-101765000D02*
X98360000Y-104625000D01*
X96440000Y-101765000D02*
X98360000Y-101765000D01*
X96440000Y-104625000D02*
X96440000Y-101765000D01*
D10*
%TO.C,Y1*%
X161523940Y-116355530D02*
G75*
G03*
X157664225Y-112487444I-9123940J-5244470D01*
G01*
D13*
X162150000Y-121600000D02*
G75*
G03*
X162150000Y-121600000I-9750000J0D01*
G01*
D10*
X157859996Y-112978954D02*
X157664225Y-112487443D01*
X158219206Y-112404218D01*
X157859996Y-112978954D01*
G36*
X157859996Y-112978954D02*
G01*
X157664225Y-112487443D01*
X158219206Y-112404218D01*
X157859996Y-112978954D01*
G37*
D12*
%TO.C,D27*%
X208360000Y-97990002D02*
X208360000Y-100850002D01*
X206440000Y-97990002D02*
X208360000Y-97990002D01*
X206440000Y-100850002D02*
X206440000Y-97990002D01*
%TD*%
M02*
