%TF.GenerationSoftware,KiCad,Pcbnew,7.0.6*%
%TF.CreationDate,2023-08-11T13:22:00+02:00*%
%TF.ProjectId,MagLev,4d61674c-6576-42e6-9b69-6361645f7063,rev?*%
%TF.SameCoordinates,Original*%
%TF.FileFunction,Paste,Top*%
%TF.FilePolarity,Positive*%
%FSLAX46Y46*%
G04 Gerber Fmt 4.6, Leading zero omitted, Abs format (unit mm)*
G04 Created by KiCad (PCBNEW 7.0.6) date 2023-08-11 13:22:00*
%MOMM*%
%LPD*%
G01*
G04 APERTURE LIST*
G04 Aperture macros list*
%AMRoundRect*
0 Rectangle with rounded corners*
0 $1 Rounding radius*
0 $2 $3 $4 $5 $6 $7 $8 $9 X,Y pos of 4 corners*
0 Add a 4 corners polygon primitive as box body*
4,1,4,$2,$3,$4,$5,$6,$7,$8,$9,$2,$3,0*
0 Add four circle primitives for the rounded corners*
1,1,$1+$1,$2,$3*
1,1,$1+$1,$4,$5*
1,1,$1+$1,$6,$7*
1,1,$1+$1,$8,$9*
0 Add four rect primitives between the rounded corners*
20,1,$1+$1,$2,$3,$4,$5,0*
20,1,$1+$1,$4,$5,$6,$7,0*
20,1,$1+$1,$6,$7,$8,$9,0*
20,1,$1+$1,$8,$9,$2,$3,0*%
%AMRotRect*
0 Rectangle, with rotation*
0 The origin of the aperture is its center*
0 $1 length*
0 $2 width*
0 $3 Rotation angle, in degrees counterclockwise*
0 Add horizontal line*
21,1,$1,$2,0,0,$3*%
G04 Aperture macros list end*
%ADD10RoundRect,0.250000X-0.337500X-0.475000X0.337500X-0.475000X0.337500X0.475000X-0.337500X0.475000X0*%
%ADD11RoundRect,0.250000X0.337500X0.475000X-0.337500X0.475000X-0.337500X-0.475000X0.337500X-0.475000X0*%
%ADD12RoundRect,0.250000X-0.475000X0.337500X-0.475000X-0.337500X0.475000X-0.337500X0.475000X0.337500X0*%
%ADD13R,2.000000X1.500000*%
%ADD14R,2.000000X3.800000*%
%ADD15RoundRect,0.250000X-0.325000X-0.450000X0.325000X-0.450000X0.325000X0.450000X-0.325000X0.450000X0*%
%ADD16RoundRect,0.250000X-0.350000X-0.450000X0.350000X-0.450000X0.350000X0.450000X-0.350000X0.450000X0*%
%ADD17RoundRect,0.250000X-0.450000X0.350000X-0.450000X-0.350000X0.450000X-0.350000X0.450000X0.350000X0*%
%ADD18RoundRect,0.250000X1.000000X-2.000000X1.000000X2.000000X-1.000000X2.000000X-1.000000X-2.000000X0*%
%ADD19RoundRect,0.250000X1.275000X1.125000X-1.275000X1.125000X-1.275000X-1.125000X1.275000X-1.125000X0*%
%ADD20RoundRect,0.250000X0.850000X0.350000X-0.850000X0.350000X-0.850000X-0.350000X0.850000X-0.350000X0*%
%ADD21R,3.000000X2.000000*%
%ADD22RoundRect,0.250000X0.070711X-0.565685X0.565685X-0.070711X-0.070711X0.565685X-0.565685X0.070711X0*%
%ADD23RoundRect,0.250000X-0.850000X-0.350000X0.850000X-0.350000X0.850000X0.350000X-0.850000X0.350000X0*%
%ADD24RoundRect,0.250000X-1.275000X-1.125000X1.275000X-1.125000X1.275000X1.125000X-1.275000X1.125000X0*%
%ADD25RoundRect,0.250000X0.350000X0.450000X-0.350000X0.450000X-0.350000X-0.450000X0.350000X-0.450000X0*%
%ADD26RoundRect,0.250000X0.450000X-0.350000X0.450000X0.350000X-0.450000X0.350000X-0.450000X-0.350000X0*%
%ADD27RoundRect,0.250000X0.565685X0.070711X0.070711X0.565685X-0.565685X-0.070711X-0.070711X-0.565685X0*%
%ADD28RoundRect,0.250000X-0.650000X1.500000X-0.650000X-1.500000X0.650000X-1.500000X0.650000X1.500000X0*%
%ADD29R,2.000000X1.600000*%
%ADD30R,2.000000X2.000000*%
%ADD31RoundRect,0.250000X0.475000X-0.337500X0.475000X0.337500X-0.475000X0.337500X-0.475000X-0.337500X0*%
%ADD32RoundRect,0.250000X-0.070711X0.565685X-0.565685X0.070711X0.070711X-0.565685X0.565685X-0.070711X0*%
%ADD33RoundRect,0.150000X0.512500X0.150000X-0.512500X0.150000X-0.512500X-0.150000X0.512500X-0.150000X0*%
%ADD34RoundRect,0.250000X-1.000000X2.000000X-1.000000X-2.000000X1.000000X-2.000000X1.000000X2.000000X0*%
%ADD35R,1.500000X2.000000*%
%ADD36R,3.800000X2.000000*%
%ADD37R,0.900000X2.300000*%
%ADD38R,0.900000X2.475000*%
%ADD39RoundRect,0.250000X-0.565685X-0.070711X-0.070711X-0.565685X0.565685X0.070711X0.070711X0.565685X0*%
%ADD40RoundRect,0.250000X1.308148X0.742462X0.742462X1.308148X-1.308148X-0.742462X-0.742462X-1.308148X0*%
%ADD41RotRect,0.400000X1.400000X225.000000*%
%ADD42RotRect,2.300000X1.900000X225.000000*%
%ADD43RotRect,1.800000X1.900000X225.000000*%
%ADD44R,1.750000X0.450000*%
%ADD45RoundRect,0.250000X-0.097227X0.574524X-0.574524X0.097227X0.097227X-0.574524X0.574524X-0.097227X0*%
%ADD46R,1.600000X0.550000*%
%ADD47R,0.550000X1.600000*%
%ADD48R,1.000000X2.000000*%
%ADD49RoundRect,0.250000X0.574524X0.097227X0.097227X0.574524X-0.574524X-0.097227X-0.097227X-0.574524X0*%
%ADD50RoundRect,0.250000X-0.574524X-0.097227X-0.097227X-0.574524X0.574524X0.097227X0.097227X0.574524X0*%
%ADD51RoundRect,0.150000X-0.512500X-0.150000X0.512500X-0.150000X0.512500X0.150000X-0.512500X0.150000X0*%
%ADD52R,0.700000X1.000000*%
%ADD53R,0.700000X0.600000*%
%ADD54RoundRect,0.250000X1.500000X0.650000X-1.500000X0.650000X-1.500000X-0.650000X1.500000X-0.650000X0*%
%ADD55RotRect,0.700000X1.000000X45.000000*%
%ADD56RotRect,0.700000X0.600000X45.000000*%
%ADD57RoundRect,0.250000X0.650000X-1.500000X0.650000X1.500000X-0.650000X1.500000X-0.650000X-1.500000X0*%
%ADD58RoundRect,0.250000X0.325000X0.450000X-0.325000X0.450000X-0.325000X-0.450000X0.325000X-0.450000X0*%
%ADD59RoundRect,0.150000X-0.825000X-0.150000X0.825000X-0.150000X0.825000X0.150000X-0.825000X0.150000X0*%
%ADD60RoundRect,0.150000X-0.150000X0.587500X-0.150000X-0.587500X0.150000X-0.587500X0.150000X0.587500X0*%
%ADD61R,1.550000X1.300000*%
%ADD62RotRect,2.000000X1.500000X135.000000*%
%ADD63RotRect,2.000000X3.800000X135.000000*%
%ADD64R,2.000000X7.875000*%
%ADD65RoundRect,0.250000X0.097227X-0.574524X0.574524X-0.097227X-0.097227X0.574524X-0.574524X0.097227X0*%
%ADD66R,1.900000X0.800000*%
%ADD67RoundRect,0.150000X-0.689429X0.477297X0.477297X-0.689429X0.689429X-0.477297X-0.477297X0.689429X0*%
%ADD68RoundRect,0.150000X-0.477297X-0.689429X0.689429X0.477297X0.477297X0.689429X-0.689429X-0.477297X0*%
G04 APERTURE END LIST*
D10*
%TO.C,C35*%
X145150000Y-105100000D03*
X147225000Y-105100000D03*
%TD*%
D11*
%TO.C,C34*%
X156150000Y-108600000D03*
X154075000Y-108600000D03*
%TD*%
D10*
%TO.C,C33*%
X156575000Y-104350000D03*
X158650000Y-104350000D03*
%TD*%
D12*
%TO.C,C32*%
X151150000Y-50062500D03*
X151150000Y-52137500D03*
%TD*%
%TO.C,C31*%
X153400000Y-50062500D03*
X153400000Y-52137500D03*
%TD*%
D13*
%TO.C,Q8*%
X112200000Y-120100000D03*
D14*
X105900000Y-120100000D03*
D13*
X112200000Y-122400000D03*
X112200000Y-117800000D03*
%TD*%
D15*
%TO.C,D38*%
X159375000Y-151850000D03*
X161425000Y-151850000D03*
%TD*%
D16*
%TO.C,R57*%
X159400000Y-124000000D03*
X161400000Y-124000000D03*
%TD*%
D17*
%TO.C,R51*%
X192421384Y-102621384D03*
X192421384Y-100621384D03*
%TD*%
D18*
%TO.C,C4*%
X166800000Y-135150000D03*
X166800000Y-127650000D03*
%TD*%
D19*
%TO.C,D34*%
X183096384Y-99396384D03*
X183096384Y-96346384D03*
X179746384Y-99396384D03*
X179746384Y-96346384D03*
D20*
X187721384Y-100151384D03*
X187721384Y-95591384D03*
%TD*%
D12*
%TO.C,C30*%
X114400000Y-96812500D03*
X114400000Y-98887500D03*
%TD*%
D13*
%TO.C,Q1*%
X192100000Y-113200000D03*
D14*
X198400000Y-113200000D03*
D13*
X192100000Y-110900000D03*
X192100000Y-115500000D03*
%TD*%
D21*
%TO.C,J1*%
X147850000Y-47450000D03*
X147850000Y-53450000D03*
X136850000Y-53450000D03*
X136850000Y-47450000D03*
%TD*%
D18*
%TO.C,C23*%
X171000000Y-94750000D03*
X171000000Y-87250000D03*
%TD*%
D22*
%TO.C,R6*%
X183934778Y-131339738D03*
X185348992Y-129925524D03*
%TD*%
D23*
%TO.C,Q13*%
X117200000Y-102700000D03*
D24*
X121825000Y-103455000D03*
X121825000Y-106505000D03*
X125175000Y-103455000D03*
X125175000Y-106505000D03*
D23*
X117200000Y-107260000D03*
%TD*%
D25*
%TO.C,R39*%
X131900000Y-64100000D03*
X129900000Y-64100000D03*
%TD*%
D22*
%TO.C,R8*%
X185334778Y-132739738D03*
X186748992Y-131325524D03*
%TD*%
D26*
%TO.C,R56*%
X162900000Y-59200000D03*
X162900000Y-57200000D03*
%TD*%
D17*
%TO.C,R34*%
X195400000Y-130400000D03*
X195400000Y-132400000D03*
%TD*%
D16*
%TO.C,R15*%
X164000000Y-106700000D03*
X166000000Y-106700000D03*
%TD*%
D13*
%TO.C,Q5*%
X203500000Y-103950000D03*
D14*
X197200000Y-103950000D03*
D13*
X203500000Y-106250000D03*
X203500000Y-101650000D03*
%TD*%
D27*
%TO.C,R31*%
X120591745Y-130894548D03*
X119177531Y-129480334D03*
%TD*%
D28*
%TO.C,D1*%
X188835786Y-111805278D03*
X188835786Y-116805278D03*
%TD*%
D17*
%TO.C,R36*%
X150900000Y-45350000D03*
X150900000Y-47350000D03*
%TD*%
D12*
%TO.C,C29*%
X190150000Y-100100000D03*
X190150000Y-98025000D03*
%TD*%
D24*
%TO.C,D35*%
X121800000Y-96150000D03*
X121800000Y-99200000D03*
X125150000Y-96150000D03*
X125150000Y-99200000D03*
D23*
X117175000Y-95395000D03*
X117175000Y-99955000D03*
%TD*%
D29*
%TO.C,RV2*%
X109096000Y-126165000D03*
D30*
X103000000Y-127340000D03*
D29*
X109096000Y-128515000D03*
%TD*%
D31*
%TO.C,C19*%
X110425000Y-105395000D03*
X110425000Y-103320000D03*
%TD*%
D28*
%TO.C,D5*%
X188256430Y-76000000D03*
X188256430Y-81000000D03*
%TD*%
D32*
%TO.C,R33*%
X177197490Y-139860374D03*
X175783276Y-141274588D03*
%TD*%
D17*
%TO.C,R21*%
X111200000Y-130400000D03*
X111200000Y-128400000D03*
%TD*%
D33*
%TO.C,U13*%
X192337500Y-106350000D03*
X192337500Y-105400000D03*
X192337500Y-104450000D03*
X190062500Y-104450000D03*
X190062500Y-106350000D03*
%TD*%
D34*
%TO.C,C3*%
X157800000Y-127700000D03*
X157800000Y-135200000D03*
%TD*%
D16*
%TO.C,R41*%
X99900000Y-107100000D03*
X101900000Y-107100000D03*
%TD*%
D17*
%TO.C,R68*%
X177500000Y-84500000D03*
X177500000Y-86500000D03*
%TD*%
D35*
%TO.C,U9*%
X152250000Y-59350000D03*
X149950000Y-59350000D03*
D36*
X149950000Y-65650000D03*
D35*
X147650000Y-59350000D03*
%TD*%
D37*
%TO.C,U3*%
X141400000Y-98800000D03*
D38*
X139900000Y-98887500D03*
D37*
X138400000Y-98800000D03*
%TD*%
D12*
%TO.C,C15*%
X149900000Y-69100000D03*
X149900000Y-71175000D03*
%TD*%
D26*
%TO.C,R9*%
X195400000Y-128400000D03*
X195400000Y-126400000D03*
%TD*%
%TO.C,R49*%
X158400000Y-75100000D03*
X158400000Y-73100000D03*
%TD*%
D16*
%TO.C,R27*%
X173200000Y-112700000D03*
X175200000Y-112700000D03*
%TD*%
%TO.C,R63*%
X129900000Y-70350000D03*
X131900000Y-70350000D03*
%TD*%
D34*
%TO.C,C6*%
X146400000Y-127700000D03*
X146400000Y-135200000D03*
%TD*%
D39*
%TO.C,R23*%
X121930842Y-144616125D03*
X123345056Y-146030339D03*
%TD*%
D40*
%TO.C,F1*%
X130223313Y-54673313D03*
X127076687Y-51526687D03*
%TD*%
D25*
%TO.C,R67*%
X181500000Y-86100000D03*
X179500000Y-86100000D03*
%TD*%
D13*
%TO.C,Q9*%
X112199999Y-112900000D03*
D14*
X105899999Y-112900000D03*
D13*
X112199999Y-115200000D03*
X112199999Y-110600000D03*
%TD*%
D15*
%TO.C,D37*%
X143375000Y-151850000D03*
X145425000Y-151850000D03*
%TD*%
D25*
%TO.C,R16*%
X166000000Y-108800000D03*
X164000000Y-108800000D03*
%TD*%
%TO.C,R55*%
X156400000Y-62800000D03*
X154400000Y-62800000D03*
%TD*%
D26*
%TO.C,R25*%
X111200000Y-126599999D03*
X111200000Y-124599999D03*
%TD*%
%TO.C,R64*%
X165400000Y-59200000D03*
X165400000Y-57200000D03*
%TD*%
D22*
%TO.C,R24*%
X124333623Y-136294804D03*
X125747837Y-134880590D03*
%TD*%
D41*
%TO.C,J4*%
X123036143Y-52044365D03*
X122576524Y-52503984D03*
X122116905Y-52963604D03*
X121657285Y-53423223D03*
X121197666Y-53882842D03*
D42*
X122753301Y-48296699D03*
D43*
X120914823Y-50135176D03*
X119288477Y-51761522D03*
D42*
X117450000Y-53600000D03*
%TD*%
D22*
%TO.C,R1*%
X180052433Y-145490712D03*
X181466647Y-144076498D03*
%TD*%
D10*
%TO.C,C11*%
X181862500Y-63100000D03*
X183937500Y-63100000D03*
%TD*%
D11*
%TO.C,C16*%
X145437500Y-59900000D03*
X143362500Y-59900000D03*
%TD*%
D26*
%TO.C,R45*%
X137150000Y-154100000D03*
X137150000Y-152100000D03*
%TD*%
D44*
%TO.C,U8*%
X141600000Y-72100000D03*
X141600000Y-71450000D03*
X141600000Y-70800000D03*
X141600000Y-70150000D03*
X141600000Y-69500000D03*
X141600000Y-68850000D03*
X141600000Y-68200000D03*
X141600000Y-67550000D03*
X141600000Y-66900000D03*
X141600000Y-66250000D03*
X141600000Y-65600000D03*
X141600000Y-64950000D03*
X141600000Y-64300000D03*
X141600000Y-63650000D03*
X134400000Y-63650000D03*
X134400000Y-64300000D03*
X134400000Y-64950000D03*
X134400000Y-65600000D03*
X134400000Y-66250000D03*
X134400000Y-66900000D03*
X134400000Y-67550000D03*
X134400000Y-68200000D03*
X134400000Y-68850000D03*
X134400000Y-69500000D03*
X134400000Y-70150000D03*
X134400000Y-70800000D03*
X134400000Y-71450000D03*
X134400000Y-72100000D03*
%TD*%
D45*
%TO.C,C24*%
X124333623Y-133466377D03*
X122866377Y-134933623D03*
%TD*%
D18*
%TO.C,C22*%
X133800000Y-94750000D03*
X133800000Y-87250000D03*
%TD*%
D46*
%TO.C,U6*%
X172900000Y-71200000D03*
X172900000Y-70400000D03*
X172900000Y-69600000D03*
X172900000Y-68800000D03*
X172900000Y-68000000D03*
X172900000Y-67200000D03*
X172900000Y-66400000D03*
X172900000Y-65600000D03*
D47*
X171450000Y-64150000D03*
X170650000Y-64150000D03*
X169850000Y-64150000D03*
X169050000Y-64150000D03*
X168250000Y-64150000D03*
X167450000Y-64150000D03*
X166650000Y-64150000D03*
X165850000Y-64150000D03*
D46*
X164400000Y-65600000D03*
X164400000Y-66400000D03*
X164400000Y-67200000D03*
X164400000Y-68000000D03*
X164400000Y-68800000D03*
X164400000Y-69600000D03*
X164400000Y-70400000D03*
X164400000Y-71200000D03*
D47*
X165850000Y-72650000D03*
X166650000Y-72650000D03*
X167450000Y-72650000D03*
X168250000Y-72650000D03*
X169050000Y-72650000D03*
X169850000Y-72650000D03*
X170650000Y-72650000D03*
X171450000Y-72650000D03*
%TD*%
D13*
%TO.C,Q7*%
X191500000Y-86900000D03*
D14*
X197800000Y-86900000D03*
D13*
X191500000Y-84600000D03*
X191500000Y-89200000D03*
%TD*%
D48*
%TO.C,J2*%
X170575000Y-54568000D03*
X168035000Y-54600000D03*
X165495000Y-54600000D03*
X162955000Y-54600000D03*
X160415000Y-54600000D03*
X157875000Y-54600000D03*
%TD*%
D28*
%TO.C,D2*%
X188835786Y-121105278D03*
X188835786Y-126105278D03*
%TD*%
D11*
%TO.C,C10*%
X144300000Y-96250000D03*
X142225000Y-96250000D03*
%TD*%
D49*
%TO.C,C18*%
X124785786Y-144642642D03*
X123318540Y-143175396D03*
%TD*%
D12*
%TO.C,C20*%
X194421384Y-106871384D03*
X194421384Y-104796384D03*
%TD*%
D26*
%TO.C,R42*%
X140400000Y-154100000D03*
X140400000Y-152100000D03*
%TD*%
D39*
%TO.C,R28*%
X113520677Y-135137187D03*
X114934891Y-136551401D03*
%TD*%
D50*
%TO.C,C26*%
X114908375Y-133696458D03*
X116375621Y-135163704D03*
%TD*%
D25*
%TO.C,R66*%
X181500000Y-84000000D03*
X179500000Y-84000000D03*
%TD*%
D51*
%TO.C,U14*%
X112537500Y-103945000D03*
X112537500Y-104895000D03*
X112537500Y-105845000D03*
X114812500Y-105845000D03*
X114812500Y-103945000D03*
%TD*%
D26*
%TO.C,R35*%
X152400000Y-75100000D03*
X152400000Y-73100000D03*
%TD*%
D39*
%TO.C,R19*%
X127614214Y-138985787D03*
X129028428Y-140400001D03*
%TD*%
D52*
%TO.C,D32*%
X172400000Y-58800000D03*
D53*
X172400000Y-57100000D03*
X170400000Y-57100000D03*
X170400000Y-59000000D03*
%TD*%
D54*
%TO.C,D9*%
X139900000Y-108600000D03*
X134900000Y-108600000D03*
%TD*%
D16*
%TO.C,R0*%
X107900000Y-96500000D03*
X109900000Y-96500000D03*
%TD*%
D55*
%TO.C,D29*%
X123197918Y-57647919D03*
D56*
X124400000Y-58850000D03*
X125814213Y-57435787D03*
X124470710Y-56092284D03*
%TD*%
D12*
%TO.C,C17*%
X145150000Y-62812500D03*
X145150000Y-64887500D03*
%TD*%
D32*
%TO.C,R50*%
X132132107Y-48817893D03*
X130717893Y-50232107D03*
%TD*%
D16*
%TO.C,R62*%
X129900000Y-68350000D03*
X131900000Y-68350000D03*
%TD*%
D15*
%TO.C,DS1*%
X107875000Y-98600000D03*
X109925000Y-98600000D03*
%TD*%
D11*
%TO.C,C2*%
X151162500Y-138400000D03*
X149087500Y-138400000D03*
%TD*%
D25*
%TO.C,R46*%
X206900000Y-87600000D03*
X204900000Y-87600000D03*
%TD*%
D13*
%TO.C,Q3*%
X112900000Y-90000000D03*
D14*
X106600000Y-90000000D03*
D13*
X112900000Y-92300000D03*
X112900000Y-87700000D03*
%TD*%
D57*
%TO.C,D4*%
X116100000Y-82199999D03*
X116100000Y-77199999D03*
%TD*%
D52*
%TO.C,D31*%
X157400000Y-65400000D03*
D53*
X157400000Y-67100000D03*
X159400000Y-67100000D03*
X159400000Y-65200000D03*
%TD*%
D22*
%TO.C,R98*%
X181466648Y-146904924D03*
X182880862Y-145490710D03*
%TD*%
D58*
%TO.C,D40*%
X124925000Y-70700000D03*
X122875000Y-70700000D03*
%TD*%
D25*
%TO.C,R58*%
X140800000Y-124000000D03*
X138800000Y-124000000D03*
%TD*%
D52*
%TO.C,D30*%
X169150000Y-58800000D03*
D53*
X169150000Y-57100000D03*
X167150000Y-57100000D03*
X167150000Y-59000000D03*
%TD*%
D28*
%TO.C,D11*%
X200900000Y-81500000D03*
X200900000Y-86500000D03*
%TD*%
D27*
%TO.C,R11*%
X181632107Y-135007107D03*
X180217893Y-133592893D03*
%TD*%
D59*
%TO.C,U5*%
X169125000Y-106895000D03*
X169125000Y-108165000D03*
X169125000Y-109435000D03*
X169125000Y-110705000D03*
X174075000Y-110705000D03*
X174075000Y-109435000D03*
X174075000Y-108165000D03*
X174075000Y-106895000D03*
%TD*%
D10*
%TO.C,C12*%
X181862500Y-65100000D03*
X183937500Y-65100000D03*
%TD*%
D13*
%TO.C,Q4*%
X112900000Y-82550000D03*
D14*
X106600000Y-82550000D03*
D13*
X112900000Y-84850000D03*
X112900000Y-80250000D03*
%TD*%
%TO.C,Q2*%
X192100000Y-120762237D03*
D14*
X198400000Y-120762237D03*
D13*
X192100000Y-118462237D03*
X192100000Y-123062237D03*
%TD*%
D16*
%TO.C,R18*%
X149162500Y-140400000D03*
X151162500Y-140400000D03*
%TD*%
D17*
%TO.C,R37*%
X152900000Y-45350000D03*
X152900000Y-47350000D03*
%TD*%
D60*
%TO.C,Q11*%
X181450000Y-80025000D03*
X179550000Y-80025000D03*
X180500000Y-81900000D03*
%TD*%
D26*
%TO.C,R48*%
X156400000Y-75100000D03*
X156400000Y-73100000D03*
%TD*%
D11*
%TO.C,C14*%
X131975000Y-66100000D03*
X129900000Y-66100000D03*
%TD*%
D13*
%TO.C,Q6*%
X191500000Y-79650000D03*
D14*
X197800000Y-79650000D03*
D13*
X191500000Y-77350000D03*
X191500000Y-81950000D03*
%TD*%
D17*
%TO.C,R2*%
X108175000Y-103395000D03*
X108175000Y-105395000D03*
%TD*%
D58*
%TO.C,D39*%
X124925000Y-68350000D03*
X122875000Y-68350000D03*
%TD*%
D25*
%TO.C,R40*%
X181500000Y-77800000D03*
X179500000Y-77800000D03*
%TD*%
D39*
%TO.C,R29*%
X116349105Y-132308760D03*
X117763319Y-133722974D03*
%TD*%
D25*
%TO.C,R60*%
X183900000Y-61000000D03*
X181900000Y-61000000D03*
%TD*%
D32*
%TO.C,R4*%
X175809793Y-138419644D03*
X174395579Y-139833858D03*
%TD*%
D50*
%TO.C,C25*%
X178716377Y-135000716D03*
X180183623Y-136467962D03*
%TD*%
D25*
%TO.C,R26*%
X155162500Y-140400000D03*
X153162500Y-140400000D03*
%TD*%
%TO.C,R54*%
X144600000Y-124000000D03*
X142600000Y-124000000D03*
%TD*%
D12*
%TO.C,C13*%
X162150000Y-66525000D03*
X162150000Y-68600000D03*
%TD*%
D16*
%TO.C,R44*%
X99900000Y-103350000D03*
X101900000Y-103350000D03*
%TD*%
D39*
%TO.C,R32*%
X124759270Y-141787698D03*
X126173484Y-143201912D03*
%TD*%
D26*
%TO.C,R14*%
X157000000Y-144400000D03*
X157000000Y-142400000D03*
%TD*%
D57*
%TO.C,D7*%
X116400000Y-125300000D03*
X116400000Y-120300000D03*
%TD*%
D49*
%TO.C,C8*%
X121930843Y-147444551D03*
X120463597Y-145977305D03*
%TD*%
D10*
%TO.C,C9*%
X138425000Y-96250000D03*
X140500000Y-96250000D03*
%TD*%
D61*
%TO.C,RESET1*%
X189960000Y-71870000D03*
X182000000Y-71870000D03*
X189960000Y-67370000D03*
X182000000Y-67370000D03*
%TD*%
D22*
%TO.C,R10*%
X177197489Y-142688801D03*
X178611703Y-141274587D03*
%TD*%
D13*
%TO.C,Q18*%
X203499999Y-96450000D03*
D14*
X197199999Y-96450000D03*
D13*
X203499999Y-98750000D03*
X203499999Y-94150000D03*
%TD*%
D62*
%TO.C,Q10*%
X109068880Y-74039696D03*
D63*
X104614108Y-69584924D03*
D62*
X107442535Y-75666042D03*
X110695226Y-72413351D03*
%TD*%
D45*
%TO.C,C21*%
X189612774Y-134118596D03*
X188145528Y-135585842D03*
%TD*%
%TO.C,C1*%
X192405847Y-136982380D03*
X190938601Y-138449626D03*
%TD*%
D57*
%TO.C,D8*%
X116400000Y-116200000D03*
X116400000Y-111200000D03*
%TD*%
D22*
%TO.C,R22*%
X189588101Y-136985830D03*
X191002315Y-135571616D03*
%TD*%
D25*
%TO.C,R47*%
X179900000Y-75600000D03*
X177900000Y-75600000D03*
%TD*%
D29*
%TO.C,RV1*%
X197800000Y-130550000D03*
D30*
X203896000Y-129375000D03*
D29*
X197800000Y-128200000D03*
%TD*%
D16*
%TO.C,R59*%
X163200000Y-124050000D03*
X165200000Y-124050000D03*
%TD*%
D18*
%TO.C,C7*%
X137400000Y-135100000D03*
X137400000Y-127600000D03*
%TD*%
D26*
%TO.C,R12*%
X154400000Y-75100000D03*
X154400000Y-73100000D03*
%TD*%
D39*
%TO.C,R20*%
X126200000Y-140400000D03*
X127614214Y-141814214D03*
%TD*%
D25*
%TO.C,R43*%
X206900000Y-84100000D03*
X204900000Y-84100000D03*
%TD*%
D57*
%TO.C,D10*%
X193400000Y-73100000D03*
X193400000Y-68100000D03*
%TD*%
D26*
%TO.C,R53*%
X160400000Y-59200000D03*
X160400000Y-57200000D03*
%TD*%
%TO.C,R7*%
X149362500Y-144400000D03*
X149362500Y-142400000D03*
%TD*%
%TO.C,R17*%
X165900000Y-104700000D03*
X165900000Y-102700000D03*
%TD*%
D22*
%TO.C,R13*%
X182880862Y-148319138D03*
X184295076Y-146904924D03*
%TD*%
D26*
%TO.C,R52*%
X157900000Y-59200000D03*
X157900000Y-57200000D03*
%TD*%
D64*
%TO.C,Y3*%
X178150000Y-58162500D03*
X178150000Y-70037500D03*
%TD*%
D27*
%TO.C,R30*%
X119177532Y-132308760D03*
X117763318Y-130894546D03*
%TD*%
D62*
%TO.C,Q14*%
X116776345Y-66473654D03*
D63*
X112321573Y-62018882D03*
D62*
X115150000Y-68100000D03*
X118402691Y-64847309D03*
%TD*%
D65*
%TO.C,C27*%
X178585187Y-144129531D03*
X180052433Y-142662285D03*
%TD*%
D66*
%TO.C,U4*%
X151762500Y-142450000D03*
X151762500Y-144350000D03*
X154762500Y-143400000D03*
%TD*%
D67*
%TO.C,U2*%
X120499822Y-135299822D03*
X119601796Y-136197847D03*
X118703770Y-137095873D03*
X117805745Y-137993899D03*
X116907719Y-138891924D03*
X116009693Y-139789950D03*
X115111668Y-140687976D03*
X118611846Y-144188154D03*
X119509872Y-143290129D03*
X120407898Y-142392103D03*
X121305923Y-141494077D03*
X122203949Y-140596052D03*
X123101975Y-139698026D03*
X124000000Y-138800000D03*
%TD*%
D10*
%TO.C,C5*%
X153125000Y-138400000D03*
X155200000Y-138400000D03*
%TD*%
D68*
%TO.C,U1*%
X180416594Y-138607027D03*
X181314619Y-139505053D03*
X182212645Y-140403079D03*
X183110671Y-141301104D03*
X184008696Y-142199130D03*
X184906722Y-143097156D03*
X185804748Y-143995181D03*
X189304926Y-140495003D03*
X188406901Y-139596977D03*
X187508875Y-138698951D03*
X186610849Y-137800926D03*
X185712824Y-136902900D03*
X184814798Y-136004874D03*
X183916772Y-135106849D03*
%TD*%
D22*
%TO.C,R5*%
X186748993Y-134153950D03*
X188163207Y-132739736D03*
%TD*%
D16*
%TO.C,R38*%
X129900000Y-62100000D03*
X131900000Y-62100000D03*
%TD*%
D57*
%TO.C,D3*%
X116100000Y-91500001D03*
X116100000Y-86500001D03*
%TD*%
D54*
%TO.C,D28*%
X140300000Y-59600000D03*
X135300000Y-59600000D03*
%TD*%
D39*
%TO.C,R3*%
X110692893Y-137942893D03*
X112107107Y-139357107D03*
%TD*%
%TO.C,R99*%
X112106463Y-136551401D03*
X113520677Y-137965615D03*
%TD*%
D31*
%TO.C,C28*%
X143900000Y-69925000D03*
X143900000Y-67850000D03*
%TD*%
D25*
%TO.C,R61*%
X183900000Y-59000000D03*
X181900000Y-59000000D03*
%TD*%
D28*
%TO.C,D6*%
X188256430Y-85200000D03*
X188256430Y-90200000D03*
%TD*%
D20*
%TO.C,Q12*%
X187731384Y-107401384D03*
D19*
X183106384Y-106646384D03*
X183106384Y-103596384D03*
X179756384Y-106646384D03*
X179756384Y-103596384D03*
D20*
X187731384Y-102841384D03*
%TD*%
M02*
