%TF.GenerationSoftware,KiCad,Pcbnew,7.0.6*%
%TF.CreationDate,2023-10-06T12:50:56+02:00*%
%TF.ProjectId,MagLev,4d61674c-6576-42e6-9b69-6361645f7063,V1.0*%
%TF.SameCoordinates,Original*%
%TF.FileFunction,Copper,L1,Top*%
%TF.FilePolarity,Positive*%
%FSLAX46Y46*%
G04 Gerber Fmt 4.6, Leading zero omitted, Abs format (unit mm)*
G04 Created by KiCad (PCBNEW 7.0.6) date 2023-10-06 12:50:56*
%MOMM*%
%LPD*%
G01*
G04 APERTURE LIST*
G04 Aperture macros list*
%AMRoundRect*
0 Rectangle with rounded corners*
0 $1 Rounding radius*
0 $2 $3 $4 $5 $6 $7 $8 $9 X,Y pos of 4 corners*
0 Add a 4 corners polygon primitive as box body*
4,1,4,$2,$3,$4,$5,$6,$7,$8,$9,$2,$3,0*
0 Add four circle primitives for the rounded corners*
1,1,$1+$1,$2,$3*
1,1,$1+$1,$4,$5*
1,1,$1+$1,$6,$7*
1,1,$1+$1,$8,$9*
0 Add four rect primitives between the rounded corners*
20,1,$1+$1,$2,$3,$4,$5,0*
20,1,$1+$1,$4,$5,$6,$7,0*
20,1,$1+$1,$6,$7,$8,$9,0*
20,1,$1+$1,$8,$9,$2,$3,0*%
%AMRotRect*
0 Rectangle, with rotation*
0 The origin of the aperture is its center*
0 $1 length*
0 $2 width*
0 $3 Rotation angle, in degrees counterclockwise*
0 Add horizontal line*
21,1,$1,$2,0,0,$3*%
G04 Aperture macros list end*
%TA.AperFunction,SMDPad,CuDef*%
%ADD10C,2.000000*%
%TD*%
%TA.AperFunction,SMDPad,CuDef*%
%ADD11R,2.000000X1.500000*%
%TD*%
%TA.AperFunction,SMDPad,CuDef*%
%ADD12R,2.000000X3.800000*%
%TD*%
%TA.AperFunction,SMDPad,CuDef*%
%ADD13RoundRect,0.250000X0.565685X0.070711X0.070711X0.565685X-0.565685X-0.070711X-0.070711X-0.565685X0*%
%TD*%
%TA.AperFunction,SMDPad,CuDef*%
%ADD14RoundRect,0.250000X-0.337500X-0.475000X0.337500X-0.475000X0.337500X0.475000X-0.337500X0.475000X0*%
%TD*%
%TA.AperFunction,SMDPad,CuDef*%
%ADD15RoundRect,0.250000X-0.350000X-0.450000X0.350000X-0.450000X0.350000X0.450000X-0.350000X0.450000X0*%
%TD*%
%TA.AperFunction,SMDPad,CuDef*%
%ADD16RoundRect,0.250000X-0.450000X0.350000X-0.450000X-0.350000X0.450000X-0.350000X0.450000X0.350000X0*%
%TD*%
%TA.AperFunction,SMDPad,CuDef*%
%ADD17RoundRect,0.250000X1.000000X-2.000000X1.000000X2.000000X-1.000000X2.000000X-1.000000X-2.000000X0*%
%TD*%
%TA.AperFunction,SMDPad,CuDef*%
%ADD18RoundRect,0.250000X1.275000X1.125000X-1.275000X1.125000X-1.275000X-1.125000X1.275000X-1.125000X0*%
%TD*%
%TA.AperFunction,SMDPad,CuDef*%
%ADD19RoundRect,0.249997X2.950003X2.650003X-2.950003X2.650003X-2.950003X-2.650003X2.950003X-2.650003X0*%
%TD*%
%TA.AperFunction,SMDPad,CuDef*%
%ADD20RoundRect,0.250000X0.850000X0.350000X-0.850000X0.350000X-0.850000X-0.350000X0.850000X-0.350000X0*%
%TD*%
%TA.AperFunction,SMDPad,CuDef*%
%ADD21RoundRect,0.250000X-0.475000X0.337500X-0.475000X-0.337500X0.475000X-0.337500X0.475000X0.337500X0*%
%TD*%
%TA.AperFunction,SMDPad,CuDef*%
%ADD22R,3.000000X2.000000*%
%TD*%
%TA.AperFunction,SMDPad,CuDef*%
%ADD23RotRect,2.000000X1.500000X135.000000*%
%TD*%
%TA.AperFunction,SMDPad,CuDef*%
%ADD24RotRect,2.000000X3.800000X135.000000*%
%TD*%
%TA.AperFunction,SMDPad,CuDef*%
%ADD25RoundRect,0.250000X-0.088388X0.548008X-0.548008X0.088388X0.088388X-0.548008X0.548008X-0.088388X0*%
%TD*%
%TA.AperFunction,SMDPad,CuDef*%
%ADD26RoundRect,0.250000X0.350000X0.450000X-0.350000X0.450000X-0.350000X-0.450000X0.350000X-0.450000X0*%
%TD*%
%TA.AperFunction,SMDPad,CuDef*%
%ADD27RoundRect,0.250000X0.070711X-0.565685X0.565685X-0.070711X-0.070711X0.565685X-0.565685X0.070711X0*%
%TD*%
%TA.AperFunction,SMDPad,CuDef*%
%ADD28RoundRect,0.250000X0.548008X0.088388X0.088388X0.548008X-0.548008X-0.088388X-0.088388X-0.548008X0*%
%TD*%
%TA.AperFunction,SMDPad,CuDef*%
%ADD29RoundRect,0.250000X-0.850000X-0.350000X0.850000X-0.350000X0.850000X0.350000X-0.850000X0.350000X0*%
%TD*%
%TA.AperFunction,SMDPad,CuDef*%
%ADD30RoundRect,0.250000X-1.275000X-1.125000X1.275000X-1.125000X1.275000X1.125000X-1.275000X1.125000X0*%
%TD*%
%TA.AperFunction,SMDPad,CuDef*%
%ADD31RoundRect,0.249997X-2.950003X-2.650003X2.950003X-2.650003X2.950003X2.650003X-2.950003X2.650003X0*%
%TD*%
%TA.AperFunction,SMDPad,CuDef*%
%ADD32RoundRect,0.250000X0.450000X-0.350000X0.450000X0.350000X-0.450000X0.350000X-0.450000X-0.350000X0*%
%TD*%
%TA.AperFunction,SMDPad,CuDef*%
%ADD33RoundRect,0.250000X-0.650000X1.500000X-0.650000X-1.500000X0.650000X-1.500000X0.650000X1.500000X0*%
%TD*%
%TA.AperFunction,ComponentPad*%
%ADD34C,6.400000*%
%TD*%
%TA.AperFunction,SMDPad,CuDef*%
%ADD35RoundRect,0.250000X0.088388X-0.548008X0.548008X-0.088388X-0.088388X0.548008X-0.548008X0.088388X0*%
%TD*%
%TA.AperFunction,SMDPad,CuDef*%
%ADD36R,1.600000X2.000000*%
%TD*%
%TA.AperFunction,SMDPad,CuDef*%
%ADD37R,2.000000X2.000000*%
%TD*%
%TA.AperFunction,SMDPad,CuDef*%
%ADD38RoundRect,0.250000X0.475000X-0.337500X0.475000X0.337500X-0.475000X0.337500X-0.475000X-0.337500X0*%
%TD*%
%TA.AperFunction,SMDPad,CuDef*%
%ADD39RoundRect,0.250000X-0.070711X0.565685X-0.565685X0.070711X0.070711X-0.565685X0.565685X-0.070711X0*%
%TD*%
%TA.AperFunction,SMDPad,CuDef*%
%ADD40RoundRect,0.150000X0.512500X0.150000X-0.512500X0.150000X-0.512500X-0.150000X0.512500X-0.150000X0*%
%TD*%
%TA.AperFunction,SMDPad,CuDef*%
%ADD41RoundRect,0.250000X-1.000000X2.000000X-1.000000X-2.000000X1.000000X-2.000000X1.000000X2.000000X0*%
%TD*%
%TA.AperFunction,SMDPad,CuDef*%
%ADD42R,1.500000X2.000000*%
%TD*%
%TA.AperFunction,SMDPad,CuDef*%
%ADD43R,3.800000X2.000000*%
%TD*%
%TA.AperFunction,SMDPad,CuDef*%
%ADD44R,0.900000X2.300000*%
%TD*%
%TA.AperFunction,SMDPad,CuDef*%
%ADD45R,0.900000X2.475000*%
%TD*%
%TA.AperFunction,SMDPad,CuDef*%
%ADD46RoundRect,0.250000X-0.565685X-0.070711X-0.070711X-0.565685X0.565685X0.070711X0.070711X0.565685X0*%
%TD*%
%TA.AperFunction,SMDPad,CuDef*%
%ADD47RoundRect,0.250000X1.308148X0.742462X0.742462X1.308148X-1.308148X-0.742462X-0.742462X-1.308148X0*%
%TD*%
%TA.AperFunction,SMDPad,CuDef*%
%ADD48RotRect,0.400000X1.400000X225.000000*%
%TD*%
%TA.AperFunction,SMDPad,CuDef*%
%ADD49RotRect,2.300000X1.900000X225.000000*%
%TD*%
%TA.AperFunction,SMDPad,CuDef*%
%ADD50RotRect,1.800000X1.900000X225.000000*%
%TD*%
%TA.AperFunction,SMDPad,CuDef*%
%ADD51RoundRect,0.250000X-0.548008X-0.088388X-0.088388X-0.548008X0.548008X0.088388X0.088388X0.548008X0*%
%TD*%
%TA.AperFunction,SMDPad,CuDef*%
%ADD52RoundRect,0.250000X0.337500X0.475000X-0.337500X0.475000X-0.337500X-0.475000X0.337500X-0.475000X0*%
%TD*%
%TA.AperFunction,SMDPad,CuDef*%
%ADD53R,1.750000X0.450000*%
%TD*%
%TA.AperFunction,SMDPad,CuDef*%
%ADD54RoundRect,0.250000X-0.450000X0.325000X-0.450000X-0.325000X0.450000X-0.325000X0.450000X0.325000X0*%
%TD*%
%TA.AperFunction,SMDPad,CuDef*%
%ADD55RoundRect,0.250000X-0.097227X0.574524X-0.574524X0.097227X0.097227X-0.574524X0.574524X-0.097227X0*%
%TD*%
%TA.AperFunction,SMDPad,CuDef*%
%ADD56R,1.600000X0.550000*%
%TD*%
%TA.AperFunction,SMDPad,CuDef*%
%ADD57R,0.550000X1.600000*%
%TD*%
%TA.AperFunction,SMDPad,CuDef*%
%ADD58RoundRect,0.250000X0.450000X-0.325000X0.450000X0.325000X-0.450000X0.325000X-0.450000X-0.325000X0*%
%TD*%
%TA.AperFunction,SMDPad,CuDef*%
%ADD59R,1.000000X2.000000*%
%TD*%
%TA.AperFunction,SMDPad,CuDef*%
%ADD60RoundRect,0.250000X0.574524X0.097227X0.097227X0.574524X-0.574524X-0.097227X-0.097227X-0.574524X0*%
%TD*%
%TA.AperFunction,SMDPad,CuDef*%
%ADD61RoundRect,0.250000X-0.574524X-0.097227X-0.097227X-0.574524X0.574524X0.097227X0.097227X0.574524X0*%
%TD*%
%TA.AperFunction,SMDPad,CuDef*%
%ADD62RoundRect,0.150000X-0.512500X-0.150000X0.512500X-0.150000X0.512500X0.150000X-0.512500X0.150000X0*%
%TD*%
%TA.AperFunction,SMDPad,CuDef*%
%ADD63R,0.700000X1.000000*%
%TD*%
%TA.AperFunction,SMDPad,CuDef*%
%ADD64R,0.700000X0.600000*%
%TD*%
%TA.AperFunction,SMDPad,CuDef*%
%ADD65RoundRect,0.250000X1.500000X0.650000X-1.500000X0.650000X-1.500000X-0.650000X1.500000X-0.650000X0*%
%TD*%
%TA.AperFunction,SMDPad,CuDef*%
%ADD66RotRect,0.700000X1.000000X135.000000*%
%TD*%
%TA.AperFunction,SMDPad,CuDef*%
%ADD67RotRect,0.700000X0.600000X135.000000*%
%TD*%
%TA.AperFunction,SMDPad,CuDef*%
%ADD68RoundRect,0.250000X-0.325000X-0.450000X0.325000X-0.450000X0.325000X0.450000X-0.325000X0.450000X0*%
%TD*%
%TA.AperFunction,SMDPad,CuDef*%
%ADD69RoundRect,0.250000X0.650000X-1.500000X0.650000X1.500000X-0.650000X1.500000X-0.650000X-1.500000X0*%
%TD*%
%TA.AperFunction,SMDPad,CuDef*%
%ADD70RoundRect,0.250000X0.325000X0.450000X-0.325000X0.450000X-0.325000X-0.450000X0.325000X-0.450000X0*%
%TD*%
%TA.AperFunction,SMDPad,CuDef*%
%ADD71RoundRect,0.150000X-0.825000X-0.150000X0.825000X-0.150000X0.825000X0.150000X-0.825000X0.150000X0*%
%TD*%
%TA.AperFunction,SMDPad,CuDef*%
%ADD72RoundRect,0.150000X-0.150000X0.587500X-0.150000X-0.587500X0.150000X-0.587500X0.150000X0.587500X0*%
%TD*%
%TA.AperFunction,SMDPad,CuDef*%
%ADD73R,1.550000X1.300000*%
%TD*%
%TA.AperFunction,SMDPad,CuDef*%
%ADD74R,2.000000X7.875000*%
%TD*%
%TA.AperFunction,SMDPad,CuDef*%
%ADD75RoundRect,0.250000X0.097227X-0.574524X0.574524X-0.097227X-0.097227X0.574524X-0.574524X0.097227X0*%
%TD*%
%TA.AperFunction,SMDPad,CuDef*%
%ADD76R,1.900000X0.800000*%
%TD*%
%TA.AperFunction,SMDPad,CuDef*%
%ADD77RoundRect,0.150000X-0.689429X0.477297X0.477297X-0.689429X0.689429X-0.477297X-0.477297X0.689429X0*%
%TD*%
%TA.AperFunction,SMDPad,CuDef*%
%ADD78RoundRect,0.150000X-0.477297X-0.689429X0.689429X0.477297X0.477297X0.689429X-0.689429X-0.477297X0*%
%TD*%
%TA.AperFunction,ComponentPad*%
%ADD79C,8.000000*%
%TD*%
%TA.AperFunction,ComponentPad*%
%ADD80RotRect,2.000000X2.000000X315.000000*%
%TD*%
%TA.AperFunction,ComponentPad*%
%ADD81C,2.000000*%
%TD*%
%TA.AperFunction,ComponentPad*%
%ADD82RoundRect,0.249900X0.275100X0.400100X-0.275100X0.400100X-0.275100X-0.400100X0.275100X-0.400100X0*%
%TD*%
%TA.AperFunction,ComponentPad*%
%ADD83O,1.050000X1.300000*%
%TD*%
%TA.AperFunction,ComponentPad*%
%ADD84RotRect,2.000000X2.000000X45.000000*%
%TD*%
%TA.AperFunction,ComponentPad*%
%ADD85RotRect,2.000000X2.000000X225.000000*%
%TD*%
%TA.AperFunction,ComponentPad*%
%ADD86RotRect,2.000000X2.000000X135.000000*%
%TD*%
%TA.AperFunction,ComponentPad*%
%ADD87RoundRect,0.249900X0.400100X-0.275100X0.400100X0.275100X-0.400100X0.275100X-0.400100X-0.275100X0*%
%TD*%
%TA.AperFunction,ComponentPad*%
%ADD88O,1.300000X1.050000*%
%TD*%
%TA.AperFunction,ComponentPad*%
%ADD89RoundRect,0.249900X-0.400100X0.275100X-0.400100X-0.275100X0.400100X-0.275100X0.400100X0.275100X0*%
%TD*%
%TA.AperFunction,ViaPad*%
%ADD90C,0.800000*%
%TD*%
%TA.AperFunction,ViaPad*%
%ADD91C,2.000000*%
%TD*%
%TA.AperFunction,ViaPad*%
%ADD92C,1.000000*%
%TD*%
%TA.AperFunction,Conductor*%
%ADD93C,0.300000*%
%TD*%
%TA.AperFunction,Conductor*%
%ADD94C,1.000000*%
%TD*%
%TA.AperFunction,Conductor*%
%ADD95C,0.200000*%
%TD*%
%TA.AperFunction,Conductor*%
%ADD96C,2.000000*%
%TD*%
%TA.AperFunction,Conductor*%
%ADD97C,0.500000*%
%TD*%
G04 APERTURE END LIST*
%TA.AperFunction,EtchedComponent*%
%TO.C,U3*%
G36*
X140766500Y-100538800D02*
G01*
X139033500Y-100538800D01*
X139450000Y-100125000D01*
X140350000Y-100125000D01*
X140766500Y-100538800D01*
G37*
%TD.AperFunction*%
%TA.AperFunction,EtchedComponent*%
G36*
X140766500Y-103749400D02*
G01*
X139033500Y-103749400D01*
X139033500Y-100538800D01*
X140766500Y-100538800D01*
X140766500Y-103749400D01*
G37*
%TD.AperFunction*%
%TD*%
D10*
%TO.P,TP7,1,1*%
%TO.N,/H2*%
X152000000Y-112700000D03*
%TD*%
D11*
%TO.P,Q8,1,C*%
%TO.N,/DR*%
X112200000Y-120100000D03*
D12*
X105900000Y-120100000D03*
D11*
%TO.P,Q8,2,B*%
%TO.N,Net-(Q8-B)*%
X112200000Y-122400000D03*
%TO.P,Q8,3,E*%
%TO.N,/X2*%
X112200000Y-117800000D03*
%TD*%
D13*
%TO.P,R73,1*%
%TO.N,Net-(D49-A)*%
X197657107Y-72707107D03*
%TO.P,R73,2*%
%TO.N,VCC*%
X196242893Y-71292893D03*
%TD*%
D14*
%TO.P,C35,1*%
%TO.N,/Vreg*%
X145150000Y-105100000D03*
%TO.P,C35,2*%
%TO.N,GND*%
X147225000Y-105100000D03*
%TD*%
D15*
%TO.P,R57,1*%
%TO.N,/Vref+*%
X159400000Y-124000000D03*
%TO.P,R57,2*%
%TO.N,Net-(U1B-+)*%
X161400000Y-124000000D03*
%TD*%
D16*
%TO.P,R51,1*%
%TO.N,/CoilPWM*%
X192421384Y-100621384D03*
%TO.P,R51,2*%
%TO.N,Net-(U13-IN)*%
X192421384Y-102621384D03*
%TD*%
D17*
%TO.P,C4,1*%
%TO.N,Net-(U1B-+)*%
X166800000Y-135150000D03*
%TO.P,C4,2*%
%TO.N,/Vref-*%
X166800000Y-127650000D03*
%TD*%
D18*
%TO.P,D34,1,K*%
%TO.N,VCC*%
X183096384Y-99396384D03*
X183096384Y-96346384D03*
D19*
X181421384Y-97871384D03*
D18*
X179746384Y-99396384D03*
X179746384Y-96346384D03*
D20*
%TO.P,D34,2,A*%
%TO.N,Net-(D34-A)*%
X187721384Y-100151384D03*
X187721384Y-95591384D03*
%TD*%
D21*
%TO.P,C30,1*%
%TO.N,VCC*%
X114400000Y-96812500D03*
%TO.P,C30,2*%
%TO.N,GND*%
X114400000Y-98887500D03*
%TD*%
D13*
%TO.P,R71,1*%
%TO.N,Net-(D43-A)*%
X107107107Y-127107107D03*
%TO.P,R71,2*%
%TO.N,VCC*%
X105692893Y-125692893D03*
%TD*%
D11*
%TO.P,Q1,1,C*%
%TO.N,/DR*%
X192100000Y-113200000D03*
D12*
X198400000Y-113200000D03*
D11*
%TO.P,Q1,2,B*%
%TO.N,Net-(Q1-B)*%
X192100000Y-110900000D03*
%TO.P,Q1,3,E*%
%TO.N,/Y1*%
X192100000Y-115500000D03*
%TD*%
D22*
%TO.P,J1,1*%
%TO.N,VCC*%
X147850000Y-47450000D03*
X147850000Y-53450000D03*
%TO.P,J1,2*%
%TO.N,GND*%
X136850000Y-53450000D03*
%TO.P,J1,3*%
X136850000Y-47450000D03*
%TD*%
D17*
%TO.P,C23,1*%
%TO.N,VCC*%
X171000000Y-94750000D03*
%TO.P,C23,2*%
%TO.N,GND*%
X171000000Y-87250000D03*
%TD*%
D23*
%TO.P,Q14,1,C*%
%TO.N,Net-(D21-K)*%
X119527386Y-63527386D03*
D24*
X115072614Y-59072614D03*
D23*
%TO.P,Q14,2,B*%
%TO.N,Net-(Q14-B)*%
X117901041Y-65153732D03*
%TO.P,Q14,3,E*%
%TO.N,GND*%
X121153732Y-61901041D03*
%TD*%
D25*
%TO.P,D38,1,K*%
%TO.N,Net-(D36-K)*%
X196224784Y-128475216D03*
%TO.P,D38,2,A*%
%TO.N,Net-(D37-K)*%
X194775216Y-129924784D03*
%TD*%
D26*
%TO.P,R61,1*%
%TO.N,Net-(D47-A)*%
X206950000Y-83575000D03*
%TO.P,R61,2*%
%TO.N,VCC*%
X204950000Y-83575000D03*
%TD*%
D27*
%TO.P,R6,1*%
%TO.N,Net-(C25-Pad1)*%
X179859337Y-126810757D03*
%TO.P,R6,2*%
%TO.N,Net-(U1D--)*%
X181273551Y-125396543D03*
%TD*%
D26*
%TO.P,R46,1*%
%TO.N,Net-(D18-A)*%
X206925000Y-87600000D03*
%TO.P,R46,2*%
%TO.N,VCC*%
X204925000Y-87600000D03*
%TD*%
D28*
%TO.P,D43,1,K*%
%TO.N,Net-(D43-K)*%
X110024784Y-129924784D03*
%TO.P,D43,2,A*%
%TO.N,Net-(D43-A)*%
X108575216Y-128475216D03*
%TD*%
D29*
%TO.P,Q13,1,G*%
%TO.N,Net-(Q13-G)*%
X117200000Y-102700000D03*
D30*
%TO.P,Q13,2,D*%
%TO.N,Net-(D35-A)*%
X121825000Y-103455000D03*
X121825000Y-106505000D03*
D31*
X123500000Y-104980000D03*
D30*
X125175000Y-103455000D03*
X125175000Y-106505000D03*
D29*
%TO.P,Q13,3,S*%
%TO.N,GND*%
X117200000Y-107260000D03*
%TD*%
D26*
%TO.P,R39,1*%
%TO.N,Net-(U8-USBD-)*%
X131900000Y-64100000D03*
%TO.P,R39,2*%
%TO.N,Net-(J4-D-)*%
X129900000Y-64100000D03*
%TD*%
D27*
%TO.P,R8,1*%
%TO.N,Net-(U1D--)*%
X181259337Y-128210757D03*
%TO.P,R8,2*%
%TO.N,/H1*%
X182673551Y-126796543D03*
%TD*%
D32*
%TO.P,R56,1*%
%TO.N,/MCU/PB5_SCK*%
X162900000Y-59200000D03*
%TO.P,R56,2*%
%TO.N,Net-(J2-Pin_4)*%
X162900000Y-57200000D03*
%TD*%
D15*
%TO.P,R34,1*%
%TO.N,Net-(U1D-+)*%
X162900000Y-144200000D03*
%TO.P,R34,2*%
%TO.N,/Vref-*%
X164900000Y-144200000D03*
%TD*%
%TO.P,R15,1*%
%TO.N,VCC*%
X164000000Y-106700000D03*
%TO.P,R15,2*%
%TO.N,Net-(U5A--)*%
X166000000Y-106700000D03*
%TD*%
D11*
%TO.P,Q5,1,C*%
%TO.N,/DR*%
X203500000Y-103950000D03*
D12*
X197200000Y-103950000D03*
D11*
%TO.P,Q5,2,B*%
%TO.N,Net-(Q5-B)*%
X203500000Y-106250000D03*
%TO.P,Q5,3,E*%
%TO.N,/Vcc_en*%
X203500000Y-101650000D03*
%TD*%
D13*
%TO.P,R31,1*%
%TO.N,Net-(U2B-+)*%
X125493908Y-127678171D03*
%TO.P,R31,2*%
%TO.N,/X2*%
X124079694Y-126263957D03*
%TD*%
D33*
%TO.P,D1,1,K*%
%TO.N,/DR*%
X188835786Y-111805278D03*
%TO.P,D1,2,A*%
%TO.N,/Y1*%
X188835786Y-116805278D03*
%TD*%
D34*
%TO.P,H5,1,1*%
%TO.N,Earth*%
X208550000Y-78200000D03*
%TD*%
D21*
%TO.P,C29,1*%
%TO.N,VCC*%
X190150000Y-98025000D03*
%TO.P,C29,2*%
%TO.N,GND*%
X190150000Y-100100000D03*
%TD*%
D30*
%TO.P,D35,1,K*%
%TO.N,VCC*%
X121800000Y-96150000D03*
X121800000Y-99200000D03*
D31*
X123475000Y-97675000D03*
D30*
X125150000Y-96150000D03*
X125150000Y-99200000D03*
D29*
%TO.P,D35,2,A*%
%TO.N,Net-(D35-A)*%
X117175000Y-95395000D03*
X117175000Y-99955000D03*
%TD*%
D10*
%TO.P,TP6,1,1*%
%TO.N,Net-(U12-OUTPUT)*%
X164125000Y-98725000D03*
%TD*%
D35*
%TO.P,D36,1,K*%
%TO.N,Net-(D36-K)*%
X108575216Y-74724784D03*
%TO.P,D36,2,A*%
%TO.N,Net-(D33-K)*%
X110024784Y-73275216D03*
%TD*%
D16*
%TO.P,R12,1*%
%TO.N,Net-(D12-A)*%
X150900000Y-45275000D03*
%TO.P,R12,2*%
%TO.N,VCC*%
X150900000Y-47275000D03*
%TD*%
D10*
%TO.P,TP14,1,1*%
%TO.N,Net-(Q3-B)*%
X122200000Y-83000000D03*
%TD*%
D34*
%TO.P,H2,1,1*%
%TO.N,Earth*%
X129000000Y-45450000D03*
%TD*%
D21*
%TO.P,C32,1*%
%TO.N,VCC*%
X151150000Y-50062500D03*
%TO.P,C32,2*%
%TO.N,GND*%
X151150000Y-52137500D03*
%TD*%
D36*
%TO.P,RV2,1,1*%
%TO.N,/Vref-*%
X134425000Y-143752000D03*
D37*
%TO.P,RV2,2,2*%
%TO.N,Net-(U2D-+)*%
X135600000Y-149848000D03*
D36*
%TO.P,RV2,3,3*%
%TO.N,/Vref+*%
X136775000Y-143752000D03*
%TD*%
D38*
%TO.P,C19,1*%
%TO.N,VCC*%
X110425000Y-105395000D03*
%TO.P,C19,2*%
%TO.N,GND*%
X110425000Y-103320000D03*
%TD*%
D33*
%TO.P,D5,1,K*%
%TO.N,/DR*%
X188256430Y-76000000D03*
%TO.P,D5,2,A*%
%TO.N,/Y2*%
X188256430Y-81000000D03*
%TD*%
D39*
%TO.P,R33,1*%
%TO.N,Net-(C27-Pad2)*%
X173122049Y-135331393D03*
%TO.P,R33,2*%
%TO.N,/X1*%
X171707835Y-136745607D03*
%TD*%
D26*
%TO.P,R21,1*%
%TO.N,Net-(U2D-+)*%
X141500000Y-144400000D03*
%TO.P,R21,2*%
%TO.N,/Vref+*%
X139500000Y-144400000D03*
%TD*%
D40*
%TO.P,U13,1,GND*%
%TO.N,GND*%
X192337500Y-106350000D03*
%TO.P,U13,2,Vdd*%
%TO.N,VCC*%
X192337500Y-105400000D03*
%TO.P,U13,3,IN*%
%TO.N,Net-(U13-IN)*%
X192337500Y-104450000D03*
%TO.P,U13,4,GND*%
%TO.N,GND*%
X190062500Y-104450000D03*
%TO.P,U13,5,OUT*%
%TO.N,Net-(Q12-G)*%
X190062500Y-106350000D03*
%TD*%
D41*
%TO.P,C3,1*%
%TO.N,/Vref+*%
X157800000Y-127700000D03*
%TO.P,C3,2*%
%TO.N,Net-(U1B-+)*%
X157800000Y-135200000D03*
%TD*%
D16*
%TO.P,R68,1*%
%TO.N,Net-(Q11-C)*%
X177500000Y-84500000D03*
%TO.P,R68,2*%
%TO.N,GND*%
X177500000Y-86500000D03*
%TD*%
D42*
%TO.P,U9,1,GND*%
%TO.N,GND*%
X152250000Y-59350000D03*
%TO.P,U9,2,VO*%
%TO.N,+5V*%
X149950000Y-59350000D03*
D43*
X149950000Y-65650000D03*
D42*
%TO.P,U9,3,VI*%
%TO.N,VCC*%
X147650000Y-59350000D03*
%TD*%
D16*
%TO.P,R72,1*%
%TO.N,Net-(D45-A)*%
X137700000Y-154400000D03*
%TO.P,R72,2*%
%TO.N,VCC*%
X137700000Y-156400000D03*
%TD*%
D44*
%TO.P,U3,1,OUT*%
%TO.N,/Vreg*%
X141400000Y-98800000D03*
D45*
%TO.P,U3,2,GND*%
%TO.N,GND*%
X139900000Y-98887500D03*
D44*
%TO.P,U3,3,IN*%
%TO.N,/Vcc_en*%
X138400000Y-98800000D03*
%TD*%
D21*
%TO.P,C15,1*%
%TO.N,/MCU/RESET*%
X149900000Y-69100000D03*
%TO.P,C15,2*%
%TO.N,Net-(U8-DTR)*%
X149900000Y-71175000D03*
%TD*%
D32*
%TO.P,R42,1*%
%TO.N,Net-(D24-A)*%
X139925000Y-156300000D03*
%TO.P,R42,2*%
%TO.N,VCC*%
X139925000Y-154300000D03*
%TD*%
%TO.P,R41,1*%
%TO.N,Net-(Q14-B)*%
X152325000Y-75125000D03*
%TO.P,R41,2*%
%TO.N,/MCU/LED_UV*%
X152325000Y-73125000D03*
%TD*%
D15*
%TO.P,R9,1*%
%TO.N,Net-(U1D-+)*%
X162900000Y-146200000D03*
%TO.P,R9,2*%
%TO.N,/Vref+*%
X164900000Y-146200000D03*
%TD*%
D32*
%TO.P,R49,1*%
%TO.N,/MCU/Touch2*%
X158400000Y-75100000D03*
%TO.P,R49,2*%
%TO.N,/MCU/TouchCom*%
X158400000Y-73100000D03*
%TD*%
D15*
%TO.P,R27,1*%
%TO.N,Net-(R27-Pad1)*%
X173200000Y-112700000D03*
%TO.P,R27,2*%
%TO.N,Net-(Q5-B)*%
X175200000Y-112700000D03*
%TD*%
%TO.P,R63,1*%
%TO.N,Net-(D40-K)*%
X129900000Y-70350000D03*
%TO.P,R63,2*%
%TO.N,Net-(U8-CBUS0)*%
X131900000Y-70350000D03*
%TD*%
D41*
%TO.P,C6,1*%
%TO.N,/Vref+*%
X146400000Y-127700000D03*
%TO.P,C6,2*%
%TO.N,Net-(U2B-+)*%
X146400000Y-135200000D03*
%TD*%
D34*
%TO.P,H6,1,1*%
%TO.N,Earth*%
X208500000Y-125000000D03*
%TD*%
D35*
%TO.P,D33,1,K*%
%TO.N,Net-(D33-K)*%
X123975216Y-59224784D03*
%TO.P,D33,2,A*%
%TO.N,Net-(D33-A)*%
X125424784Y-57775216D03*
%TD*%
D46*
%TO.P,R23,1*%
%TO.N,Net-(U2C--)*%
X126833005Y-141399748D03*
%TO.P,R23,2*%
%TO.N,Net-(C24-Pad1)*%
X128247219Y-142813962D03*
%TD*%
D47*
%TO.P,F1,1*%
%TO.N,Net-(D28-A)*%
X130223313Y-54673313D03*
%TO.P,F1,2*%
%TO.N,Net-(J4-VBUS)*%
X127076687Y-51526687D03*
%TD*%
D26*
%TO.P,R67,1*%
%TO.N,Net-(Q18-B)*%
X181500000Y-86100000D03*
%TO.P,R67,2*%
%TO.N,VCC*%
X179500000Y-86100000D03*
%TD*%
D11*
%TO.P,Q9,1,C*%
%TO.N,GND*%
X112199999Y-112900000D03*
D12*
X105899999Y-112900000D03*
D11*
%TO.P,Q9,2,B*%
%TO.N,Net-(Q8-B)*%
X112199999Y-115200000D03*
%TO.P,Q9,3,E*%
%TO.N,/X2*%
X112199999Y-110600000D03*
%TD*%
D26*
%TO.P,R16,1*%
%TO.N,Net-(U5A-+)*%
X166000000Y-108800000D03*
%TO.P,R16,2*%
%TO.N,Net-(U12-OUTPUT)*%
X164000000Y-108800000D03*
%TD*%
%TO.P,R55,1*%
%TO.N,+5V*%
X156400000Y-62800000D03*
%TO.P,R55,2*%
%TO.N,/MCU/LightSense*%
X154400000Y-62800000D03*
%TD*%
D10*
%TO.P,TP21,1,1*%
%TO.N,Net-(U1B--)*%
X161700000Y-137400000D03*
%TD*%
D26*
%TO.P,R25,1*%
%TO.N,Net-(U2D-+)*%
X141500000Y-146500000D03*
%TO.P,R25,2*%
%TO.N,/Vref-*%
X139500000Y-146500000D03*
%TD*%
D34*
%TO.P,H3,1,1*%
%TO.N,Earth*%
X96300000Y-78200000D03*
%TD*%
D32*
%TO.P,R64,1*%
%TO.N,/MCU/RESET*%
X165400000Y-59200000D03*
%TO.P,R64,2*%
%TO.N,Net-(J2-Pin_3)*%
X165400000Y-57200000D03*
%TD*%
D27*
%TO.P,R24,1*%
%TO.N,Net-(C8-Pad1)*%
X129235786Y-133078427D03*
%TO.P,R24,2*%
%TO.N,Net-(C24-Pad1)*%
X130650000Y-131664213D03*
%TD*%
D16*
%TO.P,R70,1*%
%TO.N,Net-(Q15-B)*%
X159900000Y-146000000D03*
%TO.P,R70,2*%
%TO.N,/MCU/LED_bot*%
X159900000Y-148000000D03*
%TD*%
D48*
%TO.P,J4,1,VBUS*%
%TO.N,Net-(J4-VBUS)*%
X123036143Y-52044365D03*
%TO.P,J4,2,D-*%
%TO.N,Net-(J4-D-)*%
X122576524Y-52503984D03*
%TO.P,J4,3,D+*%
%TO.N,Net-(J4-D+)*%
X122116905Y-52963604D03*
%TO.P,J4,4,ID*%
%TO.N,unconnected-(J4-ID-Pad4)*%
X121657285Y-53423223D03*
%TO.P,J4,5,GND*%
%TO.N,GND*%
X121197666Y-53882842D03*
D49*
%TO.P,J4,6,Shield*%
%TO.N,Earth*%
X122753301Y-48296699D03*
D50*
X120914823Y-50135176D03*
X119288477Y-51761522D03*
D49*
X117450000Y-53600000D03*
%TD*%
D27*
%TO.P,R1,1*%
%TO.N,Net-(C27-Pad2)*%
X175976992Y-140961731D03*
%TO.P,R1,2*%
%TO.N,Net-(U1B--)*%
X177391206Y-139547517D03*
%TD*%
D51*
%TO.P,D50,1,K*%
%TO.N,Net-(D36-K)*%
X182350216Y-59000216D03*
%TO.P,D50,2,A*%
%TO.N,Net-(D49-K)*%
X183799784Y-60449784D03*
%TD*%
D14*
%TO.P,C11,1*%
%TO.N,Net-(U6-XTAL2{slash}PB7)*%
X181862500Y-63100000D03*
%TO.P,C11,2*%
%TO.N,GND*%
X183937500Y-63100000D03*
%TD*%
D39*
%TO.P,R65,1*%
%TO.N,Net-(D33-A)*%
X122214214Y-64385786D03*
%TO.P,R65,2*%
%TO.N,VCC*%
X120800000Y-65800000D03*
%TD*%
D52*
%TO.P,C16,1*%
%TO.N,VCC*%
X145437500Y-59900000D03*
%TO.P,C16,2*%
%TO.N,GND*%
X143362500Y-59900000D03*
%TD*%
D16*
%TO.P,R35,1*%
%TO.N,Net-(D20-A)*%
X153050000Y-45325000D03*
%TO.P,R35,2*%
%TO.N,VCC*%
X153050000Y-47325000D03*
%TD*%
D10*
%TO.P,TP20,1,1*%
%TO.N,Net-(U2B--)*%
X141500000Y-141100000D03*
%TD*%
D53*
%TO.P,U8,1,TXD*%
%TO.N,/MCU/RXD0*%
X141600000Y-72100000D03*
%TO.P,U8,2,DTR*%
%TO.N,Net-(U8-DTR)*%
X141600000Y-71450000D03*
%TO.P,U8,3,RTS*%
%TO.N,unconnected-(U8-RTS-Pad3)*%
X141600000Y-70800000D03*
%TO.P,U8,4,VCCIO*%
%TO.N,+5V*%
X141600000Y-70150000D03*
%TO.P,U8,5,RXD*%
%TO.N,/MCU/TXD0*%
X141600000Y-69500000D03*
%TO.P,U8,6,RI*%
%TO.N,unconnected-(U8-RI-Pad6)*%
X141600000Y-68850000D03*
%TO.P,U8,7,GND*%
%TO.N,GND*%
X141600000Y-68200000D03*
%TO.P,U8,8*%
%TO.N,N/C*%
X141600000Y-67550000D03*
%TO.P,U8,9,DCR*%
%TO.N,unconnected-(U8-DCR-Pad9)*%
X141600000Y-66900000D03*
%TO.P,U8,10,DCD*%
%TO.N,unconnected-(U8-DCD-Pad10)*%
X141600000Y-66250000D03*
%TO.P,U8,11,CTS*%
%TO.N,unconnected-(U8-CTS-Pad11)*%
X141600000Y-65600000D03*
%TO.P,U8,12,CBUS4*%
%TO.N,unconnected-(U8-CBUS4-Pad12)*%
X141600000Y-64950000D03*
%TO.P,U8,13,CBUS2*%
%TO.N,unconnected-(U8-CBUS2-Pad13)*%
X141600000Y-64300000D03*
%TO.P,U8,14,CBUS3*%
%TO.N,unconnected-(U8-CBUS3-Pad14)*%
X141600000Y-63650000D03*
%TO.P,U8,15,USBD+*%
%TO.N,Net-(U8-USBD+)*%
X134400000Y-63650000D03*
%TO.P,U8,16,USBD-*%
%TO.N,Net-(U8-USBD-)*%
X134400000Y-64300000D03*
%TO.P,U8,17,3V3OUT*%
%TO.N,Net-(U8-3V3OUT)*%
X134400000Y-64950000D03*
%TO.P,U8,18,GND*%
%TO.N,GND*%
X134400000Y-65600000D03*
%TO.P,U8,19,~{RESET}*%
%TO.N,unconnected-(U8-~{RESET}-Pad19)*%
X134400000Y-66250000D03*
%TO.P,U8,20,VCC*%
%TO.N,+5V*%
X134400000Y-66900000D03*
%TO.P,U8,21,GND*%
%TO.N,GND*%
X134400000Y-67550000D03*
%TO.P,U8,22,CBUS1*%
%TO.N,Net-(U8-CBUS1)*%
X134400000Y-68200000D03*
%TO.P,U8,23,CBUS0*%
%TO.N,Net-(U8-CBUS0)*%
X134400000Y-68850000D03*
%TO.P,U8,24*%
%TO.N,N/C*%
X134400000Y-69500000D03*
%TO.P,U8,25,AGND*%
%TO.N,GND*%
X134400000Y-70150000D03*
%TO.P,U8,26,TEST*%
X134400000Y-70800000D03*
%TO.P,U8,27,OSCI*%
%TO.N,unconnected-(U8-OSCI-Pad27)*%
X134400000Y-71450000D03*
%TO.P,U8,28,OSCO*%
%TO.N,unconnected-(U8-OSCO-Pad28)*%
X134400000Y-72100000D03*
%TD*%
D54*
%TO.P,D47,1,K*%
%TO.N,Net-(D47-K)*%
X202400000Y-111425000D03*
%TO.P,D47,2,A*%
%TO.N,Net-(D47-A)*%
X202400000Y-113475000D03*
%TD*%
D55*
%TO.P,C24,1*%
%TO.N,Net-(C24-Pad1)*%
X129235786Y-130250000D03*
%TO.P,C24,2*%
%TO.N,Net-(U2D--)*%
X127768540Y-131717246D03*
%TD*%
D15*
%TO.P,R37,1*%
%TO.N,Net-(D22-A)*%
X99775000Y-106975000D03*
%TO.P,R37,2*%
%TO.N,VCC*%
X101775000Y-106975000D03*
%TD*%
D17*
%TO.P,C22,1*%
%TO.N,VCC*%
X133800000Y-94750000D03*
%TO.P,C22,2*%
%TO.N,GND*%
X133800000Y-87250000D03*
%TD*%
D56*
%TO.P,U6,1,PD3*%
%TO.N,/CoilPWM*%
X172900000Y-71200000D03*
%TO.P,U6,2,PD4*%
%TO.N,unconnected-(U6-PD4-Pad2)*%
X172900000Y-70400000D03*
%TO.P,U6,3,GND*%
%TO.N,GND*%
X172900000Y-69600000D03*
%TO.P,U6,4,VCC*%
%TO.N,+5V*%
X172900000Y-68800000D03*
%TO.P,U6,5,GND*%
%TO.N,GND*%
X172900000Y-68000000D03*
%TO.P,U6,6,VCC*%
%TO.N,+5V*%
X172900000Y-67200000D03*
%TO.P,U6,7,XTAL1/PB6*%
%TO.N,Net-(U6-XTAL1{slash}PB6)*%
X172900000Y-66400000D03*
%TO.P,U6,8,XTAL2/PB7*%
%TO.N,Net-(U6-XTAL2{slash}PB7)*%
X172900000Y-65600000D03*
D57*
%TO.P,U6,9,PD5*%
%TO.N,/MCU/LED_WH*%
X171450000Y-64150000D03*
%TO.P,U6,10,PD6*%
%TO.N,/MCU/LED_UV*%
X170650000Y-64150000D03*
%TO.P,U6,11,PD7*%
%TO.N,unconnected-(U6-PD7-Pad11)*%
X169850000Y-64150000D03*
%TO.P,U6,12,PB0*%
%TO.N,unconnected-(U6-PB0-Pad12)*%
X169050000Y-64150000D03*
%TO.P,U6,13,PB1*%
%TO.N,/MCU/LED_bot*%
X168250000Y-64150000D03*
%TO.P,U6,14,PB2*%
%TO.N,unconnected-(U6-PB2-Pad14)*%
X167450000Y-64150000D03*
%TO.P,U6,15,PB3*%
%TO.N,/MCU/PB3_MOSI*%
X166650000Y-64150000D03*
%TO.P,U6,16,PB4*%
%TO.N,/MCU/PB4_MISO*%
X165850000Y-64150000D03*
D56*
%TO.P,U6,17,PB5*%
%TO.N,/MCU/PB5_SCK*%
X164400000Y-65600000D03*
%TO.P,U6,18,AVCC*%
%TO.N,+5V*%
X164400000Y-66400000D03*
%TO.P,U6,19,ADC6*%
%TO.N,unconnected-(U6-ADC6-Pad19)*%
X164400000Y-67200000D03*
%TO.P,U6,20,AREF*%
%TO.N,unconnected-(U6-AREF-Pad20)*%
X164400000Y-68000000D03*
%TO.P,U6,21,GND*%
%TO.N,GND*%
X164400000Y-68800000D03*
%TO.P,U6,22,ADC7*%
%TO.N,unconnected-(U6-ADC7-Pad22)*%
X164400000Y-69600000D03*
%TO.P,U6,23,PC0*%
%TO.N,unconnected-(U6-PC0-Pad23)*%
X164400000Y-70400000D03*
%TO.P,U6,24,PC1*%
%TO.N,/MCU/Touch2*%
X164400000Y-71200000D03*
D57*
%TO.P,U6,25,PC2*%
%TO.N,/MCU/Touch1*%
X165850000Y-72650000D03*
%TO.P,U6,26,PC3*%
%TO.N,/MCU/TouchCom*%
X166650000Y-72650000D03*
%TO.P,U6,27,PC4*%
%TO.N,/MCU/LightSense*%
X167450000Y-72650000D03*
%TO.P,U6,28,PC5*%
%TO.N,unconnected-(U6-PC5-Pad28)*%
X168250000Y-72650000D03*
%TO.P,U6,29,~{RESET}/PC6*%
%TO.N,/MCU/RESET*%
X169050000Y-72650000D03*
%TO.P,U6,30,PD0*%
%TO.N,/MCU/RXD0*%
X169850000Y-72650000D03*
%TO.P,U6,31,PD1*%
%TO.N,/MCU/TXD0*%
X170650000Y-72650000D03*
%TO.P,U6,32,PD2*%
%TO.N,/En_sig*%
X171450000Y-72650000D03*
%TD*%
D58*
%TO.P,D41,1,K*%
%TO.N,Net-(D41-K)*%
X102400000Y-91725000D03*
%TO.P,D41,2,A*%
%TO.N,Net-(D41-A)*%
X102400000Y-89675000D03*
%TD*%
D11*
%TO.P,Q7,1,C*%
%TO.N,GND*%
X191500000Y-86900000D03*
D12*
X197800000Y-86900000D03*
D11*
%TO.P,Q7,2,B*%
%TO.N,Net-(Q6-B)*%
X191500000Y-84600000D03*
%TO.P,Q7,3,E*%
%TO.N,/Y2*%
X191500000Y-89200000D03*
%TD*%
D59*
%TO.P,J2,1,Pin_1*%
%TO.N,GND*%
X170575000Y-54568000D03*
%TO.P,J2,2,Pin_2*%
%TO.N,+5V*%
X168035000Y-54600000D03*
%TO.P,J2,3,Pin_3*%
%TO.N,Net-(J2-Pin_3)*%
X165495000Y-54600000D03*
%TO.P,J2,4,Pin_4*%
%TO.N,Net-(J2-Pin_4)*%
X162955000Y-54600000D03*
%TO.P,J2,5,Pin_5*%
%TO.N,Net-(J2-Pin_5)*%
X160415000Y-54600000D03*
%TO.P,J2,6,Pin_6*%
%TO.N,Net-(J2-Pin_6)*%
X157875000Y-54600000D03*
%TD*%
D33*
%TO.P,D2,1,K*%
%TO.N,/Y1*%
X188835786Y-121105278D03*
%TO.P,D2,2,A*%
%TO.N,GND*%
X188835786Y-126105278D03*
%TD*%
D52*
%TO.P,C10,1*%
%TO.N,/Vreg*%
X144300000Y-96250000D03*
%TO.P,C10,2*%
%TO.N,GND*%
X142225000Y-96250000D03*
%TD*%
D23*
%TO.P,Q10,1,C*%
%TO.N,Net-(D13-K)*%
X114427386Y-68627386D03*
D24*
X109972614Y-64172614D03*
D23*
%TO.P,Q10,2,B*%
%TO.N,Net-(Q10-B)*%
X112801041Y-70253732D03*
%TO.P,Q10,3,E*%
%TO.N,GND*%
X116053732Y-67001041D03*
%TD*%
D21*
%TO.P,C31,1*%
%TO.N,VCC*%
X153400000Y-50062500D03*
%TO.P,C31,2*%
%TO.N,GND*%
X153400000Y-52137500D03*
%TD*%
D28*
%TO.P,D44,1,K*%
%TO.N,Net-(D36-K)*%
X125500000Y-145300000D03*
%TO.P,D44,2,A*%
%TO.N,Net-(D43-K)*%
X124050432Y-143850432D03*
%TD*%
D10*
%TO.P,TP23,1,1*%
%TO.N,Net-(U1C--)*%
X161100000Y-141900000D03*
%TD*%
D60*
%TO.P,C18,1*%
%TO.N,/X2*%
X129687949Y-141426265D03*
%TO.P,C18,2*%
%TO.N,Net-(U2C--)*%
X128220703Y-139959019D03*
%TD*%
D21*
%TO.P,C20,1*%
%TO.N,VCC*%
X194421384Y-104796384D03*
%TO.P,C20,2*%
%TO.N,GND*%
X194421384Y-106871384D03*
%TD*%
D10*
%TO.P,TP1,1,1*%
%TO.N,/CoilPWM*%
X145000000Y-84800000D03*
%TD*%
D46*
%TO.P,R28,1*%
%TO.N,Net-(C26-Pad2)*%
X118422840Y-131920810D03*
%TO.P,R28,2*%
%TO.N,Net-(U2B--)*%
X119837054Y-133335024D03*
%TD*%
D61*
%TO.P,C26,1*%
%TO.N,/Y2*%
X119810538Y-130480081D03*
%TO.P,C26,2*%
%TO.N,Net-(C26-Pad2)*%
X121277784Y-131947327D03*
%TD*%
D26*
%TO.P,R74,1*%
%TO.N,/MCU/Touch3*%
X183625000Y-56275000D03*
%TO.P,R74,2*%
%TO.N,/MCU/TouchCom*%
X181625000Y-56275000D03*
%TD*%
%TO.P,R66,1*%
%TO.N,Net-(Q18-B)*%
X181500000Y-84000000D03*
%TO.P,R66,2*%
%TO.N,Net-(Q11-C)*%
X179500000Y-84000000D03*
%TD*%
D62*
%TO.P,U14,1,GND*%
%TO.N,GND*%
X112537500Y-103945000D03*
%TO.P,U14,2,Vdd*%
%TO.N,VCC*%
X112537500Y-104895000D03*
%TO.P,U14,3,IN*%
%TO.N,Net-(U14-IN)*%
X112537500Y-105845000D03*
%TO.P,U14,4,GND*%
%TO.N,GND*%
X114812500Y-105845000D03*
%TO.P,U14,5,OUT*%
%TO.N,Net-(Q13-G)*%
X114812500Y-103945000D03*
%TD*%
D34*
%TO.P,H1,1,1*%
%TO.N,Earth*%
X175900000Y-45100000D03*
%TD*%
D15*
%TO.P,R69,1*%
%TO.N,Net-(D41-A)*%
X106700000Y-94900000D03*
%TO.P,R69,2*%
%TO.N,VCC*%
X108700000Y-94900000D03*
%TD*%
D34*
%TO.P,H4,1,1*%
%TO.N,Earth*%
X96300000Y-125000000D03*
%TD*%
D46*
%TO.P,R19,1*%
%TO.N,Net-(C24-Pad1)*%
X132516377Y-135769410D03*
%TO.P,R19,2*%
%TO.N,Net-(U2D--)*%
X133930591Y-137183624D03*
%TD*%
D63*
%TO.P,D32,1,A*%
%TO.N,GND*%
X172400000Y-58800000D03*
D64*
%TO.P,D32,2,K*%
%TO.N,Net-(J2-Pin_3)*%
X172400000Y-57100000D03*
%TO.P,D32,3,K*%
%TO.N,+5V*%
X170400000Y-57100000D03*
%TO.P,D32,4,K*%
%TO.N,unconnected-(D32-K-Pad4)*%
X170400000Y-59000000D03*
%TD*%
D32*
%TO.P,R45,1*%
%TO.N,Net-(D16-A)*%
X141975000Y-156275000D03*
%TO.P,R45,2*%
%TO.N,VCC*%
X141975000Y-154275000D03*
%TD*%
D65*
%TO.P,D9,1,A1*%
%TO.N,/Vreg*%
X139900000Y-108600000D03*
%TO.P,D9,2,A2*%
%TO.N,GND*%
X134900000Y-108600000D03*
%TD*%
D10*
%TO.P,TP16,1,1*%
%TO.N,Net-(Q1-B)*%
X184100000Y-121400000D03*
%TD*%
D15*
%TO.P,R0,1*%
%TO.N,/DR*%
X106700000Y-96900000D03*
%TO.P,R0,2*%
%TO.N,Net-(DS1-A)*%
X108700000Y-96900000D03*
%TD*%
D66*
%TO.P,D29,1,A*%
%TO.N,GND*%
X122176777Y-58337437D03*
D67*
%TO.P,D29,2,K*%
%TO.N,Net-(J4-VBUS)*%
X123378858Y-57135355D03*
%TO.P,D29,3,K*%
%TO.N,Net-(J4-D+)*%
X121964645Y-55721142D03*
%TO.P,D29,4,K*%
%TO.N,Net-(J4-D-)*%
X120621142Y-57064645D03*
%TD*%
D21*
%TO.P,C17,1*%
%TO.N,+5V*%
X145150000Y-62812500D03*
%TO.P,C17,2*%
%TO.N,GND*%
X145150000Y-64887500D03*
%TD*%
D39*
%TO.P,R50,1*%
%TO.N,GND*%
X132132107Y-48817893D03*
%TO.P,R50,2*%
%TO.N,Earth*%
X130717893Y-50232107D03*
%TD*%
D15*
%TO.P,R62,1*%
%TO.N,Net-(D39-K)*%
X129900000Y-68350000D03*
%TO.P,R62,2*%
%TO.N,Net-(U8-CBUS1)*%
X131900000Y-68350000D03*
%TD*%
D68*
%TO.P,DS1,1,K*%
%TO.N,GND*%
X106675000Y-99000000D03*
%TO.P,DS1,2,A*%
%TO.N,Net-(DS1-A)*%
X108725000Y-99000000D03*
%TD*%
D52*
%TO.P,C2,1*%
%TO.N,/DR*%
X151162500Y-138400000D03*
%TO.P,C2,2*%
%TO.N,Net-(U4-C)*%
X149087500Y-138400000D03*
%TD*%
%TO.P,C34,1*%
%TO.N,/Vref+*%
X156150000Y-108600000D03*
%TO.P,C34,2*%
%TO.N,/Vref-*%
X154075000Y-108600000D03*
%TD*%
D42*
%TO.P,Q15,1,C*%
%TO.N,Net-(D36-K)*%
X153200000Y-146600001D03*
D43*
X153200000Y-152900001D03*
D42*
%TO.P,Q15,2,B*%
%TO.N,Net-(Q15-B)*%
X155500000Y-146600001D03*
%TO.P,Q15,3,E*%
%TO.N,GND*%
X150900000Y-146600001D03*
%TD*%
D11*
%TO.P,Q3,1,C*%
%TO.N,/DR*%
X112900000Y-90000000D03*
D12*
X106600000Y-90000000D03*
D11*
%TO.P,Q3,2,B*%
%TO.N,Net-(Q3-B)*%
X112900000Y-92300000D03*
%TO.P,Q3,3,E*%
%TO.N,/X1*%
X112900000Y-87700000D03*
%TD*%
D69*
%TO.P,D4,1,K*%
%TO.N,/X1*%
X116100000Y-82199999D03*
%TO.P,D4,2,A*%
%TO.N,GND*%
X116100000Y-77199999D03*
%TD*%
D63*
%TO.P,D31,1,A*%
%TO.N,GND*%
X157400000Y-65400000D03*
D64*
%TO.P,D31,2,K*%
%TO.N,/MCU/Touch1*%
X157400000Y-67100000D03*
%TO.P,D31,3,K*%
%TO.N,/MCU/Touch2*%
X159400000Y-67100000D03*
%TO.P,D31,4,K*%
%TO.N,/MCU/Touch3*%
X159400000Y-65200000D03*
%TD*%
D27*
%TO.P,R98,1*%
%TO.N,Net-(Q1-B)*%
X177391207Y-142375943D03*
%TO.P,R98,2*%
%TO.N,Net-(R98-Pad2)*%
X178805421Y-140961729D03*
%TD*%
D70*
%TO.P,D40,1,K*%
%TO.N,Net-(D40-K)*%
X124925000Y-70700000D03*
%TO.P,D40,2,A*%
%TO.N,+5V*%
X122875000Y-70700000D03*
%TD*%
D26*
%TO.P,R58,1*%
%TO.N,Net-(U2B-+)*%
X140800000Y-124000000D03*
%TO.P,R58,2*%
%TO.N,/Vref-*%
X138800000Y-124000000D03*
%TD*%
D63*
%TO.P,D30,1,A*%
%TO.N,GND*%
X169150000Y-58800000D03*
D64*
%TO.P,D30,2,K*%
%TO.N,Net-(J2-Pin_6)*%
X169150000Y-57100000D03*
%TO.P,D30,3,K*%
%TO.N,Net-(J2-Pin_5)*%
X167150000Y-57100000D03*
%TO.P,D30,4,K*%
%TO.N,Net-(J2-Pin_4)*%
X167150000Y-59000000D03*
%TD*%
D33*
%TO.P,D11,1,A1*%
%TO.N,/DR*%
X200900000Y-81500000D03*
%TO.P,D11,2,A2*%
%TO.N,GND*%
X200900000Y-86500000D03*
%TD*%
D70*
%TO.P,D46,1,K*%
%TO.N,Net-(D36-K)*%
X164400000Y-151500000D03*
%TO.P,D46,2,A*%
%TO.N,Net-(D45-K)*%
X162350000Y-151500000D03*
%TD*%
D10*
%TO.P,TP22,1,1*%
%TO.N,Net-(U2C--)*%
X138700000Y-139600000D03*
%TD*%
D13*
%TO.P,R11,1*%
%TO.N,Net-(C1-Pad1)*%
X176632107Y-131357107D03*
%TO.P,R11,2*%
%TO.N,Net-(C25-Pad1)*%
X175217893Y-129942893D03*
%TD*%
D71*
%TO.P,U5,1*%
%TO.N,Net-(R27-Pad1)*%
X169125000Y-106895000D03*
%TO.P,U5,2,-*%
%TO.N,Net-(U5A--)*%
X169125000Y-108165000D03*
%TO.P,U5,3,+*%
%TO.N,Net-(U5A-+)*%
X169125000Y-109435000D03*
%TO.P,U5,4,V-*%
%TO.N,GND*%
X169125000Y-110705000D03*
%TO.P,U5,5,+*%
%TO.N,unconnected-(U5B-+-Pad5)*%
X174075000Y-110705000D03*
%TO.P,U5,6,-*%
%TO.N,Net-(U5B--)*%
X174075000Y-109435000D03*
%TO.P,U5,7*%
X174075000Y-108165000D03*
%TO.P,U5,8,V+*%
%TO.N,/Vcc_en*%
X174075000Y-106895000D03*
%TD*%
D14*
%TO.P,C12,1*%
%TO.N,Net-(U6-XTAL1{slash}PB6)*%
X181862500Y-65100000D03*
%TO.P,C12,2*%
%TO.N,GND*%
X183937500Y-65100000D03*
%TD*%
D11*
%TO.P,Q4,1,C*%
%TO.N,GND*%
X112900000Y-82550000D03*
D12*
X106600000Y-82550000D03*
D11*
%TO.P,Q4,2,B*%
%TO.N,Net-(Q3-B)*%
X112900000Y-84850000D03*
%TO.P,Q4,3,E*%
%TO.N,/X1*%
X112900000Y-80250000D03*
%TD*%
%TO.P,Q2,1,C*%
%TO.N,GND*%
X192100000Y-120762237D03*
D12*
X198400000Y-120762237D03*
D11*
%TO.P,Q2,2,B*%
%TO.N,Net-(Q1-B)*%
X192100000Y-118462237D03*
%TO.P,Q2,3,E*%
%TO.N,/Y1*%
X192100000Y-123062237D03*
%TD*%
D15*
%TO.P,R18,1*%
%TO.N,Net-(U4-C)*%
X149162500Y-140400000D03*
%TO.P,R18,2*%
%TO.N,/DR*%
X151162500Y-140400000D03*
%TD*%
D72*
%TO.P,Q11,1,B*%
%TO.N,Net-(Q11-B)*%
X181450000Y-80025000D03*
%TO.P,Q11,2,E*%
%TO.N,GND*%
X179550000Y-80025000D03*
%TO.P,Q11,3,C*%
%TO.N,Net-(Q11-C)*%
X180500000Y-81900000D03*
%TD*%
D26*
%TO.P,R60,1*%
%TO.N,Net-(D37-A)*%
X168700000Y-153900000D03*
%TO.P,R60,2*%
%TO.N,VCC*%
X166700000Y-153900000D03*
%TD*%
%TO.P,R43,1*%
%TO.N,Net-(D26-A)*%
X206950000Y-85575000D03*
%TO.P,R43,2*%
%TO.N,VCC*%
X204950000Y-85575000D03*
%TD*%
D32*
%TO.P,R48,1*%
%TO.N,/MCU/Touch1*%
X156400000Y-75100000D03*
%TO.P,R48,2*%
%TO.N,/MCU/TouchCom*%
X156400000Y-73100000D03*
%TD*%
D52*
%TO.P,C14,1*%
%TO.N,Net-(U8-3V3OUT)*%
X131975000Y-66100000D03*
%TO.P,C14,2*%
%TO.N,GND*%
X129900000Y-66100000D03*
%TD*%
D11*
%TO.P,Q6,1,C*%
%TO.N,/DR*%
X191500000Y-79650000D03*
D12*
X197800000Y-79650000D03*
D11*
%TO.P,Q6,2,B*%
%TO.N,Net-(Q6-B)*%
X191500000Y-77350000D03*
%TO.P,Q6,3,E*%
%TO.N,/Y2*%
X191500000Y-81950000D03*
%TD*%
D16*
%TO.P,R2,1*%
%TO.N,/CoilPWM*%
X108175000Y-103395000D03*
%TO.P,R2,2*%
%TO.N,Net-(U14-IN)*%
X108175000Y-105395000D03*
%TD*%
D70*
%TO.P,D39,1,K*%
%TO.N,Net-(D39-K)*%
X124925000Y-68350000D03*
%TO.P,D39,2,A*%
%TO.N,+5V*%
X122875000Y-68350000D03*
%TD*%
D26*
%TO.P,R40,1*%
%TO.N,Net-(Q11-B)*%
X181500000Y-77800000D03*
%TO.P,R40,2*%
%TO.N,/En_sig*%
X179500000Y-77800000D03*
%TD*%
D46*
%TO.P,R29,1*%
%TO.N,/Y2*%
X121251268Y-129092383D03*
%TO.P,R29,2*%
%TO.N,Net-(C26-Pad2)*%
X122665482Y-130506597D03*
%TD*%
D15*
%TO.P,R4,1*%
%TO.N,Net-(U1B-+)*%
X165850000Y-139225000D03*
%TO.P,R4,2*%
%TO.N,/X1*%
X167850000Y-139225000D03*
%TD*%
D61*
%TO.P,C25,1*%
%TO.N,Net-(C25-Pad1)*%
X173716377Y-131350716D03*
%TO.P,C25,2*%
%TO.N,Net-(U1D--)*%
X175183623Y-132817962D03*
%TD*%
D26*
%TO.P,R26,1*%
%TO.N,GND*%
X155162500Y-140400000D03*
%TO.P,R26,2*%
%TO.N,Net-(U4-A)*%
X153162500Y-140400000D03*
%TD*%
D34*
%TO.P,H8,1,1*%
%TO.N,Earth*%
X129100000Y-157700000D03*
%TD*%
D70*
%TO.P,D45,1,K*%
%TO.N,Net-(D45-K)*%
X142625000Y-151600000D03*
%TO.P,D45,2,A*%
%TO.N,Net-(D45-A)*%
X140575000Y-151600000D03*
%TD*%
D26*
%TO.P,R54,1*%
%TO.N,/Vref+*%
X144600000Y-124000000D03*
%TO.P,R54,2*%
%TO.N,Net-(U2B-+)*%
X142600000Y-124000000D03*
%TD*%
D25*
%TO.P,D37,1,K*%
%TO.N,Net-(D37-K)*%
X180749568Y-143950432D03*
%TO.P,D37,2,A*%
%TO.N,Net-(D37-A)*%
X179300000Y-145400000D03*
%TD*%
D21*
%TO.P,C13,1*%
%TO.N,+5V*%
X162150000Y-66525000D03*
%TO.P,C13,2*%
%TO.N,GND*%
X162150000Y-68600000D03*
%TD*%
D46*
%TO.P,R32,1*%
%TO.N,Net-(U2C--)*%
X129661433Y-138571321D03*
%TO.P,R32,2*%
%TO.N,/X2*%
X131075647Y-139985535D03*
%TD*%
D32*
%TO.P,R14,1*%
%TO.N,Net-(U4-Ref)*%
X157000000Y-144400000D03*
%TO.P,R14,2*%
%TO.N,Net-(U4-A)*%
X157000000Y-142400000D03*
%TD*%
D69*
%TO.P,D7,1,K*%
%TO.N,/DR*%
X116400000Y-125300000D03*
%TO.P,D7,2,A*%
%TO.N,/X2*%
X116400000Y-120300000D03*
%TD*%
D60*
%TO.P,C8,1*%
%TO.N,Net-(C8-Pad1)*%
X129700000Y-146900000D03*
%TO.P,C8,2*%
%TO.N,Net-(U2C--)*%
X128232754Y-145432754D03*
%TD*%
D14*
%TO.P,C9,1*%
%TO.N,/Vcc_en*%
X138425000Y-96250000D03*
%TO.P,C9,2*%
%TO.N,GND*%
X140500000Y-96250000D03*
%TD*%
D73*
%TO.P,RESET1,1,1*%
%TO.N,/MCU/RESET*%
X189960000Y-71870000D03*
X182000000Y-71870000D03*
%TO.P,RESET1,2,2*%
%TO.N,GND*%
X189960000Y-67370000D03*
X182000000Y-67370000D03*
%TD*%
D27*
%TO.P,R10,1*%
%TO.N,/Y1*%
X173122048Y-138159820D03*
%TO.P,R10,2*%
%TO.N,Net-(C27-Pad2)*%
X174536262Y-136745606D03*
%TD*%
D11*
%TO.P,Q18,1,C*%
%TO.N,/Vcc_en*%
X203499999Y-96450000D03*
D12*
X197199999Y-96450000D03*
D11*
%TO.P,Q18,2,B*%
%TO.N,Net-(Q18-B)*%
X203499999Y-98750000D03*
%TO.P,Q18,3,E*%
%TO.N,VCC*%
X203499999Y-94150000D03*
%TD*%
D55*
%TO.P,C21,1*%
%TO.N,/X1*%
X185537333Y-129589615D03*
%TO.P,C21,2*%
%TO.N,Net-(U1C--)*%
X184070087Y-131056861D03*
%TD*%
%TO.P,C1,1*%
%TO.N,Net-(C1-Pad1)*%
X188330406Y-132453399D03*
%TO.P,C1,2*%
%TO.N,Net-(U1C--)*%
X186863160Y-133920645D03*
%TD*%
D69*
%TO.P,D8,1,K*%
%TO.N,/X2*%
X116400000Y-116200000D03*
%TO.P,D8,2,A*%
%TO.N,GND*%
X116400000Y-111200000D03*
%TD*%
D58*
%TO.P,D42,1,K*%
%TO.N,Net-(D36-K)*%
X102400000Y-113425000D03*
%TO.P,D42,2,A*%
%TO.N,Net-(D41-K)*%
X102400000Y-111375000D03*
%TD*%
D27*
%TO.P,R22,1*%
%TO.N,Net-(U1C--)*%
X185512660Y-132456849D03*
%TO.P,R22,2*%
%TO.N,Net-(C25-Pad1)*%
X186926874Y-131042635D03*
%TD*%
D26*
%TO.P,R47,1*%
%TO.N,/MCU/RESET*%
X179900000Y-75600000D03*
%TO.P,R47,2*%
%TO.N,+5V*%
X177900000Y-75600000D03*
%TD*%
D36*
%TO.P,RV1,1,1*%
%TO.N,/Vref-*%
X167225000Y-141452000D03*
D37*
%TO.P,RV1,2,2*%
%TO.N,Net-(U1D-+)*%
X168400000Y-147548000D03*
D36*
%TO.P,RV1,3,3*%
%TO.N,/Vref+*%
X169575000Y-141452000D03*
%TD*%
D15*
%TO.P,R59,1*%
%TO.N,Net-(U1B-+)*%
X163200000Y-124050000D03*
%TO.P,R59,2*%
%TO.N,/Vref-*%
X165200000Y-124050000D03*
%TD*%
D17*
%TO.P,C7,1*%
%TO.N,Net-(U2B-+)*%
X137400000Y-135100000D03*
%TO.P,C7,2*%
%TO.N,/Vref-*%
X137400000Y-127600000D03*
%TD*%
D46*
%TO.P,R20,1*%
%TO.N,Net-(U2D--)*%
X131102163Y-137183623D03*
%TO.P,R20,2*%
%TO.N,/H2*%
X132516377Y-138597837D03*
%TD*%
D69*
%TO.P,D10,1,A1*%
%TO.N,VCC*%
X193100000Y-69225000D03*
%TO.P,D10,2,A2*%
%TO.N,GND*%
X193100000Y-64225000D03*
%TD*%
D14*
%TO.P,C33,1*%
%TO.N,/Vref+*%
X156575000Y-104350000D03*
%TO.P,C33,2*%
%TO.N,/Vref-*%
X158650000Y-104350000D03*
%TD*%
D32*
%TO.P,R53,1*%
%TO.N,/MCU/PB4_MISO*%
X160400000Y-59200000D03*
%TO.P,R53,2*%
%TO.N,Net-(J2-Pin_5)*%
X160400000Y-57200000D03*
%TD*%
%TO.P,R7,1*%
%TO.N,Net-(U4-Ref)*%
X149362500Y-144400000D03*
%TO.P,R7,2*%
%TO.N,Net-(U4-C)*%
X149362500Y-142400000D03*
%TD*%
%TO.P,R17,1*%
%TO.N,Net-(U5A--)*%
X165900000Y-104700000D03*
%TO.P,R17,2*%
%TO.N,GND*%
X165900000Y-102700000D03*
%TD*%
D27*
%TO.P,R13,1*%
%TO.N,Net-(Q3-B)*%
X175592893Y-145907107D03*
%TO.P,R13,2*%
%TO.N,Net-(R13-Pad2)*%
X177007107Y-144492893D03*
%TD*%
D32*
%TO.P,R52,1*%
%TO.N,/MCU/PB3_MOSI*%
X157900000Y-59200000D03*
%TO.P,R52,2*%
%TO.N,Net-(J2-Pin_6)*%
X157900000Y-57200000D03*
%TD*%
D74*
%TO.P,Y3,1,1*%
%TO.N,Net-(U6-XTAL2{slash}PB7)*%
X178150000Y-58162500D03*
%TO.P,Y3,2,2*%
%TO.N,Net-(U6-XTAL1{slash}PB6)*%
X178150000Y-70037500D03*
%TD*%
D13*
%TO.P,R30,1*%
%TO.N,Net-(C26-Pad2)*%
X124079695Y-129092383D03*
%TO.P,R30,2*%
%TO.N,/X2*%
X122665481Y-127678169D03*
%TD*%
D75*
%TO.P,C27,1*%
%TO.N,/Y1*%
X174509746Y-139600550D03*
%TO.P,C27,2*%
%TO.N,Net-(C27-Pad2)*%
X175976992Y-138133304D03*
%TD*%
D76*
%TO.P,U4,1,C*%
%TO.N,Net-(U4-C)*%
X151762500Y-142450000D03*
%TO.P,U4,2,Ref*%
%TO.N,Net-(U4-Ref)*%
X151762500Y-144350000D03*
%TO.P,U4,3,A*%
%TO.N,Net-(U4-A)*%
X154762500Y-143400000D03*
%TD*%
D77*
%TO.P,U2,1*%
%TO.N,Net-(U2A--)*%
X125401985Y-132083445D03*
%TO.P,U2,2,-*%
X124503959Y-132981470D03*
%TO.P,U2,3,+*%
%TO.N,unconnected-(U2A-+-Pad3)*%
X123605933Y-133879496D03*
%TO.P,U2,4,V+*%
%TO.N,/DR*%
X122707908Y-134777522D03*
%TO.P,U2,5,+*%
%TO.N,Net-(U2B-+)*%
X121809882Y-135675547D03*
%TO.P,U2,6,-*%
%TO.N,Net-(U2B--)*%
X120911856Y-136573573D03*
%TO.P,U2,7*%
%TO.N,Net-(R99-Pad2)*%
X120013831Y-137471599D03*
%TO.P,U2,8*%
%TO.N,Net-(R3-Pad2)*%
X123514009Y-140971777D03*
%TO.P,U2,9,-*%
%TO.N,Net-(U2C--)*%
X124412035Y-140073752D03*
%TO.P,U2,10,+*%
%TO.N,Net-(U2B-+)*%
X125310061Y-139175726D03*
%TO.P,U2,11,V-*%
%TO.N,GND*%
X126208086Y-138277700D03*
%TO.P,U2,12,+*%
%TO.N,Net-(U2D-+)*%
X127106112Y-137379675D03*
%TO.P,U2,13,-*%
%TO.N,Net-(U2D--)*%
X128004138Y-136481649D03*
%TO.P,U2,14*%
%TO.N,Net-(C24-Pad1)*%
X128902163Y-135583623D03*
%TD*%
D14*
%TO.P,C5,1*%
%TO.N,Net-(U4-A)*%
X153125000Y-138400000D03*
%TO.P,C5,2*%
%TO.N,GND*%
X155200000Y-138400000D03*
%TD*%
D78*
%TO.P,U1,1*%
%TO.N,Net-(U1A--)*%
X176341153Y-134078046D03*
%TO.P,U1,2,-*%
X177239178Y-134976072D03*
%TO.P,U1,3,+*%
%TO.N,unconnected-(U1A-+-Pad3)*%
X178137204Y-135874098D03*
%TO.P,U1,4,V+*%
%TO.N,/DR*%
X179035230Y-136772123D03*
%TO.P,U1,5,+*%
%TO.N,Net-(U1B-+)*%
X179933255Y-137670149D03*
%TO.P,U1,6,-*%
%TO.N,Net-(U1B--)*%
X180831281Y-138568175D03*
%TO.P,U1,7*%
%TO.N,Net-(R98-Pad2)*%
X181729307Y-139466200D03*
%TO.P,U1,8*%
%TO.N,Net-(R13-Pad2)*%
X185229485Y-135966022D03*
%TO.P,U1,9,-*%
%TO.N,Net-(U1C--)*%
X184331460Y-135067996D03*
%TO.P,U1,10,+*%
%TO.N,Net-(U1B-+)*%
X183433434Y-134169970D03*
%TO.P,U1,11,V-*%
%TO.N,GND*%
X182535408Y-133271945D03*
%TO.P,U1,12,+*%
%TO.N,Net-(U1D-+)*%
X181637383Y-132373919D03*
%TO.P,U1,13,-*%
%TO.N,Net-(U1D--)*%
X180739357Y-131475893D03*
%TO.P,U1,14*%
%TO.N,Net-(C25-Pad1)*%
X179841331Y-130577868D03*
%TD*%
D34*
%TO.P,H7,1,1*%
%TO.N,Earth*%
X175800000Y-157700000D03*
%TD*%
D27*
%TO.P,R5,1*%
%TO.N,Net-(U1C--)*%
X182673552Y-129624969D03*
%TO.P,R5,2*%
%TO.N,/X1*%
X184087766Y-128210755D03*
%TD*%
D15*
%TO.P,R38,1*%
%TO.N,Net-(J4-D+)*%
X129900000Y-62100000D03*
%TO.P,R38,2*%
%TO.N,Net-(U8-USBD+)*%
X131900000Y-62100000D03*
%TD*%
D69*
%TO.P,D3,1,K*%
%TO.N,/DR*%
X116100000Y-91500001D03*
%TO.P,D3,2,A*%
%TO.N,/X1*%
X116100000Y-86500001D03*
%TD*%
D65*
%TO.P,D28,1,K*%
%TO.N,+5V*%
X140300000Y-59600000D03*
%TO.P,D28,2,A*%
%TO.N,Net-(D28-A)*%
X135300000Y-59600000D03*
%TD*%
D10*
%TO.P,TP8,1,1*%
%TO.N,/H1*%
X155700000Y-112700000D03*
%TD*%
D32*
%TO.P,R44,1*%
%TO.N,Net-(Q10-B)*%
X154375000Y-75125000D03*
%TO.P,R44,2*%
%TO.N,/MCU/LED_WH*%
X154375000Y-73125000D03*
%TD*%
D54*
%TO.P,D48,1,K*%
%TO.N,Net-(D36-K)*%
X202400000Y-89625000D03*
%TO.P,D48,2,A*%
%TO.N,Net-(D47-K)*%
X202400000Y-91675000D03*
%TD*%
D46*
%TO.P,R3,1*%
%TO.N,Net-(Q8-B)*%
X115595056Y-134726516D03*
%TO.P,R3,2*%
%TO.N,Net-(R3-Pad2)*%
X117009270Y-136140730D03*
%TD*%
%TO.P,R99,1*%
%TO.N,Net-(Q6-B)*%
X117008626Y-133335024D03*
%TO.P,R99,2*%
%TO.N,Net-(R99-Pad2)*%
X118422840Y-134749238D03*
%TD*%
D10*
%TO.P,TP13,1,1*%
%TO.N,Net-(Q8-B)*%
X112600000Y-127100000D03*
%TD*%
%TO.P,TP15,1,1*%
%TO.N,Net-(Q6-B)*%
X192700000Y-95300000D03*
%TD*%
D51*
%TO.P,D49,1,K*%
%TO.N,Net-(D49-K)*%
X194625432Y-72975432D03*
%TO.P,D49,2,A*%
%TO.N,Net-(D49-A)*%
X196075000Y-74425000D03*
%TD*%
D38*
%TO.P,C28,1*%
%TO.N,+5V*%
X143900000Y-69925000D03*
%TO.P,C28,2*%
%TO.N,GND*%
X143900000Y-67850000D03*
%TD*%
D15*
%TO.P,R36,1*%
%TO.N,Net-(D14-A)*%
X99875000Y-103350000D03*
%TO.P,R36,2*%
%TO.N,VCC*%
X101875000Y-103350000D03*
%TD*%
D33*
%TO.P,D6,1,K*%
%TO.N,/Y2*%
X188256430Y-85200000D03*
%TO.P,D6,2,A*%
%TO.N,GND*%
X188256430Y-90200000D03*
%TD*%
D20*
%TO.P,Q12,1,G*%
%TO.N,Net-(Q12-G)*%
X187731384Y-107401384D03*
D18*
%TO.P,Q12,2,D*%
%TO.N,Net-(D34-A)*%
X183106384Y-106646384D03*
X183106384Y-103596384D03*
D19*
X181431384Y-105121384D03*
D18*
X179756384Y-106646384D03*
X179756384Y-103596384D03*
D20*
%TO.P,Q12,3,S*%
%TO.N,GND*%
X187731384Y-102841384D03*
%TD*%
D79*
%TO.P,Y8,*%
%TO.N,*%
X131400000Y-80600000D03*
D80*
%TO.P,Y8,1,1*%
%TO.N,VCC*%
X119725667Y-88682231D03*
D81*
%TO.P,Y8,2,2*%
%TO.N,Net-(Y8-Pad2)*%
X123317769Y-92274333D03*
%TD*%
D82*
%TO.P,U11,1,VDD*%
%TO.N,/Vref+*%
X157940000Y-101600000D03*
D83*
%TO.P,U11,2,GND*%
%TO.N,/Vref-*%
X156670000Y-101600000D03*
%TO.P,U11,3,OUTPUT*%
%TO.N,/H1*%
X155400000Y-101600000D03*
%TD*%
D79*
%TO.P,X2,*%
%TO.N,*%
X132400000Y-101600000D03*
D84*
%TO.P,X2,1,1*%
%TO.N,/X2*%
X140482231Y-113274333D03*
D81*
%TO.P,X2,2,2*%
%TO.N,Net-(X1-Pad2)*%
X144074333Y-109682231D03*
%TD*%
D79*
%TO.P,Y2,*%
%TO.N,*%
X152400000Y-81600000D03*
D80*
%TO.P,Y2,1,1*%
%TO.N,/X1*%
X140725667Y-89682231D03*
D81*
%TO.P,Y2,2,2*%
%TO.N,Net-(Y1-Pad2)*%
X144317769Y-93274333D03*
%TD*%
D79*
%TO.P,X1,*%
%TO.N,*%
X172400000Y-101600000D03*
D85*
%TO.P,X1,1,1*%
%TO.N,/Y2*%
X164317769Y-89925667D03*
D81*
%TO.P,X1,2,2*%
%TO.N,Net-(X1-Pad2)*%
X160725667Y-93517769D03*
%TD*%
D79*
%TO.P,Y5,*%
%TO.N,*%
X173400000Y-122600000D03*
D86*
%TO.P,Y5,1,1*%
%TO.N,Net-(Y5-Pad1)*%
X185074333Y-114517769D03*
D81*
%TO.P,Y5,2,2*%
%TO.N,Net-(D34-A)*%
X181482231Y-110925667D03*
%TD*%
D79*
%TO.P,Y9,*%
%TO.N,*%
X131400000Y-122600000D03*
D85*
%TO.P,Y9,1,1*%
%TO.N,Net-(Y8-Pad2)*%
X123317769Y-110925667D03*
D81*
%TO.P,Y9,2,2*%
%TO.N,Net-(D35-A)*%
X119725667Y-114517769D03*
%TD*%
D79*
%TO.P,Y6,*%
%TO.N,*%
X173400000Y-80600000D03*
D84*
%TO.P,Y6,1,1*%
%TO.N,VCC*%
X181482231Y-92274333D03*
D81*
%TO.P,Y6,2,2*%
%TO.N,Net-(Y5-Pad1)*%
X185074333Y-88682231D03*
%TD*%
D87*
%TO.P,U12,1,VDD*%
%TO.N,/Vreg*%
X147400000Y-102870000D03*
D88*
%TO.P,U12,2,GND*%
%TO.N,GND*%
X147400000Y-101600000D03*
%TO.P,U12,3,OUTPUT*%
%TO.N,Net-(U12-OUTPUT)*%
X147400000Y-100330000D03*
%TD*%
D89*
%TO.P,U10,1,VDD*%
%TO.N,/Vref+*%
X152400000Y-104580000D03*
D88*
%TO.P,U10,2,GND*%
%TO.N,/Vref-*%
X152400000Y-105850000D03*
%TO.P,U10,3,OUTPUT*%
%TO.N,/H2*%
X152400000Y-107120000D03*
%TD*%
D79*
%TO.P,Y1,*%
%TO.N,*%
X152400000Y-121600000D03*
D86*
%TO.P,Y1,1,1*%
%TO.N,/Y1*%
X164074333Y-113517769D03*
D81*
%TO.P,Y1,2,2*%
%TO.N,Net-(Y1-Pad2)*%
X160482231Y-109925667D03*
%TD*%
D90*
%TO.N,Net-(C1-Pad1)*%
X188350000Y-132475000D03*
X179975000Y-132875000D03*
%TO.N,Net-(U1C--)*%
X182000000Y-137400000D03*
X173900000Y-141000000D03*
D91*
%TO.N,/DR*%
X160625000Y-131475000D03*
D92*
X122702163Y-134783623D03*
D91*
X118900000Y-124900000D03*
X134525000Y-129850000D03*
X198400000Y-113200000D03*
X203400000Y-103900000D03*
X188849500Y-111805278D03*
D90*
X171150000Y-131425000D03*
%TO.N,/Vref+*%
X144600000Y-124000000D03*
X141800000Y-125500000D03*
X164899998Y-128200000D03*
X136700000Y-141900000D03*
X145000000Y-119800000D03*
X137700000Y-130401000D03*
X157800000Y-127700000D03*
X145000000Y-116000000D03*
%TO.N,Net-(U1B-+)*%
X166800000Y-135150000D03*
X171734355Y-133890662D03*
%TO.N,/Vref-*%
X135200000Y-142000000D03*
X138150263Y-127412438D03*
%TO.N,GND*%
X198400000Y-119600000D03*
X183900000Y-63100000D03*
X193125000Y-63325000D03*
X116400000Y-112000000D03*
X117200000Y-107200000D03*
X192200000Y-120800000D03*
X106000000Y-113600000D03*
X193075000Y-65275000D03*
X143900000Y-67850000D03*
X191600000Y-87000000D03*
X112900000Y-82600000D03*
X188800000Y-125200000D03*
X188150000Y-89350000D03*
X151000000Y-146600000D03*
X122200000Y-58300000D03*
X194400000Y-106900000D03*
X106700000Y-99000000D03*
X145150000Y-64887500D03*
X132000000Y-48600000D03*
X116400000Y-110400000D03*
X190000000Y-67400000D03*
X201000000Y-87400000D03*
X143400000Y-59900000D03*
X187700000Y-102900000D03*
X139900000Y-98800000D03*
X152250000Y-59350000D03*
X162150000Y-68600000D03*
X134000000Y-108600000D03*
X198400000Y-121800000D03*
X135700000Y-70800000D03*
X114800000Y-106000000D03*
X157400000Y-65400000D03*
X114400000Y-98850000D03*
X169100000Y-110700000D03*
X133300000Y-85800000D03*
X170400000Y-85600000D03*
X129900000Y-66100000D03*
X172400000Y-58850000D03*
X182205758Y-133739826D03*
X110400000Y-103300000D03*
X165900000Y-102600000D03*
X134400000Y-87300000D03*
X177500000Y-86500000D03*
X197800000Y-87800000D03*
X140500000Y-96200000D03*
X151150000Y-52100000D03*
X135900000Y-67700000D03*
X106000000Y-112000000D03*
X155200000Y-140400000D03*
X179500000Y-80000000D03*
X171700000Y-69600000D03*
X182000000Y-67400000D03*
X134400000Y-85800000D03*
D91*
X136800000Y-47450000D03*
D90*
X135697784Y-65599964D03*
X171700000Y-68000000D03*
X134400000Y-88700000D03*
X133300000Y-88700000D03*
X197800000Y-85800000D03*
X170400000Y-87100000D03*
X116100000Y-67000000D03*
X106600000Y-81600000D03*
X153400000Y-52100000D03*
D91*
X136800000Y-53400000D03*
D90*
X188150000Y-91350000D03*
X171650000Y-87100000D03*
X133300000Y-87300000D03*
X190150000Y-100100000D03*
X122800000Y-55100000D03*
X112200000Y-113000000D03*
X183937500Y-65100000D03*
X201000000Y-85600000D03*
X135700000Y-108600000D03*
X188800000Y-127000000D03*
X121200000Y-62000000D03*
X116100000Y-76400000D03*
X126243393Y-138314440D03*
X142200000Y-96200000D03*
X171650000Y-88600000D03*
X190100000Y-104400000D03*
X170400000Y-88600000D03*
X155200000Y-138400000D03*
X171600000Y-85600000D03*
X169150000Y-58850000D03*
X116100000Y-78100000D03*
X106600000Y-83500000D03*
X170600000Y-54600000D03*
%TO.N,Net-(U2B-+)*%
X142700000Y-132599500D03*
X142700000Y-130400500D03*
X126972724Y-126397058D03*
D92*
X125493908Y-127678171D03*
D90*
%TO.N,Net-(C8-Pad1)*%
X133000000Y-142800000D03*
X129235786Y-133078427D03*
%TO.N,Net-(U2C--)*%
X132195056Y-141104944D03*
X129661433Y-138571321D03*
%TO.N,/Vcc_en*%
X203500000Y-101650000D03*
X195600000Y-108150500D03*
X157800000Y-114600000D03*
X142752899Y-111852899D03*
X147129977Y-111929977D03*
X160064500Y-114600000D03*
%TO.N,/Y1*%
X178700000Y-121575000D03*
X179300746Y-118000000D03*
D92*
%TO.N,/X1*%
X146000000Y-92000000D03*
D90*
X168502000Y-137769626D03*
D91*
X140725667Y-83278863D03*
D90*
X171707835Y-136745607D03*
D92*
%TO.N,/Y2*%
X156000000Y-98400000D03*
D90*
%TO.N,/X2*%
X122665481Y-127678170D03*
D92*
X116400000Y-120300000D03*
D90*
%TO.N,Net-(Q1-B)*%
X192137763Y-118500000D03*
X187000000Y-119600000D03*
%TO.N,Net-(Q3-B)*%
X118200000Y-84900000D03*
X112900000Y-84850000D03*
X106600000Y-103900000D03*
X105505676Y-106252000D03*
X112900000Y-92300000D03*
%TO.N,Net-(Q5-B)*%
X198100000Y-107900000D03*
X196400000Y-108900000D03*
%TO.N,Net-(Q6-B)*%
X191500000Y-84600000D03*
X117950000Y-137325000D03*
X118675000Y-139500000D03*
X191500000Y-77350000D03*
%TO.N,Net-(Q8-B)*%
X112199999Y-115200000D03*
X112200000Y-122400000D03*
%TO.N,/H1*%
X178800000Y-127525000D03*
X182673551Y-126796543D03*
X169175000Y-126175000D03*
X172000000Y-128775000D03*
%TO.N,Net-(U1D-+)*%
X181000000Y-135400000D03*
X174700000Y-141900000D03*
%TO.N,Net-(R13-Pad2)*%
X184200000Y-137000000D03*
X184200000Y-139100000D03*
%TO.N,Net-(U12-OUTPUT)*%
X156400000Y-94350000D03*
X154300000Y-96400000D03*
%TO.N,/H2*%
X132552163Y-138633623D03*
X134500000Y-131625000D03*
X145800000Y-113000000D03*
X143450000Y-115350000D03*
%TO.N,Net-(U2D-+)*%
X121300000Y-142200000D03*
X127106112Y-137379675D03*
%TO.N,Net-(U2B--)*%
X121875000Y-139200000D03*
X121975000Y-137725000D03*
%TO.N,+5V*%
X131650000Y-59600000D03*
X129150000Y-59600000D03*
D92*
X170400000Y-67600000D03*
X167400000Y-67100000D03*
D90*
%TO.N,/MCU/RESET*%
X175400000Y-71350000D03*
X175100000Y-66900000D03*
X173450000Y-59850000D03*
X171200000Y-71250498D03*
D91*
%TO.N,VCC*%
X171000000Y-93700000D03*
D90*
X126600000Y-88682231D03*
X101900000Y-103350000D03*
X121073460Y-71259372D03*
D91*
X197900000Y-92100000D03*
D90*
X126600000Y-85900000D03*
X106800000Y-101300000D03*
X108700000Y-94900000D03*
X179400000Y-86100000D03*
D91*
X171100000Y-95800000D03*
D90*
X122700000Y-77100000D03*
X204900000Y-87600000D03*
X114400000Y-96812500D03*
D91*
X184549054Y-75499054D03*
D90*
%TO.N,Net-(D12-A)*%
X155215000Y-46575000D03*
%TO.N,Net-(D13-K)*%
X145900000Y-156600000D03*
X207549499Y-95125002D03*
X145650000Y-46600000D03*
X131900000Y-55100000D03*
X128141470Y-57858530D03*
X97400000Y-95100000D03*
%TO.N,Net-(D14-A)*%
X97400000Y-104600000D03*
%TO.N,Net-(D16-A)*%
X155349998Y-156600000D03*
%TO.N,Net-(D18-A)*%
X207400000Y-104625000D03*
%TO.N,Net-(D20-A)*%
X158915000Y-46575000D03*
%TO.N,Net-(D21-K)*%
X132679977Y-56070023D03*
X97400000Y-98850000D03*
X127450000Y-59050000D03*
X207400000Y-98825002D03*
X144150000Y-46600000D03*
X149650000Y-156600000D03*
%TO.N,Net-(D22-A)*%
X97400000Y-108350000D03*
%TO.N,Net-(D24-A)*%
X159050000Y-156600000D03*
%TO.N,Net-(D26-A)*%
X207400000Y-108350000D03*
%TO.N,Net-(J4-VBUS)*%
X127076687Y-51526687D03*
X124891470Y-54608530D03*
%TO.N,/MCU/PB3_MOSI*%
X162150000Y-61600000D03*
X164399500Y-61600000D03*
%TO.N,/MCU/PB4_MISO*%
X163650000Y-60600000D03*
X162150500Y-60600000D03*
%TO.N,/MCU/Touch3*%
X184775000Y-58950000D03*
X159400000Y-65200000D03*
X166000000Y-62200000D03*
X188400000Y-58950000D03*
X142400000Y-149500000D03*
%TO.N,/MCU/Touch1*%
X156400000Y-75100000D03*
X129150000Y-150531000D03*
X164000000Y-72200000D03*
%TO.N,/MCU/Touch2*%
X163000000Y-71200000D03*
X175900000Y-149500000D03*
X158400000Y-75100000D03*
%TO.N,Net-(D37-A)*%
X170000000Y-150100000D03*
X168700000Y-153400000D03*
%TO.N,/MCU/LightSense*%
X151200000Y-87800500D03*
X164975498Y-73399500D03*
X164091901Y-76099500D03*
%TO.N,/En_sig*%
X172150500Y-72600000D03*
X173129977Y-73929977D03*
%TO.N,Net-(Q18-B)*%
X190150000Y-75600000D03*
X185650000Y-77850000D03*
%TO.N,/MCU/LED_WH*%
X166400000Y-69651814D03*
X154400000Y-73100000D03*
%TO.N,/MCU/LED_UV*%
X166400000Y-68600000D03*
X152400000Y-73100000D03*
%TO.N,/MCU/TouchCom*%
X166000000Y-67200000D03*
X166650000Y-71000000D03*
X167600000Y-62400000D03*
X161150000Y-74850000D03*
%TO.N,/CoilPWM*%
X183700000Y-90900000D03*
X114150000Y-93850000D03*
X183600000Y-85800000D03*
X117150000Y-88850000D03*
%TO.N,/MCU/TXD0*%
X145550500Y-68850000D03*
X159891220Y-72858280D03*
X158650000Y-71350500D03*
X147505532Y-70005532D03*
%TO.N,Net-(D36-K)*%
X100975000Y-123275000D03*
X205700000Y-115750000D03*
X118825000Y-146575000D03*
X182225216Y-59100216D03*
X188450000Y-60250000D03*
X102500000Y-121100000D03*
X203625000Y-116475000D03*
X208725000Y-92075000D03*
X122600000Y-142800000D03*
X205025000Y-91300000D03*
%TO.N,Net-(D37-K)*%
X187100000Y-138200000D03*
X184300000Y-140300000D03*
%TO.N,Net-(D41-A)*%
X102400000Y-89675000D03*
X106700000Y-94800000D03*
%TO.N,Net-(D43-A)*%
X108575216Y-128475216D03*
X107100000Y-127100000D03*
%TO.N,Net-(D47-A)*%
X202400000Y-113475000D03*
X206525000Y-114025000D03*
%TO.N,Net-(D49-K)*%
X188475000Y-61375000D03*
X185061940Y-61375000D03*
%TO.N,/MCU/LED_bot*%
X180000000Y-57750000D03*
X162000000Y-148000000D03*
X188256940Y-57800000D03*
X166112500Y-151312500D03*
%TD*%
D93*
%TO.N,Net-(C1-Pad1)*%
X179975000Y-132875000D02*
X179300000Y-132875000D01*
X177782107Y-131357107D02*
X176632107Y-131357107D01*
X179300000Y-132875000D02*
X177782107Y-131357107D01*
%TO.N,Net-(U1C--)*%
X184070087Y-131056861D02*
X182673551Y-129660325D01*
X172500000Y-141000000D02*
X173900000Y-141000000D01*
X182000000Y-137400000D02*
X182000000Y-137399456D01*
X162514213Y-141900000D02*
X164023000Y-143408787D01*
X166300000Y-147200000D02*
X172500000Y-141000000D01*
X185478810Y-133920645D02*
X184331459Y-135067996D01*
X182673551Y-129660325D02*
X182673550Y-129624970D01*
X161100000Y-141900000D02*
X162514213Y-141900000D01*
X185512659Y-132456850D02*
X184112672Y-131056861D01*
X164023000Y-143408787D02*
X164023000Y-146868291D01*
X184112672Y-131056861D02*
X184070087Y-131056861D01*
X164023000Y-146868291D02*
X164354709Y-147200000D01*
X182000000Y-137399456D02*
X184331460Y-135067996D01*
X185512659Y-132456850D02*
X186863158Y-133807349D01*
X164354709Y-147200000D02*
X166300000Y-147200000D01*
X186863159Y-133920646D02*
X185478810Y-133920645D01*
D94*
%TO.N,/DR*%
X112200000Y-120100000D02*
X105900000Y-120100000D01*
X106698000Y-105745193D02*
X105400000Y-104447193D01*
D93*
X105500000Y-96900000D02*
X105400000Y-96800000D01*
D94*
X107900000Y-118100000D02*
X107900000Y-107300000D01*
D93*
X174542543Y-133990486D02*
X175379674Y-133990486D01*
D94*
X188835786Y-113100000D02*
X188835786Y-111805278D01*
D93*
X177297580Y-132822580D02*
X179674633Y-135199633D01*
D94*
X188256430Y-77252430D02*
X188256430Y-76748000D01*
D93*
X151100000Y-138337500D02*
X151100000Y-131500000D01*
D94*
X114200000Y-123100000D02*
X114200000Y-120650000D01*
D93*
X176547580Y-132822580D02*
X177297580Y-132822580D01*
D94*
X116800000Y-124900000D02*
X116400000Y-125300000D01*
D93*
X106700000Y-96900000D02*
X105500000Y-96900000D01*
X171150000Y-131475000D02*
X173067663Y-133392663D01*
D94*
X105400000Y-91200000D02*
X106600000Y-90000000D01*
D93*
X151162500Y-138400000D02*
X151162500Y-140400000D01*
D94*
X191500000Y-79650000D02*
X194500000Y-79650000D01*
X118900000Y-124900000D02*
X116800000Y-124900000D01*
D93*
X173944721Y-133392664D02*
X174542543Y-133990486D01*
X122707908Y-134777522D02*
X122707908Y-134777878D01*
D94*
X197800000Y-79650000D02*
X201550000Y-79650000D01*
D93*
X173067663Y-133392663D02*
X173944721Y-133392664D01*
D94*
X197200000Y-103950000D02*
X194400000Y-101150000D01*
D93*
X151162500Y-138400000D02*
X151100000Y-138337500D01*
X122707908Y-134777878D02*
X122702163Y-134783623D01*
D94*
X203450000Y-103950000D02*
X203400000Y-103900000D01*
X191500000Y-79650000D02*
X190654000Y-79650000D01*
X190130508Y-113100000D02*
X188835786Y-113100000D01*
X106698000Y-106098000D02*
X106698000Y-105745193D01*
D93*
X198250000Y-102100000D02*
X198500000Y-102100000D01*
D94*
X192100000Y-113200000D02*
X190130508Y-113200000D01*
X112900000Y-90000000D02*
X116000000Y-90000000D01*
X116000000Y-90000000D02*
X116100000Y-90100000D01*
X160625000Y-131475000D02*
X160601500Y-131498500D01*
X151101500Y-131498500D02*
X151100000Y-131500000D01*
D93*
X179674633Y-135199633D02*
X179674633Y-136132720D01*
X179674633Y-136132720D02*
X179035230Y-136772123D01*
D94*
X188835786Y-111805278D02*
X188849500Y-111805278D01*
D93*
X175379674Y-133990486D02*
X176547580Y-132822580D01*
D94*
X134525000Y-129850000D02*
X136173500Y-131498500D01*
X105400000Y-104447193D02*
X105400000Y-96800000D01*
X114200000Y-120650000D02*
X113650000Y-120100000D01*
X105900000Y-120100000D02*
X107900000Y-118100000D01*
X114200000Y-123100000D02*
X116400000Y-125300000D01*
X136173500Y-131498500D02*
X151098500Y-131498500D01*
X194400000Y-101150000D02*
X194400000Y-79750000D01*
X113650000Y-120100000D02*
X112200000Y-120100000D01*
X203500000Y-103950000D02*
X203450000Y-103950000D01*
X107900000Y-107300000D02*
X106698000Y-106098000D01*
X105400000Y-96800000D02*
X105400000Y-91200000D01*
X151098500Y-131498500D02*
X151100000Y-131500000D01*
X194500000Y-79650000D02*
X197800000Y-79650000D01*
X194400000Y-79750000D02*
X194500000Y-79650000D01*
X116100000Y-90100000D02*
X116100000Y-91499999D01*
X160601500Y-131498500D02*
X151101500Y-131498500D01*
X190654000Y-79650000D02*
X188256430Y-77252430D01*
D93*
X171150000Y-131425000D02*
X171150000Y-131475000D01*
D94*
X112900000Y-90000000D02*
X106600000Y-90000000D01*
D93*
%TO.N,/Vref+*%
X156841218Y-102791218D02*
X157940000Y-101692437D01*
X168754000Y-135750130D02*
X168754000Y-132754839D01*
X153880000Y-103100000D02*
X156532437Y-103100000D01*
X156150000Y-108600000D02*
X156150000Y-108330000D01*
D94*
X156400000Y-129100000D02*
X157800000Y-127700000D01*
D93*
X166176160Y-130177000D02*
X165581709Y-130177000D01*
D95*
X145200000Y-125450000D02*
X145200000Y-127700000D01*
D93*
X138852000Y-143752000D02*
X139500000Y-144400000D01*
X145000000Y-119800000D02*
X145000000Y-123600000D01*
X145000000Y-112292894D02*
X151400000Y-105892894D01*
X156150000Y-108330000D02*
X152400000Y-104580000D01*
X156575000Y-104350000D02*
X156575000Y-103142563D01*
X164900000Y-146200000D02*
X164900000Y-146127000D01*
X169575000Y-141452000D02*
X169927000Y-141100000D01*
X151400000Y-105892894D02*
X151400000Y-105487563D01*
D95*
X157800000Y-125450000D02*
X157800000Y-127700000D01*
D93*
X136775000Y-141975000D02*
X136700000Y-141900000D01*
X168754000Y-132754839D02*
X166176160Y-130177000D01*
D95*
X144800000Y-124050000D02*
X146200000Y-125450000D01*
D94*
X146200000Y-127700000D02*
X147600000Y-129100000D01*
D93*
X169927000Y-136923130D02*
X168754000Y-135750130D01*
X152400000Y-104580000D02*
X153880000Y-103100000D01*
D94*
X147600000Y-129100000D02*
X156400000Y-129100000D01*
D93*
X141800000Y-129173000D02*
X141800000Y-125500000D01*
X169927000Y-141100000D02*
X169927000Y-136923130D01*
X157940000Y-101692437D02*
X157940000Y-101600000D01*
X165581709Y-130177000D02*
X164899998Y-129495289D01*
X137700000Y-130401000D02*
X140572000Y-130401000D01*
X156532437Y-103100000D02*
X156841218Y-102791218D01*
X145000000Y-116000000D02*
X145000000Y-112292894D01*
X151400000Y-105487563D02*
X152307563Y-104580000D01*
D95*
X146200000Y-125450000D02*
X146200000Y-127700000D01*
D93*
X136775000Y-143752000D02*
X138852000Y-143752000D01*
X140572000Y-130401000D02*
X141800000Y-129173000D01*
X152307563Y-104580000D02*
X152400000Y-104580000D01*
X136775000Y-143752000D02*
X136775000Y-141975000D01*
X146400000Y-128800000D02*
X146400000Y-127700000D01*
X145000000Y-123600000D02*
X144600000Y-124000000D01*
X156575000Y-103142563D02*
X156532437Y-103100000D01*
X164900000Y-146127000D02*
X169575000Y-141452000D01*
X164899998Y-129495289D02*
X164899998Y-128200000D01*
%TO.N,Net-(U1B-+)*%
X165850000Y-139225000D02*
X166204300Y-139225000D01*
D94*
X166800000Y-135200000D02*
X163200000Y-135200000D01*
D93*
X171734352Y-133890663D02*
X172275000Y-133890663D01*
X163200000Y-123850000D02*
X161400000Y-123850001D01*
D94*
X163200000Y-135200000D02*
X161400000Y-135200000D01*
D93*
X171734352Y-133890663D02*
X171734354Y-133890663D01*
X172275000Y-133890663D02*
X173738443Y-133890664D01*
X163200000Y-135200000D02*
X162873000Y-134873000D01*
X162873000Y-124377000D02*
X163200000Y-124050000D01*
X171734355Y-133890662D02*
X172275000Y-133890663D01*
X179045837Y-138557567D02*
X179933256Y-137670148D01*
X166800000Y-138629300D02*
X166800000Y-135150000D01*
X171734354Y-133890663D02*
X171734355Y-133890662D01*
X173738443Y-133890664D02*
X178405347Y-138557568D01*
X162873000Y-134873000D02*
X162873000Y-124377000D01*
X178405347Y-138557568D02*
X179045837Y-138557567D01*
X166204300Y-139225000D02*
X166800000Y-138629300D01*
X183433435Y-134169969D02*
X179933256Y-137670148D01*
D94*
X161400000Y-135200000D02*
X157800000Y-135200000D01*
D93*
%TO.N,/Vref-*%
X169500000Y-137100000D02*
X169500000Y-139220700D01*
X149800000Y-106785788D02*
X149800000Y-105600000D01*
X144250000Y-116310661D02*
X144250000Y-112335788D01*
D94*
X142428249Y-120228249D02*
X145756497Y-116900000D01*
D95*
X166800000Y-125450000D02*
X166800000Y-127700000D01*
D93*
X166800000Y-128600000D02*
X166800000Y-127650000D01*
X167268700Y-141452000D02*
X167225000Y-141452000D01*
X137173000Y-146500000D02*
X139500000Y-146500000D01*
X158795000Y-100872378D02*
X158522622Y-100600000D01*
D94*
X142428249Y-120228249D02*
X138800000Y-123856497D01*
D93*
X144250000Y-112335788D02*
X149800000Y-106785788D01*
X152800000Y-102600000D02*
X156325331Y-102600000D01*
D95*
X138799999Y-124050000D02*
X137200000Y-125650000D01*
D93*
X168327000Y-132931709D02*
X168327000Y-135927000D01*
D94*
X165200000Y-123906497D02*
X165200000Y-124050000D01*
X138800000Y-123856497D02*
X138800000Y-124000000D01*
X137200000Y-127649999D02*
X137200000Y-128649999D01*
D93*
X158795000Y-104205000D02*
X158795000Y-100872378D01*
X134425000Y-142775000D02*
X135200000Y-142000000D01*
D95*
X165200000Y-123850001D02*
X166800000Y-125450000D01*
D93*
X154075000Y-107525000D02*
X152400000Y-105850000D01*
X167020023Y-127429977D02*
X166800000Y-127650000D01*
X169500000Y-139220700D02*
X167268700Y-141452000D01*
X156670000Y-102255331D02*
X156670000Y-101600000D01*
X156325331Y-102600000D02*
X156670000Y-102255331D01*
D94*
X145756497Y-116900000D02*
X158193503Y-116900000D01*
D93*
X167279977Y-128129977D02*
X166800000Y-127650000D01*
X149800000Y-105600000D02*
X152800000Y-102600000D01*
X166800000Y-127650000D02*
X165750000Y-126600000D01*
X164900000Y-143777000D02*
X167225000Y-141452000D01*
D94*
X166800000Y-127650000D02*
X166800000Y-125650000D01*
D93*
X156911433Y-100600000D02*
X156670000Y-100841433D01*
X164200000Y-127038334D02*
X164200000Y-129399161D01*
X134425000Y-143752000D02*
X134425000Y-142775000D01*
X165999291Y-130604000D02*
X168327000Y-132931709D01*
X164900000Y-144200000D02*
X164900000Y-143777000D01*
X165404839Y-130604000D02*
X165999291Y-130604000D01*
X156670000Y-100841433D02*
X156670000Y-101600000D01*
D94*
X166800000Y-125650000D02*
X165200000Y-124050000D01*
D93*
X158522622Y-100600000D02*
X156911433Y-100600000D01*
X168327000Y-135927000D02*
X169500000Y-137100000D01*
X134425000Y-143752000D02*
X137173000Y-146500000D01*
D94*
X158193503Y-116900000D02*
X165200000Y-123906497D01*
D93*
X165750000Y-126600000D02*
X164638334Y-126600000D01*
X144978249Y-117038910D02*
X144250000Y-116310661D01*
X154075000Y-108600000D02*
X154075000Y-107525000D01*
X164638334Y-126600000D02*
X164200000Y-127038334D01*
X164200000Y-129399161D02*
X165404839Y-130604000D01*
D95*
X137200000Y-125650000D02*
X137200000Y-127649999D01*
D93*
%TO.N,GND*%
X135750000Y-67550000D02*
X135900000Y-67700000D01*
X134400000Y-70800000D02*
X134400000Y-70150000D01*
D96*
X171000000Y-87250000D02*
X171050000Y-87300000D01*
D93*
X134400000Y-67550000D02*
X135750000Y-67550000D01*
D94*
X191600000Y-87000000D02*
X191500000Y-86900000D01*
D93*
X148398000Y-103927000D02*
X148398000Y-101648000D01*
X194400000Y-106900000D02*
X194450000Y-106900000D01*
X194450000Y-106900000D02*
X194421384Y-106871384D01*
D94*
X197800000Y-86900000D02*
X197800000Y-87800000D01*
D93*
X147225000Y-105100000D02*
X148398000Y-103927000D01*
X135607106Y-65600000D02*
X134400000Y-65600000D01*
X135607106Y-65600000D02*
X135697748Y-65600000D01*
X172400000Y-58800000D02*
X172400000Y-58850000D01*
X162150000Y-68600000D02*
X162350000Y-68800000D01*
D94*
X116100001Y-77200000D02*
X116100000Y-78100000D01*
D93*
X122800000Y-55100000D02*
X122331624Y-55100000D01*
X194400000Y-106850000D02*
X194400000Y-106900000D01*
X169150000Y-58800000D02*
X169150000Y-58850000D01*
X135700000Y-70800000D02*
X134400000Y-70800000D01*
D94*
X116100000Y-76400000D02*
X115700000Y-76800000D01*
D93*
X122331624Y-55100000D02*
X121240812Y-54009188D01*
X143900000Y-67850000D02*
X143550000Y-68200000D01*
X148350000Y-101600000D02*
X147400000Y-101600000D01*
X148398000Y-101648000D02*
X148350000Y-101600000D01*
X172900000Y-68000000D02*
X171700000Y-68000000D01*
D94*
X116100000Y-78100000D02*
X116100000Y-76400000D01*
D93*
X183937500Y-63100000D02*
X183900000Y-63100000D01*
X135697748Y-65600000D02*
X135697784Y-65599964D01*
X143550000Y-68200000D02*
X141600000Y-68200000D01*
X172900000Y-69600000D02*
X171700000Y-69600000D01*
X162350000Y-68800000D02*
X164400000Y-68800000D01*
X193900000Y-106350000D02*
X194400000Y-106850000D01*
%TO.N,Net-(U2B-+)*%
X142800001Y-124050000D02*
X140800000Y-124050000D01*
X125211065Y-129940912D02*
X120827003Y-134324974D01*
X121809882Y-135675547D02*
X125310061Y-139175726D01*
D94*
X142600000Y-135200000D02*
X137500000Y-135200000D01*
D93*
X135052163Y-134727163D02*
X135425000Y-135100000D01*
X120827003Y-134324974D02*
X120827003Y-134692670D01*
D94*
X145200000Y-135200000D02*
X142600000Y-135200000D01*
X137500000Y-135200000D02*
X137400000Y-135100000D01*
D93*
X142600000Y-135200000D02*
X142600000Y-132699500D01*
X127102163Y-126183623D02*
X127927124Y-126183623D01*
X135425000Y-135100000D02*
X137400000Y-135100000D01*
X120827003Y-134692670D02*
X121809881Y-135675548D01*
X127927124Y-126183623D02*
X135052163Y-133308661D01*
X142600000Y-132699500D02*
X142700000Y-132599500D01*
X125211065Y-127395328D02*
X125211065Y-129940912D01*
X142700000Y-130400500D02*
X142700000Y-124100000D01*
X135052163Y-133308661D02*
X135052163Y-134727163D01*
X142700000Y-124100000D02*
X142600000Y-124000000D01*
%TO.N,Net-(C8-Pad1)*%
X129700000Y-146100000D02*
X133000000Y-142800000D01*
X129700000Y-146900000D02*
X129700000Y-146100000D01*
%TO.N,Net-(U2C--)*%
X125738031Y-141399748D02*
X124412035Y-140073752D01*
X128220703Y-139959019D02*
X128273735Y-139959019D01*
X128273735Y-139959019D02*
X129661433Y-138571321D01*
X132285120Y-141104944D02*
X133790064Y-139600000D01*
X126833005Y-141399748D02*
X125738031Y-141399748D01*
X132195056Y-141104944D02*
X132285120Y-141104944D01*
X126833005Y-141399748D02*
X126833005Y-144033005D01*
X126833005Y-141399748D02*
X126833005Y-141346717D01*
X133790064Y-139600000D02*
X138700000Y-139600000D01*
X132195056Y-141470452D02*
X128232754Y-145432754D01*
X126833005Y-144033005D02*
X128232754Y-145432754D01*
X132195056Y-141104944D02*
X132195056Y-141470452D01*
X126833005Y-141346717D02*
X128220703Y-139959019D01*
%TO.N,/Vcc_en*%
X185219307Y-116281983D02*
X187000000Y-114501290D01*
X174487107Y-106895000D02*
X174075000Y-106895000D01*
X160064500Y-114600000D02*
X162910945Y-111753555D01*
X175400000Y-107807893D02*
X174487107Y-106895000D01*
X188584046Y-108351384D02*
X195448616Y-108351384D01*
X174200000Y-111755000D02*
X174600000Y-111355000D01*
X147129977Y-111929977D02*
X149800000Y-114600000D01*
X195448616Y-108351384D02*
X195600000Y-108200000D01*
X174200000Y-113348528D02*
X174200000Y-111755000D01*
X187000000Y-114501290D02*
X187000000Y-109935430D01*
X138400000Y-98800000D02*
X138400000Y-107101472D01*
X195600000Y-108200000D02*
X195600000Y-108150500D01*
X137800000Y-109498528D02*
X138151472Y-109850000D01*
X140750000Y-109850000D02*
X142752899Y-111852899D01*
X174600000Y-111355000D02*
X175107107Y-111355000D01*
X149800000Y-114600000D02*
X157800000Y-114600000D01*
X173798528Y-113750000D02*
X174200000Y-113348528D01*
X172601472Y-113750000D02*
X173798528Y-113750000D01*
X187000000Y-109935430D02*
X188584046Y-108351384D01*
X180679901Y-116281983D02*
X185219307Y-116281983D01*
X175400000Y-107807893D02*
X175400000Y-111002082D01*
X138400000Y-96275000D02*
X138425000Y-96250000D01*
X162910945Y-111753555D02*
X170605027Y-111753555D01*
X175400000Y-111002082D02*
X180679901Y-116281983D01*
X170605027Y-111753555D02*
X172601472Y-113750000D01*
X175400000Y-111062107D02*
X175400000Y-107807893D01*
X138400000Y-107101472D02*
X137800000Y-107701472D01*
X138151472Y-109850000D02*
X140750000Y-109850000D01*
X138400000Y-98800000D02*
X138400000Y-96275000D01*
X137800000Y-107701472D02*
X137800000Y-109498528D01*
X175107107Y-111355000D02*
X175400000Y-111062107D01*
%TO.N,/Vreg*%
X143400000Y-105100000D02*
X145150000Y-105100000D01*
X145470000Y-102870000D02*
X141400000Y-98800000D01*
X147400000Y-102870000D02*
X145470000Y-102870000D01*
X144300000Y-96250000D02*
X143950000Y-96250000D01*
X143950000Y-96250000D02*
X141400000Y-98800000D01*
X139900000Y-108600000D02*
X143400000Y-105100000D01*
X145170000Y-105100000D02*
X147400000Y-102870000D01*
X145150000Y-105100000D02*
X145170000Y-105100000D01*
D94*
%TO.N,/Y1*%
X165556564Y-115000000D02*
X164074333Y-113517769D01*
D93*
X169156453Y-132148305D02*
X169252000Y-132243852D01*
D94*
X188835786Y-116805278D02*
X187641064Y-118000000D01*
D93*
X175201001Y-126948000D02*
X170092404Y-126948000D01*
X178700000Y-123449001D02*
X175201001Y-126948000D01*
D94*
X192100000Y-115500000D02*
X188835786Y-115500000D01*
D93*
X188835786Y-121964214D02*
X188835786Y-121105278D01*
X169252000Y-132243852D02*
X169252000Y-135543852D01*
X169156453Y-127883951D02*
X169156453Y-132148305D01*
X178700000Y-121575000D02*
X178700000Y-123449001D01*
D94*
X189792745Y-123062237D02*
X192100000Y-123062237D01*
X188835786Y-122105278D02*
X189792745Y-123062237D01*
X188835786Y-121205278D02*
X188835786Y-122105278D01*
X176300746Y-115000000D02*
X165556564Y-115000000D01*
X188835786Y-115500000D02*
X188835786Y-116805278D01*
D93*
X171778546Y-138159820D02*
X173122048Y-138159820D01*
X170092404Y-126948000D02*
X169156453Y-127883951D01*
X170425000Y-136806274D02*
X171778546Y-138159820D01*
X174509746Y-139547516D02*
X174509746Y-139600549D01*
X173122050Y-138159820D02*
X174509746Y-139547516D01*
X169252000Y-135543852D02*
X170425000Y-136716852D01*
X170425000Y-136716852D02*
X170425000Y-136806274D01*
D94*
X179300746Y-118000000D02*
X176300746Y-115000000D01*
X188835787Y-121105279D02*
X188835786Y-116805279D01*
X187641064Y-118000000D02*
X179300746Y-118000000D01*
D93*
%TO.N,/X1*%
X181248000Y-122443722D02*
X180502139Y-121697861D01*
D94*
X112900000Y-80250000D02*
X114150000Y-80250000D01*
D93*
X152925000Y-92000000D02*
X161832231Y-100907231D01*
X175407279Y-127446000D02*
X170298682Y-127446000D01*
X181410667Y-124190157D02*
X178663122Y-124190157D01*
D94*
X112900000Y-87700000D02*
X116100000Y-87700000D01*
D93*
X171707835Y-136692573D02*
X171707835Y-136745608D01*
X159315000Y-113002087D02*
X159315000Y-115607894D01*
X170320138Y-135304876D02*
X171707835Y-136692573D01*
X183090148Y-125869638D02*
X181248000Y-124027490D01*
D94*
X116100000Y-82147193D02*
X116100000Y-82199999D01*
D93*
X169725000Y-128019682D02*
X169725000Y-132012574D01*
X161832231Y-110484856D02*
X159315000Y-113002087D01*
D94*
X116100000Y-82199999D02*
X116100000Y-86500001D01*
D93*
X170298682Y-127446000D02*
X169725000Y-128019682D01*
D94*
X114150000Y-80250000D02*
X116100000Y-82199999D01*
D93*
X178663122Y-124190157D02*
X175407279Y-127446000D01*
X181248000Y-124027490D02*
X181248000Y-122443722D01*
X183200000Y-125869638D02*
X183090148Y-125869638D01*
X184087766Y-126867256D02*
X181410667Y-124190157D01*
X174800000Y-115950000D02*
X180502139Y-121652139D01*
X184087766Y-128210755D02*
X184087766Y-126867256D01*
X168502000Y-138573000D02*
X168502000Y-137769626D01*
X184158475Y-128210758D02*
X184087765Y-128210756D01*
X185537334Y-129589617D02*
X184158475Y-128210758D01*
D94*
X116100000Y-87700000D02*
X116100000Y-86500001D01*
D93*
X169725000Y-132012574D02*
X170320139Y-132607713D01*
D94*
X122347193Y-75900000D02*
X116100000Y-82147193D01*
D93*
X159657106Y-115950000D02*
X174800000Y-115950000D01*
D94*
X133346804Y-75900000D02*
X122347193Y-75900000D01*
D93*
X159315000Y-115607894D02*
X159657106Y-115950000D01*
D94*
X140725667Y-83278863D02*
X133346804Y-75900000D01*
D93*
X180502139Y-121652139D02*
X180502139Y-121697861D01*
X170320139Y-132607713D02*
X170320139Y-135304878D01*
X146000000Y-92000000D02*
X152925000Y-92000000D01*
X161832231Y-100907231D02*
X161832231Y-110484856D01*
X167850000Y-139225000D02*
X168502000Y-138573000D01*
D94*
%TO.N,/Y2*%
X188256430Y-85200000D02*
X186152400Y-85200000D01*
X188256430Y-81000000D02*
X188256430Y-85200000D01*
D93*
X135251829Y-120300000D02*
X133201829Y-118250000D01*
D94*
X188256430Y-85200000D02*
X188256430Y-86802430D01*
X190747104Y-89200000D02*
X191500000Y-89200000D01*
X183152400Y-88200000D02*
X180600000Y-88200000D01*
D93*
X149200000Y-105200000D02*
X149200000Y-106465753D01*
X156000000Y-98400000D02*
X149200000Y-105200000D01*
X128958298Y-118250000D02*
X121251268Y-125957030D01*
D94*
X165192102Y-90800000D02*
X164317769Y-89925667D01*
X188349534Y-86802430D02*
X190747104Y-89200000D01*
D93*
X133201829Y-118250000D02*
X128958298Y-118250000D01*
D94*
X178000000Y-90800000D02*
X165192102Y-90800000D01*
D93*
X119810537Y-130480081D02*
X121198234Y-129092382D01*
X142400000Y-113265753D02*
X142400000Y-118347310D01*
X142400000Y-118347310D02*
X140447310Y-120300000D01*
X121251268Y-125957030D02*
X121251268Y-129092383D01*
D94*
X180600000Y-88200000D02*
X178000000Y-90800000D01*
X188256430Y-86802430D02*
X188349534Y-86802430D01*
D93*
X149200000Y-106465753D02*
X142400000Y-113265753D01*
D94*
X191500000Y-81950000D02*
X189206430Y-81950000D01*
X186152400Y-85200000D02*
X183152400Y-88200000D01*
D93*
X140447310Y-120300000D02*
X135251829Y-120300000D01*
X121198234Y-129092382D02*
X121251267Y-129092382D01*
D94*
X189206430Y-81950000D02*
X188256430Y-81000000D01*
%TO.N,/X2*%
X114400000Y-111400000D02*
X114400000Y-113400000D01*
X116400000Y-115400000D02*
X116400000Y-116200000D01*
D93*
X134430591Y-136198700D02*
X135096276Y-136864385D01*
D94*
X116400000Y-120300000D02*
X113900000Y-117800000D01*
X112199999Y-110600000D02*
X113600000Y-110600000D01*
X137538795Y-116217769D02*
X140482231Y-113274333D01*
D93*
X124079694Y-126263957D02*
X122665481Y-127678170D01*
X128094016Y-128575476D02*
X129611871Y-128575476D01*
X125782497Y-126263957D02*
X128094016Y-128575476D01*
D94*
X116417769Y-116217769D02*
X137538795Y-116217769D01*
D93*
X124079694Y-126263957D02*
X125782497Y-126263957D01*
X132700251Y-139985535D02*
X131075647Y-139985535D01*
D94*
X113600000Y-110600000D02*
X114400000Y-111400000D01*
D93*
X129687949Y-141426265D02*
X129687949Y-141373233D01*
X129611871Y-128575476D02*
X134430591Y-133394196D01*
D94*
X116400000Y-116200000D02*
X116417769Y-116217769D01*
D93*
X122665481Y-127678170D02*
X122665481Y-127678169D01*
X129687949Y-141373233D02*
X131075647Y-139985535D01*
D94*
X116400000Y-120300000D02*
X116400000Y-116200000D01*
X114400000Y-113400000D02*
X116400000Y-115400000D01*
D93*
X134430591Y-133394196D02*
X134430591Y-136198700D01*
X135096276Y-136864385D02*
X135096276Y-137589510D01*
D94*
X113900000Y-117800000D02*
X112200000Y-117800000D01*
D93*
X135096276Y-137589510D02*
X132700251Y-139985535D01*
%TO.N,Net-(DS1-A)*%
X108725000Y-96925000D02*
X108700000Y-96900000D01*
X108725000Y-99000000D02*
X108725000Y-96925000D01*
D94*
%TO.N,Net-(Y1-Pad2)*%
X160482231Y-100756485D02*
X153000079Y-93274333D01*
X160482231Y-109925667D02*
X160482231Y-100756485D01*
X153000079Y-93274333D02*
X144317769Y-93274333D01*
D93*
%TO.N,Net-(Q1-B)*%
X190275000Y-127350000D02*
X193448000Y-124177000D01*
X192100000Y-110900000D02*
X193448000Y-112248000D01*
X184100000Y-121400000D02*
X185900000Y-119600000D01*
X193448000Y-124177000D02*
X193448000Y-119810237D01*
X180091164Y-142054414D02*
X184572378Y-137573200D01*
X185900000Y-119600000D02*
X187000000Y-119600000D01*
X193448000Y-117114237D02*
X192100000Y-118462237D01*
X177391207Y-142375943D02*
X178734709Y-142375943D01*
X184627646Y-137573200D02*
X190275000Y-131925846D01*
X184572378Y-137573200D02*
X184627646Y-137573200D01*
X192100000Y-118462237D02*
X192137763Y-118500000D01*
X193448000Y-119810237D02*
X192137763Y-118500000D01*
X193448000Y-112248000D02*
X193448000Y-117114237D01*
X178734709Y-142375943D02*
X179056238Y-142054414D01*
X179056238Y-142054414D02*
X180091164Y-142054414D01*
X190275000Y-131925846D02*
X190275000Y-127350000D01*
%TO.N,Net-(Q3-B)*%
X141476964Y-147915297D02*
X138267260Y-151125000D01*
X174396762Y-145907107D02*
X171051869Y-149252000D01*
X120620000Y-143009422D02*
X120620000Y-140246054D01*
X132498000Y-151125000D02*
X130228524Y-148855524D01*
X166956131Y-149252000D02*
X166946131Y-149242000D01*
X111150000Y-99182821D02*
X111150000Y-94050000D01*
X138267260Y-151125000D02*
X132498000Y-151125000D01*
X127496970Y-148855524D02*
X125443454Y-146802008D01*
X124412586Y-146802008D02*
X120620000Y-143009422D01*
X166946131Y-149242000D02*
X144311405Y-149242000D01*
X120300000Y-84900000D02*
X118200000Y-84900000D01*
X142984702Y-147915297D02*
X141476964Y-147915297D01*
X175592893Y-145907107D02*
X174396762Y-145907107D01*
X171051869Y-149252000D02*
X166956131Y-149252000D01*
X120620000Y-140246054D02*
X118973946Y-138600000D01*
X105505676Y-109164510D02*
X105505676Y-106252000D01*
X116707565Y-138600000D02*
X108949776Y-130842211D01*
X108949776Y-130842211D02*
X108949776Y-129794882D01*
X104552000Y-122348000D02*
X104552000Y-110118186D01*
X108949776Y-129794882D02*
X109900000Y-128844658D01*
X106600000Y-102900000D02*
X108754000Y-100746000D01*
X130228524Y-148855524D02*
X127496970Y-148855524D01*
X105748000Y-122348000D02*
X104552000Y-122348000D01*
X108754000Y-100746000D02*
X109586821Y-100746000D01*
X144311405Y-149242000D02*
X142984702Y-147915297D01*
X109900000Y-126500000D02*
X105748000Y-122348000D01*
X111150000Y-94050000D02*
X112900000Y-92300000D01*
X118973946Y-138600000D02*
X116707565Y-138600000D01*
X104552000Y-110118186D02*
X105505676Y-109164510D01*
X109586821Y-100746000D02*
X111150000Y-99182821D01*
X106600000Y-103900000D02*
X106600000Y-102900000D01*
X125443454Y-146802008D02*
X124412586Y-146802008D01*
X122200000Y-83000000D02*
X120300000Y-84900000D01*
X109900000Y-128844658D02*
X109900000Y-126500000D01*
%TO.N,Net-(Q5-B)*%
X187500000Y-110142536D02*
X188742536Y-108900000D01*
X186450000Y-117150000D02*
X187500000Y-116100000D01*
X187500000Y-116100000D02*
X187500000Y-110142536D01*
X199750000Y-106250000D02*
X200400000Y-106250000D01*
X188742536Y-108900000D02*
X196400000Y-108900000D01*
X179650000Y-117150000D02*
X186450000Y-117150000D01*
X198100000Y-107900000D02*
X199750000Y-106250000D01*
X175200000Y-112700000D02*
X179650000Y-117150000D01*
X200400000Y-106250000D02*
X203500000Y-106250000D01*
%TO.N,Net-(Q6-B)*%
X191899998Y-84600000D02*
X191500000Y-84600000D01*
X193471384Y-96071384D02*
X192700000Y-95300000D01*
X166769261Y-149669000D02*
X166779262Y-149679000D01*
X195850000Y-107257106D02*
X195850000Y-104281129D01*
X116590304Y-137275000D02*
X117900000Y-137275000D01*
X193875000Y-114129000D02*
X197142894Y-110861106D01*
X175220000Y-149218334D02*
X175947020Y-148491314D01*
X185400000Y-140200000D02*
X185400000Y-137404716D01*
X192700000Y-95300000D02*
X190350000Y-92950000D01*
X169738334Y-150800000D02*
X173996130Y-150800000D01*
X190350000Y-92950000D02*
X190350000Y-91457968D01*
X118675000Y-139500000D02*
X119125000Y-139500000D01*
X175947020Y-148491314D02*
X177590372Y-148491314D01*
X119125000Y-139500000D02*
X120193000Y-140568000D01*
X181824576Y-144257110D02*
X181824576Y-143775424D01*
X130036372Y-149282524D02*
X132305848Y-151552000D01*
X142807833Y-148342297D02*
X144134536Y-149669000D01*
X193050000Y-85750002D02*
X191899998Y-84600000D01*
X144134536Y-149669000D02*
X166769261Y-149669000D01*
X190702000Y-132102715D02*
X190702000Y-127526870D01*
X120193000Y-140568000D02*
X120193000Y-143186292D01*
X193050000Y-90100000D02*
X193050000Y-85750002D01*
X138444130Y-151552000D02*
X141653834Y-148342297D01*
X177590372Y-148491314D02*
X181824576Y-144257110D01*
X124235716Y-147229008D02*
X125266579Y-147229008D01*
X117900000Y-137275000D02*
X117950000Y-137325000D01*
X117008626Y-134819951D02*
X115827163Y-136001414D01*
X191507968Y-90300000D02*
X192850000Y-90300000D01*
X117008626Y-133335024D02*
X117008626Y-134819951D01*
X120193000Y-143186292D02*
X124235716Y-147229008D01*
X166779262Y-149679000D02*
X168617335Y-149679000D01*
X115827163Y-136511859D02*
X116590304Y-137275000D01*
X125266579Y-147229008D02*
X127320095Y-149282524D01*
X197142894Y-108550000D02*
X195850000Y-107257106D01*
X194758884Y-103658884D02*
X193471384Y-102371384D01*
X192850000Y-90300000D02*
X193050000Y-90100000D01*
X197142894Y-110861106D02*
X197142894Y-108550000D01*
X181824576Y-143775424D02*
X185400000Y-140200000D01*
X193471384Y-102371384D02*
X193471384Y-96071384D01*
X195850000Y-104281129D02*
X195227755Y-103658884D01*
X141653834Y-148342297D02*
X142807833Y-148342297D01*
X185400000Y-137404716D02*
X190702000Y-132102715D01*
X127320095Y-149282524D02*
X130036372Y-149282524D01*
X173996130Y-150800000D02*
X175220000Y-149576130D01*
X190702000Y-127526870D02*
X193875000Y-124353870D01*
X168617335Y-149679000D02*
X169738334Y-150800000D01*
X193875000Y-124353870D02*
X193875000Y-114129000D01*
X115827163Y-136001414D02*
X115827163Y-136511859D01*
X132305848Y-151552000D02*
X138444130Y-151552000D01*
X175220000Y-149576130D02*
X175220000Y-149218334D01*
X190350000Y-91457968D02*
X191507968Y-90300000D01*
X195227755Y-103658884D02*
X194758884Y-103658884D01*
%TO.N,Net-(Q8-B)*%
X112200000Y-126700000D02*
X112600000Y-127100000D01*
X112600000Y-127100000D02*
X112600000Y-131731460D01*
X112200000Y-122400000D02*
X112200000Y-126700000D01*
X112600000Y-131731460D02*
X115595056Y-134726516D01*
%TO.N,Net-(U1B--)*%
X177569024Y-139369699D02*
X180029756Y-139369699D01*
X161800000Y-145900000D02*
X159823000Y-143923000D01*
X177391206Y-140929203D02*
X169677000Y-148643409D01*
X163915000Y-148815000D02*
X161800000Y-146700000D01*
X159823000Y-139277000D02*
X161700000Y-137400000D01*
X159823000Y-143923000D02*
X159823000Y-139277000D01*
X169677000Y-148825000D02*
X167133000Y-148825000D01*
X167133000Y-148825000D02*
X167123000Y-148815000D01*
X161800000Y-146700000D02*
X161800000Y-145900000D01*
X167123000Y-148815000D02*
X163915000Y-148815000D01*
X177391206Y-139547517D02*
X177391206Y-140929203D01*
X169677000Y-148643409D02*
X169677000Y-148825000D01*
X177391208Y-139547515D02*
X177569024Y-139369699D01*
X180029756Y-139369699D02*
X180831282Y-138568173D01*
%TO.N,Net-(R3-Pad2)*%
X121452306Y-138661028D02*
X121593334Y-138520000D01*
X122750000Y-138950000D02*
X122750000Y-140207768D01*
X117503603Y-135880609D02*
X120284022Y-138661028D01*
X122750000Y-140207768D02*
X123514009Y-140971777D01*
X120284022Y-138661028D02*
X121452306Y-138661028D01*
X121593334Y-138520000D02*
X122320000Y-138520000D01*
X122320000Y-138520000D02*
X122750000Y-138950000D01*
%TO.N,Net-(U6-XTAL2{slash}PB7)*%
X176400000Y-63850000D02*
X178150000Y-63850000D01*
X178150000Y-63850000D02*
X181325000Y-63850000D01*
X178150000Y-63850000D02*
X178150000Y-58162500D01*
X174650000Y-65600000D02*
X176400000Y-63850000D01*
X172900000Y-65600000D02*
X174650000Y-65600000D01*
X181325000Y-63850000D02*
X181825000Y-63350000D01*
%TO.N,Net-(U1D--)*%
X177293292Y-130264422D02*
X176484528Y-130264422D01*
X175613557Y-127944000D02*
X178161015Y-125396542D01*
X180520953Y-131694297D02*
X178723167Y-131694297D01*
X175183623Y-131565327D02*
X175183623Y-132817962D01*
X181259337Y-128210757D02*
X181259337Y-130955914D01*
X178161015Y-125396542D02*
X181273551Y-125396542D01*
X181259337Y-130955914D02*
X180739357Y-131475894D01*
X170223000Y-129274380D02*
X170223000Y-128225960D01*
X173766582Y-132817962D02*
X170223000Y-129274380D01*
X170223000Y-128225960D02*
X170504960Y-127944000D01*
X178723167Y-131694297D02*
X177293292Y-130264422D01*
X180739357Y-131475893D02*
X180520953Y-131694297D01*
X170504960Y-127944000D02*
X175613557Y-127944000D01*
X175183623Y-132817962D02*
X173766582Y-132817962D01*
X180276269Y-131938981D02*
X180739357Y-131475893D01*
X176484528Y-130264422D02*
X175183623Y-131565327D01*
%TO.N,Net-(U4-Ref)*%
X156950000Y-144350000D02*
X151762500Y-144350000D01*
X157000000Y-144400000D02*
X156950000Y-144350000D01*
X149412500Y-144350000D02*
X149362500Y-144400000D01*
X151762500Y-144350000D02*
X149412500Y-144350000D01*
%TO.N,/H1*%
X159134231Y-109367307D02*
X159134231Y-111334231D01*
X159634231Y-108867307D02*
X159134231Y-109367307D01*
X155400000Y-101507563D02*
X157057563Y-99850000D01*
X158815000Y-115815000D02*
X158815000Y-112700000D01*
X159150000Y-111350000D02*
X159150000Y-112365000D01*
X155700000Y-112700000D02*
X158815000Y-112700000D01*
X159134231Y-111334231D02*
X159150000Y-111350000D01*
X159150000Y-112365000D02*
X158815000Y-112700000D01*
X158376492Y-99850000D02*
X159634231Y-101107739D01*
X178800000Y-127525000D02*
X177688088Y-128636912D01*
X157057563Y-99850000D02*
X158376492Y-99850000D01*
X159634231Y-101107739D02*
X159634231Y-108867307D01*
X172138088Y-128636912D02*
X172000000Y-128775000D01*
X155400000Y-101600000D02*
X155400000Y-101507563D01*
X169175000Y-126175000D02*
X158815000Y-115815000D01*
X177688088Y-128636912D02*
X172138088Y-128636912D01*
%TO.N,Net-(U1D-+)*%
X162900000Y-146200000D02*
X162900000Y-146349160D01*
X164177840Y-147627000D02*
X168321000Y-147627000D01*
X168321000Y-147627000D02*
X168400000Y-147548000D01*
X181000000Y-135400000D02*
X181000000Y-133011302D01*
X169052000Y-147548000D02*
X174700000Y-141900000D01*
X162900000Y-146349160D02*
X164177840Y-147627000D01*
X181000000Y-133011302D02*
X181637383Y-132373919D01*
X168400000Y-147548000D02*
X169052000Y-147548000D01*
X162900000Y-146200000D02*
X162900000Y-144200000D01*
%TO.N,Net-(R13-Pad2)*%
X184200000Y-137000000D02*
X184200000Y-136995507D01*
X184200000Y-136995507D02*
X185229485Y-135966022D01*
X178807107Y-144492893D02*
X184200000Y-139100000D01*
X177007107Y-144492893D02*
X178807107Y-144492893D01*
%TO.N,Net-(U5A--)*%
X167465000Y-108165000D02*
X169125000Y-108165000D01*
X166000000Y-106700000D02*
X166000000Y-104800000D01*
X166000000Y-104800000D02*
X165900000Y-104700000D01*
X166000000Y-106700000D02*
X167465000Y-108165000D01*
%TO.N,Net-(U5A-+)*%
X166000000Y-108800000D02*
X166635000Y-109435000D01*
X166635000Y-109435000D02*
X169125000Y-109435000D01*
%TO.N,Net-(U12-OUTPUT)*%
X162850000Y-100950000D02*
X162337500Y-100437500D01*
X161350000Y-99450000D02*
X156400000Y-94500000D01*
X162850000Y-107650000D02*
X162850000Y-100950000D01*
X156400000Y-94500000D02*
X156400000Y-94350000D01*
X164125000Y-98725000D02*
X162412500Y-100437500D01*
X162412500Y-100437500D02*
X162337500Y-100437500D01*
X164000000Y-108800000D02*
X162850000Y-107650000D01*
X154300000Y-96400000D02*
X150370000Y-100330000D01*
X150370000Y-100330000D02*
X147400000Y-100330000D01*
X162337500Y-100437500D02*
X161350000Y-99450000D01*
%TO.N,Net-(U6-XTAL1{slash}PB6)*%
X176650000Y-64350000D02*
X178150000Y-64350000D01*
X174600000Y-66400000D02*
X176650000Y-64350000D01*
X178150000Y-64350000D02*
X178150000Y-70037500D01*
X172900000Y-66400000D02*
X174600000Y-66400000D01*
X181862500Y-65100000D02*
X181112500Y-64350000D01*
X181112500Y-64350000D02*
X178150000Y-64350000D01*
%TO.N,Net-(U2D--)*%
X133930591Y-133601302D02*
X129404765Y-129075476D01*
X127768540Y-131717246D02*
X127502163Y-131983623D01*
X127502163Y-135979674D02*
X128004138Y-136481649D01*
X129404765Y-129075476D02*
X128810310Y-129075476D01*
X128810310Y-129075476D02*
X127768540Y-130117246D01*
X127502163Y-131983623D02*
X127502163Y-135979674D01*
X133930591Y-137183624D02*
X133930591Y-133601302D01*
X128706112Y-137183623D02*
X128004138Y-136481649D01*
X131102163Y-137183623D02*
X128706112Y-137183623D01*
X127768540Y-130117246D02*
X127768540Y-131717246D01*
%TO.N,/H2*%
X134700000Y-126451472D02*
X138201472Y-122950000D01*
X152000000Y-112700000D02*
X152000000Y-107520000D01*
X143450000Y-115350000D02*
X143450000Y-118004415D01*
X143450000Y-118004415D02*
X138504415Y-122950000D01*
X145800000Y-112200000D02*
X150880000Y-107120000D01*
X134500000Y-131625000D02*
X134393640Y-131625000D01*
X132516377Y-138597837D02*
X132552163Y-138633623D01*
X150880000Y-107120000D02*
X152400000Y-107120000D01*
X133177000Y-127974472D02*
X135063236Y-126088236D01*
X145800000Y-113000000D02*
X145800000Y-112200000D01*
X152000000Y-107520000D02*
X152400000Y-107120000D01*
X134393640Y-131625000D02*
X133177000Y-130408360D01*
X138504415Y-122950000D02*
X138201472Y-122950000D01*
X133177000Y-130408360D02*
X133177000Y-127974472D01*
%TO.N,Net-(U2D-+)*%
X135600000Y-149848000D02*
X138301161Y-149848000D01*
X125675008Y-146375008D02*
X124589456Y-146375008D01*
X141500000Y-146500000D02*
X141500000Y-144400000D01*
X121300000Y-143085552D02*
X121300000Y-142200000D01*
X141500000Y-146649161D02*
X141500000Y-146500000D01*
X134180524Y-148428524D02*
X127728524Y-148428524D01*
X138301161Y-149848000D02*
X141500000Y-146649161D01*
X127728524Y-148428524D02*
X125675008Y-146375008D01*
X124589456Y-146375008D02*
X121300000Y-143085552D01*
X135600000Y-149848000D02*
X134180524Y-148428524D01*
%TO.N,Net-(R27-Pad1)*%
X170450000Y-107550000D02*
X170450000Y-108950000D01*
X170450000Y-108950000D02*
X173200000Y-111700000D01*
X173200000Y-111700000D02*
X173200000Y-112700000D01*
X169795000Y-106895000D02*
X170450000Y-107550000D01*
X169125000Y-106895000D02*
X169795000Y-106895000D01*
%TO.N,Net-(U2B--)*%
X120911856Y-136573573D02*
X119554211Y-135215928D01*
X119554211Y-135215928D02*
X119554211Y-133052181D01*
X121975000Y-137725000D02*
X121975000Y-137636717D01*
X132420000Y-141980000D02*
X134120000Y-141980000D01*
X138485787Y-142400000D02*
X141300000Y-142400000D01*
X121875000Y-139200000D02*
X121875000Y-140293314D01*
X126803147Y-145221461D02*
X126803147Y-145420188D01*
X128299388Y-146588707D02*
X132000000Y-142888095D01*
X121975000Y-137636717D02*
X120911856Y-136573573D01*
X135800000Y-140300000D02*
X136385787Y-140300000D01*
X121875000Y-140293314D02*
X126803147Y-145221461D01*
X127971666Y-146588707D02*
X128299388Y-146588707D01*
X132000000Y-142888095D02*
X132000000Y-142400000D01*
X126803147Y-145420188D02*
X127971666Y-146588707D01*
X141300000Y-142400000D02*
X141800000Y-141900000D01*
X136385787Y-140300000D02*
X138485787Y-142400000D01*
X134120000Y-141980000D02*
X135800000Y-140300000D01*
X132000000Y-142400000D02*
X132420000Y-141980000D01*
%TO.N,Net-(R98-Pad2)*%
X180233775Y-140961730D02*
X181729304Y-139466201D01*
X178805420Y-140961731D02*
X180233775Y-140961730D01*
%TO.N,Net-(R99-Pad2)*%
X118422840Y-135880609D02*
X120013831Y-137471599D01*
X118422840Y-134749238D02*
X118422840Y-135880609D01*
%TO.N,Net-(U1A--)*%
X176341153Y-134078047D02*
X177239178Y-134976072D01*
X176341153Y-134078046D02*
X176341153Y-134078047D01*
%TO.N,Net-(U2A--)*%
X124503959Y-132981470D02*
X124503960Y-132981470D01*
X124503960Y-132981470D02*
X125401985Y-132083445D01*
%TO.N,Net-(U5B--)*%
X174075000Y-109435000D02*
X174075000Y-108165000D01*
D94*
%TO.N,+5V*%
X155140674Y-61400000D02*
X154150000Y-61400000D01*
D93*
X169352000Y-56452000D02*
X168035000Y-55135000D01*
X122875000Y-68350000D02*
X122875000Y-66414834D01*
X122900000Y-68350000D02*
X122900000Y-70325000D01*
X174600000Y-68800000D02*
X172900000Y-68800000D01*
D94*
X144121826Y-62812500D02*
X140909326Y-59600000D01*
X149900000Y-62750000D02*
X149900000Y-61400000D01*
D93*
X176607106Y-75350000D02*
X174650000Y-73392894D01*
X174650000Y-73392894D02*
X174650000Y-68850000D01*
X132898000Y-60848000D02*
X137047700Y-60848000D01*
D94*
X143925000Y-69950000D02*
X146006135Y-69950000D01*
X156800000Y-63200000D02*
X160600000Y-63200000D01*
D93*
X167450000Y-67200000D02*
X167450000Y-67150000D01*
X166650000Y-66400000D02*
X167450000Y-67200000D01*
X136200000Y-66900000D02*
X134400000Y-66900000D01*
X166985000Y-51584000D02*
X158208894Y-51584000D01*
X122875000Y-66414834D02*
X129150000Y-60139834D01*
D94*
X149950000Y-61350000D02*
X149950000Y-59350000D01*
D93*
X139400000Y-59600000D02*
X140150000Y-58850000D01*
X141600000Y-70150000D02*
X143675000Y-70150000D01*
X164400000Y-66400000D02*
X162275000Y-66400000D01*
X162275000Y-66400000D02*
X162150000Y-66525000D01*
X168035000Y-55135000D02*
X168035000Y-52634000D01*
X174600000Y-67800000D02*
X174600000Y-68800000D01*
X131650000Y-59600000D02*
X132898000Y-60848000D01*
X122900000Y-70325000D02*
X122875000Y-70350000D01*
X129150000Y-60139834D02*
X129150000Y-59600000D01*
X139350000Y-59600000D02*
X140300000Y-59600000D01*
X167450000Y-67150000D02*
X167400000Y-67100000D01*
D94*
X160600000Y-63200000D02*
X162150000Y-64750000D01*
D93*
X174000000Y-67200000D02*
X174600000Y-67800000D01*
D94*
X140909326Y-59600000D02*
X140300000Y-59600000D01*
D93*
X169752000Y-56452000D02*
X169352000Y-56452000D01*
X168035000Y-52634000D02*
X166985000Y-51584000D01*
X172900000Y-67200000D02*
X174000000Y-67200000D01*
D94*
X149900000Y-61400000D02*
X149950000Y-61350000D01*
D93*
X174650000Y-68850000D02*
X174600000Y-68800000D01*
D94*
X156400000Y-62800000D02*
X156800000Y-63200000D01*
X146006135Y-69950000D02*
X149900000Y-66056135D01*
D93*
X154150000Y-55642894D02*
X154150000Y-61400000D01*
X139450000Y-70150000D02*
X136200000Y-66900000D01*
X164400000Y-66400000D02*
X166650000Y-66400000D01*
X170400000Y-57100000D02*
X169752000Y-56452000D01*
X170825000Y-67175000D02*
X172900000Y-67175000D01*
D94*
X156400000Y-62800000D02*
X156400000Y-62659326D01*
D93*
X141600000Y-70150000D02*
X139450000Y-70150000D01*
X158208894Y-51584000D02*
X154150000Y-55642894D01*
D94*
X154150000Y-61400000D02*
X149900000Y-61400000D01*
X145150000Y-62812500D02*
X144121826Y-62812500D01*
D93*
X137047700Y-60848000D02*
X137145700Y-60750000D01*
D94*
X149837500Y-62812500D02*
X149900000Y-62750000D01*
D93*
X138200000Y-60750000D02*
X139350000Y-59600000D01*
D94*
X145150000Y-62812500D02*
X149837500Y-62812500D01*
X156400000Y-62659326D02*
X155140674Y-61400000D01*
X162150000Y-64750000D02*
X162150000Y-66525000D01*
D93*
X137145700Y-60750000D02*
X138200000Y-60750000D01*
D94*
X149900000Y-66056135D02*
X149900000Y-62750000D01*
D93*
X177900000Y-75350000D02*
X176607106Y-75350000D01*
X170400000Y-67600000D02*
X170825000Y-67175000D01*
%TO.N,Net-(U8-3V3OUT)*%
X131975000Y-66100000D02*
X133125000Y-64950000D01*
X133125000Y-64950000D02*
X134400000Y-64950000D01*
%TO.N,/MCU/RESET*%
X182000000Y-75130000D02*
X181800000Y-75330000D01*
X165900000Y-59100000D02*
X166650000Y-59850000D01*
X169050000Y-71675000D02*
X169050000Y-72650000D01*
X175400000Y-72850000D02*
X175400000Y-71350000D01*
X169050000Y-72650000D02*
X169050000Y-73700000D01*
X163149999Y-74350000D02*
X157900000Y-69100000D01*
X176875000Y-74325000D02*
X175400000Y-72850000D01*
X175400000Y-67200000D02*
X175400000Y-71350000D01*
X171200000Y-71250498D02*
X169474502Y-71250498D01*
X179900000Y-75600000D02*
X178625000Y-74325000D01*
X157900000Y-69100000D02*
X149900000Y-69100000D01*
X169474502Y-71250498D02*
X169050000Y-71675000D01*
X165400000Y-59100000D02*
X165900000Y-59100000D01*
X179900000Y-75350000D02*
X179920000Y-75330000D01*
X169050000Y-73700000D02*
X168400000Y-74350000D01*
X168400000Y-74350000D02*
X163149999Y-74350000D01*
X178625000Y-74325000D02*
X176875000Y-74325000D01*
X182000000Y-71870000D02*
X182000000Y-75130000D01*
X175100000Y-66900000D02*
X175400000Y-67200000D01*
X181800000Y-75330000D02*
X179920000Y-75330000D01*
X166650000Y-59850000D02*
X173450000Y-59850000D01*
%TO.N,Net-(U8-DTR)*%
X141600000Y-71450000D02*
X149625000Y-71450000D01*
X149625000Y-71450000D02*
X149900000Y-71175000D01*
D97*
%TO.N,VCC*%
X166251999Y-154348001D02*
X166700000Y-153900000D01*
D94*
X128782231Y-88682231D02*
X126600000Y-88682231D01*
D96*
X179300000Y-49700000D02*
X183350000Y-53750000D01*
D97*
X100539121Y-120388559D02*
X100539121Y-108460879D01*
X127530269Y-152577000D02*
X118741000Y-143787731D01*
X204925000Y-83600000D02*
X204950000Y-83575000D01*
X133877000Y-152577000D02*
X127530269Y-152577000D01*
D96*
X125000667Y-96000667D02*
X125150000Y-96150000D01*
D93*
X126600000Y-81000000D02*
X126600000Y-85900000D01*
D94*
X114400000Y-95629326D02*
X114400000Y-96812500D01*
D97*
X100539121Y-108460879D02*
X101900000Y-107100000D01*
X109800000Y-96000000D02*
X108700000Y-94900000D01*
X105692893Y-125692893D02*
X105692893Y-125542331D01*
D93*
X192337500Y-105400000D02*
X193817768Y-105400000D01*
D97*
X118741000Y-142686875D02*
X105040755Y-128986630D01*
X142048001Y-154348001D02*
X166251999Y-154348001D01*
D94*
X186601585Y-73446523D02*
X184549054Y-75499054D01*
D93*
X191650000Y-105400000D02*
X192337500Y-105400000D01*
D96*
X184549054Y-75499054D02*
X186659440Y-73388668D01*
D93*
X191327000Y-105077000D02*
X191650000Y-105400000D01*
D94*
X119725667Y-94075667D02*
X115953659Y-94075667D01*
X190150000Y-95479326D02*
X188964058Y-94293384D01*
D93*
X193817768Y-105400000D02*
X194421384Y-104796384D01*
D97*
X105040755Y-126345031D02*
X105692893Y-125692893D01*
D94*
X181482231Y-92274333D02*
X183130333Y-92274333D01*
D93*
X141800000Y-154300000D02*
X141700000Y-154400000D01*
D97*
X109800000Y-99687121D02*
X109800000Y-96000000D01*
D96*
X171000000Y-94750000D02*
X165352011Y-94750000D01*
X165352011Y-94750000D02*
X160702011Y-90100000D01*
X143702012Y-90100000D02*
X139677012Y-94125000D01*
D94*
X185149384Y-94293384D02*
X183096384Y-96346384D01*
D97*
X106800000Y-101300000D02*
X107952000Y-100148000D01*
D93*
X191327000Y-99294768D02*
X191327000Y-105077000D01*
X190150000Y-98025000D02*
X191373384Y-99248384D01*
D94*
X145437500Y-59900000D02*
X147100000Y-59900000D01*
D93*
X100902000Y-108098000D02*
X101900000Y-107100000D01*
X112537500Y-104895000D02*
X113098528Y-104895000D01*
D97*
X105040755Y-128986630D02*
X105040755Y-126345031D01*
D93*
X114400000Y-96812500D02*
X113327000Y-97885500D01*
D94*
X119725667Y-94075667D02*
X121800000Y-96150000D01*
D96*
X160702011Y-90100000D02*
X143702012Y-90100000D01*
D94*
X183130333Y-92274333D02*
X185149384Y-94293384D01*
X199950000Y-94150000D02*
X197900000Y-92100000D01*
X147100000Y-59900000D02*
X147650000Y-59350000D01*
D93*
X191373384Y-99248384D02*
X191327000Y-99294768D01*
X171100000Y-94650000D02*
X171000000Y-94750000D01*
D97*
X137700000Y-156400000D02*
X133877000Y-152577000D01*
D94*
X188964058Y-94293384D02*
X185149384Y-94293384D01*
X126600000Y-88682231D02*
X119725667Y-88682231D01*
D96*
X183350000Y-53750000D02*
X185175000Y-53750000D01*
X186659440Y-73388668D02*
X186659440Y-69100000D01*
D97*
X141975000Y-154275000D02*
X142048001Y-154348001D01*
D94*
X190150000Y-98025000D02*
X190150000Y-95479326D01*
D97*
X118741000Y-143787731D02*
X118741000Y-142686875D01*
X204925000Y-85600000D02*
X204925000Y-83600000D01*
D96*
X185175000Y-53750000D02*
X186659440Y-55234440D01*
D93*
X100902000Y-120820491D02*
X100902000Y-108098000D01*
D97*
X109339121Y-100148000D02*
X109800000Y-99687121D01*
D93*
X164000000Y-102800000D02*
X171000000Y-95800000D01*
D97*
X204900000Y-87600000D02*
X204900000Y-85625000D01*
D93*
X105516422Y-125434913D02*
X100902000Y-120820491D01*
D96*
X148250000Y-49700000D02*
X150900000Y-49700000D01*
D94*
X179500000Y-86100000D02*
X179400000Y-86100000D01*
X186784440Y-69225000D02*
X186659440Y-69100000D01*
D93*
X120800000Y-70985912D02*
X121073460Y-71259372D01*
D97*
X204900000Y-85625000D02*
X204925000Y-85600000D01*
X139700000Y-154400000D02*
X137700000Y-156400000D01*
D96*
X150900000Y-49700000D02*
X179300000Y-49700000D01*
X139677012Y-94125000D02*
X134425000Y-94125000D01*
D97*
X107952000Y-100148000D02*
X109339121Y-100148000D01*
D93*
X204900000Y-87600000D02*
X204900000Y-84100000D01*
D97*
X105692893Y-125542331D02*
X100539121Y-120388559D01*
D93*
X113327000Y-97885500D02*
X113327000Y-103367722D01*
D94*
X133800000Y-93700000D02*
X128782231Y-88682231D01*
D93*
X150900000Y-47350000D02*
X152900000Y-47350000D01*
X150900000Y-47350000D02*
X150900000Y-49700000D01*
D94*
X115953659Y-94075667D02*
X114400000Y-95629326D01*
D93*
X113650000Y-103690722D02*
X113650000Y-104343528D01*
D94*
X181482231Y-97810537D02*
X181421384Y-97871384D01*
D93*
X113327000Y-103367722D02*
X113650000Y-103690722D01*
D96*
X134425000Y-94125000D02*
X133800000Y-94750000D01*
D94*
X133800000Y-94750000D02*
X133800000Y-93700000D01*
D93*
X164000000Y-106700000D02*
X164000000Y-102800000D01*
X120800000Y-65800000D02*
X120800000Y-70985912D01*
X113098528Y-104895000D02*
X113650000Y-104343528D01*
D97*
X141700000Y-154400000D02*
X139700000Y-154400000D01*
D93*
X171100000Y-95800000D02*
X171100000Y-94650000D01*
X196192893Y-71217893D02*
X194200000Y-69225000D01*
D94*
X193100000Y-69225000D02*
X186784440Y-69225000D01*
D93*
X110495000Y-105395000D02*
X110500000Y-105400000D01*
D97*
X101900000Y-107100000D02*
X101900000Y-103350000D01*
D94*
X203499999Y-94150000D02*
X199950000Y-94150000D01*
D93*
X194200000Y-69225000D02*
X193100000Y-69225000D01*
X171000000Y-95800000D02*
X171100000Y-95800000D01*
X122700000Y-77100000D02*
X126600000Y-81000000D01*
D96*
X186659440Y-55234440D02*
X186659440Y-69100000D01*
D94*
X119725667Y-88682231D02*
X119725667Y-94075667D01*
D93*
%TO.N,Net-(C24-Pad1)*%
X130649999Y-131664213D02*
X129235786Y-130250000D01*
X130650000Y-131664213D02*
X130649999Y-131664213D01*
X128247219Y-142813962D02*
X128247219Y-141470461D01*
X132516377Y-137201303D02*
X132516377Y-135769410D01*
X128902163Y-135583623D02*
X130650000Y-133835786D01*
X132516377Y-135702163D02*
X130650000Y-133835786D01*
X132516377Y-135769410D02*
X132516377Y-135702163D01*
X128247219Y-141470461D02*
X132516377Y-137201303D01*
X130650000Y-133835786D02*
X130650000Y-131664213D01*
%TO.N,Net-(C25-Pad1)*%
X185576141Y-131042635D02*
X181344263Y-126810757D01*
X181344263Y-126810757D02*
X179859337Y-126810757D01*
X178399373Y-129135910D02*
X176024876Y-129135910D01*
X175217893Y-129942893D02*
X175124200Y-129942893D01*
X178405421Y-129141958D02*
X178399373Y-129135910D01*
X176024876Y-129135910D02*
X175217893Y-129942893D01*
X179859336Y-127688042D02*
X178405421Y-129141958D01*
X175124200Y-129942893D02*
X173716377Y-131350716D01*
X179859337Y-126810757D02*
X179859336Y-127688042D01*
X186926874Y-131042635D02*
X185576141Y-131042635D01*
X178405421Y-129141958D02*
X179841331Y-130577868D01*
%TO.N,Net-(D12-A)*%
X151850000Y-46300000D02*
X150900000Y-45350000D01*
X154940000Y-46300000D02*
X155215000Y-46575000D01*
X151850000Y-46300000D02*
X154940000Y-46300000D01*
%TO.N,Net-(D13-K)*%
X143350000Y-51450000D02*
X143350000Y-46150000D01*
X208400000Y-100600000D02*
X208400000Y-95975503D01*
X103700000Y-124999008D02*
X103700000Y-129095445D01*
X120707372Y-72007372D02*
X119415478Y-70715478D01*
X206650000Y-108600000D02*
X206650000Y-103965479D01*
X106225000Y-73975000D02*
X109325000Y-70875000D01*
X100569000Y-82698262D02*
X106225000Y-77042260D01*
X132602000Y-153602000D02*
X137100000Y-158100000D01*
X205000000Y-124107739D02*
X205000000Y-110250000D01*
X96150000Y-96350000D02*
X96150000Y-117449008D01*
X109325000Y-70875000D02*
X109325000Y-64820228D01*
X121821460Y-69921460D02*
X121821460Y-71569204D01*
X145900000Y-156600000D02*
X147150000Y-157850000D01*
X100569000Y-91931000D02*
X100569000Y-82698262D01*
X109325000Y-64820228D02*
X109972614Y-64172614D01*
X117716000Y-143111445D02*
X117716000Y-144212301D01*
X206883000Y-103732479D02*
X206883001Y-102317525D01*
X206808000Y-102192000D02*
X208400000Y-100600000D01*
X106225000Y-77042260D02*
X106225000Y-73975000D01*
X103700000Y-129095445D02*
X117716000Y-143111445D01*
X121383292Y-72007372D02*
X120707372Y-72007372D01*
X127105700Y-153602000D02*
X132602000Y-153602000D01*
X143350000Y-46150000D02*
X143650000Y-45850000D01*
X97400000Y-95100000D02*
X96150000Y-96350000D01*
X144900000Y-45850000D02*
X145650000Y-46600000D01*
X206808000Y-102242524D02*
X206808000Y-102192000D01*
X143650000Y-45850000D02*
X144900000Y-45850000D01*
X137100000Y-158100000D02*
X144400000Y-158100000D01*
X117523413Y-63625000D02*
X114427386Y-66721027D01*
X117716000Y-144212301D02*
X127105700Y-153602000D01*
X206650000Y-103965479D02*
X206883000Y-103732479D01*
X171322161Y-153427000D02*
X175680739Y-153427000D01*
X117824707Y-63625000D02*
X117523413Y-63625000D01*
X128141470Y-57858530D02*
X128141470Y-60444086D01*
X205000000Y-110250000D02*
X206650000Y-108600000D01*
X114427386Y-66721027D02*
X114427386Y-68627386D01*
X131900000Y-55100000D02*
X139700000Y-55100000D01*
X121821460Y-71569204D02*
X121383292Y-72007372D01*
X128141470Y-60444086D02*
X121475000Y-67110556D01*
X121475000Y-69575000D02*
X121821460Y-69921460D01*
X144400000Y-158100000D02*
X145900000Y-156600000D01*
X119415478Y-70715478D02*
X119415478Y-65215771D01*
X206883001Y-102317525D02*
X206808000Y-102242524D01*
X175680739Y-153427000D02*
X205000000Y-124107739D01*
X119415478Y-65215771D02*
X117824707Y-63625000D01*
X96150000Y-117449008D02*
X103700000Y-124999008D01*
X208400000Y-95975503D02*
X207549499Y-95125002D01*
X139700000Y-55100000D02*
X143350000Y-51450000D01*
X97400000Y-95100000D02*
X100569000Y-91931000D01*
X121475000Y-67110556D02*
X121475000Y-69575000D01*
X166899161Y-157850000D02*
X171322161Y-153427000D01*
X147150000Y-157850000D02*
X166899161Y-157850000D01*
%TO.N,Net-(D14-A)*%
X99875000Y-103350000D02*
X98650000Y-103350000D01*
X98650000Y-103350000D02*
X97400000Y-104600000D01*
%TO.N,Net-(D16-A)*%
X154174998Y-155425000D02*
X155349998Y-156600000D01*
X145075000Y-155425000D02*
X154174998Y-155425000D01*
X141700000Y-156400000D02*
X144100000Y-156400000D01*
X144100000Y-156400000D02*
X145075000Y-155425000D01*
%TO.N,Net-(D18-A)*%
X206900000Y-93513837D02*
X206900000Y-87600000D01*
X208827000Y-102552000D02*
X208827000Y-95440837D01*
X207077000Y-104302000D02*
X208827000Y-102552000D01*
X208827000Y-95440837D02*
X206900000Y-93513837D01*
X207400000Y-104625000D02*
X207077000Y-104302000D01*
%TO.N,Net-(D20-A)*%
X157690000Y-45350000D02*
X152900000Y-45350000D01*
X158915000Y-46575000D02*
X157690000Y-45350000D01*
%TO.N,Net-(D21-K)*%
X114450000Y-65490673D02*
X109752000Y-70188673D01*
X118143000Y-142934575D02*
X118143000Y-144035431D01*
X143865334Y-157673000D02*
X145618334Y-155920000D01*
X120636315Y-64636315D02*
X119527386Y-63527386D01*
X206456001Y-102494394D02*
X206456000Y-103555610D01*
X171145291Y-153000000D02*
X166795291Y-157350000D01*
X204573000Y-109863610D02*
X204573000Y-123924163D01*
X122503215Y-65478471D02*
X122066635Y-65478471D01*
X139629977Y-56070023D02*
X132679977Y-56070023D01*
X206456000Y-103555610D02*
X206129000Y-103882610D01*
X114450000Y-59695228D02*
X114450000Y-65490673D01*
X109752000Y-71173000D02*
X106652000Y-74273000D01*
X206129000Y-108307610D02*
X204573000Y-109863610D01*
X106652000Y-74273000D02*
X106652000Y-77219130D01*
X175497163Y-153000000D02*
X171145291Y-153000000D01*
X166795291Y-157350000D02*
X150400000Y-157350000D01*
X104192755Y-124887893D02*
X104192755Y-128984330D01*
X150400000Y-157350000D02*
X149650000Y-156600000D01*
X123306899Y-64193101D02*
X123306899Y-64674787D01*
X100996000Y-82875131D02*
X100996000Y-95254000D01*
X206129000Y-103882610D02*
X206129000Y-108307610D01*
X144150000Y-51550000D02*
X139629977Y-56070023D01*
X207400000Y-98825002D02*
X206381000Y-99844002D01*
X118143000Y-144035431D02*
X127282569Y-153175000D01*
X109752000Y-70188673D02*
X109752000Y-71173000D01*
X204573000Y-123924163D02*
X175497163Y-153000000D01*
X132829300Y-153175000D02*
X137327300Y-157673000D01*
X115072614Y-59072614D02*
X114450000Y-59695228D01*
X144150000Y-46600000D02*
X144150000Y-51550000D01*
X106652000Y-77219130D02*
X100996000Y-82875131D01*
X145618334Y-155920000D02*
X148970000Y-155920000D01*
X121224479Y-64636315D02*
X120636315Y-64636315D01*
X96650000Y-117345138D02*
X104192755Y-124887893D01*
X123306899Y-64674787D02*
X122503215Y-65478471D01*
X104192755Y-128984330D02*
X118143000Y-142934575D01*
X97400000Y-98850000D02*
X96650000Y-99600000D01*
X122066635Y-65478471D02*
X121224479Y-64636315D01*
X127450000Y-59050000D02*
X127450000Y-60050000D01*
X96650000Y-99600000D02*
X96650000Y-117345138D01*
X137327300Y-157673000D02*
X143865334Y-157673000D01*
X127282569Y-153175000D02*
X132829300Y-153175000D01*
X206381000Y-99844002D02*
X206381000Y-102419392D01*
X100996000Y-95254000D02*
X97400000Y-98850000D01*
X127450000Y-60050000D02*
X123306899Y-64193101D01*
X206381000Y-102419392D02*
X206456001Y-102494394D01*
X148970000Y-155920000D02*
X149650000Y-156600000D01*
%TO.N,Net-(D22-A)*%
X97400000Y-108350000D02*
X98650000Y-108350000D01*
X98650000Y-108350000D02*
X99900000Y-107100000D01*
%TO.N,Net-(D24-A)*%
X157448000Y-154998000D02*
X159050000Y-156600000D01*
X144548130Y-155348000D02*
X144898131Y-154998000D01*
X144898131Y-154998000D02*
X157448000Y-154998000D01*
X140752000Y-155348000D02*
X144548130Y-155348000D01*
X139700000Y-156400000D02*
X140752000Y-155348000D01*
%TO.N,Net-(D26-A)*%
X206925000Y-85600000D02*
X207050000Y-85600000D01*
X209254000Y-93565666D02*
X209254000Y-106496000D01*
X208045000Y-92356666D02*
X209254000Y-93565666D01*
X208045000Y-86595000D02*
X208045000Y-92356666D01*
X209254000Y-106496000D02*
X207400000Y-108350000D01*
X207050000Y-85600000D02*
X208045000Y-86595000D01*
%TO.N,Net-(D28-A)*%
X130223313Y-55473313D02*
X133852000Y-59102000D01*
X130223313Y-54673313D02*
X130223313Y-55473313D01*
%TO.N,Net-(J4-VBUS)*%
X123150000Y-52100000D02*
X124400000Y-50850000D01*
X126400000Y-50850000D02*
X127076687Y-51526687D01*
X124400000Y-50850000D02*
X126400000Y-50850000D01*
X123378858Y-57135355D02*
X124891470Y-55622743D01*
X124891470Y-55622743D02*
X124891470Y-54608530D01*
%TO.N,Net-(J4-D+)*%
X122230762Y-53019239D02*
X122797919Y-53586396D01*
X121964645Y-55721142D02*
X122212132Y-55968629D01*
X123031371Y-55968629D02*
X123900000Y-55100000D01*
X122797919Y-53586396D02*
X123900000Y-53586396D01*
X124929290Y-53586396D02*
X123900000Y-53586396D01*
X123900000Y-55100000D02*
X123900000Y-53586396D01*
X129900000Y-58557106D02*
X124929290Y-53586396D01*
X122212132Y-55968629D02*
X123031371Y-55968629D01*
X129900000Y-62100000D02*
X129900000Y-58557106D01*
%TO.N,Net-(J4-D-)*%
X120125127Y-55625127D02*
X120125127Y-53124873D01*
X130850000Y-58800000D02*
X130850000Y-63150000D01*
X120125127Y-55625127D02*
X120621142Y-56121142D01*
X120621142Y-56121142D02*
X120621142Y-57064645D01*
X125136396Y-53086396D02*
X130850000Y-58800000D01*
X130850000Y-63150000D02*
X129900000Y-64100000D01*
X120125127Y-53124873D02*
X121217157Y-52032843D01*
X121217157Y-52032843D02*
X122163605Y-52032843D01*
X123217158Y-53086396D02*
X125136396Y-53086396D01*
X122163605Y-52032843D02*
X123217158Y-53086396D01*
%TO.N,/MCU/PB3_MOSI*%
X164399500Y-61600000D02*
X164400000Y-61600000D01*
X166650000Y-63175000D02*
X166650000Y-64150000D01*
X160400000Y-61600000D02*
X162150000Y-61600000D01*
X164400000Y-61600000D02*
X165800000Y-63000000D01*
X166475000Y-63000000D02*
X166650000Y-63175000D01*
X157900000Y-59100000D02*
X160400000Y-61600000D01*
X165800000Y-63000000D02*
X166475000Y-63000000D01*
%TO.N,/MCU/PB4_MISO*%
X163650000Y-60600000D02*
X163650000Y-62100000D01*
X165700000Y-64150000D02*
X165850000Y-64150000D01*
X163650000Y-62100000D02*
X165700000Y-64150000D01*
X160650500Y-59100000D02*
X162150500Y-60600000D01*
X160400000Y-59100000D02*
X160650500Y-59100000D01*
%TO.N,/MCU/PB5_SCK*%
X164400000Y-64100000D02*
X164400000Y-65600000D01*
X162900000Y-62600000D02*
X164400000Y-64100000D01*
X162900000Y-59100000D02*
X162900000Y-62600000D01*
%TO.N,/MCU/Touch3*%
X194775000Y-62300431D02*
X194775000Y-63550000D01*
X168263596Y-150533000D02*
X166425524Y-150533000D01*
X191150000Y-61700000D02*
X194174570Y-61700000D01*
X194775000Y-63550000D02*
X203502000Y-72277000D01*
X205723000Y-91026870D02*
X205723000Y-98930870D01*
X200012763Y-118087237D02*
X196875131Y-118087237D01*
X184775000Y-58950000D02*
X183625000Y-57800000D01*
X169384596Y-151654000D02*
X168263596Y-150533000D01*
X205723000Y-98930870D02*
X205527000Y-99126871D01*
X166000000Y-62200000D02*
X167670000Y-60530000D01*
X205527000Y-99126871D02*
X205527000Y-103276870D01*
X188400000Y-58950000D02*
X191150000Y-61700000D01*
X174400000Y-59861666D02*
X174400000Y-54800000D01*
X143423000Y-150523000D02*
X142400000Y-149500000D01*
X175031556Y-151654000D02*
X169384596Y-151654000D01*
X185827000Y-140376870D02*
X182251576Y-143952295D01*
X166415524Y-150523000D02*
X143423000Y-150523000D01*
X182251576Y-144433980D02*
X175031556Y-151654000D01*
X203719000Y-109509871D02*
X203719000Y-114381000D01*
X174400000Y-54800000D02*
X176400000Y-52800000D01*
X176400000Y-52800000D02*
X180493640Y-52800000D01*
X203719000Y-114381000D02*
X200012763Y-118087237D01*
X205275000Y-103528871D02*
X205275000Y-107953870D01*
X191129000Y-132279585D02*
X185827000Y-137581587D01*
X182251576Y-143952295D02*
X182251576Y-144433980D01*
X194302000Y-120660368D02*
X194302000Y-124530740D01*
X205527000Y-103276870D02*
X205275000Y-103528871D01*
X203502000Y-88805870D02*
X205723000Y-91026870D01*
X194174570Y-61700000D02*
X194775000Y-62300431D01*
X185827000Y-137581587D02*
X185827000Y-140376870D01*
X167670000Y-60530000D02*
X173731666Y-60530000D01*
X196875131Y-118087237D02*
X194302000Y-120660368D01*
X173731666Y-60530000D02*
X174400000Y-59861666D01*
X203502000Y-72277000D02*
X203502000Y-88805870D01*
X180493640Y-52800000D02*
X183800000Y-56106360D01*
X205275000Y-107953870D02*
X203719000Y-109509871D01*
X191129000Y-127703740D02*
X191129000Y-132279585D01*
X166425524Y-150533000D02*
X166415524Y-150523000D01*
X194302000Y-124530740D02*
X191129000Y-127703740D01*
X183625000Y-57800000D02*
X183625000Y-56275000D01*
%TO.N,/MCU/Touch1*%
X106856578Y-125256578D02*
X106856578Y-126117372D01*
X103702000Y-109760447D02*
X103500000Y-109962447D01*
X119339000Y-142439175D02*
X119339000Y-143540031D01*
X104198262Y-123202000D02*
X104802000Y-123202000D01*
X103349999Y-88500838D02*
X103804000Y-88954839D01*
X106014422Y-126959528D02*
X106014422Y-129114597D01*
X154950000Y-76550000D02*
X151025000Y-76550000D01*
X104802000Y-123202000D02*
X106856578Y-125256578D01*
X119339000Y-143540031D02*
X123881976Y-148083008D01*
X106856578Y-126117372D02*
X106014422Y-126959528D01*
X108680780Y-77326935D02*
X107776935Y-77326935D01*
X123881976Y-148083008D02*
X124912839Y-148083008D01*
X103702000Y-102298561D02*
X103702000Y-109760447D01*
X103500000Y-102096560D02*
X103702000Y-102298561D01*
X103349999Y-81753871D02*
X103349999Y-88500838D01*
X164000000Y-72200000D02*
X165400000Y-72200000D01*
X164000000Y-72200000D02*
X162800000Y-72200000D01*
X148150000Y-73675000D02*
X112332715Y-73675000D01*
X107776935Y-77326935D02*
X103349999Y-81753871D01*
X156400000Y-75100000D02*
X154950000Y-76550000D01*
X124912839Y-148083008D02*
X125977746Y-149147915D01*
X106014422Y-129114597D02*
X119339000Y-142439175D01*
X165400000Y-72200000D02*
X165850000Y-72650000D01*
X127360820Y-150531000D02*
X129150000Y-150531000D01*
X151025000Y-76550000D02*
X148150000Y-73675000D01*
X103500000Y-92749162D02*
X103500000Y-102096560D01*
X125977746Y-149147926D02*
X127360820Y-150531000D01*
X157700000Y-67100000D02*
X157400000Y-67100000D01*
X103500000Y-109962447D02*
X103500000Y-122503738D01*
X103804000Y-92445161D02*
X103500000Y-92749162D01*
X103804000Y-88954839D02*
X103804000Y-92445161D01*
X125977746Y-149147915D02*
X125977746Y-149147926D01*
X103500000Y-122503738D02*
X104198262Y-123202000D01*
X112332715Y-73675000D02*
X108680780Y-77326935D01*
X162800000Y-72200000D02*
X157700000Y-67100000D01*
%TO.N,/MCU/Touch2*%
X103927000Y-121423130D02*
X103927000Y-110139316D01*
X108199792Y-125403662D02*
X105571130Y-122775000D01*
X107953805Y-77753935D02*
X108857650Y-77753935D01*
X127143219Y-149709524D02*
X126154621Y-148720926D01*
X168440465Y-150106000D02*
X166602393Y-150106000D01*
X132067391Y-151979000D02*
X129797915Y-149709524D01*
X162403870Y-71200000D02*
X163000000Y-71200000D01*
X112261585Y-74350000D02*
X147900000Y-74350000D01*
X166592393Y-150096000D02*
X143957666Y-150096000D01*
X163000000Y-71200000D02*
X164400000Y-71200000D01*
X166602393Y-150106000D02*
X166592393Y-150096000D01*
X107100000Y-129596305D02*
X107100000Y-128354478D01*
X104231000Y-81476740D02*
X107953805Y-77753935D01*
X104375131Y-122775000D02*
X104125000Y-122524868D01*
X129797915Y-149709524D02*
X127143219Y-149709524D01*
X119766000Y-143363161D02*
X119766000Y-142262305D01*
X105571130Y-122775000D02*
X104375131Y-122775000D01*
X124058846Y-147656008D02*
X119766000Y-143363161D01*
X104125000Y-121621130D02*
X103927000Y-121423130D01*
X108199792Y-127254686D02*
X108199792Y-125403662D01*
X142630963Y-148769297D02*
X141830703Y-148769297D01*
X159400000Y-68196130D02*
X162403870Y-71200000D01*
X143957666Y-150096000D02*
X142630963Y-148769297D01*
X175900000Y-149500000D02*
X174172999Y-151227000D01*
X159400000Y-67100000D02*
X159400000Y-68196130D01*
X156450000Y-77050000D02*
X158400000Y-75100000D01*
X125089709Y-147656008D02*
X124058846Y-147656008D01*
X104125000Y-122524868D02*
X104125000Y-121621130D01*
X107100000Y-128354478D02*
X108199792Y-127254686D01*
X108857650Y-77753935D02*
X112261585Y-74350000D01*
X147900000Y-74350000D02*
X150600000Y-77050000D01*
X126154621Y-148720920D02*
X125089709Y-147656008D01*
X138621000Y-151979000D02*
X132067391Y-151979000D01*
X126154621Y-148720926D02*
X126154621Y-148720920D01*
X169561465Y-151227000D02*
X168440465Y-150106000D01*
X174172999Y-151227000D02*
X169561465Y-151227000D01*
X104231000Y-109835316D02*
X104231000Y-81476740D01*
X103927000Y-110139316D02*
X104231000Y-109835316D01*
X174173000Y-151227000D02*
X175900000Y-149500000D01*
X119766000Y-142262305D02*
X107100000Y-129596305D01*
X141830703Y-148769297D02*
X138621000Y-151979000D01*
X150600000Y-77050000D02*
X156450000Y-77050000D01*
D94*
%TO.N,Net-(D34-A)*%
X181482231Y-110925667D02*
X181482231Y-105172231D01*
X187721384Y-100151384D02*
X187721384Y-95591384D01*
X186551384Y-100151384D02*
X187721384Y-100151384D01*
X181482231Y-105172231D02*
X181431384Y-105121384D01*
X183106384Y-103596384D02*
X186551384Y-100151384D01*
%TO.N,Net-(D35-A)*%
X117175000Y-99955000D02*
X117175000Y-95395000D01*
X119725667Y-108604333D02*
X121825000Y-106505000D01*
X118325000Y-99955000D02*
X117175000Y-99955000D01*
X121825000Y-103455000D02*
X118325000Y-99955000D01*
X119725667Y-114517769D02*
X119725667Y-108604333D01*
D93*
%TO.N,Net-(D37-A)*%
X172000000Y-150100000D02*
X174035686Y-148064314D01*
X170000000Y-150100000D02*
X172000000Y-150100000D01*
X176635686Y-148064314D02*
X179300000Y-145400000D01*
X174035686Y-148064314D02*
X176635686Y-148064314D01*
%TO.N,Net-(D39-K)*%
X129900000Y-68350000D02*
X124950000Y-68350000D01*
%TO.N,Net-(D40-K)*%
X129900000Y-70350000D02*
X124925000Y-70350000D01*
%TO.N,Net-(Q10-B)*%
X154400000Y-75100000D02*
X153450000Y-76050000D01*
X116478732Y-70253732D02*
X112801041Y-70253732D01*
X148826472Y-73175000D02*
X119400000Y-73175000D01*
X151701472Y-76050000D02*
X148826472Y-73175000D01*
X119400000Y-73175000D02*
X116478732Y-70253732D01*
X153450000Y-76050000D02*
X151701472Y-76050000D01*
%TO.N,Net-(Q12-G)*%
X187761384Y-107371384D02*
X187731384Y-107401384D01*
%TO.N,Net-(Q14-B)*%
X118300000Y-71250000D02*
X119725000Y-72675000D01*
X119725000Y-72675000D02*
X149337500Y-72675000D01*
X117901041Y-65153732D02*
X118300000Y-65552691D01*
X149400000Y-72612500D02*
X149912500Y-72612500D01*
X149912500Y-72612500D02*
X152400000Y-75100000D01*
X118300000Y-65552691D02*
X118300000Y-71250000D01*
X149337500Y-72675000D02*
X149400000Y-72612500D01*
%TO.N,/MCU/LightSense*%
X163357106Y-73850000D02*
X164150000Y-73850000D01*
X164091901Y-76099500D02*
X164091901Y-81200993D01*
X164150000Y-73850000D02*
X167150000Y-73850000D01*
X154400000Y-65450000D02*
X154400000Y-62800000D01*
X164524998Y-73850000D02*
X164150000Y-73850000D01*
X157492394Y-87800500D02*
X151200000Y-87800500D01*
X164091901Y-81200993D02*
X157492394Y-87800500D01*
X167450000Y-73550000D02*
X167450000Y-72650000D01*
X158107106Y-68600000D02*
X157550000Y-68600000D01*
X157550000Y-68600000D02*
X154400000Y-65450000D01*
X164975498Y-73399500D02*
X164524998Y-73850000D01*
X167150000Y-73850000D02*
X167450000Y-73550000D01*
X158107106Y-68600000D02*
X163357106Y-73850000D01*
%TO.N,/En_sig*%
X171500000Y-72600000D02*
X171450000Y-72650000D01*
X172150500Y-72600000D02*
X171500000Y-72600000D01*
X179500000Y-77800000D02*
X177000000Y-77800000D01*
X177000000Y-77800000D02*
X173129977Y-73929977D01*
%TO.N,Net-(Q18-B)*%
X181500000Y-84000000D02*
X181500000Y-86100000D01*
X198800000Y-75600000D02*
X202398000Y-79198000D01*
X185650000Y-77850000D02*
X185351472Y-77850000D01*
X202398000Y-87998131D02*
X201022999Y-89373132D01*
X181500000Y-81701472D02*
X181500000Y-86100000D01*
X204249999Y-98250001D02*
X204249999Y-98600000D01*
X204850000Y-93054001D02*
X204850000Y-97399999D01*
X201022999Y-89373132D02*
X201022999Y-92276869D01*
X201022999Y-92276869D02*
X201798130Y-93052000D01*
X204847999Y-93052000D02*
X204850000Y-93054001D01*
X201798130Y-93052000D02*
X204847999Y-93052000D01*
X204850000Y-97399999D02*
X203499999Y-98750000D01*
X190150000Y-75600000D02*
X198800000Y-75600000D01*
X202398000Y-79198000D02*
X202398000Y-87998131D01*
X185351472Y-77850000D02*
X181500000Y-81701472D01*
%TO.N,/MCU/LED_WH*%
X167073186Y-69651814D02*
X171450000Y-65275000D01*
X171450000Y-65275000D02*
X171450000Y-64150000D01*
X166400000Y-69651814D02*
X167073186Y-69651814D01*
%TO.N,/MCU/LED_UV*%
X166400000Y-68600000D02*
X167300000Y-68600000D01*
X170650000Y-65250000D02*
X170650000Y-64150000D01*
X167300000Y-68600000D02*
X170650000Y-65250000D01*
%TO.N,Net-(U8-USBD+)*%
X134400000Y-63650000D02*
X133450000Y-63650000D01*
X133450000Y-63650000D02*
X131900000Y-62100000D01*
%TO.N,Net-(U8-USBD-)*%
X132100000Y-64300000D02*
X131900000Y-64100000D01*
X134400000Y-64300000D02*
X132100000Y-64300000D01*
%TO.N,/MCU/TouchCom*%
X181800000Y-56100000D02*
X181625000Y-56275000D01*
X174827000Y-60038536D02*
X174827000Y-55169131D01*
X169043000Y-60957000D02*
X173908535Y-60957000D01*
X179903870Y-53300000D02*
X181800000Y-55196130D01*
X158400000Y-73100000D02*
X156400000Y-73100000D01*
X160450000Y-74150000D02*
X159450000Y-74150000D01*
X165548000Y-69898000D02*
X165548000Y-67652000D01*
X181800000Y-55196130D02*
X181800000Y-56100000D01*
X167600000Y-62400000D02*
X169043000Y-60957000D01*
X165548000Y-67652000D02*
X166000000Y-67200000D01*
X159450000Y-74150000D02*
X158400000Y-73100000D01*
X173908535Y-60957000D02*
X174827000Y-60038536D01*
X166650000Y-71000000D02*
X166650000Y-72650000D01*
X176696130Y-53300000D02*
X179903870Y-53300000D01*
X174827000Y-55169131D02*
X176696130Y-53300000D01*
X160450000Y-74150000D02*
X161150000Y-74850000D01*
X166650000Y-71000000D02*
X165548000Y-69898000D01*
%TO.N,/CoilPWM*%
X113400000Y-93850000D02*
X114150000Y-93850000D01*
X185897054Y-76847054D02*
X183990694Y-76847054D01*
X110150000Y-101100000D02*
X110473000Y-100777000D01*
X183893640Y-76750000D02*
X177010661Y-76750000D01*
X173360661Y-73100000D02*
X172900000Y-73100000D01*
X183990694Y-76847054D02*
X183893640Y-76750000D01*
X131781983Y-90100000D02*
X135081371Y-90100000D01*
X143059981Y-88550000D02*
X157450000Y-88550000D01*
X111650000Y-95600000D02*
X113400000Y-93850000D01*
X142427998Y-87372002D02*
X142427998Y-87918017D01*
X183600000Y-85800000D02*
X186650000Y-82750000D01*
X119393436Y-86718017D02*
X128400000Y-86718017D01*
X110576870Y-100777000D02*
X111650000Y-99703870D01*
X157450000Y-88550000D02*
X172900000Y-73100000D01*
X108175000Y-103395000D02*
X110150000Y-101420000D01*
X135081371Y-90100000D02*
X137263354Y-87918017D01*
X111650000Y-99703870D02*
X111650000Y-95600000D01*
X142427998Y-87918017D02*
X143059981Y-88550000D01*
X191423000Y-97244472D02*
X191423000Y-94626870D01*
X192421384Y-98242856D02*
X191423000Y-97244472D01*
X177010661Y-76750000D02*
X173360661Y-73100000D01*
X110150000Y-101420000D02*
X110150000Y-101100000D01*
X192421384Y-100621384D02*
X192421384Y-98242856D01*
X186650000Y-82750000D02*
X186650000Y-77600000D01*
X185650000Y-92850000D02*
X183700000Y-90900000D01*
X110473000Y-100777000D02*
X110576870Y-100777000D01*
X117150000Y-88850000D02*
X117261453Y-88850000D01*
X189646130Y-92850000D02*
X185650000Y-92850000D01*
X172900000Y-73100000D02*
X172900000Y-71200000D01*
X145000000Y-84800000D02*
X142427998Y-87372002D01*
X137263354Y-87918017D02*
X142427998Y-87918017D01*
X117261453Y-88850000D02*
X119393436Y-86718017D01*
X186650000Y-77600000D02*
X185897054Y-76847054D01*
X191423000Y-94626870D02*
X189646130Y-92850000D01*
X128400000Y-86718017D02*
X131781983Y-90100000D01*
%TO.N,Net-(U13-IN)*%
X192308884Y-102733884D02*
X192421384Y-102621384D01*
X192308884Y-104421384D02*
X192308884Y-102733884D01*
%TO.N,Net-(U14-IN)*%
X108175000Y-105395000D02*
X109412500Y-106632500D01*
X111750000Y-106632500D02*
X112537500Y-105845000D01*
X109412500Y-106632500D02*
X111750000Y-106632500D01*
%TO.N,Net-(U8-CBUS1)*%
X132000000Y-68200000D02*
X134400000Y-68200000D01*
%TO.N,Net-(U8-CBUS0)*%
X131975000Y-70350000D02*
X131900000Y-70350000D01*
X133225000Y-68850000D02*
X131975000Y-70100000D01*
X134400000Y-68850000D02*
X133225000Y-68850000D01*
%TO.N,Net-(D33-K)*%
X110024784Y-73275216D02*
X110675000Y-72625000D01*
X120228939Y-60315604D02*
X122884396Y-60315604D01*
X110675000Y-69869543D02*
X120228939Y-60315604D01*
X110675000Y-72625000D02*
X110675000Y-69869543D01*
X122884396Y-60315604D02*
X123975216Y-59224784D01*
%TO.N,/MCU/RXD0*%
X141600000Y-72100000D02*
X149163972Y-72100000D01*
X149176472Y-72112500D02*
X150623528Y-72112500D01*
X149163972Y-72100000D02*
X149176472Y-72112500D01*
X150623528Y-72112500D02*
X150636028Y-72100000D01*
X150636028Y-72100000D02*
X160192894Y-72100000D01*
X162942893Y-74850000D02*
X169107107Y-74850000D01*
X169850000Y-74107107D02*
X169850000Y-72650000D01*
X160192894Y-72100000D02*
X162942893Y-74850000D01*
X169107107Y-74850000D02*
X169850000Y-74107107D01*
%TO.N,/MCU/TXD0*%
X169650000Y-75350000D02*
X170650000Y-74350000D01*
X150587500Y-70037500D02*
X152150000Y-71600000D01*
X160244068Y-72858280D02*
X162735787Y-75350000D01*
X162735787Y-75350000D02*
X169650000Y-75350000D01*
X147505532Y-70005532D02*
X147537500Y-70037500D01*
X158400500Y-71600000D02*
X158650000Y-71350500D01*
X159891220Y-72858280D02*
X160244068Y-72858280D01*
X143313972Y-68850000D02*
X145550500Y-68850000D01*
X142663972Y-69500000D02*
X143313972Y-68850000D01*
X170650000Y-74350000D02*
X170650000Y-72650000D01*
X147537500Y-70037500D02*
X150587500Y-70037500D01*
X152150000Y-71600000D02*
X158400500Y-71600000D01*
X141600000Y-69500000D02*
X142663972Y-69500000D01*
D94*
%TO.N,Net-(Y5-Pad1)*%
X177200000Y-111600000D02*
X180117769Y-114517769D01*
X181117769Y-89682231D02*
X177200000Y-93600000D01*
X184074333Y-89682231D02*
X181117769Y-89682231D01*
X185074333Y-88682231D02*
X184074333Y-89682231D01*
X177200000Y-93600000D02*
X177200000Y-111600000D01*
X180117769Y-114517769D02*
X185074333Y-114517769D01*
%TO.N,Net-(Y8-Pad2)*%
X127074333Y-110925667D02*
X123317769Y-110925667D01*
X127700000Y-93300000D02*
X127700000Y-110300000D01*
X126674333Y-92274333D02*
X127700000Y-93300000D01*
X123317769Y-92274333D02*
X126674333Y-92274333D01*
X127700000Y-110300000D02*
X127074333Y-110925667D01*
D93*
%TO.N,Net-(C26-Pad2)*%
X122665481Y-130559630D02*
X122665481Y-130506597D01*
X118449357Y-131947327D02*
X121277784Y-131947327D01*
X122665481Y-130506597D02*
X124079695Y-129092383D01*
X118422840Y-131920811D02*
X118449357Y-131947327D01*
X121277784Y-131947327D02*
X122665481Y-130559630D01*
%TO.N,Net-(C27-Pad2)*%
X174562780Y-136719090D02*
X175976995Y-138133302D01*
X175976995Y-138133302D02*
X175976991Y-140961731D01*
X173122049Y-135331393D02*
X174536262Y-136745606D01*
X173587280Y-136197132D02*
X172540148Y-135150000D01*
%TO.N,Net-(J2-Pin_6)*%
X157875000Y-57075000D02*
X157900000Y-57100000D01*
X167150000Y-52681894D02*
X166552106Y-52084000D01*
X157875000Y-52625000D02*
X157875000Y-57075000D01*
X166552106Y-52084000D02*
X158416000Y-52084000D01*
X158416000Y-52084000D02*
X157875000Y-52625000D01*
X167150000Y-55850000D02*
X167150000Y-52681894D01*
X169150000Y-57100000D02*
X168400000Y-57100000D01*
X168400000Y-57100000D02*
X167150000Y-55850000D01*
%TO.N,Net-(J2-Pin_5)*%
X160666000Y-52584000D02*
X160415000Y-52835000D01*
X160415000Y-57085000D02*
X160400000Y-57100000D01*
X166650000Y-56600000D02*
X166650000Y-52889000D01*
X167150000Y-57100000D02*
X166650000Y-56600000D01*
X166650000Y-52889000D02*
X166345000Y-52584000D01*
X160415000Y-53934000D02*
X160415000Y-57085000D01*
X166345000Y-52584000D02*
X160666000Y-52584000D01*
X160415000Y-52835000D02*
X160415000Y-53934000D01*
%TO.N,Net-(J2-Pin_4)*%
X167050000Y-59000000D02*
X166300000Y-58250000D01*
X164050000Y-58250000D02*
X162900000Y-57100000D01*
X166300000Y-58250000D02*
X164050000Y-58250000D01*
X162900000Y-57100000D02*
X162955000Y-57045000D01*
X167150000Y-59000000D02*
X167050000Y-59000000D01*
X162955000Y-57045000D02*
X162955000Y-53934000D01*
%TO.N,Net-(J2-Pin_3)*%
X171650000Y-57850000D02*
X172400000Y-57100000D01*
X165857106Y-57100000D02*
X166607106Y-57850000D01*
X165495000Y-53934000D02*
X165495000Y-57005000D01*
X165495000Y-57005000D02*
X165400000Y-57100000D01*
X166607106Y-57850000D02*
X171650000Y-57850000D01*
X165400000Y-57100000D02*
X165857106Y-57100000D01*
%TO.N,Earth*%
X208900000Y-125100000D02*
X211250000Y-122750000D01*
X93550000Y-80450000D02*
X93550000Y-122750000D01*
X128900000Y-158100000D02*
X131250000Y-160450000D01*
X175900000Y-158100000D02*
X179273654Y-158100000D01*
X208900000Y-78100000D02*
X208900000Y-74726346D01*
X128900000Y-45100000D02*
X125526346Y-45100000D01*
X95900000Y-128473654D02*
X125526346Y-158100000D01*
X179273654Y-45100000D02*
X175900000Y-45100000D01*
X95900000Y-78100000D02*
X93550000Y-80450000D01*
X125526346Y-158100000D02*
X128900000Y-158100000D01*
X131250000Y-160450000D02*
X173550000Y-160450000D01*
X128900000Y-48400000D02*
X128900000Y-45100000D01*
X208900000Y-74726346D02*
X179273654Y-45100000D01*
X173550000Y-160450000D02*
X175900000Y-158100000D01*
X179273654Y-158100000D02*
X208900000Y-128473654D01*
X93550000Y-122750000D02*
X95900000Y-125100000D01*
X211250000Y-122750000D02*
X211250000Y-80450000D01*
X125526346Y-45100000D02*
X95900000Y-74726346D01*
X95900000Y-74726346D02*
X95900000Y-78100000D01*
X95900000Y-125100000D02*
X95900000Y-128473654D01*
X211250000Y-80450000D02*
X208900000Y-78100000D01*
X208900000Y-128473654D02*
X208900000Y-125100000D01*
X130600000Y-50100000D02*
X128900000Y-48400000D01*
%TO.N,Net-(Q11-B)*%
X181450000Y-80025000D02*
X181450000Y-77850000D01*
X181450000Y-77850000D02*
X181500000Y-77800000D01*
%TO.N,Net-(Q11-C)*%
X177500000Y-84500000D02*
X179000000Y-84500000D01*
X180500000Y-81900000D02*
X180500000Y-83000000D01*
X179000000Y-84500000D02*
X179500000Y-84000000D01*
X180500000Y-83000000D02*
X179500000Y-84000000D01*
%TO.N,Net-(U4-C)*%
X149162500Y-138475000D02*
X149087500Y-138400000D01*
X149162500Y-140400000D02*
X149162500Y-138475000D01*
X149362500Y-142400000D02*
X149362500Y-140600000D01*
X149362500Y-142400000D02*
X151712500Y-142400000D01*
X149362500Y-140600000D02*
X149162500Y-140400000D01*
X151712500Y-142400000D02*
X151762500Y-142450000D01*
%TO.N,Net-(U4-A)*%
X153125000Y-140362500D02*
X153162500Y-140400000D01*
X154762500Y-143400000D02*
X154762500Y-142000000D01*
X155762500Y-142400000D02*
X154762500Y-143400000D01*
X154762500Y-142000000D02*
X153162500Y-140400000D01*
X157000000Y-142400000D02*
X155762500Y-142400000D01*
X153125000Y-138400000D02*
X153125000Y-140362500D01*
%TO.N,Net-(D33-A)*%
X125424784Y-61175216D02*
X125424784Y-57775216D01*
X122214214Y-64385786D02*
X125424784Y-61175216D01*
%TO.N,Net-(D36-K)*%
X118825000Y-146575000D02*
X118825000Y-146478870D01*
X163995722Y-151500000D02*
X162595721Y-152900001D01*
X202400000Y-89625000D02*
X202825000Y-89200000D01*
X205700000Y-111175000D02*
X209681000Y-107194000D01*
X168522856Y-152000000D02*
X164900000Y-152000000D01*
X102848000Y-102652300D02*
X102848000Y-109406709D01*
X103273000Y-129272315D02*
X103273000Y-125573000D01*
X139543767Y-148001524D02*
X140623000Y-146922291D01*
X196224784Y-128475216D02*
X196224784Y-131668511D01*
X128201524Y-148001524D02*
X139543767Y-148001524D01*
X149853999Y-148000000D02*
X151800001Y-148000000D01*
X162595721Y-152900001D02*
X153200000Y-152900001D01*
X108575216Y-75899784D02*
X101423000Y-83052000D01*
X117289000Y-144942870D02*
X117289000Y-143288315D01*
X102400000Y-121000000D02*
X102500000Y-121100000D01*
X196224784Y-131668511D02*
X175385295Y-152508000D01*
X140623000Y-143677000D02*
X140877000Y-143423000D01*
X122600000Y-142800000D02*
X122600000Y-143781686D01*
X202825000Y-72375000D02*
X194348000Y-63898000D01*
X101423000Y-83052000D02*
X101423000Y-92268291D01*
X102848000Y-109406709D02*
X101400000Y-110854709D01*
X118825000Y-146478870D02*
X117289000Y-144942870D01*
X203625000Y-121075000D02*
X203625000Y-116475000D01*
X140623000Y-146922291D02*
X140623000Y-143677000D01*
X102400000Y-113425000D02*
X102400000Y-121000000D01*
X203350000Y-89625000D02*
X202400000Y-89625000D01*
X194348000Y-63898000D02*
X194348000Y-62477300D01*
X175385295Y-152508000D02*
X169030856Y-152508000D01*
X164900000Y-152000000D02*
X164400000Y-151500000D01*
X124118314Y-145300000D02*
X125500000Y-145300000D01*
X102300000Y-93145291D02*
X102300000Y-102104300D01*
X190327000Y-62127000D02*
X188450000Y-60250000D01*
X101423000Y-92268291D02*
X102300000Y-93145291D01*
X122600000Y-143781686D02*
X124118314Y-145300000D01*
X151800001Y-148000000D02*
X153200000Y-146600001D01*
X196224784Y-128475216D02*
X203625000Y-121075000D01*
X169030856Y-152508000D02*
X168522856Y-152000000D01*
X194348000Y-62477300D02*
X193997700Y-62127000D01*
X103273000Y-125573000D02*
X100975000Y-123275000D01*
X164400000Y-151500000D02*
X163995722Y-151500000D01*
X209681000Y-93031000D02*
X208725000Y-92075000D01*
X108575216Y-74724784D02*
X108575216Y-75899784D01*
X101400000Y-112425000D02*
X102400000Y-113425000D01*
X102300000Y-102104300D02*
X102848000Y-102652300D01*
X117289000Y-143288315D02*
X103273000Y-129272315D01*
X205025000Y-91300000D02*
X203350000Y-89625000D01*
X193997700Y-62127000D02*
X190327000Y-62127000D01*
X209681000Y-107194000D02*
X209681000Y-93031000D01*
X205700000Y-115750000D02*
X205700000Y-111175000D01*
X125500000Y-145300000D02*
X128201524Y-148001524D01*
X140877000Y-143423000D02*
X145276999Y-143423000D01*
X101400000Y-110854709D02*
X101400000Y-112425000D01*
X202825000Y-89200000D02*
X202825000Y-72375000D01*
X145276999Y-143423000D02*
X149853999Y-148000000D01*
%TO.N,Net-(D37-K)*%
X180749568Y-143850432D02*
X180749568Y-143950432D01*
X184300000Y-140300000D02*
X180749568Y-143850432D01*
X187100000Y-137600000D02*
X187100000Y-138200000D01*
X194775216Y-129924784D02*
X187100000Y-137600000D01*
%TO.N,Net-(D41-K)*%
X103275000Y-109583578D02*
X103275000Y-102475430D01*
X102400000Y-111375000D02*
X102848000Y-110927000D01*
X102848000Y-110010579D02*
X103275000Y-109583578D01*
X102848000Y-110927000D02*
X102848000Y-110010579D01*
X102924700Y-102125130D02*
X102924700Y-92249700D01*
X102924700Y-92249700D02*
X102400000Y-91725000D01*
X103275000Y-102475430D02*
X102924700Y-102125130D01*
%TO.N,Net-(D41-A)*%
X106700000Y-94900000D02*
X106700000Y-94800000D01*
%TO.N,Net-(D43-K)*%
X110024784Y-131313349D02*
X116884435Y-138173000D01*
X116884435Y-138173000D02*
X119150816Y-138173000D01*
X119150816Y-138173000D02*
X124050432Y-143072616D01*
X110024784Y-129924784D02*
X110024784Y-131313349D01*
X124050432Y-143072616D02*
X124050432Y-143850432D01*
%TO.N,Net-(D43-A)*%
X107107107Y-127107107D02*
X107100000Y-127100000D01*
%TO.N,Net-(D45-K)*%
X162250000Y-151600000D02*
X162350000Y-151500000D01*
X142625000Y-151600000D02*
X162250000Y-151600000D01*
%TO.N,Net-(D45-A)*%
X140500000Y-151600000D02*
X140575000Y-151600000D01*
X137700000Y-154400000D02*
X140500000Y-151600000D01*
%TO.N,Net-(D47-K)*%
X205296000Y-92896132D02*
X205296000Y-98079000D01*
X202400000Y-110225000D02*
X202400000Y-111425000D01*
X205296000Y-98079000D02*
X204848000Y-98527000D01*
X202400000Y-91675000D02*
X204074868Y-91675000D01*
X204074868Y-91675000D02*
X205296000Y-92896132D01*
X204848000Y-98527000D02*
X204848000Y-107777000D01*
X204848000Y-107777000D02*
X202400000Y-110225000D01*
%TO.N,Net-(D47-A)*%
X206275000Y-113775000D02*
X206525000Y-114025000D01*
X210108000Y-107867000D02*
X206275000Y-111700000D01*
X206275000Y-111700000D02*
X206275000Y-113175000D01*
X210108000Y-86733000D02*
X210108000Y-107867000D01*
X206275000Y-113175000D02*
X206275000Y-113775000D01*
X206950000Y-83575000D02*
X210108000Y-86733000D01*
%TO.N,Net-(D49-K)*%
X188475000Y-62595700D02*
X188475000Y-61375000D01*
X197406578Y-69806578D02*
X193923000Y-66323000D01*
X193923000Y-66323000D02*
X192202300Y-66323000D01*
X194525216Y-72800216D02*
X196124784Y-72800216D01*
X197406578Y-71518422D02*
X197406578Y-69806578D01*
X183674784Y-60549784D02*
X184236724Y-60549784D01*
X192202300Y-66323000D02*
X188475000Y-62595700D01*
X196124784Y-72800216D02*
X197406578Y-71518422D01*
X184236724Y-60549784D02*
X185061940Y-61375000D01*
%TO.N,Net-(D49-A)*%
X195989430Y-74249784D02*
X197607107Y-72632107D01*
%TO.N,Net-(Q15-B)*%
X159900000Y-146000000D02*
X159299999Y-146600001D01*
X159299999Y-146600001D02*
X155500000Y-146600001D01*
%TO.N,/MCU/LED_bot*%
X176400000Y-60400000D02*
X174573452Y-62226548D01*
X205954000Y-102596260D02*
X205954000Y-99303740D01*
X174573452Y-62226548D02*
X169073452Y-62226548D01*
X204146000Y-114846259D02*
X204146000Y-109686740D01*
X169207726Y-152081000D02*
X175208426Y-152081000D01*
X206150000Y-99107738D02*
X206150000Y-90850000D01*
X205954000Y-99303740D02*
X206150000Y-99107738D01*
X194729000Y-124707610D02*
X194729000Y-120837237D01*
X194729000Y-120837237D02*
X197052001Y-118514237D01*
X191873001Y-61273001D02*
X188400000Y-57800000D01*
X205702000Y-103705740D02*
X206029000Y-103378740D01*
X168250000Y-63050000D02*
X168250000Y-64150000D01*
X180000000Y-57750000D02*
X180000000Y-54000000D01*
X197052001Y-118514237D02*
X200478022Y-118514237D01*
X179800000Y-53800000D02*
X176800000Y-53800000D01*
X186254000Y-141035426D02*
X186254000Y-137758456D01*
X175208426Y-152081000D02*
X186254000Y-141035426D01*
X200478022Y-118514237D02*
X204146000Y-114846259D01*
X205702000Y-108130740D02*
X205702000Y-103705740D01*
X195202000Y-63177000D02*
X195202000Y-62123562D01*
X176800000Y-53800000D02*
X176400000Y-54200000D01*
X162000000Y-148000000D02*
X159900000Y-148000000D01*
X206029000Y-102671261D02*
X205954000Y-102596260D01*
X191556000Y-132456455D02*
X191556000Y-127880610D01*
X168426726Y-151300000D02*
X169207726Y-152081000D01*
X186254000Y-137758456D02*
X191556000Y-132456455D01*
X191556000Y-127880610D02*
X194729000Y-124707610D01*
X203929000Y-71904000D02*
X195202000Y-63177000D01*
X194351440Y-61273001D02*
X191873001Y-61273001D01*
X166112500Y-151312500D02*
X166125000Y-151300000D01*
X180000000Y-54000000D02*
X179800000Y-53800000D01*
X206029000Y-103378740D02*
X206029000Y-102671261D01*
X188400000Y-57800000D02*
X188256940Y-57800000D01*
X166125000Y-151300000D02*
X168426726Y-151300000D01*
X195202000Y-62123562D02*
X194351440Y-61273001D01*
X204146000Y-109686740D02*
X205702000Y-108130740D01*
X206150000Y-90850000D02*
X203929000Y-88629000D01*
X203929000Y-88629000D02*
X203929000Y-71904000D01*
X169073452Y-62226548D02*
X168250000Y-63050000D01*
X176400000Y-54200000D02*
X176400000Y-60400000D01*
%TD*%
%TA.AperFunction,Conductor*%
%TO.N,+5V*%
G36*
X165093039Y-66119685D02*
G01*
X165138794Y-66172489D01*
X165150000Y-66224000D01*
X165150000Y-66526000D01*
X165130315Y-66593039D01*
X165077511Y-66638794D01*
X165026000Y-66650000D01*
X161774000Y-66650000D01*
X161706961Y-66630315D01*
X161661206Y-66577511D01*
X161650000Y-66526000D01*
X161650000Y-66224000D01*
X161669685Y-66156961D01*
X161722489Y-66111206D01*
X161774000Y-66100000D01*
X165026000Y-66100000D01*
X165093039Y-66119685D01*
G37*
%TD.AperFunction*%
%TD*%
%TA.AperFunction,Conductor*%
%TO.N,GND*%
G36*
X111043039Y-102719685D02*
G01*
X111088794Y-102772489D01*
X111100000Y-102824000D01*
X111100000Y-103600000D01*
X112635065Y-103600000D01*
X112702104Y-103619685D01*
X112747859Y-103672489D01*
X112750358Y-103678355D01*
X112752431Y-103683592D01*
X112780983Y-103722892D01*
X112784188Y-103727771D01*
X112808919Y-103769587D01*
X112808923Y-103769591D01*
X112823925Y-103784593D01*
X112836563Y-103799391D01*
X112849033Y-103816555D01*
X112849036Y-103816558D01*
X112849037Y-103816559D01*
X112886476Y-103847531D01*
X112890776Y-103851444D01*
X112922150Y-103882818D01*
X112922151Y-103882819D01*
X112955636Y-103944142D01*
X112950652Y-104013834D01*
X112908780Y-104069767D01*
X112843316Y-104094184D01*
X112834470Y-104094500D01*
X111959304Y-104094500D01*
X111922432Y-104097401D01*
X111922426Y-104097402D01*
X111764606Y-104143254D01*
X111764603Y-104143255D01*
X111623137Y-104226917D01*
X111623129Y-104226923D01*
X111586374Y-104263680D01*
X111525052Y-104297166D01*
X111498692Y-104300000D01*
X109724000Y-104300000D01*
X109656961Y-104280315D01*
X109611206Y-104227511D01*
X109600000Y-104176000D01*
X109600000Y-102941307D01*
X109619685Y-102874268D01*
X109636319Y-102853626D01*
X109753626Y-102736319D01*
X109814949Y-102702834D01*
X109841307Y-102700000D01*
X110976000Y-102700000D01*
X111043039Y-102719685D01*
G37*
%TD.AperFunction*%
%TD*%
%TA.AperFunction,Conductor*%
%TO.N,GND*%
G36*
X118243039Y-105519685D02*
G01*
X118288794Y-105572489D01*
X118300000Y-105624000D01*
X118300000Y-107776000D01*
X118280315Y-107843039D01*
X118227511Y-107888794D01*
X118176000Y-107900000D01*
X114224000Y-107900000D01*
X114156961Y-107880315D01*
X114111206Y-107827511D01*
X114100000Y-107776000D01*
X114100000Y-105624000D01*
X114119685Y-105556961D01*
X114172489Y-105511206D01*
X114224000Y-105500000D01*
X118176000Y-105500000D01*
X118243039Y-105519685D01*
G37*
%TD.AperFunction*%
%TD*%
%TA.AperFunction,Conductor*%
%TO.N,VCC*%
G36*
X194418393Y-104219290D02*
G01*
X194418404Y-104219274D01*
X194418470Y-104219313D01*
X194419736Y-104219685D01*
X194422996Y-104221989D01*
X194425117Y-104223244D01*
X194425120Y-104223246D01*
X194469695Y-104242535D01*
X194474934Y-104245101D01*
X194517516Y-104268511D01*
X194538088Y-104273792D01*
X194556478Y-104280089D01*
X194575958Y-104288519D01*
X194620105Y-104295510D01*
X194623932Y-104296117D01*
X194629641Y-104297299D01*
X194676707Y-104309384D01*
X194697929Y-104309384D01*
X194717328Y-104310910D01*
X194738289Y-104314231D01*
X194782988Y-104310005D01*
X194786654Y-104309659D01*
X194792492Y-104309384D01*
X194906947Y-104309384D01*
X194973986Y-104329069D01*
X194994622Y-104345697D01*
X195163183Y-104514258D01*
X195196666Y-104575578D01*
X195199500Y-104601936D01*
X195199500Y-105576000D01*
X195179815Y-105643039D01*
X195127011Y-105688794D01*
X195075500Y-105700000D01*
X193964112Y-105700000D01*
X193944712Y-105698473D01*
X193920596Y-105694653D01*
X193920595Y-105694653D01*
X193896617Y-105696919D01*
X193866941Y-105699725D01*
X193861103Y-105700000D01*
X193316361Y-105700000D01*
X193253240Y-105682732D01*
X193110396Y-105598255D01*
X193110393Y-105598254D01*
X192952573Y-105552402D01*
X192952567Y-105552401D01*
X192915696Y-105549500D01*
X192915694Y-105549500D01*
X191759306Y-105549500D01*
X191759302Y-105549500D01*
X191733724Y-105551512D01*
X191665348Y-105537146D01*
X191615593Y-105488092D01*
X191600000Y-105427894D01*
X191600000Y-105372105D01*
X191619685Y-105305066D01*
X191672489Y-105259311D01*
X191733728Y-105248487D01*
X191745463Y-105249410D01*
X191759304Y-105250500D01*
X191759306Y-105250500D01*
X192915696Y-105250500D01*
X192934131Y-105249049D01*
X192952569Y-105247598D01*
X192952571Y-105247597D01*
X192952573Y-105247597D01*
X192994191Y-105235505D01*
X193110398Y-105201744D01*
X193251865Y-105118081D01*
X193333628Y-105036317D01*
X193394949Y-105002834D01*
X193421308Y-105000000D01*
X193600000Y-105000000D01*
X193600000Y-104324000D01*
X193619685Y-104256961D01*
X193672489Y-104211206D01*
X193724000Y-104200000D01*
X194352697Y-104200000D01*
X194418393Y-104219290D01*
G37*
%TD.AperFunction*%
%TD*%
%TA.AperFunction,Conductor*%
%TO.N,/Vref+*%
G36*
X159943039Y-123069685D02*
G01*
X159988794Y-123122489D01*
X160000000Y-123174000D01*
X160000000Y-129926000D01*
X159980315Y-129993039D01*
X159927511Y-130038794D01*
X159876000Y-130050000D01*
X156724000Y-130050000D01*
X156656961Y-130030315D01*
X156611206Y-129977511D01*
X156600000Y-129926000D01*
X156600000Y-123250936D01*
X156606427Y-123211532D01*
X156632214Y-123134593D01*
X156672185Y-123077285D01*
X156736792Y-123050683D01*
X156749787Y-123050000D01*
X159876000Y-123050000D01*
X159943039Y-123069685D01*
G37*
%TD.AperFunction*%
%TD*%
%TA.AperFunction,Conductor*%
%TO.N,/Vref+*%
G36*
X147543039Y-123069685D02*
G01*
X147588794Y-123122489D01*
X147600000Y-123174000D01*
X147600000Y-129926000D01*
X147580315Y-129993039D01*
X147527511Y-130038794D01*
X147476000Y-130050000D01*
X144124000Y-130050000D01*
X144056961Y-130030315D01*
X144011206Y-129977511D01*
X144000000Y-129926000D01*
X144000000Y-123174000D01*
X144019685Y-123106961D01*
X144072489Y-123061206D01*
X144124000Y-123050000D01*
X147476000Y-123050000D01*
X147543039Y-123069685D01*
G37*
%TD.AperFunction*%
%TD*%
%TA.AperFunction,Conductor*%
%TO.N,VCC*%
G36*
X111868189Y-104726839D02*
G01*
X111922431Y-104742598D01*
X111934722Y-104743565D01*
X111959304Y-104745500D01*
X113076000Y-104745500D01*
X113143039Y-104765185D01*
X113188794Y-104817989D01*
X113200000Y-104869500D01*
X113200000Y-104920500D01*
X113180315Y-104987539D01*
X113127511Y-105033294D01*
X113076000Y-105044500D01*
X111959304Y-105044500D01*
X111922432Y-105047401D01*
X111922426Y-105047402D01*
X111764606Y-105093254D01*
X111764603Y-105093255D01*
X111616420Y-105180890D01*
X111615083Y-105178629D01*
X111561880Y-105199515D01*
X111550924Y-105200000D01*
X111200000Y-105200000D01*
X111200000Y-105858000D01*
X111180315Y-105925039D01*
X111127511Y-105970794D01*
X111076000Y-105982000D01*
X109733309Y-105982000D01*
X109666270Y-105962315D01*
X109645628Y-105945681D01*
X109636318Y-105936371D01*
X109602833Y-105875048D01*
X109600000Y-105848699D01*
X109600000Y-104929499D01*
X109619685Y-104862460D01*
X109672489Y-104816706D01*
X109724000Y-104805500D01*
X111512227Y-104805500D01*
X111512230Y-104805500D01*
X111539267Y-104804051D01*
X111579088Y-104799770D01*
X111579094Y-104799769D01*
X111579095Y-104799769D01*
X111632510Y-104791113D01*
X111632511Y-104791112D01*
X111632514Y-104791112D01*
X111767322Y-104740828D01*
X111774167Y-104737089D01*
X111842438Y-104722232D01*
X111868189Y-104726839D01*
G37*
%TD.AperFunction*%
%TD*%
%TA.AperFunction,Conductor*%
%TO.N,/Vref-*%
G36*
X165145731Y-123069685D02*
G01*
X165166373Y-123086319D01*
X168163681Y-126083627D01*
X168197166Y-126144950D01*
X168200000Y-126171308D01*
X168200000Y-129926000D01*
X168180315Y-129993039D01*
X168127511Y-130038794D01*
X168076000Y-130050000D01*
X167020468Y-130050000D01*
X166953429Y-130030315D01*
X166932787Y-130013681D01*
X166696594Y-129777488D01*
X166686521Y-129764914D01*
X166686334Y-129765070D01*
X166681361Y-129759059D01*
X166628915Y-129709809D01*
X166607198Y-129688091D01*
X166601406Y-129683599D01*
X166596961Y-129679802D01*
X166561556Y-129646554D01*
X166561553Y-129646552D01*
X166542945Y-129636322D01*
X166526686Y-129625641D01*
X166509924Y-129612639D01*
X166509925Y-129612639D01*
X166465349Y-129593348D01*
X166460102Y-129590778D01*
X166417531Y-129567374D01*
X166417527Y-129567372D01*
X166396961Y-129562092D01*
X166378556Y-129555790D01*
X166359087Y-129547365D01*
X166359081Y-129547363D01*
X166311111Y-129539766D01*
X166305396Y-129538582D01*
X166288932Y-129534355D01*
X166258340Y-129526500D01*
X166258337Y-129526500D01*
X166237115Y-129526500D01*
X166217715Y-129524973D01*
X166196756Y-129521653D01*
X166196755Y-129521653D01*
X166172946Y-129523903D01*
X166148390Y-129526225D01*
X166142552Y-129526500D01*
X165902517Y-129526500D01*
X165835478Y-129506815D01*
X165814836Y-129490181D01*
X165586817Y-129262162D01*
X165553332Y-129200839D01*
X165550498Y-129174481D01*
X165550498Y-128870921D01*
X165570183Y-128803882D01*
X165582349Y-128787948D01*
X165632531Y-128732216D01*
X165727177Y-128568284D01*
X165785672Y-128388256D01*
X165805458Y-128200000D01*
X165785672Y-128011744D01*
X165727177Y-127831716D01*
X165632531Y-127667784D01*
X165505869Y-127527112D01*
X165505868Y-127527111D01*
X165352732Y-127415851D01*
X165352727Y-127415848D01*
X165179805Y-127338857D01*
X165179800Y-127338855D01*
X165033998Y-127307865D01*
X164994644Y-127299500D01*
X164805352Y-127299500D01*
X164749780Y-127311311D01*
X164680114Y-127305996D01*
X164624380Y-127263859D01*
X164600275Y-127198279D01*
X164600000Y-127190022D01*
X164600000Y-123174000D01*
X164619685Y-123106961D01*
X164672489Y-123061206D01*
X164724000Y-123050000D01*
X165078692Y-123050000D01*
X165145731Y-123069685D01*
G37*
%TD.AperFunction*%
%TD*%
%TA.AperFunction,Conductor*%
%TO.N,/DR*%
G36*
X201942540Y-101869685D02*
G01*
X201988295Y-101922489D01*
X201999501Y-101974000D01*
X201999501Y-102447876D01*
X202005908Y-102507481D01*
X202005909Y-102507483D01*
X202042182Y-102604737D01*
X202050000Y-102648068D01*
X202049999Y-102649999D01*
X202086319Y-102686319D01*
X202085577Y-102687060D01*
X202099140Y-102699686D01*
X202142454Y-102757546D01*
X202188643Y-102792123D01*
X202257664Y-102843793D01*
X202257671Y-102843797D01*
X202392517Y-102894091D01*
X202392516Y-102894091D01*
X202399444Y-102894835D01*
X202452127Y-102900500D01*
X204073500Y-102900499D01*
X204140539Y-102920184D01*
X204186294Y-102972987D01*
X204197500Y-103024499D01*
X204197500Y-104875500D01*
X204177815Y-104942539D01*
X204125011Y-104988294D01*
X204073500Y-104999500D01*
X202452129Y-104999500D01*
X202452123Y-104999501D01*
X202392516Y-105005908D01*
X202257671Y-105056202D01*
X202257664Y-105056206D01*
X202142455Y-105142452D01*
X202142452Y-105142455D01*
X202056206Y-105257664D01*
X202056202Y-105257671D01*
X202005908Y-105392517D01*
X201999501Y-105452116D01*
X201999500Y-105452135D01*
X201999500Y-105475500D01*
X201979815Y-105542539D01*
X201927011Y-105588294D01*
X201875500Y-105599500D01*
X199835504Y-105599500D01*
X199819493Y-105597732D01*
X199819471Y-105597974D01*
X199811704Y-105597240D01*
X199811703Y-105597240D01*
X199739796Y-105599500D01*
X199709075Y-105599500D01*
X199709071Y-105599500D01*
X199709061Y-105599501D01*
X199701793Y-105600419D01*
X199695976Y-105600876D01*
X199647435Y-105602402D01*
X199647424Y-105602404D01*
X199627048Y-105608323D01*
X199608008Y-105612266D01*
X199586947Y-105614927D01*
X199586939Y-105614929D01*
X199541775Y-105632811D01*
X199536247Y-105634703D01*
X199489602Y-105648255D01*
X199471332Y-105659060D01*
X199453863Y-105667618D01*
X199434128Y-105675432D01*
X199434126Y-105675433D01*
X199394839Y-105703977D01*
X199389956Y-105707184D01*
X199348132Y-105731919D01*
X199333126Y-105746926D01*
X199318336Y-105759558D01*
X199301167Y-105772032D01*
X199301165Y-105772034D01*
X199270194Y-105809470D01*
X199266262Y-105813791D01*
X198966372Y-106113681D01*
X198905049Y-106147166D01*
X198878691Y-106150000D01*
X196624500Y-106150000D01*
X196557461Y-106130315D01*
X196511706Y-106077511D01*
X196500500Y-106026000D01*
X196500500Y-104366630D01*
X196502268Y-104350617D01*
X196502026Y-104350595D01*
X196502758Y-104342839D01*
X196502760Y-104342832D01*
X196500500Y-104270924D01*
X196500500Y-104240204D01*
X196499579Y-104232917D01*
X196499122Y-104227108D01*
X196497597Y-104178559D01*
X196491676Y-104158181D01*
X196487731Y-104139132D01*
X196485071Y-104118071D01*
X196467186Y-104072901D01*
X196465297Y-104067381D01*
X196451743Y-104020728D01*
X196440941Y-104002464D01*
X196432379Y-103984987D01*
X196431351Y-103982391D01*
X196424568Y-103965258D01*
X196396014Y-103925957D01*
X196392810Y-103921079D01*
X196391747Y-103919282D01*
X196368081Y-103879264D01*
X196353074Y-103864257D01*
X196340435Y-103849459D01*
X196327961Y-103832289D01*
X196290528Y-103801323D01*
X196286206Y-103797389D01*
X195986319Y-103497501D01*
X195952834Y-103436178D01*
X195950000Y-103409820D01*
X195950000Y-101974000D01*
X195969685Y-101906961D01*
X196022489Y-101861206D01*
X196074000Y-101850000D01*
X201875501Y-101850000D01*
X201942540Y-101869685D01*
G37*
%TD.AperFunction*%
%TD*%
%TA.AperFunction,Conductor*%
%TO.N,/Vref-*%
G36*
X139319334Y-123157540D02*
G01*
X139375267Y-123199412D01*
X139399684Y-123264876D01*
X139400000Y-123273722D01*
X139400000Y-129626500D01*
X139380315Y-129693539D01*
X139327511Y-129739294D01*
X139276000Y-129750500D01*
X138376975Y-129750500D01*
X138309936Y-129730815D01*
X138304090Y-129726818D01*
X138152734Y-129616851D01*
X138152729Y-129616848D01*
X137979807Y-129539857D01*
X137979802Y-129539855D01*
X137834001Y-129508865D01*
X137794646Y-129500500D01*
X137605354Y-129500500D01*
X137572897Y-129507398D01*
X137420197Y-129539855D01*
X137420192Y-129539857D01*
X137247270Y-129616848D01*
X137247265Y-129616851D01*
X137094129Y-129728111D01*
X136967466Y-129868785D01*
X136898638Y-129988000D01*
X136848072Y-130036215D01*
X136791251Y-130050000D01*
X136191282Y-130050000D01*
X136124243Y-130030315D01*
X136103601Y-130013681D01*
X136064342Y-129974422D01*
X136030857Y-129913099D01*
X136028447Y-129876499D01*
X136030643Y-129850003D01*
X136030643Y-129849995D01*
X136011324Y-129616849D01*
X136010108Y-129602179D01*
X136003794Y-129577244D01*
X136000000Y-129546805D01*
X136000000Y-126122779D01*
X136019685Y-126055740D01*
X136036316Y-126035101D01*
X138434598Y-123636818D01*
X138495921Y-123603334D01*
X138522279Y-123600500D01*
X138545340Y-123600500D01*
X138552605Y-123599581D01*
X138558431Y-123599122D01*
X138606984Y-123597597D01*
X138627371Y-123591673D01*
X138646411Y-123587731D01*
X138667473Y-123585071D01*
X138712650Y-123567183D01*
X138718150Y-123565300D01*
X138764813Y-123551744D01*
X138783080Y-123540939D01*
X138800551Y-123532380D01*
X138820286Y-123524568D01*
X138859592Y-123496010D01*
X138864458Y-123492813D01*
X138906280Y-123468081D01*
X138921285Y-123453075D01*
X138936083Y-123440436D01*
X138953252Y-123427963D01*
X138984224Y-123390522D01*
X138988128Y-123386231D01*
X139188319Y-123186040D01*
X139249642Y-123152556D01*
X139319334Y-123157540D01*
G37*
%TD.AperFunction*%
%TD*%
%TA.AperFunction,Conductor*%
%TO.N,+5V*%
G36*
X151251299Y-58169685D02*
G01*
X151297054Y-58222489D01*
X151306998Y-58291647D01*
X151305877Y-58298192D01*
X151299500Y-58330249D01*
X151299500Y-60369752D01*
X151311131Y-60428229D01*
X151311132Y-60428230D01*
X151355447Y-60494552D01*
X151421769Y-60538867D01*
X151421770Y-60538868D01*
X151480247Y-60550499D01*
X151480250Y-60550500D01*
X152926000Y-60550500D01*
X152993039Y-60570185D01*
X153038794Y-60622989D01*
X153050000Y-60674500D01*
X153050000Y-66576000D01*
X153030315Y-66643039D01*
X152977511Y-66688794D01*
X152926000Y-66700000D01*
X146924000Y-66700000D01*
X146856961Y-66680315D01*
X146811206Y-66627511D01*
X146800000Y-66576000D01*
X146800000Y-60724500D01*
X146819685Y-60657461D01*
X146872489Y-60611706D01*
X146924000Y-60600500D01*
X147076952Y-60600500D01*
X147080697Y-60600613D01*
X147088042Y-60601057D01*
X147142606Y-60604358D01*
X147180314Y-60597447D01*
X147203621Y-60593177D01*
X147207325Y-60592613D01*
X147225170Y-60590446D01*
X147268872Y-60585140D01*
X147278335Y-60581550D01*
X147299961Y-60575522D01*
X147302317Y-60575090D01*
X147309932Y-60573695D01*
X147323235Y-60567707D01*
X147337198Y-60561424D01*
X147388088Y-60550500D01*
X148419750Y-60550500D01*
X148419751Y-60550499D01*
X148434568Y-60547552D01*
X148478229Y-60538868D01*
X148478229Y-60538867D01*
X148478231Y-60538867D01*
X148544552Y-60494552D01*
X148588867Y-60428231D01*
X148588867Y-60428229D01*
X148588868Y-60428229D01*
X148600499Y-60369752D01*
X148600500Y-60369750D01*
X148600500Y-59371817D01*
X148600500Y-58330252D01*
X148594122Y-58298192D01*
X148600350Y-58228601D01*
X148643212Y-58173423D01*
X148709102Y-58150178D01*
X148715740Y-58150000D01*
X151184260Y-58150000D01*
X151251299Y-58169685D01*
G37*
%TD.AperFunction*%
%TD*%
%TA.AperFunction,Conductor*%
%TO.N,GND*%
G36*
X190619539Y-102219685D02*
G01*
X190665294Y-102272489D01*
X190676500Y-102324000D01*
X190676500Y-104676000D01*
X190656815Y-104743039D01*
X190604011Y-104788794D01*
X190552500Y-104800000D01*
X186724000Y-104800000D01*
X186656961Y-104780315D01*
X186611206Y-104727511D01*
X186600000Y-104676000D01*
X186600000Y-102324000D01*
X186619685Y-102256961D01*
X186672489Y-102211206D01*
X186724000Y-102200000D01*
X190552500Y-102200000D01*
X190619539Y-102219685D01*
G37*
%TD.AperFunction*%
%TD*%
%TA.AperFunction,Conductor*%
%TO.N,GND*%
G36*
X193182972Y-106187584D02*
G01*
X193316355Y-106205500D01*
X193316361Y-106205500D01*
X193867050Y-106205500D01*
X193867052Y-106205500D01*
X193878946Y-106205220D01*
X193896682Y-106204385D01*
X193905031Y-106203794D01*
X193923522Y-106203867D01*
X193929131Y-106204309D01*
X193934349Y-106204721D01*
X193954183Y-106205500D01*
X195075500Y-106205500D01*
X195142539Y-106225185D01*
X195188294Y-106277989D01*
X195199499Y-106329499D01*
X195199499Y-106987660D01*
X195199499Y-107171607D01*
X195197732Y-107187615D01*
X195197973Y-107187638D01*
X195197239Y-107195399D01*
X195199314Y-107261416D01*
X195181744Y-107329040D01*
X195148261Y-107365628D01*
X195063087Y-107427511D01*
X194995909Y-107476318D01*
X194930105Y-107499798D01*
X194923025Y-107500000D01*
X193724000Y-107500000D01*
X193656961Y-107480315D01*
X193611206Y-107427511D01*
X193600000Y-107376000D01*
X193600000Y-106700000D01*
X191724000Y-106700000D01*
X191656961Y-106680315D01*
X191611206Y-106627511D01*
X191600000Y-106576000D01*
X191600000Y-106322105D01*
X191619685Y-106255066D01*
X191672489Y-106209311D01*
X191733728Y-106198487D01*
X191745463Y-106199410D01*
X191759304Y-106200500D01*
X191759306Y-106200500D01*
X192915696Y-106200500D01*
X192934131Y-106199049D01*
X192952569Y-106197598D01*
X193048482Y-106169732D01*
X193115666Y-106169923D01*
X193115858Y-106169224D01*
X193182972Y-106187584D01*
G37*
%TD.AperFunction*%
%TD*%
%TA.AperFunction,Conductor*%
%TO.N,/Vcc_en*%
G36*
X196597577Y-92869685D02*
G01*
X196634347Y-92906179D01*
X196711833Y-93024782D01*
X196711836Y-93024785D01*
X196880256Y-93207738D01*
X197076491Y-93360474D01*
X197295190Y-93478828D01*
X197530386Y-93559571D01*
X197775665Y-93600500D01*
X197934217Y-93600500D01*
X198001256Y-93620185D01*
X198021898Y-93636819D01*
X199233548Y-94848468D01*
X199294941Y-94913053D01*
X199294944Y-94913055D01*
X199294947Y-94913058D01*
X199329053Y-94936795D01*
X199345303Y-94948106D01*
X199349044Y-94950926D01*
X199396593Y-94989698D01*
X199427045Y-95005604D01*
X199433758Y-95009672D01*
X199461951Y-95029295D01*
X199518329Y-95053489D01*
X199522578Y-95055507D01*
X199576951Y-95083909D01*
X199604489Y-95091788D01*
X199609974Y-95093358D01*
X199617368Y-95095990D01*
X199648942Y-95109540D01*
X199648945Y-95109540D01*
X199648946Y-95109541D01*
X199709022Y-95121887D01*
X199713600Y-95123010D01*
X199727501Y-95126987D01*
X199772582Y-95139887D01*
X199806839Y-95142495D01*
X199814614Y-95143586D01*
X199848255Y-95150500D01*
X199848259Y-95150500D01*
X199909598Y-95150500D01*
X199914304Y-95150678D01*
X199949062Y-95153325D01*
X199975475Y-95155337D01*
X199975475Y-95155336D01*
X199975476Y-95155337D01*
X200009559Y-95150996D01*
X200017389Y-95150500D01*
X202000248Y-95150500D01*
X202067287Y-95170185D01*
X202099514Y-95200188D01*
X202142450Y-95257542D01*
X202142453Y-95257546D01*
X202142456Y-95257548D01*
X202257663Y-95343793D01*
X202257670Y-95343797D01*
X202392516Y-95394091D01*
X202392515Y-95394091D01*
X202399443Y-95394835D01*
X202452126Y-95400500D01*
X204075500Y-95400499D01*
X204142539Y-95420184D01*
X204188294Y-95472987D01*
X204199500Y-95524499D01*
X204199500Y-97079190D01*
X204179815Y-97146229D01*
X204163181Y-97166871D01*
X203866870Y-97463181D01*
X203805547Y-97496666D01*
X203779189Y-97499500D01*
X202452128Y-97499500D01*
X202452122Y-97499501D01*
X202392515Y-97505908D01*
X202257670Y-97556202D01*
X202257663Y-97556206D01*
X202142454Y-97642452D01*
X202142451Y-97642455D01*
X202056205Y-97757664D01*
X202056201Y-97757671D01*
X202005907Y-97892517D01*
X201999500Y-97952116D01*
X201999499Y-97952135D01*
X201999499Y-99547870D01*
X201999500Y-99547876D01*
X202005907Y-99607483D01*
X202056201Y-99742328D01*
X202056205Y-99742335D01*
X202142451Y-99857544D01*
X202142454Y-99857547D01*
X202257663Y-99943793D01*
X202257670Y-99943797D01*
X202392516Y-99994091D01*
X202392515Y-99994091D01*
X202399443Y-99994835D01*
X202452126Y-100000500D01*
X204073500Y-100000499D01*
X204140539Y-100020184D01*
X204186294Y-100072987D01*
X204197500Y-100124499D01*
X204197500Y-102270999D01*
X204177815Y-102338038D01*
X204125011Y-102383793D01*
X204073500Y-102394999D01*
X202629001Y-102394999D01*
X202561962Y-102375314D01*
X202516207Y-102322510D01*
X202505001Y-102270999D01*
X202505001Y-101974010D01*
X202505001Y-101974000D01*
X202493448Y-101866544D01*
X202482242Y-101815033D01*
X202472419Y-101785519D01*
X202448117Y-101712502D01*
X202448114Y-101712496D01*
X202370329Y-101591462D01*
X202370326Y-101591457D01*
X202370321Y-101591451D01*
X202324577Y-101538659D01*
X202324573Y-101538656D01*
X202324571Y-101538653D01*
X202215837Y-101444433D01*
X202215834Y-101444431D01*
X202215832Y-101444430D01*
X202084966Y-101384664D01*
X202084961Y-101384662D01*
X202084960Y-101384662D01*
X202062359Y-101378025D01*
X202017926Y-101364978D01*
X202017920Y-101364976D01*
X201932467Y-101352690D01*
X201875501Y-101344500D01*
X196074000Y-101344500D01*
X196006961Y-101324815D01*
X195961206Y-101272011D01*
X195950000Y-101220500D01*
X195950000Y-92974000D01*
X195969685Y-92906961D01*
X196022489Y-92861206D01*
X196074000Y-92850000D01*
X196530538Y-92850000D01*
X196597577Y-92869685D01*
G37*
%TD.AperFunction*%
%TD*%
%TA.AperFunction,Conductor*%
%TO.N,Net-(Q13-G)*%
G36*
X118243039Y-102119685D02*
G01*
X118288794Y-102172489D01*
X118300000Y-102224000D01*
X118300000Y-104176000D01*
X118280315Y-104243039D01*
X118227511Y-104288794D01*
X118176000Y-104300000D01*
X114424500Y-104300000D01*
X114357461Y-104280315D01*
X114311706Y-104227511D01*
X114300500Y-104176000D01*
X114300500Y-103776224D01*
X114302268Y-103760211D01*
X114302026Y-103760189D01*
X114302758Y-103752433D01*
X114302760Y-103752426D01*
X114300500Y-103680518D01*
X114300500Y-103649797D01*
X114299579Y-103642510D01*
X114299122Y-103636701D01*
X114297597Y-103588153D01*
X114291676Y-103567775D01*
X114287731Y-103548726D01*
X114285071Y-103527664D01*
X114267185Y-103482491D01*
X114265296Y-103476971D01*
X114251743Y-103430322D01*
X114240940Y-103412056D01*
X114232378Y-103394578D01*
X114224568Y-103374851D01*
X114224565Y-103374847D01*
X114196014Y-103335549D01*
X114192811Y-103330673D01*
X114178230Y-103306018D01*
X114168081Y-103288857D01*
X114168079Y-103288855D01*
X114168078Y-103288853D01*
X114153075Y-103273851D01*
X114140438Y-103259055D01*
X114127963Y-103241885D01*
X114127962Y-103241884D01*
X114123680Y-103235990D01*
X114100202Y-103170183D01*
X114100000Y-103163107D01*
X114100000Y-102224000D01*
X114119685Y-102156961D01*
X114172489Y-102111206D01*
X114224000Y-102100000D01*
X118176000Y-102100000D01*
X118243039Y-102119685D01*
G37*
%TD.AperFunction*%
%TD*%
%TA.AperFunction,Conductor*%
%TO.N,Net-(Q12-G)*%
G36*
X190743039Y-106019685D02*
G01*
X190788794Y-106072489D01*
X190800000Y-106124000D01*
X190800000Y-107576884D01*
X190780315Y-107643923D01*
X190727511Y-107689678D01*
X190676000Y-107700884D01*
X188669550Y-107700884D01*
X188653539Y-107699116D01*
X188653517Y-107699358D01*
X188645750Y-107698624D01*
X188645749Y-107698624D01*
X188573842Y-107700884D01*
X188543121Y-107700884D01*
X188543117Y-107700884D01*
X188543107Y-107700885D01*
X188535839Y-107701803D01*
X188530022Y-107702260D01*
X188481481Y-107703786D01*
X188481470Y-107703788D01*
X188461094Y-107709707D01*
X188442054Y-107713650D01*
X188420993Y-107716311D01*
X188420985Y-107716313D01*
X188375821Y-107734195D01*
X188370293Y-107736087D01*
X188323648Y-107749639D01*
X188305378Y-107760444D01*
X188287909Y-107769002D01*
X188268174Y-107776816D01*
X188268172Y-107776817D01*
X188228885Y-107805361D01*
X188224002Y-107808568D01*
X188182178Y-107833303D01*
X188167172Y-107848310D01*
X188152382Y-107860942D01*
X188135213Y-107873416D01*
X188135211Y-107873418D01*
X188104240Y-107910854D01*
X188100307Y-107915175D01*
X187951801Y-108063682D01*
X187890480Y-108097166D01*
X187864121Y-108100000D01*
X186724000Y-108100000D01*
X186656961Y-108080315D01*
X186611206Y-108027511D01*
X186600000Y-107976000D01*
X186600000Y-106124000D01*
X186619685Y-106056961D01*
X186672489Y-106011206D01*
X186724000Y-106000000D01*
X190676000Y-106000000D01*
X190743039Y-106019685D01*
G37*
%TD.AperFunction*%
%TD*%
%TA.AperFunction,Conductor*%
%TO.N,VCC*%
G36*
X149942539Y-45469685D02*
G01*
X149988294Y-45522489D01*
X149999500Y-45574000D01*
X149999500Y-45679269D01*
X150002353Y-45709699D01*
X150002354Y-45709701D01*
X150043041Y-45825977D01*
X150050000Y-45866932D01*
X150050000Y-56898638D01*
X150030315Y-56965677D01*
X150013681Y-56986319D01*
X149091819Y-57908181D01*
X149030496Y-57941666D01*
X149004138Y-57944500D01*
X148712985Y-57944500D01*
X148703593Y-57944752D01*
X148703589Y-57944752D01*
X148703585Y-57944753D01*
X148640735Y-57956383D01*
X148640734Y-57956383D01*
X148602102Y-57970012D01*
X148574844Y-57979629D01*
X148566210Y-57983282D01*
X148551691Y-57989426D01*
X148551688Y-57989428D01*
X148480923Y-58047357D01*
X148480918Y-58047361D01*
X148438067Y-58102528D01*
X148438066Y-58102529D01*
X148423887Y-58123286D01*
X148423884Y-58123292D01*
X148395667Y-58210282D01*
X148395666Y-58210287D01*
X148389440Y-58279870D01*
X148389440Y-58279872D01*
X148392571Y-58338289D01*
X148392614Y-58338501D01*
X148392671Y-58339083D01*
X148393124Y-58342687D01*
X148393027Y-58342699D01*
X148395000Y-58362707D01*
X148395000Y-60220999D01*
X148375315Y-60288038D01*
X148322511Y-60333793D01*
X148271000Y-60344999D01*
X147388087Y-60344999D01*
X147344962Y-60349576D01*
X147344951Y-60349578D01*
X147294068Y-60360500D01*
X147294065Y-60360501D01*
X147252866Y-60374025D01*
X147249808Y-60375212D01*
X147249751Y-60375066D01*
X147236311Y-60379928D01*
X147231667Y-60381223D01*
X147213310Y-60384875D01*
X147183144Y-60388539D01*
X147179466Y-60388986D01*
X147174546Y-60389735D01*
X147169625Y-60390485D01*
X147144918Y-60395012D01*
X147115084Y-60396817D01*
X147090002Y-60395300D01*
X147080052Y-60395000D01*
X146924000Y-60395000D01*
X146923992Y-60395000D01*
X146880313Y-60399697D01*
X146828807Y-60410902D01*
X146818629Y-60413389D01*
X146818624Y-60413391D01*
X146793515Y-60426771D01*
X146777262Y-60435432D01*
X146718949Y-60450000D01*
X146674000Y-60450000D01*
X146606961Y-60430315D01*
X146561206Y-60377511D01*
X146550000Y-60326000D01*
X146550000Y-45574000D01*
X146569685Y-45506961D01*
X146622489Y-45461206D01*
X146674000Y-45450000D01*
X149875500Y-45450000D01*
X149942539Y-45469685D01*
G37*
%TD.AperFunction*%
%TD*%
M02*
