M48
; DRILL file {KiCad 7.0.6} date Fri Aug 11 13:22:27 2023
; FORMAT={-:-/ absolute / metric / decimal}
; #@! TF.CreationDate,2023-08-11T13:22:27+02:00
; #@! TF.GenerationSoftware,Kicad,Pcbnew,7.0.6
; #@! TF.FileFunction,Plated,1,2,PTH
FMAT,2
METRIC
; #@! TA.AperFunction,Plated,PTH,ViaDrill
T1C0.400
; #@! TA.AperFunction,Plated,PTH,ViaDrill
T2C0.500
; #@! TA.AperFunction,Plated,PTH,ComponentDrill
T3C0.750
; #@! TA.AperFunction,Plated,PTH,ViaDrill
T4C0.800
; #@! TA.AperFunction,Plated,PTH,ComponentDrill
T5C1.000
; #@! TA.AperFunction,Plated,PTH,ComponentDrill
T6C3.200
; #@! TA.AperFunction,Plated,PTH,ComponentDrill
T7C3.600
%
G90
G05
T1
X97.4Y-95.1
X97.4Y-98.85
X97.4Y-104.6
X97.4Y-108.35
X101.9Y-107.1
X104.243Y-135.757
X104.413Y-134.772
X104.723Y-105.677
X106.0Y-112.0
X106.0Y-113.6
X106.6Y-81.6
X106.6Y-83.5
X106.6Y-103.9
X107.9Y-98.5
X109.22Y-137.28
X110.4Y-103.3
X110.5Y-105.4
X110.7Y-72.4
X111.2Y-126.6
X112.2Y-115.2
X112.2Y-113.0
X112.2Y-122.4
X112.9Y-82.6
X112.9Y-84.85
X112.9Y-92.3
X113.097Y-140.653
X114.15Y-93.85
X114.4Y-98.85
X114.8Y-106.0
X114.935Y-136.551
X115.6Y-122.8
X116.1Y-76.4
X116.1Y-78.1
X116.4Y-110.4
X116.4Y-112.0
X117.15Y-88.85
X117.2Y-107.2
X118.2Y-84.9
X118.4Y-64.8
X121.3Y-141.5
X122.0Y-147.6
X122.65Y-153.1
X122.8Y-55.1
X123.2Y-57.7
X123.4Y-154.35
X124.4Y-136.2
X124.6Y-129.6
X124.759Y-141.788
X124.891Y-54.609
X127.077Y-51.527
X127.65Y-141.85
X128.141Y-57.859
X128.891Y-58.609
X129.15Y-59.6
X129.15Y-151.0
X129.7Y-134.8
X129.9Y-66.1
X130.9Y-138.6
X131.65Y-59.6
X131.9Y-55.1
X132.0Y-48.6
X132.68Y-56.07
X133.3Y-85.8
X133.3Y-87.3
X133.3Y-88.7
X134.0Y-108.6
X134.4Y-85.8
X134.4Y-87.3
X134.4Y-88.7
X134.7Y-130.4
X134.7Y-132.6
X135.698Y-65.6
X135.7Y-70.8
X135.7Y-108.6
X135.9Y-67.7
X139.9Y-98.8
X140.5Y-96.2
X142.2Y-96.2
X142.7Y-130.4
X142.7Y-132.6
X142.753Y-111.853
X143.4Y-59.9
X143.4Y-151.8
X143.45Y-115.35
X143.9Y-67.85
X144.15Y-46.6
X145.0Y-116.0
X145.0Y-119.8
X145.15Y-64.888
X145.55Y-68.85
X145.65Y-46.6
X145.8Y-113.0
X145.9Y-156.6
X147.13Y-111.93
X147.506Y-70.006
X149.65Y-156.6
X151.15Y-52.1
X151.2Y-87.8
X152.25Y-59.35
X152.4Y-73.1
X153.4Y-52.1
X154.3Y-96.4
X154.4Y-73.1
X155.2Y-138.4
X155.2Y-140.4
X155.215Y-46.575
X155.35Y-156.6
X156.4Y-75.1
X156.4Y-94.35
X157.4Y-65.4
X157.8Y-114.6
X158.4Y-75.1
X158.65Y-71.35
X158.915Y-46.575
X159.05Y-156.6
X159.4Y-151.8
X159.891Y-72.858
X160.064Y-114.6
X161.15Y-74.85
X161.2Y-122.0
X162.15Y-61.6
X162.15Y-68.6
X162.15Y-60.6
X163.2Y-130.4
X163.2Y-132.6
X163.65Y-60.6
X164.092Y-76.099
X164.399Y-61.6
X164.4Y-71.389
X164.975Y-73.4
X165.775Y-72.65
X165.855Y-70.64
X165.9Y-102.6
X166.0Y-68.6
X166.008Y-69.652
X166.03Y-121.97
X169.1Y-110.7
X169.15Y-58.85
X170.07Y-128.13
X170.4Y-85.6
X170.4Y-87.1
X170.4Y-88.6
X170.6Y-54.6
X171.2Y-71.25
X171.6Y-85.6
X171.65Y-87.1
X171.65Y-88.6
X171.7Y-68.0
X171.7Y-69.6
X172.15Y-72.6
X172.4Y-58.85
X172.805Y-128.5
X173.13Y-73.93
X173.45Y-59.85
X173.6Y-136.2
X174.8Y-134.8
X175.1Y-66.9
X175.4Y-71.35
X175.81Y-138.42
X175.9Y-151.0
X177.5Y-86.5
X179.263Y-130.663
X179.4Y-86.1
X179.5Y-80.0
X181.467Y-144.076
X181.71Y-135.079
X182.0Y-67.4
X183.6Y-85.8
X183.7Y-90.9
X183.9Y-59.0
X183.9Y-61.0
X183.9Y-63.1
X183.938Y-65.1
X185.65Y-77.85
X185.713Y-136.903
X186.0Y-138.4
X186.749Y-131.326
X186.749Y-134.154
X187.0Y-119.6
X187.7Y-102.9
X188.013Y-130.187
X188.15Y-89.35
X188.15Y-91.35
X188.459Y-59.1
X188.8Y-125.2
X188.8Y-127.0
X189.208Y-61.35
X190.0Y-67.4
X190.1Y-104.4
X190.15Y-75.6
X190.15Y-100.1
X190.2Y-141.0
X191.5Y-77.35
X191.5Y-84.6
X191.6Y-87.0
X192.0Y-118.5
X192.1Y-110.9
X192.2Y-120.8
X192.481Y-136.919
X193.4Y-67.4
X193.4Y-68.8
X193.4Y-131.2
X194.4Y-106.9
X195.4Y-128.4
X195.4Y-132.4
X195.6Y-108.15
X196.4Y-108.9
X197.8Y-85.8
X197.8Y-87.8
X198.1Y-107.9
X198.4Y-119.6
X198.4Y-121.8
X201.0Y-85.6
X201.0Y-87.4
X202.729Y-90.971
X203.5Y-101.65
X203.896Y-129.375
X204.9Y-87.6
X207.4Y-98.825
X207.4Y-104.625
X207.4Y-108.35
X207.549Y-95.125
T2
X102.9Y-127.35
X111.2Y-130.4
X112.2Y-134.0
X113.099Y-130.4
X116.4Y-120.3
X116.4Y-125.3
X117.8Y-138.0
X119.178Y-129.48
X119.4Y-139.6
X120.592Y-130.895
X122.2Y-129.4
X140.619Y-118.219
X141.55Y-117.3
X142.428Y-120.228
X146.0Y-92.0
X156.0Y-98.4
X167.4Y-67.1
X170.4Y-67.6
X180.843Y-129.649
X181.099Y-126.95
X183.2Y-125.87
X183.2Y-129.076
X185.0Y-139.8
X188.576Y-143.376
T3
X147.4Y-100.33
X147.4Y-101.6
X147.4Y-102.87
X152.4Y-104.58
X152.4Y-105.85
X152.4Y-107.12
X155.4Y-101.6
X156.67Y-101.6
X157.94Y-101.6
T4
X118.9Y-124.9
X124.0Y-125.3
X136.8Y-47.45
X136.8Y-53.4
X140.726Y-83.279
X170.6Y-131.5
X171.0Y-93.7
X171.1Y-95.8
X184.549Y-75.499
X188.849Y-111.805
X197.9Y-92.1
X198.4Y-113.2
X203.4Y-103.9
T5
X119.726Y-88.682
X119.726Y-114.518
X123.318Y-92.274
X123.318Y-110.926
X140.482Y-113.274
X140.726Y-89.682
X144.074Y-109.682
X144.318Y-93.274
X160.482Y-109.926
X160.726Y-93.518
X164.074Y-113.518
X164.318Y-89.926
X181.482Y-92.274
X181.482Y-110.926
X185.074Y-88.682
X185.074Y-114.518
T6
X96.3Y-78.2
X96.3Y-125.0
X129.0Y-45.45
X129.1Y-157.7
X175.8Y-157.7
X175.9Y-45.1
X208.5Y-125.0
X208.55Y-78.2
T7
X131.4Y-80.6
X131.4Y-122.6
X132.4Y-101.6
X152.4Y-81.6
X152.4Y-121.6
X172.4Y-101.6
X173.4Y-80.6
X173.4Y-122.6
T0
M30
