%TF.GenerationSoftware,KiCad,Pcbnew,7.0.6*%
%TF.CreationDate,2023-08-13T13:34:14+02:00*%
%TF.ProjectId,MagLev,4d61674c-6576-42e6-9b69-6361645f7063,V1.0*%
%TF.SameCoordinates,Original*%
%TF.FileFunction,Soldermask,Bot*%
%TF.FilePolarity,Negative*%
%FSLAX46Y46*%
G04 Gerber Fmt 4.6, Leading zero omitted, Abs format (unit mm)*
G04 Created by KiCad (PCBNEW 7.0.6) date 2023-08-13 13:34:14*
%MOMM*%
%LPD*%
G01*
G04 APERTURE LIST*
G04 APERTURE END LIST*
G36*
X129623850Y-154504656D02*
G01*
X129966257Y-154580025D01*
X130298507Y-154691973D01*
X130616707Y-154839188D01*
X130917124Y-155019943D01*
X131196237Y-155232119D01*
X131450773Y-155473229D01*
X131677749Y-155740446D01*
X131874504Y-156030637D01*
X132038729Y-156340399D01*
X132168501Y-156666102D01*
X132262297Y-157003926D01*
X132319019Y-157349911D01*
X132338000Y-157700000D01*
X132319019Y-158050089D01*
X132262297Y-158396074D01*
X132168501Y-158733898D01*
X132038729Y-159059601D01*
X131874504Y-159369363D01*
X131677749Y-159659554D01*
X131450773Y-159926771D01*
X131196237Y-160167881D01*
X130917124Y-160380057D01*
X130616707Y-160560812D01*
X130298507Y-160708027D01*
X129966257Y-160819975D01*
X129623850Y-160895344D01*
X129275302Y-160933251D01*
X128924698Y-160933251D01*
X128576150Y-160895344D01*
X128233743Y-160819975D01*
X127901493Y-160708027D01*
X127583293Y-160560812D01*
X127282876Y-160380057D01*
X127003763Y-160167881D01*
X126749227Y-159926771D01*
X126522251Y-159659554D01*
X126325496Y-159369363D01*
X126161271Y-159059601D01*
X126031499Y-158733898D01*
X125937703Y-158396074D01*
X125880981Y-158050089D01*
X125862000Y-157700000D01*
X125880981Y-157349911D01*
X125937703Y-157003926D01*
X126031499Y-156666102D01*
X126161271Y-156340399D01*
X126325496Y-156030637D01*
X126522251Y-155740446D01*
X126749227Y-155473229D01*
X127003763Y-155232119D01*
X127282876Y-155019943D01*
X127583293Y-154839188D01*
X127901493Y-154691973D01*
X128233743Y-154580025D01*
X128576150Y-154504656D01*
X128924698Y-154466749D01*
X129275302Y-154466749D01*
X129623850Y-154504656D01*
G37*
G36*
X176323850Y-154504656D02*
G01*
X176666257Y-154580025D01*
X176998507Y-154691973D01*
X177316707Y-154839188D01*
X177617124Y-155019943D01*
X177896237Y-155232119D01*
X178150773Y-155473229D01*
X178377749Y-155740446D01*
X178574504Y-156030637D01*
X178738729Y-156340399D01*
X178868501Y-156666102D01*
X178962297Y-157003926D01*
X179019019Y-157349911D01*
X179038000Y-157700000D01*
X179019019Y-158050089D01*
X178962297Y-158396074D01*
X178868501Y-158733898D01*
X178738729Y-159059601D01*
X178574504Y-159369363D01*
X178377749Y-159659554D01*
X178150773Y-159926771D01*
X177896237Y-160167881D01*
X177617124Y-160380057D01*
X177316707Y-160560812D01*
X176998507Y-160708027D01*
X176666257Y-160819975D01*
X176323850Y-160895344D01*
X175975302Y-160933251D01*
X175624698Y-160933251D01*
X175276150Y-160895344D01*
X174933743Y-160819975D01*
X174601493Y-160708027D01*
X174283293Y-160560812D01*
X173982876Y-160380057D01*
X173703763Y-160167881D01*
X173449227Y-159926771D01*
X173222251Y-159659554D01*
X173025496Y-159369363D01*
X172861271Y-159059601D01*
X172731499Y-158733898D01*
X172637703Y-158396074D01*
X172580981Y-158050089D01*
X172562000Y-157700000D01*
X172580981Y-157349911D01*
X172637703Y-157003926D01*
X172731499Y-156666102D01*
X172861271Y-156340399D01*
X173025496Y-156030637D01*
X173222251Y-155740446D01*
X173449227Y-155473229D01*
X173703763Y-155232119D01*
X173982876Y-155019943D01*
X174283293Y-154839188D01*
X174601493Y-154691973D01*
X174933743Y-154580025D01*
X175276150Y-154504656D01*
X175624698Y-154466749D01*
X175975302Y-154466749D01*
X176323850Y-154504656D01*
G37*
G36*
X146265938Y-155869650D02*
G01*
X146270653Y-155871732D01*
X146273326Y-155872084D01*
X146306770Y-155887679D01*
X146362759Y-155912401D01*
X146437599Y-155987241D01*
X146462330Y-156043251D01*
X146477915Y-156076673D01*
X146478266Y-156079343D01*
X146480350Y-156084062D01*
X146488000Y-156150000D01*
X146488000Y-157050000D01*
X146480350Y-157115938D01*
X146478266Y-157120656D01*
X146477915Y-157123326D01*
X146462338Y-157156730D01*
X146437599Y-157212759D01*
X146362759Y-157287599D01*
X146306730Y-157312338D01*
X146273326Y-157327915D01*
X146270656Y-157328266D01*
X146265938Y-157330350D01*
X146200000Y-157338000D01*
X145550000Y-157338000D01*
X145484062Y-157330350D01*
X145479343Y-157328266D01*
X145476673Y-157327915D01*
X145443251Y-157312330D01*
X145387241Y-157287599D01*
X145312401Y-157212759D01*
X145287679Y-157156770D01*
X145272084Y-157123326D01*
X145271732Y-157120653D01*
X145269650Y-157115938D01*
X145262000Y-157050000D01*
X145262000Y-156150000D01*
X145269650Y-156084062D01*
X145271732Y-156079346D01*
X145272084Y-156076673D01*
X145287687Y-156043210D01*
X145312401Y-155987241D01*
X145387241Y-155912401D01*
X145443210Y-155887687D01*
X145476673Y-155872084D01*
X145479346Y-155871732D01*
X145484062Y-155869650D01*
X145550000Y-155862000D01*
X146200000Y-155862000D01*
X146265938Y-155869650D01*
G37*
G36*
X148315938Y-155869650D02*
G01*
X148320653Y-155871732D01*
X148323326Y-155872084D01*
X148356770Y-155887679D01*
X148412759Y-155912401D01*
X148487599Y-155987241D01*
X148512330Y-156043251D01*
X148527915Y-156076673D01*
X148528266Y-156079343D01*
X148530350Y-156084062D01*
X148538000Y-156150000D01*
X148538000Y-157050000D01*
X148530350Y-157115938D01*
X148528266Y-157120656D01*
X148527915Y-157123326D01*
X148512338Y-157156730D01*
X148487599Y-157212759D01*
X148412759Y-157287599D01*
X148356730Y-157312338D01*
X148323326Y-157327915D01*
X148320656Y-157328266D01*
X148315938Y-157330350D01*
X148250000Y-157338000D01*
X147600000Y-157338000D01*
X147534062Y-157330350D01*
X147529343Y-157328266D01*
X147526673Y-157327915D01*
X147493251Y-157312330D01*
X147437241Y-157287599D01*
X147362401Y-157212759D01*
X147337679Y-157156770D01*
X147322084Y-157123326D01*
X147321732Y-157120653D01*
X147319650Y-157115938D01*
X147312000Y-157050000D01*
X147312000Y-156150000D01*
X147319650Y-156084062D01*
X147321732Y-156079346D01*
X147322084Y-156076673D01*
X147337687Y-156043210D01*
X147362401Y-155987241D01*
X147437241Y-155912401D01*
X147493210Y-155887687D01*
X147526673Y-155872084D01*
X147529346Y-155871732D01*
X147534062Y-155869650D01*
X147600000Y-155862000D01*
X148250000Y-155862000D01*
X148315938Y-155869650D01*
G37*
G36*
X149965937Y-155869650D02*
G01*
X149970652Y-155871732D01*
X149973325Y-155872084D01*
X150006769Y-155887679D01*
X150062758Y-155912401D01*
X150137598Y-155987241D01*
X150162329Y-156043251D01*
X150177914Y-156076673D01*
X150178265Y-156079343D01*
X150180349Y-156084062D01*
X150187999Y-156150000D01*
X150187999Y-157050000D01*
X150180349Y-157115938D01*
X150178265Y-157120656D01*
X150177914Y-157123326D01*
X150162337Y-157156730D01*
X150137598Y-157212759D01*
X150062758Y-157287599D01*
X150006729Y-157312338D01*
X149973325Y-157327915D01*
X149970655Y-157328266D01*
X149965937Y-157330350D01*
X149899999Y-157338000D01*
X149249999Y-157338000D01*
X149184061Y-157330350D01*
X149179342Y-157328266D01*
X149176672Y-157327915D01*
X149143250Y-157312330D01*
X149087240Y-157287599D01*
X149012400Y-157212759D01*
X148987678Y-157156770D01*
X148972083Y-157123326D01*
X148971731Y-157120653D01*
X148969649Y-157115938D01*
X148961999Y-157050000D01*
X148961999Y-156150000D01*
X148969649Y-156084062D01*
X148971731Y-156079346D01*
X148972083Y-156076673D01*
X148987686Y-156043210D01*
X149012400Y-155987241D01*
X149087240Y-155912401D01*
X149143209Y-155887687D01*
X149176672Y-155872084D01*
X149179345Y-155871732D01*
X149184061Y-155869650D01*
X149249999Y-155862000D01*
X149899999Y-155862000D01*
X149965937Y-155869650D01*
G37*
G36*
X152015937Y-155869650D02*
G01*
X152020652Y-155871732D01*
X152023325Y-155872084D01*
X152056769Y-155887679D01*
X152112758Y-155912401D01*
X152187598Y-155987241D01*
X152212329Y-156043251D01*
X152227914Y-156076673D01*
X152228265Y-156079343D01*
X152230349Y-156084062D01*
X152237999Y-156150000D01*
X152237999Y-157050000D01*
X152230349Y-157115938D01*
X152228265Y-157120656D01*
X152227914Y-157123326D01*
X152212337Y-157156730D01*
X152187598Y-157212759D01*
X152112758Y-157287599D01*
X152056729Y-157312338D01*
X152023325Y-157327915D01*
X152020655Y-157328266D01*
X152015937Y-157330350D01*
X151949999Y-157338000D01*
X151299999Y-157338000D01*
X151234061Y-157330350D01*
X151229342Y-157328266D01*
X151226672Y-157327915D01*
X151193250Y-157312330D01*
X151137240Y-157287599D01*
X151062400Y-157212759D01*
X151037678Y-157156770D01*
X151022083Y-157123326D01*
X151021731Y-157120653D01*
X151019649Y-157115938D01*
X151011999Y-157050000D01*
X151011999Y-156150000D01*
X151019649Y-156084062D01*
X151021731Y-156079346D01*
X151022083Y-156076673D01*
X151037686Y-156043210D01*
X151062400Y-155987241D01*
X151137240Y-155912401D01*
X151193209Y-155887687D01*
X151226672Y-155872084D01*
X151229345Y-155871732D01*
X151234061Y-155869650D01*
X151299999Y-155862000D01*
X151949999Y-155862000D01*
X152015937Y-155869650D01*
G37*
G36*
X153690936Y-155869650D02*
G01*
X153695651Y-155871732D01*
X153698324Y-155872084D01*
X153731768Y-155887679D01*
X153787757Y-155912401D01*
X153862597Y-155987241D01*
X153887328Y-156043251D01*
X153902913Y-156076673D01*
X153903264Y-156079343D01*
X153905348Y-156084062D01*
X153912998Y-156150000D01*
X153912998Y-157050000D01*
X153905348Y-157115938D01*
X153903264Y-157120656D01*
X153902913Y-157123326D01*
X153887336Y-157156730D01*
X153862597Y-157212759D01*
X153787757Y-157287599D01*
X153731728Y-157312338D01*
X153698324Y-157327915D01*
X153695654Y-157328266D01*
X153690936Y-157330350D01*
X153624998Y-157338000D01*
X152974998Y-157338000D01*
X152909060Y-157330350D01*
X152904341Y-157328266D01*
X152901671Y-157327915D01*
X152868249Y-157312330D01*
X152812239Y-157287599D01*
X152737399Y-157212759D01*
X152712677Y-157156770D01*
X152697082Y-157123326D01*
X152696730Y-157120653D01*
X152694648Y-157115938D01*
X152686998Y-157050000D01*
X152686998Y-156150000D01*
X152694648Y-156084062D01*
X152696730Y-156079346D01*
X152697082Y-156076673D01*
X152712685Y-156043210D01*
X152737399Y-155987241D01*
X152812239Y-155912401D01*
X152868208Y-155887687D01*
X152901671Y-155872084D01*
X152904344Y-155871732D01*
X152909060Y-155869650D01*
X152974998Y-155862000D01*
X153624998Y-155862000D01*
X153690936Y-155869650D01*
G37*
G36*
X155740936Y-155869650D02*
G01*
X155745651Y-155871732D01*
X155748324Y-155872084D01*
X155781768Y-155887679D01*
X155837757Y-155912401D01*
X155912597Y-155987241D01*
X155937328Y-156043251D01*
X155952913Y-156076673D01*
X155953264Y-156079343D01*
X155955348Y-156084062D01*
X155962998Y-156150000D01*
X155962998Y-157050000D01*
X155955348Y-157115938D01*
X155953264Y-157120656D01*
X155952913Y-157123326D01*
X155937336Y-157156730D01*
X155912597Y-157212759D01*
X155837757Y-157287599D01*
X155781728Y-157312338D01*
X155748324Y-157327915D01*
X155745654Y-157328266D01*
X155740936Y-157330350D01*
X155674998Y-157338000D01*
X155024998Y-157338000D01*
X154959060Y-157330350D01*
X154954341Y-157328266D01*
X154951671Y-157327915D01*
X154918249Y-157312330D01*
X154862239Y-157287599D01*
X154787399Y-157212759D01*
X154762677Y-157156770D01*
X154747082Y-157123326D01*
X154746730Y-157120653D01*
X154744648Y-157115938D01*
X154736998Y-157050000D01*
X154736998Y-156150000D01*
X154744648Y-156084062D01*
X154746730Y-156079346D01*
X154747082Y-156076673D01*
X154762685Y-156043210D01*
X154787399Y-155987241D01*
X154862239Y-155912401D01*
X154918208Y-155887687D01*
X154951671Y-155872084D01*
X154954344Y-155871732D01*
X154959060Y-155869650D01*
X155024998Y-155862000D01*
X155674998Y-155862000D01*
X155740936Y-155869650D01*
G37*
G36*
X157390938Y-155869650D02*
G01*
X157395653Y-155871732D01*
X157398326Y-155872084D01*
X157431770Y-155887679D01*
X157487759Y-155912401D01*
X157562599Y-155987241D01*
X157587330Y-156043251D01*
X157602915Y-156076673D01*
X157603266Y-156079343D01*
X157605350Y-156084062D01*
X157613000Y-156150000D01*
X157613000Y-157050000D01*
X157605350Y-157115938D01*
X157603266Y-157120656D01*
X157602915Y-157123326D01*
X157587338Y-157156730D01*
X157562599Y-157212759D01*
X157487759Y-157287599D01*
X157431730Y-157312338D01*
X157398326Y-157327915D01*
X157395656Y-157328266D01*
X157390938Y-157330350D01*
X157325000Y-157338000D01*
X156675000Y-157338000D01*
X156609062Y-157330350D01*
X156604343Y-157328266D01*
X156601673Y-157327915D01*
X156568251Y-157312330D01*
X156512241Y-157287599D01*
X156437401Y-157212759D01*
X156412679Y-157156770D01*
X156397084Y-157123326D01*
X156396732Y-157120653D01*
X156394650Y-157115938D01*
X156387000Y-157050000D01*
X156387000Y-156150000D01*
X156394650Y-156084062D01*
X156396732Y-156079346D01*
X156397084Y-156076673D01*
X156412687Y-156043210D01*
X156437401Y-155987241D01*
X156512241Y-155912401D01*
X156568210Y-155887687D01*
X156601673Y-155872084D01*
X156604346Y-155871732D01*
X156609062Y-155869650D01*
X156675000Y-155862000D01*
X157325000Y-155862000D01*
X157390938Y-155869650D01*
G37*
G36*
X159440938Y-155869650D02*
G01*
X159445653Y-155871732D01*
X159448326Y-155872084D01*
X159481770Y-155887679D01*
X159537759Y-155912401D01*
X159612599Y-155987241D01*
X159637330Y-156043251D01*
X159652915Y-156076673D01*
X159653266Y-156079343D01*
X159655350Y-156084062D01*
X159663000Y-156150000D01*
X159663000Y-157050000D01*
X159655350Y-157115938D01*
X159653266Y-157120656D01*
X159652915Y-157123326D01*
X159637338Y-157156730D01*
X159612599Y-157212759D01*
X159537759Y-157287599D01*
X159481730Y-157312338D01*
X159448326Y-157327915D01*
X159445656Y-157328266D01*
X159440938Y-157330350D01*
X159375000Y-157338000D01*
X158725000Y-157338000D01*
X158659062Y-157330350D01*
X158654343Y-157328266D01*
X158651673Y-157327915D01*
X158618251Y-157312330D01*
X158562241Y-157287599D01*
X158487401Y-157212759D01*
X158462679Y-157156770D01*
X158447084Y-157123326D01*
X158446732Y-157120653D01*
X158444650Y-157115938D01*
X158437000Y-157050000D01*
X158437000Y-156150000D01*
X158444650Y-156084062D01*
X158446732Y-156079346D01*
X158447084Y-156076673D01*
X158462687Y-156043210D01*
X158487401Y-155987241D01*
X158562241Y-155912401D01*
X158618210Y-155887687D01*
X158651673Y-155872084D01*
X158654346Y-155871732D01*
X158659062Y-155869650D01*
X158725000Y-155862000D01*
X159375000Y-155862000D01*
X159440938Y-155869650D01*
G37*
G36*
X131664542Y-142564893D02*
G01*
X131676870Y-142573130D01*
X134176870Y-145073130D01*
X134185107Y-145085458D01*
X134188000Y-145100000D01*
X134188000Y-150100000D01*
X134185107Y-150114542D01*
X134176870Y-150126870D01*
X131676870Y-152626870D01*
X131664542Y-152635107D01*
X131650000Y-152638000D01*
X131645079Y-152638000D01*
X126654924Y-152638000D01*
X126650000Y-152638000D01*
X126635458Y-152635107D01*
X126623130Y-152626870D01*
X124123130Y-150126870D01*
X124114893Y-150114542D01*
X124112000Y-150100000D01*
X124112000Y-150095083D01*
X124111999Y-150095078D01*
X124112000Y-145104924D01*
X124112000Y-145100000D01*
X124114893Y-145085458D01*
X124123130Y-145073130D01*
X124126611Y-145069648D01*
X126619648Y-142576611D01*
X126619651Y-142576608D01*
X126623130Y-142573130D01*
X126635458Y-142564893D01*
X126650000Y-142562000D01*
X131650000Y-142562000D01*
X131664542Y-142564893D01*
G37*
G36*
X144914542Y-142564893D02*
G01*
X144926870Y-142573130D01*
X147426870Y-145073130D01*
X147435107Y-145085458D01*
X147438000Y-145100000D01*
X147438000Y-150100000D01*
X147435107Y-150114542D01*
X147426870Y-150126870D01*
X144926870Y-152626870D01*
X144914542Y-152635107D01*
X144900000Y-152638000D01*
X144895079Y-152638000D01*
X139904924Y-152638000D01*
X139900000Y-152638000D01*
X139885458Y-152635107D01*
X139873130Y-152626870D01*
X137373130Y-150126870D01*
X137364893Y-150114542D01*
X137362000Y-150100000D01*
X137362000Y-145100000D01*
X137364893Y-145085458D01*
X137373130Y-145073130D01*
X137376611Y-145069648D01*
X139869648Y-142576611D01*
X139869651Y-142576608D01*
X139873130Y-142573130D01*
X139885458Y-142564893D01*
X139900000Y-142562000D01*
X144900000Y-142562000D01*
X144914542Y-142564893D01*
G37*
G36*
X178414542Y-142564893D02*
G01*
X178426870Y-142573130D01*
X180926870Y-145073130D01*
X180935107Y-145085458D01*
X180938000Y-145100000D01*
X180938000Y-150100000D01*
X180935107Y-150114542D01*
X180926870Y-150126870D01*
X178426870Y-152626870D01*
X178414542Y-152635107D01*
X178400000Y-152638000D01*
X178395079Y-152638000D01*
X173404924Y-152638000D01*
X173400000Y-152638000D01*
X173385458Y-152635107D01*
X173373130Y-152626870D01*
X170873130Y-150126870D01*
X170864893Y-150114542D01*
X170862000Y-150100000D01*
X170862000Y-145100000D01*
X170864893Y-145085458D01*
X170873130Y-145073130D01*
X170876612Y-145069648D01*
X173369648Y-142576611D01*
X173369651Y-142576608D01*
X173373130Y-142573130D01*
X173385458Y-142564893D01*
X173400000Y-142562000D01*
X178400000Y-142562000D01*
X178414542Y-142564893D01*
G37*
G36*
X96823850Y-121804656D02*
G01*
X97166257Y-121880025D01*
X97498507Y-121991973D01*
X97816707Y-122139188D01*
X98117124Y-122319943D01*
X98396237Y-122532119D01*
X98650773Y-122773229D01*
X98877749Y-123040446D01*
X99074504Y-123330637D01*
X99238729Y-123640399D01*
X99368501Y-123966102D01*
X99462297Y-124303926D01*
X99519019Y-124649911D01*
X99538000Y-125000000D01*
X99519019Y-125350089D01*
X99462297Y-125696074D01*
X99368501Y-126033898D01*
X99238729Y-126359601D01*
X99074504Y-126669363D01*
X98877749Y-126959554D01*
X98650773Y-127226771D01*
X98396237Y-127467881D01*
X98117124Y-127680057D01*
X97816707Y-127860812D01*
X97498507Y-128008027D01*
X97166257Y-128119975D01*
X96823850Y-128195344D01*
X96475302Y-128233251D01*
X96124698Y-128233251D01*
X95776150Y-128195344D01*
X95433743Y-128119975D01*
X95101493Y-128008027D01*
X94783293Y-127860812D01*
X94482876Y-127680057D01*
X94203763Y-127467881D01*
X93949227Y-127226771D01*
X93722251Y-126959554D01*
X93525496Y-126669363D01*
X93361271Y-126359601D01*
X93231499Y-126033898D01*
X93137703Y-125696074D01*
X93080981Y-125350089D01*
X93062000Y-125000000D01*
X93080981Y-124649911D01*
X93137703Y-124303926D01*
X93231499Y-123966102D01*
X93361271Y-123640399D01*
X93525496Y-123330637D01*
X93722251Y-123040446D01*
X93949227Y-122773229D01*
X94203763Y-122532119D01*
X94482876Y-122319943D01*
X94783293Y-122139188D01*
X95101493Y-121991973D01*
X95433743Y-121880025D01*
X95776150Y-121804656D01*
X96124698Y-121766749D01*
X96475302Y-121766749D01*
X96823850Y-121804656D01*
G37*
G36*
X209023850Y-121804656D02*
G01*
X209366257Y-121880025D01*
X209698507Y-121991973D01*
X210016707Y-122139188D01*
X210317124Y-122319943D01*
X210596237Y-122532119D01*
X210850773Y-122773229D01*
X211077749Y-123040446D01*
X211274504Y-123330637D01*
X211438729Y-123640399D01*
X211568501Y-123966102D01*
X211662297Y-124303926D01*
X211719019Y-124649911D01*
X211738000Y-125000000D01*
X211719019Y-125350089D01*
X211662297Y-125696074D01*
X211568501Y-126033898D01*
X211438729Y-126359601D01*
X211274504Y-126669363D01*
X211077749Y-126959554D01*
X210850773Y-127226771D01*
X210596237Y-127467881D01*
X210317124Y-127680057D01*
X210016707Y-127860812D01*
X209698507Y-128008027D01*
X209366257Y-128119975D01*
X209023850Y-128195344D01*
X208675302Y-128233251D01*
X208324698Y-128233251D01*
X207976150Y-128195344D01*
X207633743Y-128119975D01*
X207301493Y-128008027D01*
X206983293Y-127860812D01*
X206682876Y-127680057D01*
X206403763Y-127467881D01*
X206149227Y-127226771D01*
X205922251Y-126959554D01*
X205725496Y-126669363D01*
X205561271Y-126359601D01*
X205431499Y-126033898D01*
X205337703Y-125696074D01*
X205280981Y-125350089D01*
X205262000Y-125000000D01*
X205280981Y-124649911D01*
X205337703Y-124303926D01*
X205431499Y-123966102D01*
X205561271Y-123640399D01*
X205725496Y-123330637D01*
X205922251Y-123040446D01*
X206149227Y-122773229D01*
X206403763Y-122532119D01*
X206682876Y-122319943D01*
X206983293Y-122139188D01*
X207301493Y-121991973D01*
X207633743Y-121880025D01*
X207976150Y-121804656D01*
X208324698Y-121766749D01*
X208675302Y-121766749D01*
X209023850Y-121804656D01*
G37*
G36*
X131795793Y-118581444D02*
G01*
X132187775Y-118639589D01*
X132572170Y-118735875D01*
X132945276Y-118869374D01*
X133303500Y-119038802D01*
X133643393Y-119242526D01*
X133961680Y-119478584D01*
X134255297Y-119744703D01*
X134521416Y-120038320D01*
X134757474Y-120356607D01*
X134961198Y-120696500D01*
X135130626Y-121054724D01*
X135264125Y-121427830D01*
X135360411Y-121812225D01*
X135418556Y-122204207D01*
X135438000Y-122600000D01*
X135418556Y-122995793D01*
X135360411Y-123387775D01*
X135264125Y-123772170D01*
X135130626Y-124145276D01*
X134961198Y-124503500D01*
X134757474Y-124843393D01*
X134521416Y-125161680D01*
X134255297Y-125455297D01*
X133961680Y-125721416D01*
X133643393Y-125957474D01*
X133303500Y-126161198D01*
X132945276Y-126330626D01*
X132572170Y-126464125D01*
X132187775Y-126560411D01*
X131795793Y-126618556D01*
X131400000Y-126638000D01*
X131004207Y-126618556D01*
X130612225Y-126560411D01*
X130227830Y-126464125D01*
X129854724Y-126330626D01*
X129496500Y-126161198D01*
X129156607Y-125957474D01*
X128838320Y-125721416D01*
X128544703Y-125455297D01*
X128278584Y-125161680D01*
X128042526Y-124843393D01*
X127838802Y-124503500D01*
X127669374Y-124145276D01*
X127535875Y-123772170D01*
X127439589Y-123387775D01*
X127381444Y-122995793D01*
X127362000Y-122600000D01*
X127381444Y-122204207D01*
X127439589Y-121812225D01*
X127535875Y-121427830D01*
X127669374Y-121054724D01*
X127838802Y-120696500D01*
X128042526Y-120356607D01*
X128278584Y-120038320D01*
X128544703Y-119744703D01*
X128838320Y-119478584D01*
X129156607Y-119242526D01*
X129496500Y-119038802D01*
X129854724Y-118869374D01*
X130227830Y-118735875D01*
X130612225Y-118639589D01*
X131004207Y-118581444D01*
X131400000Y-118562000D01*
X131795793Y-118581444D01*
G37*
G36*
X173795793Y-118581444D02*
G01*
X174187775Y-118639589D01*
X174572170Y-118735875D01*
X174945276Y-118869374D01*
X175303500Y-119038802D01*
X175643393Y-119242526D01*
X175961680Y-119478584D01*
X176255297Y-119744703D01*
X176521416Y-120038320D01*
X176757474Y-120356607D01*
X176961198Y-120696500D01*
X177130626Y-121054724D01*
X177264125Y-121427830D01*
X177360411Y-121812225D01*
X177418556Y-122204207D01*
X177438000Y-122600000D01*
X177418556Y-122995793D01*
X177360411Y-123387775D01*
X177264125Y-123772170D01*
X177130626Y-124145276D01*
X176961198Y-124503500D01*
X176757474Y-124843393D01*
X176521416Y-125161680D01*
X176255297Y-125455297D01*
X175961680Y-125721416D01*
X175643393Y-125957474D01*
X175303500Y-126161198D01*
X174945276Y-126330626D01*
X174572170Y-126464125D01*
X174187775Y-126560411D01*
X173795793Y-126618556D01*
X173400000Y-126638000D01*
X173004207Y-126618556D01*
X172612225Y-126560411D01*
X172227830Y-126464125D01*
X171854724Y-126330626D01*
X171496500Y-126161198D01*
X171156607Y-125957474D01*
X170838320Y-125721416D01*
X170544703Y-125455297D01*
X170278584Y-125161680D01*
X170042526Y-124843393D01*
X169838802Y-124503500D01*
X169669374Y-124145276D01*
X169535875Y-123772170D01*
X169439589Y-123387775D01*
X169381444Y-122995793D01*
X169362000Y-122600000D01*
X169381444Y-122204207D01*
X169439589Y-121812225D01*
X169535875Y-121427830D01*
X169669374Y-121054724D01*
X169838802Y-120696500D01*
X170042526Y-120356607D01*
X170278584Y-120038320D01*
X170544703Y-119744703D01*
X170838320Y-119478584D01*
X171156607Y-119242526D01*
X171496500Y-119038802D01*
X171854724Y-118869374D01*
X172227830Y-118735875D01*
X172612225Y-118639589D01*
X173004207Y-118581444D01*
X173400000Y-118562000D01*
X173795793Y-118581444D01*
G37*
G36*
X152795793Y-117581444D02*
G01*
X153187775Y-117639589D01*
X153572170Y-117735875D01*
X153945276Y-117869374D01*
X154303500Y-118038802D01*
X154643393Y-118242526D01*
X154961680Y-118478584D01*
X155255297Y-118744703D01*
X155521416Y-119038320D01*
X155757474Y-119356607D01*
X155961198Y-119696500D01*
X156130626Y-120054724D01*
X156264125Y-120427830D01*
X156360411Y-120812225D01*
X156418556Y-121204207D01*
X156438000Y-121600000D01*
X156418556Y-121995793D01*
X156360411Y-122387775D01*
X156264125Y-122772170D01*
X156130626Y-123145276D01*
X155961198Y-123503500D01*
X155757474Y-123843393D01*
X155521416Y-124161680D01*
X155255297Y-124455297D01*
X154961680Y-124721416D01*
X154643393Y-124957474D01*
X154303500Y-125161198D01*
X153945276Y-125330626D01*
X153572170Y-125464125D01*
X153187775Y-125560411D01*
X152795793Y-125618556D01*
X152400000Y-125638000D01*
X152004207Y-125618556D01*
X151612225Y-125560411D01*
X151227830Y-125464125D01*
X150854724Y-125330626D01*
X150496500Y-125161198D01*
X150156607Y-124957474D01*
X149838320Y-124721416D01*
X149544703Y-124455297D01*
X149278584Y-124161680D01*
X149042526Y-123843393D01*
X148838802Y-123503500D01*
X148669374Y-123145276D01*
X148535875Y-122772170D01*
X148439589Y-122387775D01*
X148381444Y-121995793D01*
X148362000Y-121600000D01*
X148381444Y-121204207D01*
X148439589Y-120812225D01*
X148535875Y-120427830D01*
X148669374Y-120054724D01*
X148838802Y-119696500D01*
X149042526Y-119356607D01*
X149278584Y-119038320D01*
X149544703Y-118744703D01*
X149838320Y-118478584D01*
X150156607Y-118242526D01*
X150496500Y-118038802D01*
X150854724Y-117869374D01*
X151227830Y-117735875D01*
X151612225Y-117639589D01*
X152004207Y-117581444D01*
X152400000Y-117562000D01*
X152795793Y-117581444D01*
G37*
G36*
X185088875Y-113068448D02*
G01*
X185101203Y-113076685D01*
X186515417Y-114490899D01*
X186523654Y-114503227D01*
X186526546Y-114517769D01*
X186523654Y-114532311D01*
X186515417Y-114544639D01*
X185101203Y-115958853D01*
X185088875Y-115967090D01*
X185074333Y-115969982D01*
X185059791Y-115967090D01*
X185047463Y-115958853D01*
X183633249Y-114544639D01*
X183625012Y-114532311D01*
X183622120Y-114517769D01*
X183625012Y-114503227D01*
X183633249Y-114490899D01*
X185047463Y-113076685D01*
X185059791Y-113068448D01*
X185074333Y-113065556D01*
X185088875Y-113068448D01*
G37*
G36*
X119772788Y-113484410D02*
G01*
X119821420Y-113484410D01*
X119875578Y-113494534D01*
X119928171Y-113499714D01*
X119968126Y-113511834D01*
X120009669Y-113519600D01*
X120067207Y-113541890D01*
X120122892Y-113558782D01*
X120154706Y-113575787D01*
X120188250Y-113588782D01*
X120246534Y-113624870D01*
X120302349Y-113654704D01*
X120325800Y-113673950D01*
X120351071Y-113689597D01*
X120407058Y-113740636D01*
X120459644Y-113783792D01*
X120475228Y-113802781D01*
X120492600Y-113818618D01*
X120543036Y-113885406D01*
X120588732Y-113941087D01*
X120597567Y-113957617D01*
X120608009Y-113971444D01*
X120649554Y-114054877D01*
X120684654Y-114120544D01*
X120688396Y-114132882D01*
X120693374Y-114142878D01*
X120722776Y-114246215D01*
X120743722Y-114315265D01*
X120744410Y-114322251D01*
X120745782Y-114327073D01*
X120760036Y-114480911D01*
X120763667Y-114517769D01*
X120760034Y-114554654D01*
X120745782Y-114708464D01*
X120744410Y-114713285D01*
X120743722Y-114720273D01*
X120722771Y-114789337D01*
X120693374Y-114892659D01*
X120688397Y-114902652D01*
X120684654Y-114914994D01*
X120649547Y-114980674D01*
X120608009Y-115064093D01*
X120597569Y-115077916D01*
X120588732Y-115094451D01*
X120543026Y-115150143D01*
X120492600Y-115216919D01*
X120475231Y-115232752D01*
X120459644Y-115251746D01*
X120407047Y-115294910D01*
X120351071Y-115345940D01*
X120325805Y-115361583D01*
X120302349Y-115380834D01*
X120246523Y-115410673D01*
X120188250Y-115446755D01*
X120154713Y-115459746D01*
X120122892Y-115476756D01*
X120067195Y-115493651D01*
X120009669Y-115515937D01*
X119968132Y-115523701D01*
X119928171Y-115535824D01*
X119875575Y-115541004D01*
X119821420Y-115551128D01*
X119772788Y-115551128D01*
X119725667Y-115555769D01*
X119678546Y-115551128D01*
X119629914Y-115551128D01*
X119575757Y-115541004D01*
X119523163Y-115535824D01*
X119483202Y-115523702D01*
X119441664Y-115515937D01*
X119384134Y-115493650D01*
X119328442Y-115476756D01*
X119296622Y-115459748D01*
X119263083Y-115446755D01*
X119204803Y-115410669D01*
X119148985Y-115380834D01*
X119125531Y-115361586D01*
X119100262Y-115345940D01*
X119044276Y-115294902D01*
X118991690Y-115251746D01*
X118976105Y-115232756D01*
X118958733Y-115216919D01*
X118908294Y-115150128D01*
X118862602Y-115094451D01*
X118853766Y-115077921D01*
X118843324Y-115064093D01*
X118801772Y-114980646D01*
X118766680Y-114914994D01*
X118762937Y-114902657D01*
X118757959Y-114892659D01*
X118728546Y-114789284D01*
X118707612Y-114720273D01*
X118706924Y-114713290D01*
X118705551Y-114708464D01*
X118691281Y-114554470D01*
X118687667Y-114517769D01*
X118691281Y-114481070D01*
X118705551Y-114327073D01*
X118706924Y-114322245D01*
X118707612Y-114315265D01*
X118728541Y-114246268D01*
X118757959Y-114142878D01*
X118762938Y-114132877D01*
X118766680Y-114120544D01*
X118801764Y-114054904D01*
X118843324Y-113971444D01*
X118853768Y-113957613D01*
X118862602Y-113941087D01*
X118908285Y-113885421D01*
X118958733Y-113818618D01*
X118976108Y-113802777D01*
X118991690Y-113783792D01*
X119044265Y-113740644D01*
X119100262Y-113689597D01*
X119125536Y-113673947D01*
X119148985Y-113654704D01*
X119204791Y-113624874D01*
X119263083Y-113588782D01*
X119296629Y-113575786D01*
X119328442Y-113558782D01*
X119384122Y-113541891D01*
X119441664Y-113519600D01*
X119483209Y-113511833D01*
X119523163Y-113499714D01*
X119575754Y-113494534D01*
X119629914Y-113484410D01*
X119678546Y-113484410D01*
X119725667Y-113479769D01*
X119772788Y-113484410D01*
G37*
G36*
X164088875Y-112068448D02*
G01*
X164101203Y-112076685D01*
X165515417Y-113490899D01*
X165523654Y-113503227D01*
X165526546Y-113517769D01*
X165523654Y-113532311D01*
X165515417Y-113544639D01*
X164101203Y-114958853D01*
X164088875Y-114967090D01*
X164074333Y-114969982D01*
X164059791Y-114967090D01*
X164047463Y-114958853D01*
X162633249Y-113544639D01*
X162625012Y-113532311D01*
X162622120Y-113517769D01*
X162625012Y-113503227D01*
X162633249Y-113490899D01*
X164047463Y-112076685D01*
X164059791Y-112068448D01*
X164074333Y-112065556D01*
X164088875Y-112068448D01*
G37*
G36*
X140496773Y-111825012D02*
G01*
X140509101Y-111833249D01*
X141923315Y-113247463D01*
X141931552Y-113259791D01*
X141934444Y-113274333D01*
X141931552Y-113288875D01*
X141923315Y-113301203D01*
X140509101Y-114715417D01*
X140496773Y-114723654D01*
X140482231Y-114726546D01*
X140467689Y-114723654D01*
X140455361Y-114715417D01*
X139041147Y-113301203D01*
X139032910Y-113288875D01*
X139030018Y-113274333D01*
X139032910Y-113259791D01*
X139041147Y-113247463D01*
X140455361Y-111833249D01*
X140467689Y-111825012D01*
X140482231Y-111822120D01*
X140496773Y-111825012D01*
G37*
G36*
X123332311Y-109476346D02*
G01*
X123344639Y-109484583D01*
X124758853Y-110898797D01*
X124767090Y-110911125D01*
X124769982Y-110925667D01*
X124767090Y-110940209D01*
X124758853Y-110952537D01*
X123344639Y-112366751D01*
X123332311Y-112374988D01*
X123317769Y-112377880D01*
X123303227Y-112374988D01*
X123290899Y-112366751D01*
X121876685Y-110952537D01*
X121868448Y-110940209D01*
X121865556Y-110925667D01*
X121868448Y-110911125D01*
X121876685Y-110898797D01*
X123290899Y-109484583D01*
X123303227Y-109476346D01*
X123317769Y-109473454D01*
X123332311Y-109476346D01*
G37*
G36*
X181529352Y-109892308D02*
G01*
X181577984Y-109892308D01*
X181632142Y-109902432D01*
X181684735Y-109907612D01*
X181724690Y-109919732D01*
X181766233Y-109927498D01*
X181823771Y-109949788D01*
X181879456Y-109966680D01*
X181911270Y-109983685D01*
X181944814Y-109996680D01*
X182003098Y-110032768D01*
X182058913Y-110062602D01*
X182082364Y-110081848D01*
X182107635Y-110097495D01*
X182163622Y-110148534D01*
X182216208Y-110191690D01*
X182231792Y-110210679D01*
X182249164Y-110226516D01*
X182299600Y-110293304D01*
X182345296Y-110348985D01*
X182354131Y-110365515D01*
X182364573Y-110379342D01*
X182406118Y-110462775D01*
X182441218Y-110528442D01*
X182444960Y-110540780D01*
X182449938Y-110550776D01*
X182479340Y-110654113D01*
X182500286Y-110723163D01*
X182500974Y-110730149D01*
X182502346Y-110734971D01*
X182516599Y-110888797D01*
X182520231Y-110925667D01*
X182516599Y-110962539D01*
X182502346Y-111116362D01*
X182500974Y-111121183D01*
X182500286Y-111128171D01*
X182479335Y-111197235D01*
X182449938Y-111300557D01*
X182444961Y-111310550D01*
X182441218Y-111322892D01*
X182406111Y-111388572D01*
X182364573Y-111471991D01*
X182354133Y-111485814D01*
X182345296Y-111502349D01*
X182299590Y-111558041D01*
X182249164Y-111624817D01*
X182231795Y-111640650D01*
X182216208Y-111659644D01*
X182163611Y-111702808D01*
X182107635Y-111753838D01*
X182082369Y-111769481D01*
X182058913Y-111788732D01*
X182003087Y-111818571D01*
X181944814Y-111854653D01*
X181911277Y-111867644D01*
X181879456Y-111884654D01*
X181823759Y-111901549D01*
X181766233Y-111923835D01*
X181724696Y-111931599D01*
X181684735Y-111943722D01*
X181632139Y-111948902D01*
X181577984Y-111959026D01*
X181529352Y-111959026D01*
X181482231Y-111963667D01*
X181435110Y-111959026D01*
X181386478Y-111959026D01*
X181332321Y-111948902D01*
X181279727Y-111943722D01*
X181239766Y-111931600D01*
X181198228Y-111923835D01*
X181140698Y-111901548D01*
X181085006Y-111884654D01*
X181053186Y-111867646D01*
X181019647Y-111854653D01*
X180961367Y-111818567D01*
X180905549Y-111788732D01*
X180882095Y-111769484D01*
X180856826Y-111753838D01*
X180800840Y-111702800D01*
X180748254Y-111659644D01*
X180732669Y-111640654D01*
X180715297Y-111624817D01*
X180664858Y-111558026D01*
X180619166Y-111502349D01*
X180610330Y-111485819D01*
X180599888Y-111471991D01*
X180558336Y-111388544D01*
X180523244Y-111322892D01*
X180519501Y-111310555D01*
X180514523Y-111300557D01*
X180485110Y-111197182D01*
X180464176Y-111128171D01*
X180463488Y-111121188D01*
X180462115Y-111116362D01*
X180447847Y-110962381D01*
X180444231Y-110925667D01*
X180447844Y-110888981D01*
X180462115Y-110734971D01*
X180463488Y-110730143D01*
X180464176Y-110723163D01*
X180485105Y-110654166D01*
X180514523Y-110550776D01*
X180519502Y-110540775D01*
X180523244Y-110528442D01*
X180558328Y-110462802D01*
X180599888Y-110379342D01*
X180610332Y-110365511D01*
X180619166Y-110348985D01*
X180664849Y-110293319D01*
X180715297Y-110226516D01*
X180732672Y-110210675D01*
X180748254Y-110191690D01*
X180800829Y-110148542D01*
X180856826Y-110097495D01*
X180882100Y-110081845D01*
X180905549Y-110062602D01*
X180961355Y-110032772D01*
X181019647Y-109996680D01*
X181053193Y-109983684D01*
X181085006Y-109966680D01*
X181140686Y-109949789D01*
X181198228Y-109927498D01*
X181239773Y-109919731D01*
X181279727Y-109907612D01*
X181332318Y-109902432D01*
X181386478Y-109892308D01*
X181435110Y-109892308D01*
X181482231Y-109887667D01*
X181529352Y-109892308D01*
G37*
G36*
X160529352Y-108892308D02*
G01*
X160577984Y-108892308D01*
X160632142Y-108902432D01*
X160684735Y-108907612D01*
X160724690Y-108919732D01*
X160766233Y-108927498D01*
X160823771Y-108949788D01*
X160879456Y-108966680D01*
X160911270Y-108983685D01*
X160944814Y-108996680D01*
X161003098Y-109032768D01*
X161058913Y-109062602D01*
X161082364Y-109081848D01*
X161107635Y-109097495D01*
X161163622Y-109148534D01*
X161216208Y-109191690D01*
X161231792Y-109210679D01*
X161249164Y-109226516D01*
X161299600Y-109293304D01*
X161345296Y-109348985D01*
X161354131Y-109365515D01*
X161364573Y-109379342D01*
X161406118Y-109462775D01*
X161441218Y-109528442D01*
X161444960Y-109540780D01*
X161449938Y-109550776D01*
X161479340Y-109654113D01*
X161500286Y-109723163D01*
X161500974Y-109730149D01*
X161502346Y-109734971D01*
X161516599Y-109888797D01*
X161520231Y-109925667D01*
X161516599Y-109962539D01*
X161502346Y-110116362D01*
X161500974Y-110121183D01*
X161500286Y-110128171D01*
X161479335Y-110197235D01*
X161449938Y-110300557D01*
X161444961Y-110310550D01*
X161441218Y-110322892D01*
X161406111Y-110388572D01*
X161364573Y-110471991D01*
X161354133Y-110485814D01*
X161345296Y-110502349D01*
X161299590Y-110558041D01*
X161249164Y-110624817D01*
X161231795Y-110640650D01*
X161216208Y-110659644D01*
X161163611Y-110702808D01*
X161107635Y-110753838D01*
X161082369Y-110769481D01*
X161058913Y-110788732D01*
X161003087Y-110818571D01*
X160944814Y-110854653D01*
X160911277Y-110867644D01*
X160879456Y-110884654D01*
X160823759Y-110901549D01*
X160766233Y-110923835D01*
X160724696Y-110931599D01*
X160684735Y-110943722D01*
X160632139Y-110948902D01*
X160577984Y-110959026D01*
X160529352Y-110959026D01*
X160482231Y-110963667D01*
X160435110Y-110959026D01*
X160386478Y-110959026D01*
X160332321Y-110948902D01*
X160279727Y-110943722D01*
X160239766Y-110931600D01*
X160198228Y-110923835D01*
X160140698Y-110901548D01*
X160085006Y-110884654D01*
X160053186Y-110867646D01*
X160019647Y-110854653D01*
X159961367Y-110818567D01*
X159905549Y-110788732D01*
X159882095Y-110769484D01*
X159856826Y-110753838D01*
X159800840Y-110702800D01*
X159748254Y-110659644D01*
X159732669Y-110640654D01*
X159715297Y-110624817D01*
X159664858Y-110558026D01*
X159619166Y-110502349D01*
X159610330Y-110485819D01*
X159599888Y-110471991D01*
X159558336Y-110388544D01*
X159523244Y-110322892D01*
X159519501Y-110310555D01*
X159514523Y-110300557D01*
X159485110Y-110197182D01*
X159464176Y-110128171D01*
X159463488Y-110121188D01*
X159462115Y-110116362D01*
X159447845Y-109962368D01*
X159444231Y-109925667D01*
X159447845Y-109888968D01*
X159462115Y-109734971D01*
X159463488Y-109730143D01*
X159464176Y-109723163D01*
X159485105Y-109654166D01*
X159514523Y-109550776D01*
X159519502Y-109540775D01*
X159523244Y-109528442D01*
X159558328Y-109462802D01*
X159599888Y-109379342D01*
X159610332Y-109365511D01*
X159619166Y-109348985D01*
X159664849Y-109293319D01*
X159715297Y-109226516D01*
X159732672Y-109210675D01*
X159748254Y-109191690D01*
X159800829Y-109148542D01*
X159856826Y-109097495D01*
X159882100Y-109081845D01*
X159905549Y-109062602D01*
X159961355Y-109032772D01*
X160019647Y-108996680D01*
X160053193Y-108983684D01*
X160085006Y-108966680D01*
X160140686Y-108949789D01*
X160198228Y-108927498D01*
X160239773Y-108919731D01*
X160279727Y-108907612D01*
X160332318Y-108902432D01*
X160386478Y-108892308D01*
X160435110Y-108892308D01*
X160482231Y-108887667D01*
X160529352Y-108892308D01*
G37*
G36*
X144121454Y-108648872D02*
G01*
X144170086Y-108648872D01*
X144224244Y-108658996D01*
X144276837Y-108664176D01*
X144316792Y-108676296D01*
X144358335Y-108684062D01*
X144415873Y-108706352D01*
X144471558Y-108723244D01*
X144503372Y-108740249D01*
X144536916Y-108753244D01*
X144595200Y-108789332D01*
X144651015Y-108819166D01*
X144674466Y-108838412D01*
X144699737Y-108854059D01*
X144755724Y-108905098D01*
X144808310Y-108948254D01*
X144823894Y-108967243D01*
X144841266Y-108983080D01*
X144891702Y-109049868D01*
X144937398Y-109105549D01*
X144946233Y-109122079D01*
X144956675Y-109135906D01*
X144998220Y-109219339D01*
X145033320Y-109285006D01*
X145037062Y-109297344D01*
X145042040Y-109307340D01*
X145071442Y-109410677D01*
X145092388Y-109479727D01*
X145093076Y-109486713D01*
X145094448Y-109491535D01*
X145108702Y-109645373D01*
X145112333Y-109682231D01*
X145108700Y-109719116D01*
X145094448Y-109872926D01*
X145093076Y-109877747D01*
X145092388Y-109884735D01*
X145071437Y-109953799D01*
X145042040Y-110057121D01*
X145037063Y-110067114D01*
X145033320Y-110079456D01*
X144998213Y-110145136D01*
X144956675Y-110228555D01*
X144946235Y-110242378D01*
X144937398Y-110258913D01*
X144891692Y-110314605D01*
X144841266Y-110381381D01*
X144823897Y-110397214D01*
X144808310Y-110416208D01*
X144755713Y-110459372D01*
X144699737Y-110510402D01*
X144674471Y-110526045D01*
X144651015Y-110545296D01*
X144595189Y-110575135D01*
X144536916Y-110611217D01*
X144503379Y-110624208D01*
X144471558Y-110641218D01*
X144415861Y-110658113D01*
X144358335Y-110680399D01*
X144316798Y-110688163D01*
X144276837Y-110700286D01*
X144224241Y-110705466D01*
X144170086Y-110715590D01*
X144121454Y-110715590D01*
X144074333Y-110720231D01*
X144027212Y-110715590D01*
X143978580Y-110715590D01*
X143924423Y-110705466D01*
X143871829Y-110700286D01*
X143831868Y-110688164D01*
X143790330Y-110680399D01*
X143732800Y-110658112D01*
X143677108Y-110641218D01*
X143645288Y-110624210D01*
X143611749Y-110611217D01*
X143553469Y-110575131D01*
X143497651Y-110545296D01*
X143474197Y-110526048D01*
X143448928Y-110510402D01*
X143392942Y-110459364D01*
X143340356Y-110416208D01*
X143324771Y-110397218D01*
X143307399Y-110381381D01*
X143256960Y-110314590D01*
X143211268Y-110258913D01*
X143202432Y-110242383D01*
X143191990Y-110228555D01*
X143150438Y-110145108D01*
X143115346Y-110079456D01*
X143111603Y-110067119D01*
X143106625Y-110057121D01*
X143077212Y-109953746D01*
X143056278Y-109884735D01*
X143055590Y-109877752D01*
X143054217Y-109872926D01*
X143039947Y-109718932D01*
X143036333Y-109682231D01*
X143039947Y-109645532D01*
X143054217Y-109491535D01*
X143055590Y-109486707D01*
X143056278Y-109479727D01*
X143077207Y-109410730D01*
X143106625Y-109307340D01*
X143111604Y-109297339D01*
X143115346Y-109285006D01*
X143150430Y-109219366D01*
X143191990Y-109135906D01*
X143202434Y-109122075D01*
X143211268Y-109105549D01*
X143256951Y-109049883D01*
X143307399Y-108983080D01*
X143324774Y-108967239D01*
X143340356Y-108948254D01*
X143392931Y-108905106D01*
X143448928Y-108854059D01*
X143474202Y-108838409D01*
X143497651Y-108819166D01*
X143553457Y-108789336D01*
X143611749Y-108753244D01*
X143645295Y-108740248D01*
X143677108Y-108723244D01*
X143732788Y-108706353D01*
X143790330Y-108684062D01*
X143831875Y-108676295D01*
X143871829Y-108664176D01*
X143924420Y-108658996D01*
X143978580Y-108648872D01*
X144027212Y-108648872D01*
X144074333Y-108644231D01*
X144121454Y-108648872D01*
G37*
G36*
X97915938Y-107819651D02*
G01*
X97920653Y-107821733D01*
X97923326Y-107822085D01*
X97956770Y-107837680D01*
X98012759Y-107862402D01*
X98087599Y-107937242D01*
X98112330Y-107993252D01*
X98127915Y-108026674D01*
X98128266Y-108029344D01*
X98130350Y-108034063D01*
X98138000Y-108100001D01*
X98138000Y-108750001D01*
X98130350Y-108815939D01*
X98128266Y-108820657D01*
X98127915Y-108823327D01*
X98112338Y-108856731D01*
X98087599Y-108912760D01*
X98012759Y-108987600D01*
X97956730Y-109012339D01*
X97923326Y-109027916D01*
X97920656Y-109028267D01*
X97915938Y-109030351D01*
X97850000Y-109038001D01*
X96950000Y-109038001D01*
X96884062Y-109030351D01*
X96879343Y-109028267D01*
X96876673Y-109027916D01*
X96843251Y-109012331D01*
X96787241Y-108987600D01*
X96712401Y-108912760D01*
X96687679Y-108856771D01*
X96672084Y-108823327D01*
X96671732Y-108820654D01*
X96669650Y-108815939D01*
X96662000Y-108750001D01*
X96662000Y-108100001D01*
X96669650Y-108034063D01*
X96671732Y-108029347D01*
X96672084Y-108026674D01*
X96687687Y-107993211D01*
X96712401Y-107937242D01*
X96787241Y-107862402D01*
X96843210Y-107837688D01*
X96876673Y-107822085D01*
X96879346Y-107821733D01*
X96884062Y-107819651D01*
X96950000Y-107812001D01*
X97850000Y-107812001D01*
X97915938Y-107819651D01*
G37*
G36*
X207915938Y-107719650D02*
G01*
X207920653Y-107721732D01*
X207923326Y-107722084D01*
X207956770Y-107737679D01*
X208012759Y-107762401D01*
X208087599Y-107837241D01*
X208112330Y-107893251D01*
X208127915Y-107926673D01*
X208128266Y-107929343D01*
X208130350Y-107934062D01*
X208138000Y-108000000D01*
X208138000Y-108650000D01*
X208130350Y-108715938D01*
X208128266Y-108720656D01*
X208127915Y-108723326D01*
X208112338Y-108756730D01*
X208087599Y-108812759D01*
X208012759Y-108887599D01*
X207956730Y-108912338D01*
X207923326Y-108927915D01*
X207920656Y-108928266D01*
X207915938Y-108930350D01*
X207850000Y-108938000D01*
X206950000Y-108938000D01*
X206884062Y-108930350D01*
X206879343Y-108928266D01*
X206876673Y-108927915D01*
X206843251Y-108912330D01*
X206787241Y-108887599D01*
X206712401Y-108812759D01*
X206687679Y-108756770D01*
X206672084Y-108723326D01*
X206671732Y-108720653D01*
X206669650Y-108715938D01*
X206662000Y-108650000D01*
X206662000Y-108000000D01*
X206669650Y-107934062D01*
X206671732Y-107929346D01*
X206672084Y-107926673D01*
X206687687Y-107893210D01*
X206712401Y-107837241D01*
X206787241Y-107762401D01*
X206843210Y-107737687D01*
X206876673Y-107722084D01*
X206879346Y-107721732D01*
X206884062Y-107719650D01*
X206950000Y-107712000D01*
X207850000Y-107712000D01*
X207915938Y-107719650D01*
G37*
G36*
X152526434Y-106557188D02*
G01*
X152593972Y-106561438D01*
X152631082Y-106570966D01*
X152670715Y-106576184D01*
X152702201Y-106589226D01*
X152732105Y-106596904D01*
X152766845Y-106616002D01*
X152806500Y-106632428D01*
X152831201Y-106651381D01*
X152855689Y-106664844D01*
X152886712Y-106693977D01*
X152923101Y-106721899D01*
X152940262Y-106744264D01*
X152958492Y-106761383D01*
X152982851Y-106799767D01*
X153012572Y-106838500D01*
X153022231Y-106861821D01*
X153034058Y-106880456D01*
X153049002Y-106926450D01*
X153068816Y-106974285D01*
X153071725Y-106996387D01*
X153077637Y-107014580D01*
X153080855Y-107065729D01*
X153088000Y-107120000D01*
X153085475Y-107139173D01*
X153086492Y-107155326D01*
X153076348Y-107208501D01*
X153068816Y-107265715D01*
X153062547Y-107280847D01*
X153060067Y-107293853D01*
X153035799Y-107345424D01*
X153012572Y-107401500D01*
X153004401Y-107412148D01*
X153000021Y-107421457D01*
X152961896Y-107467542D01*
X152923101Y-107518101D01*
X152914802Y-107524468D01*
X152910129Y-107530118D01*
X152859532Y-107566878D01*
X152806500Y-107607572D01*
X152799576Y-107610440D01*
X152796036Y-107613012D01*
X152735566Y-107636953D01*
X152670715Y-107663816D01*
X152666228Y-107664406D01*
X152664914Y-107664927D01*
X152599680Y-107673168D01*
X152525000Y-107683000D01*
X152521853Y-107683000D01*
X152276567Y-107683000D01*
X152275000Y-107683000D01*
X152273565Y-107682811D01*
X152206027Y-107678561D01*
X152168923Y-107669034D01*
X152129285Y-107663816D01*
X152097793Y-107650771D01*
X152067894Y-107643095D01*
X152033157Y-107623998D01*
X151993500Y-107607572D01*
X151968796Y-107588616D01*
X151944310Y-107575155D01*
X151913287Y-107546023D01*
X151876899Y-107518101D01*
X151859737Y-107495735D01*
X151841507Y-107478616D01*
X151817146Y-107440229D01*
X151787428Y-107401500D01*
X151777768Y-107378180D01*
X151765941Y-107359543D01*
X151750994Y-107313541D01*
X151731184Y-107265715D01*
X151728274Y-107243616D01*
X151722362Y-107225419D01*
X151719143Y-107174256D01*
X151712000Y-107120000D01*
X151714523Y-107100831D01*
X151713507Y-107084673D01*
X151723654Y-107031478D01*
X151731184Y-106974285D01*
X151737449Y-106959157D01*
X151739932Y-106946146D01*
X151764211Y-106894549D01*
X151787428Y-106838500D01*
X151795594Y-106827856D01*
X151799978Y-106818542D01*
X151838127Y-106772427D01*
X151876899Y-106721899D01*
X151885192Y-106715535D01*
X151889870Y-106709881D01*
X151940509Y-106673088D01*
X151993500Y-106632428D01*
X152000418Y-106629562D01*
X152003963Y-106626987D01*
X152064510Y-106603014D01*
X152129285Y-106576184D01*
X152133766Y-106575593D01*
X152135085Y-106575072D01*
X152200434Y-106566816D01*
X152275000Y-106557000D01*
X152525000Y-106557000D01*
X152526434Y-106557188D01*
G37*
G36*
X97915938Y-105769651D02*
G01*
X97920653Y-105771733D01*
X97923326Y-105772085D01*
X97956770Y-105787680D01*
X98012759Y-105812402D01*
X98087599Y-105887242D01*
X98112330Y-105943252D01*
X98127915Y-105976674D01*
X98128266Y-105979344D01*
X98130350Y-105984063D01*
X98138000Y-106050001D01*
X98138000Y-106700001D01*
X98130350Y-106765939D01*
X98128266Y-106770657D01*
X98127915Y-106773327D01*
X98112338Y-106806731D01*
X98087599Y-106862760D01*
X98012759Y-106937600D01*
X97956730Y-106962339D01*
X97923326Y-106977916D01*
X97920656Y-106978267D01*
X97915938Y-106980351D01*
X97850000Y-106988001D01*
X96950000Y-106988001D01*
X96884062Y-106980351D01*
X96879343Y-106978267D01*
X96876673Y-106977916D01*
X96843251Y-106962331D01*
X96787241Y-106937600D01*
X96712401Y-106862760D01*
X96687679Y-106806771D01*
X96672084Y-106773327D01*
X96671732Y-106770654D01*
X96669650Y-106765939D01*
X96662000Y-106700001D01*
X96662000Y-106050001D01*
X96669650Y-105984063D01*
X96671732Y-105979347D01*
X96672084Y-105976674D01*
X96687687Y-105943211D01*
X96712401Y-105887242D01*
X96787241Y-105812402D01*
X96843210Y-105787688D01*
X96876673Y-105772085D01*
X96879346Y-105771733D01*
X96884062Y-105769651D01*
X96950000Y-105762001D01*
X97850000Y-105762001D01*
X97915938Y-105769651D01*
G37*
G36*
X207915938Y-105669650D02*
G01*
X207920653Y-105671732D01*
X207923326Y-105672084D01*
X207956770Y-105687679D01*
X208012759Y-105712401D01*
X208087599Y-105787241D01*
X208112330Y-105843251D01*
X208127915Y-105876673D01*
X208128266Y-105879343D01*
X208130350Y-105884062D01*
X208138000Y-105950000D01*
X208138000Y-106600000D01*
X208130350Y-106665938D01*
X208128266Y-106670656D01*
X208127915Y-106673326D01*
X208112338Y-106706730D01*
X208087599Y-106762759D01*
X208012759Y-106837599D01*
X207956730Y-106862338D01*
X207923326Y-106877915D01*
X207920656Y-106878266D01*
X207915938Y-106880350D01*
X207850000Y-106888000D01*
X206950000Y-106888000D01*
X206884062Y-106880350D01*
X206879343Y-106878266D01*
X206876673Y-106877915D01*
X206843251Y-106862330D01*
X206787241Y-106837599D01*
X206712401Y-106762759D01*
X206687679Y-106706770D01*
X206672084Y-106673326D01*
X206671732Y-106670653D01*
X206669650Y-106665938D01*
X206662000Y-106600000D01*
X206662000Y-105950000D01*
X206669650Y-105884062D01*
X206671732Y-105879346D01*
X206672084Y-105876673D01*
X206687687Y-105843210D01*
X206712401Y-105787241D01*
X206787241Y-105712401D01*
X206843210Y-105687687D01*
X206876673Y-105672084D01*
X206879346Y-105671732D01*
X206884062Y-105669650D01*
X206950000Y-105662000D01*
X207850000Y-105662000D01*
X207915938Y-105669650D01*
G37*
G36*
X152526434Y-105287188D02*
G01*
X152593972Y-105291438D01*
X152631082Y-105300966D01*
X152670715Y-105306184D01*
X152702201Y-105319226D01*
X152732105Y-105326904D01*
X152766845Y-105346002D01*
X152806500Y-105362428D01*
X152831201Y-105381381D01*
X152855689Y-105394844D01*
X152886712Y-105423977D01*
X152923101Y-105451899D01*
X152940262Y-105474264D01*
X152958492Y-105491383D01*
X152982851Y-105529767D01*
X153012572Y-105568500D01*
X153022231Y-105591821D01*
X153034058Y-105610456D01*
X153049002Y-105656450D01*
X153068816Y-105704285D01*
X153071725Y-105726387D01*
X153077637Y-105744580D01*
X153080855Y-105795729D01*
X153088000Y-105850000D01*
X153085475Y-105869173D01*
X153086492Y-105885326D01*
X153076348Y-105938501D01*
X153068816Y-105995715D01*
X153062547Y-106010847D01*
X153060067Y-106023853D01*
X153035799Y-106075424D01*
X153012572Y-106131500D01*
X153004401Y-106142148D01*
X153000021Y-106151457D01*
X152961896Y-106197542D01*
X152923101Y-106248101D01*
X152914802Y-106254468D01*
X152910129Y-106260118D01*
X152859532Y-106296878D01*
X152806500Y-106337572D01*
X152799576Y-106340440D01*
X152796036Y-106343012D01*
X152735566Y-106366953D01*
X152670715Y-106393816D01*
X152666228Y-106394406D01*
X152664914Y-106394927D01*
X152599680Y-106403168D01*
X152525000Y-106413000D01*
X152521853Y-106413000D01*
X152276567Y-106413000D01*
X152275000Y-106413000D01*
X152273565Y-106412811D01*
X152206027Y-106408561D01*
X152168923Y-106399034D01*
X152129285Y-106393816D01*
X152097793Y-106380771D01*
X152067894Y-106373095D01*
X152033157Y-106353998D01*
X151993500Y-106337572D01*
X151968796Y-106318616D01*
X151944310Y-106305155D01*
X151913287Y-106276023D01*
X151876899Y-106248101D01*
X151859737Y-106225735D01*
X151841507Y-106208616D01*
X151817146Y-106170229D01*
X151787428Y-106131500D01*
X151777768Y-106108180D01*
X151765941Y-106089543D01*
X151750994Y-106043541D01*
X151731184Y-105995715D01*
X151728274Y-105973616D01*
X151722362Y-105955419D01*
X151719143Y-105904256D01*
X151712000Y-105850000D01*
X151714523Y-105830831D01*
X151713507Y-105814673D01*
X151723654Y-105761478D01*
X151731184Y-105704285D01*
X151737449Y-105689157D01*
X151739932Y-105676146D01*
X151764211Y-105624549D01*
X151787428Y-105568500D01*
X151795594Y-105557856D01*
X151799978Y-105548542D01*
X151838127Y-105502427D01*
X151876899Y-105451899D01*
X151885192Y-105445535D01*
X151889870Y-105439881D01*
X151940509Y-105403088D01*
X151993500Y-105362428D01*
X152000418Y-105359562D01*
X152003963Y-105356987D01*
X152064510Y-105333014D01*
X152129285Y-105306184D01*
X152133766Y-105305593D01*
X152135085Y-105305072D01*
X152200434Y-105296816D01*
X152275000Y-105287000D01*
X152525000Y-105287000D01*
X152526434Y-105287188D01*
G37*
G36*
X132795793Y-97581444D02*
G01*
X133187775Y-97639589D01*
X133572170Y-97735875D01*
X133945276Y-97869374D01*
X134303500Y-98038802D01*
X134643393Y-98242526D01*
X134961680Y-98478584D01*
X135255297Y-98744703D01*
X135521416Y-99038320D01*
X135757474Y-99356607D01*
X135961198Y-99696500D01*
X136130626Y-100054724D01*
X136264125Y-100427830D01*
X136360411Y-100812225D01*
X136418556Y-101204207D01*
X136438000Y-101600000D01*
X136418556Y-101995793D01*
X136360411Y-102387775D01*
X136264125Y-102772170D01*
X136130626Y-103145276D01*
X135961198Y-103503500D01*
X135757474Y-103843393D01*
X135521416Y-104161680D01*
X135255297Y-104455297D01*
X134961680Y-104721416D01*
X134643393Y-104957474D01*
X134303500Y-105161198D01*
X133945276Y-105330626D01*
X133572170Y-105464125D01*
X133187775Y-105560411D01*
X132795793Y-105618556D01*
X132400000Y-105638000D01*
X132004207Y-105618556D01*
X131612225Y-105560411D01*
X131227830Y-105464125D01*
X130854724Y-105330626D01*
X130496500Y-105161198D01*
X130156607Y-104957474D01*
X129838320Y-104721416D01*
X129544703Y-104455297D01*
X129278584Y-104161680D01*
X129042526Y-103843393D01*
X128838802Y-103503500D01*
X128669374Y-103145276D01*
X128535875Y-102772170D01*
X128439589Y-102387775D01*
X128381444Y-101995793D01*
X128362000Y-101600000D01*
X128381444Y-101204207D01*
X128439589Y-100812225D01*
X128535875Y-100427830D01*
X128669374Y-100054724D01*
X128838802Y-99696500D01*
X129042526Y-99356607D01*
X129278584Y-99038320D01*
X129544703Y-98744703D01*
X129838320Y-98478584D01*
X130156607Y-98242526D01*
X130496500Y-98038802D01*
X130854724Y-97869374D01*
X131227830Y-97735875D01*
X131612225Y-97639589D01*
X132004207Y-97581444D01*
X132400000Y-97562000D01*
X132795793Y-97581444D01*
G37*
G36*
X172795793Y-97581444D02*
G01*
X173187775Y-97639589D01*
X173572170Y-97735875D01*
X173945276Y-97869374D01*
X174303500Y-98038802D01*
X174643393Y-98242526D01*
X174961680Y-98478584D01*
X175255297Y-98744703D01*
X175521416Y-99038320D01*
X175757474Y-99356607D01*
X175961198Y-99696500D01*
X176130626Y-100054724D01*
X176264125Y-100427830D01*
X176360411Y-100812225D01*
X176418556Y-101204207D01*
X176438000Y-101600000D01*
X176418556Y-101995793D01*
X176360411Y-102387775D01*
X176264125Y-102772170D01*
X176130626Y-103145276D01*
X175961198Y-103503500D01*
X175757474Y-103843393D01*
X175521416Y-104161680D01*
X175255297Y-104455297D01*
X174961680Y-104721416D01*
X174643393Y-104957474D01*
X174303500Y-105161198D01*
X173945276Y-105330626D01*
X173572170Y-105464125D01*
X173187775Y-105560411D01*
X172795793Y-105618556D01*
X172400000Y-105638000D01*
X172004207Y-105618556D01*
X171612225Y-105560411D01*
X171227830Y-105464125D01*
X170854724Y-105330626D01*
X170496500Y-105161198D01*
X170156607Y-104957474D01*
X169838320Y-104721416D01*
X169544703Y-104455297D01*
X169278584Y-104161680D01*
X169042526Y-103843393D01*
X168838802Y-103503500D01*
X168669374Y-103145276D01*
X168535875Y-102772170D01*
X168439589Y-102387775D01*
X168381444Y-101995793D01*
X168362000Y-101600000D01*
X168381444Y-101204207D01*
X168439589Y-100812225D01*
X168535875Y-100427830D01*
X168669374Y-100054724D01*
X168838802Y-99696500D01*
X169042526Y-99356607D01*
X169278584Y-99038320D01*
X169544703Y-98744703D01*
X169838320Y-98478584D01*
X170156607Y-98242526D01*
X170496500Y-98038802D01*
X170854724Y-97869374D01*
X171227830Y-97735875D01*
X171612225Y-97639589D01*
X172004207Y-97581444D01*
X172400000Y-97562000D01*
X172795793Y-97581444D01*
G37*
G36*
X97915938Y-104044650D02*
G01*
X97920653Y-104046732D01*
X97923326Y-104047084D01*
X97956770Y-104062679D01*
X98012759Y-104087401D01*
X98087599Y-104162241D01*
X98112330Y-104218251D01*
X98127915Y-104251673D01*
X98128266Y-104254343D01*
X98130350Y-104259062D01*
X98138000Y-104325000D01*
X98138000Y-104975000D01*
X98130350Y-105040938D01*
X98128266Y-105045656D01*
X98127915Y-105048326D01*
X98112338Y-105081730D01*
X98087599Y-105137759D01*
X98012759Y-105212599D01*
X97956730Y-105237338D01*
X97923326Y-105252915D01*
X97920656Y-105253266D01*
X97915938Y-105255350D01*
X97850000Y-105263000D01*
X96950000Y-105263000D01*
X96884062Y-105255350D01*
X96879343Y-105253266D01*
X96876673Y-105252915D01*
X96843251Y-105237330D01*
X96787241Y-105212599D01*
X96712401Y-105137759D01*
X96687679Y-105081770D01*
X96672084Y-105048326D01*
X96671732Y-105045653D01*
X96669650Y-105040938D01*
X96662000Y-104975000D01*
X96662000Y-104325000D01*
X96669650Y-104259062D01*
X96671732Y-104254346D01*
X96672084Y-104251673D01*
X96687687Y-104218210D01*
X96712401Y-104162241D01*
X96787241Y-104087401D01*
X96843210Y-104062687D01*
X96876673Y-104047084D01*
X96879346Y-104046732D01*
X96884062Y-104044650D01*
X96950000Y-104037000D01*
X97850000Y-104037000D01*
X97915938Y-104044650D01*
G37*
G36*
X207915938Y-104019650D02*
G01*
X207920653Y-104021732D01*
X207923326Y-104022084D01*
X207956770Y-104037679D01*
X208012759Y-104062401D01*
X208087599Y-104137241D01*
X208112330Y-104193251D01*
X208127915Y-104226673D01*
X208128266Y-104229343D01*
X208130350Y-104234062D01*
X208138000Y-104300000D01*
X208138000Y-104950000D01*
X208130350Y-105015938D01*
X208128266Y-105020656D01*
X208127915Y-105023326D01*
X208112338Y-105056730D01*
X208087599Y-105112759D01*
X208012759Y-105187599D01*
X207956730Y-105212338D01*
X207923326Y-105227915D01*
X207920656Y-105228266D01*
X207915938Y-105230350D01*
X207850000Y-105238000D01*
X206950000Y-105238000D01*
X206884062Y-105230350D01*
X206879343Y-105228266D01*
X206876673Y-105227915D01*
X206843251Y-105212330D01*
X206787241Y-105187599D01*
X206712401Y-105112759D01*
X206687679Y-105056770D01*
X206672084Y-105023326D01*
X206671732Y-105020653D01*
X206669650Y-105015938D01*
X206662000Y-104950000D01*
X206662000Y-104300000D01*
X206669650Y-104234062D01*
X206671732Y-104229346D01*
X206672084Y-104226673D01*
X206687687Y-104193210D01*
X206712401Y-104137241D01*
X206787241Y-104062401D01*
X206843210Y-104037687D01*
X206876673Y-104022084D01*
X206879346Y-104021732D01*
X206884062Y-104019650D01*
X206950000Y-104012000D01*
X207850000Y-104012000D01*
X207915938Y-104019650D01*
G37*
G36*
X152866015Y-104024647D02*
G01*
X152870733Y-104026730D01*
X152873397Y-104027081D01*
X152906740Y-104042628D01*
X152962803Y-104067383D01*
X153037617Y-104142197D01*
X153062380Y-104198281D01*
X153077918Y-104231602D01*
X153078268Y-104234263D01*
X153080353Y-104238985D01*
X153088000Y-104304900D01*
X153088000Y-104855100D01*
X153080353Y-104921015D01*
X153078268Y-104925736D01*
X153077918Y-104928397D01*
X153062388Y-104961699D01*
X153037617Y-105017803D01*
X152962803Y-105092617D01*
X152906699Y-105117388D01*
X152873397Y-105132918D01*
X152870736Y-105133268D01*
X152866015Y-105135353D01*
X152800100Y-105143000D01*
X151999900Y-105143000D01*
X151933985Y-105135353D01*
X151929263Y-105133268D01*
X151926602Y-105132918D01*
X151893281Y-105117380D01*
X151837197Y-105092617D01*
X151762383Y-105017803D01*
X151737628Y-104961740D01*
X151722081Y-104928397D01*
X151721730Y-104925733D01*
X151719647Y-104921015D01*
X151712000Y-104855100D01*
X151712000Y-104304900D01*
X151719647Y-104238985D01*
X151721730Y-104234267D01*
X151722081Y-104231602D01*
X151737637Y-104198241D01*
X151762383Y-104142197D01*
X151837197Y-104067383D01*
X151893241Y-104042637D01*
X151926602Y-104027081D01*
X151929267Y-104026730D01*
X151933985Y-104024647D01*
X151999900Y-104017000D01*
X152800100Y-104017000D01*
X152866015Y-104024647D01*
G37*
G36*
X147866015Y-102314647D02*
G01*
X147870733Y-102316730D01*
X147873397Y-102317081D01*
X147906740Y-102332628D01*
X147962803Y-102357383D01*
X148037617Y-102432197D01*
X148062380Y-102488281D01*
X148077918Y-102521602D01*
X148078268Y-102524263D01*
X148080353Y-102528985D01*
X148088000Y-102594900D01*
X148088000Y-103145100D01*
X148080353Y-103211015D01*
X148078268Y-103215736D01*
X148077918Y-103218397D01*
X148062388Y-103251699D01*
X148037617Y-103307803D01*
X147962803Y-103382617D01*
X147906699Y-103407388D01*
X147873397Y-103422918D01*
X147870736Y-103423268D01*
X147866015Y-103425353D01*
X147800100Y-103433000D01*
X146999900Y-103433000D01*
X146933985Y-103425353D01*
X146929263Y-103423268D01*
X146926602Y-103422918D01*
X146893281Y-103407380D01*
X146837197Y-103382617D01*
X146762383Y-103307803D01*
X146737628Y-103251740D01*
X146722081Y-103218397D01*
X146721730Y-103215733D01*
X146719647Y-103211015D01*
X146712000Y-103145100D01*
X146712000Y-102594900D01*
X146719647Y-102528985D01*
X146721730Y-102524267D01*
X146722081Y-102521602D01*
X146737637Y-102488241D01*
X146762383Y-102432197D01*
X146837197Y-102357383D01*
X146893241Y-102332637D01*
X146926602Y-102317081D01*
X146929267Y-102316730D01*
X146933985Y-102314647D01*
X146999900Y-102307000D01*
X147800100Y-102307000D01*
X147866015Y-102314647D01*
G37*
G36*
X97915938Y-101994650D02*
G01*
X97920653Y-101996732D01*
X97923326Y-101997084D01*
X97956770Y-102012679D01*
X98012759Y-102037401D01*
X98087599Y-102112241D01*
X98112330Y-102168251D01*
X98127915Y-102201673D01*
X98128266Y-102204343D01*
X98130350Y-102209062D01*
X98138000Y-102275000D01*
X98138000Y-102925000D01*
X98130350Y-102990938D01*
X98128266Y-102995656D01*
X98127915Y-102998326D01*
X98112338Y-103031730D01*
X98087599Y-103087759D01*
X98012759Y-103162599D01*
X97956730Y-103187338D01*
X97923326Y-103202915D01*
X97920656Y-103203266D01*
X97915938Y-103205350D01*
X97850000Y-103213000D01*
X96950000Y-103213000D01*
X96884062Y-103205350D01*
X96879343Y-103203266D01*
X96876673Y-103202915D01*
X96843251Y-103187330D01*
X96787241Y-103162599D01*
X96712401Y-103087759D01*
X96687679Y-103031770D01*
X96672084Y-102998326D01*
X96671732Y-102995653D01*
X96669650Y-102990938D01*
X96662000Y-102925000D01*
X96662000Y-102275000D01*
X96669650Y-102209062D01*
X96671732Y-102204346D01*
X96672084Y-102201673D01*
X96687687Y-102168210D01*
X96712401Y-102112241D01*
X96787241Y-102037401D01*
X96843210Y-102012687D01*
X96876673Y-101997084D01*
X96879346Y-101996732D01*
X96884062Y-101994650D01*
X96950000Y-101987000D01*
X97850000Y-101987000D01*
X97915938Y-101994650D01*
G37*
G36*
X207915938Y-101969650D02*
G01*
X207920653Y-101971732D01*
X207923326Y-101972084D01*
X207956770Y-101987679D01*
X208012759Y-102012401D01*
X208087599Y-102087241D01*
X208112330Y-102143251D01*
X208127915Y-102176673D01*
X208128266Y-102179343D01*
X208130350Y-102184062D01*
X208138000Y-102250000D01*
X208138000Y-102900000D01*
X208130350Y-102965938D01*
X208128266Y-102970656D01*
X208127915Y-102973326D01*
X208112338Y-103006730D01*
X208087599Y-103062759D01*
X208012759Y-103137599D01*
X207956730Y-103162338D01*
X207923326Y-103177915D01*
X207920656Y-103178266D01*
X207915938Y-103180350D01*
X207850000Y-103188000D01*
X206950000Y-103188000D01*
X206884062Y-103180350D01*
X206879343Y-103178266D01*
X206876673Y-103177915D01*
X206843251Y-103162330D01*
X206787241Y-103137599D01*
X206712401Y-103062759D01*
X206687679Y-103006770D01*
X206672084Y-102973326D01*
X206671732Y-102970653D01*
X206669650Y-102965938D01*
X206662000Y-102900000D01*
X206662000Y-102250000D01*
X206669650Y-102184062D01*
X206671732Y-102179346D01*
X206672084Y-102176673D01*
X206687687Y-102143210D01*
X206712401Y-102087241D01*
X206787241Y-102012401D01*
X206843210Y-101987687D01*
X206876673Y-101972084D01*
X206879346Y-101971732D01*
X206884062Y-101969650D01*
X206950000Y-101962000D01*
X207850000Y-101962000D01*
X207915938Y-101969650D01*
G37*
G36*
X155419168Y-100914523D02*
G01*
X155435326Y-100913507D01*
X155488518Y-100923653D01*
X155545715Y-100931184D01*
X155560843Y-100937450D01*
X155573853Y-100939932D01*
X155625442Y-100964208D01*
X155681500Y-100987428D01*
X155692144Y-100995595D01*
X155701457Y-100999978D01*
X155747558Y-101038116D01*
X155798101Y-101076899D01*
X155804466Y-101085194D01*
X155810118Y-101089870D01*
X155846892Y-101140485D01*
X155887572Y-101193500D01*
X155890439Y-101200421D01*
X155893012Y-101203963D01*
X155916962Y-101264455D01*
X155943816Y-101329285D01*
X155944406Y-101333770D01*
X155944927Y-101335085D01*
X155953169Y-101400332D01*
X155963000Y-101475000D01*
X155963000Y-101725000D01*
X155962811Y-101726434D01*
X155958561Y-101793972D01*
X155949034Y-101831074D01*
X155943816Y-101870715D01*
X155930771Y-101902208D01*
X155923095Y-101932105D01*
X155904000Y-101966838D01*
X155887572Y-102006500D01*
X155868614Y-102031205D01*
X155855155Y-102055689D01*
X155826027Y-102086706D01*
X155798101Y-102123101D01*
X155775732Y-102140265D01*
X155758616Y-102158492D01*
X155720237Y-102182847D01*
X155681500Y-102212572D01*
X155658176Y-102222233D01*
X155639543Y-102234058D01*
X155593552Y-102249000D01*
X155545715Y-102268816D01*
X155523611Y-102271726D01*
X155505419Y-102277637D01*
X155454271Y-102280854D01*
X155400000Y-102288000D01*
X155380826Y-102285475D01*
X155364673Y-102286492D01*
X155311495Y-102276347D01*
X155254285Y-102268816D01*
X155239153Y-102262548D01*
X155226146Y-102260067D01*
X155174566Y-102235795D01*
X155118500Y-102212572D01*
X155107853Y-102204402D01*
X155098542Y-102200021D01*
X155052444Y-102161885D01*
X155001899Y-102123101D01*
X154995533Y-102114804D01*
X154989881Y-102110129D01*
X154953102Y-102059508D01*
X154912428Y-102006500D01*
X154909561Y-101999579D01*
X154906987Y-101996036D01*
X154883023Y-101935511D01*
X154856184Y-101870715D01*
X154855593Y-101866231D01*
X154855072Y-101864914D01*
X154846819Y-101799589D01*
X154837000Y-101725000D01*
X154837000Y-101475000D01*
X154837188Y-101473566D01*
X154841438Y-101406027D01*
X154850966Y-101368915D01*
X154856184Y-101329285D01*
X154869225Y-101297799D01*
X154876904Y-101267894D01*
X154896004Y-101233149D01*
X154912428Y-101193500D01*
X154931379Y-101168801D01*
X154944844Y-101144310D01*
X154973981Y-101113282D01*
X155001899Y-101076899D01*
X155024260Y-101059740D01*
X155041383Y-101041507D01*
X155079775Y-101017142D01*
X155118500Y-100987428D01*
X155141816Y-100977769D01*
X155160456Y-100965941D01*
X155206462Y-100950992D01*
X155254285Y-100931184D01*
X155276381Y-100928274D01*
X155294580Y-100922362D01*
X155345744Y-100919143D01*
X155400000Y-100912000D01*
X155419168Y-100914523D01*
G37*
G36*
X156689168Y-100914523D02*
G01*
X156705326Y-100913507D01*
X156758518Y-100923653D01*
X156815715Y-100931184D01*
X156830843Y-100937450D01*
X156843853Y-100939932D01*
X156895442Y-100964208D01*
X156951500Y-100987428D01*
X156962144Y-100995595D01*
X156971457Y-100999978D01*
X157017558Y-101038116D01*
X157068101Y-101076899D01*
X157074466Y-101085194D01*
X157080118Y-101089870D01*
X157116892Y-101140485D01*
X157157572Y-101193500D01*
X157160439Y-101200421D01*
X157163012Y-101203963D01*
X157186962Y-101264455D01*
X157213816Y-101329285D01*
X157214406Y-101333770D01*
X157214927Y-101335085D01*
X157223169Y-101400332D01*
X157233000Y-101475000D01*
X157233000Y-101725000D01*
X157232811Y-101726434D01*
X157228561Y-101793972D01*
X157219034Y-101831074D01*
X157213816Y-101870715D01*
X157200771Y-101902208D01*
X157193095Y-101932105D01*
X157174000Y-101966838D01*
X157157572Y-102006500D01*
X157138614Y-102031205D01*
X157125155Y-102055689D01*
X157096027Y-102086706D01*
X157068101Y-102123101D01*
X157045732Y-102140265D01*
X157028616Y-102158492D01*
X156990237Y-102182847D01*
X156951500Y-102212572D01*
X156928176Y-102222233D01*
X156909543Y-102234058D01*
X156863552Y-102249000D01*
X156815715Y-102268816D01*
X156793611Y-102271726D01*
X156775419Y-102277637D01*
X156724271Y-102280854D01*
X156670000Y-102288000D01*
X156650826Y-102285475D01*
X156634673Y-102286492D01*
X156581495Y-102276347D01*
X156524285Y-102268816D01*
X156509153Y-102262548D01*
X156496146Y-102260067D01*
X156444566Y-102235795D01*
X156388500Y-102212572D01*
X156377853Y-102204402D01*
X156368542Y-102200021D01*
X156322444Y-102161885D01*
X156271899Y-102123101D01*
X156265533Y-102114804D01*
X156259881Y-102110129D01*
X156223102Y-102059508D01*
X156182428Y-102006500D01*
X156179561Y-101999579D01*
X156176987Y-101996036D01*
X156153023Y-101935511D01*
X156126184Y-101870715D01*
X156125593Y-101866231D01*
X156125072Y-101864914D01*
X156116819Y-101799589D01*
X156107000Y-101725000D01*
X156107000Y-101475000D01*
X156107188Y-101473566D01*
X156111438Y-101406027D01*
X156120966Y-101368915D01*
X156126184Y-101329285D01*
X156139225Y-101297799D01*
X156146904Y-101267894D01*
X156166004Y-101233149D01*
X156182428Y-101193500D01*
X156201379Y-101168801D01*
X156214844Y-101144310D01*
X156243981Y-101113282D01*
X156271899Y-101076899D01*
X156294260Y-101059740D01*
X156311383Y-101041507D01*
X156349775Y-101017142D01*
X156388500Y-100987428D01*
X156411816Y-100977769D01*
X156430456Y-100965941D01*
X156476462Y-100950992D01*
X156524285Y-100931184D01*
X156546381Y-100928274D01*
X156564580Y-100922362D01*
X156615744Y-100919143D01*
X156670000Y-100912000D01*
X156689168Y-100914523D01*
G37*
G36*
X158281015Y-100919647D02*
G01*
X158285733Y-100921730D01*
X158288397Y-100922081D01*
X158321740Y-100937628D01*
X158377803Y-100962383D01*
X158452617Y-101037197D01*
X158477380Y-101093281D01*
X158492918Y-101126602D01*
X158493268Y-101129263D01*
X158495353Y-101133985D01*
X158503000Y-101199900D01*
X158503000Y-102000100D01*
X158495353Y-102066015D01*
X158493268Y-102070736D01*
X158492918Y-102073397D01*
X158477388Y-102106699D01*
X158452617Y-102162803D01*
X158377803Y-102237617D01*
X158321699Y-102262388D01*
X158288397Y-102277918D01*
X158285736Y-102278268D01*
X158281015Y-102280353D01*
X158215100Y-102288000D01*
X157664900Y-102288000D01*
X157598985Y-102280353D01*
X157594263Y-102278268D01*
X157591602Y-102277918D01*
X157558281Y-102262380D01*
X157502197Y-102237617D01*
X157427383Y-102162803D01*
X157402628Y-102106740D01*
X157387081Y-102073397D01*
X157386730Y-102070733D01*
X157384647Y-102066015D01*
X157377000Y-102000100D01*
X157377000Y-101199900D01*
X157384647Y-101133985D01*
X157386730Y-101129267D01*
X157387081Y-101126602D01*
X157402637Y-101093241D01*
X157427383Y-101037197D01*
X157502197Y-100962383D01*
X157558241Y-100937637D01*
X157591602Y-100922081D01*
X157594267Y-100921730D01*
X157598985Y-100919647D01*
X157664900Y-100912000D01*
X158215100Y-100912000D01*
X158281015Y-100919647D01*
G37*
G36*
X147526434Y-101037188D02*
G01*
X147593972Y-101041438D01*
X147631082Y-101050966D01*
X147670715Y-101056184D01*
X147702201Y-101069226D01*
X147732105Y-101076904D01*
X147766845Y-101096002D01*
X147806500Y-101112428D01*
X147831201Y-101131381D01*
X147855689Y-101144844D01*
X147886712Y-101173977D01*
X147923101Y-101201899D01*
X147940262Y-101224264D01*
X147958492Y-101241383D01*
X147982851Y-101279767D01*
X148012572Y-101318500D01*
X148022231Y-101341821D01*
X148034058Y-101360456D01*
X148049002Y-101406450D01*
X148068816Y-101454285D01*
X148071725Y-101476387D01*
X148077637Y-101494580D01*
X148080855Y-101545729D01*
X148088000Y-101600000D01*
X148085475Y-101619173D01*
X148086492Y-101635326D01*
X148076348Y-101688501D01*
X148068816Y-101745715D01*
X148062547Y-101760847D01*
X148060067Y-101773853D01*
X148035799Y-101825424D01*
X148012572Y-101881500D01*
X148004401Y-101892148D01*
X148000021Y-101901457D01*
X147961896Y-101947542D01*
X147923101Y-101998101D01*
X147914802Y-102004468D01*
X147910129Y-102010118D01*
X147859532Y-102046878D01*
X147806500Y-102087572D01*
X147799576Y-102090440D01*
X147796036Y-102093012D01*
X147735566Y-102116953D01*
X147670715Y-102143816D01*
X147666228Y-102144406D01*
X147664914Y-102144927D01*
X147599680Y-102153168D01*
X147525000Y-102163000D01*
X147521853Y-102163000D01*
X147276567Y-102163000D01*
X147275000Y-102163000D01*
X147273565Y-102162811D01*
X147206027Y-102158561D01*
X147168923Y-102149034D01*
X147129285Y-102143816D01*
X147097793Y-102130771D01*
X147067894Y-102123095D01*
X147033157Y-102103998D01*
X146993500Y-102087572D01*
X146968796Y-102068616D01*
X146944310Y-102055155D01*
X146913287Y-102026023D01*
X146876899Y-101998101D01*
X146859737Y-101975735D01*
X146841507Y-101958616D01*
X146817146Y-101920229D01*
X146787428Y-101881500D01*
X146777768Y-101858180D01*
X146765941Y-101839543D01*
X146750994Y-101793541D01*
X146731184Y-101745715D01*
X146728274Y-101723616D01*
X146722362Y-101705419D01*
X146719143Y-101654256D01*
X146712000Y-101600000D01*
X146714523Y-101580831D01*
X146713507Y-101564673D01*
X146723654Y-101511478D01*
X146731184Y-101454285D01*
X146737449Y-101439157D01*
X146739932Y-101426146D01*
X146764211Y-101374549D01*
X146787428Y-101318500D01*
X146795594Y-101307856D01*
X146799978Y-101298542D01*
X146838127Y-101252427D01*
X146876899Y-101201899D01*
X146885192Y-101195535D01*
X146889870Y-101189881D01*
X146940509Y-101153088D01*
X146993500Y-101112428D01*
X147000418Y-101109562D01*
X147003963Y-101106987D01*
X147064510Y-101083014D01*
X147129285Y-101056184D01*
X147133766Y-101055593D01*
X147135085Y-101055072D01*
X147200434Y-101046816D01*
X147275000Y-101037000D01*
X147525000Y-101037000D01*
X147526434Y-101037188D01*
G37*
G36*
X97915938Y-100319651D02*
G01*
X97920653Y-100321733D01*
X97923326Y-100322085D01*
X97956770Y-100337680D01*
X98012759Y-100362402D01*
X98087599Y-100437242D01*
X98112330Y-100493252D01*
X98127915Y-100526674D01*
X98128266Y-100529344D01*
X98130350Y-100534063D01*
X98138000Y-100600001D01*
X98138000Y-101250001D01*
X98130350Y-101315939D01*
X98128266Y-101320657D01*
X98127915Y-101323327D01*
X98112338Y-101356731D01*
X98087599Y-101412760D01*
X98012759Y-101487600D01*
X97956730Y-101512339D01*
X97923326Y-101527916D01*
X97920656Y-101528267D01*
X97915938Y-101530351D01*
X97850000Y-101538001D01*
X96950000Y-101538001D01*
X96884062Y-101530351D01*
X96879343Y-101528267D01*
X96876673Y-101527916D01*
X96843251Y-101512331D01*
X96787241Y-101487600D01*
X96712401Y-101412760D01*
X96687679Y-101356771D01*
X96672084Y-101323327D01*
X96671732Y-101320654D01*
X96669650Y-101315939D01*
X96662000Y-101250001D01*
X96662000Y-100600001D01*
X96669650Y-100534063D01*
X96671732Y-100529347D01*
X96672084Y-100526674D01*
X96687687Y-100493211D01*
X96712401Y-100437242D01*
X96787241Y-100362402D01*
X96843210Y-100337688D01*
X96876673Y-100322085D01*
X96879346Y-100321733D01*
X96884062Y-100319651D01*
X96950000Y-100312001D01*
X97850000Y-100312001D01*
X97915938Y-100319651D01*
G37*
G36*
X207915938Y-100269652D02*
G01*
X207920653Y-100271734D01*
X207923326Y-100272086D01*
X207956770Y-100287681D01*
X208012759Y-100312403D01*
X208087599Y-100387243D01*
X208112330Y-100443253D01*
X208127915Y-100476675D01*
X208128266Y-100479345D01*
X208130350Y-100484064D01*
X208138000Y-100550002D01*
X208138000Y-101200002D01*
X208130350Y-101265940D01*
X208128266Y-101270658D01*
X208127915Y-101273328D01*
X208112338Y-101306732D01*
X208087599Y-101362761D01*
X208012759Y-101437601D01*
X207956730Y-101462340D01*
X207923326Y-101477917D01*
X207920656Y-101478268D01*
X207915938Y-101480352D01*
X207850000Y-101488002D01*
X206950000Y-101488002D01*
X206884062Y-101480352D01*
X206879343Y-101478268D01*
X206876673Y-101477917D01*
X206843251Y-101462332D01*
X206787241Y-101437601D01*
X206712401Y-101362761D01*
X206687679Y-101306772D01*
X206672084Y-101273328D01*
X206671732Y-101270655D01*
X206669650Y-101265940D01*
X206662000Y-101200002D01*
X206662000Y-100550002D01*
X206669650Y-100484064D01*
X206671732Y-100479348D01*
X206672084Y-100476675D01*
X206687687Y-100443212D01*
X206712401Y-100387243D01*
X206787241Y-100312403D01*
X206843210Y-100287689D01*
X206876673Y-100272086D01*
X206879346Y-100271734D01*
X206884062Y-100269652D01*
X206950000Y-100262002D01*
X207850000Y-100262002D01*
X207915938Y-100269652D01*
G37*
G36*
X147526434Y-99767188D02*
G01*
X147593972Y-99771438D01*
X147631082Y-99780966D01*
X147670715Y-99786184D01*
X147702201Y-99799226D01*
X147732105Y-99806904D01*
X147766845Y-99826002D01*
X147806500Y-99842428D01*
X147831201Y-99861381D01*
X147855689Y-99874844D01*
X147886712Y-99903977D01*
X147923101Y-99931899D01*
X147940262Y-99954264D01*
X147958492Y-99971383D01*
X147982851Y-100009767D01*
X148012572Y-100048500D01*
X148022231Y-100071821D01*
X148034058Y-100090456D01*
X148049002Y-100136450D01*
X148068816Y-100184285D01*
X148071725Y-100206387D01*
X148077637Y-100224580D01*
X148080855Y-100275729D01*
X148088000Y-100330000D01*
X148085475Y-100349173D01*
X148086492Y-100365326D01*
X148076348Y-100418501D01*
X148068816Y-100475715D01*
X148062547Y-100490847D01*
X148060067Y-100503853D01*
X148035799Y-100555424D01*
X148012572Y-100611500D01*
X148004401Y-100622148D01*
X148000021Y-100631457D01*
X147961896Y-100677542D01*
X147923101Y-100728101D01*
X147914802Y-100734468D01*
X147910129Y-100740118D01*
X147859532Y-100776878D01*
X147806500Y-100817572D01*
X147799576Y-100820440D01*
X147796036Y-100823012D01*
X147735566Y-100846953D01*
X147670715Y-100873816D01*
X147666228Y-100874406D01*
X147664914Y-100874927D01*
X147599680Y-100883168D01*
X147525000Y-100893000D01*
X147521853Y-100893000D01*
X147276567Y-100893000D01*
X147275000Y-100893000D01*
X147273565Y-100892811D01*
X147206027Y-100888561D01*
X147168923Y-100879034D01*
X147129285Y-100873816D01*
X147097793Y-100860771D01*
X147067894Y-100853095D01*
X147033157Y-100833998D01*
X146993500Y-100817572D01*
X146968796Y-100798616D01*
X146944310Y-100785155D01*
X146913287Y-100756023D01*
X146876899Y-100728101D01*
X146859737Y-100705735D01*
X146841507Y-100688616D01*
X146817146Y-100650229D01*
X146787428Y-100611500D01*
X146777768Y-100588180D01*
X146765941Y-100569543D01*
X146750994Y-100523541D01*
X146731184Y-100475715D01*
X146728274Y-100453616D01*
X146722362Y-100435419D01*
X146719143Y-100384256D01*
X146712000Y-100330000D01*
X146714523Y-100310831D01*
X146713507Y-100294673D01*
X146723654Y-100241478D01*
X146731184Y-100184285D01*
X146737449Y-100169157D01*
X146739932Y-100156146D01*
X146764211Y-100104549D01*
X146787428Y-100048500D01*
X146795594Y-100037856D01*
X146799978Y-100028542D01*
X146838127Y-99982427D01*
X146876899Y-99931899D01*
X146885192Y-99925535D01*
X146889870Y-99919881D01*
X146940509Y-99883088D01*
X146993500Y-99842428D01*
X147000418Y-99839562D01*
X147003963Y-99836987D01*
X147064510Y-99813014D01*
X147129285Y-99786184D01*
X147133766Y-99785593D01*
X147135085Y-99785072D01*
X147200434Y-99776816D01*
X147275000Y-99767000D01*
X147525000Y-99767000D01*
X147526434Y-99767188D01*
G37*
G36*
X97915938Y-98269651D02*
G01*
X97920653Y-98271733D01*
X97923326Y-98272085D01*
X97956770Y-98287680D01*
X98012759Y-98312402D01*
X98087599Y-98387242D01*
X98112330Y-98443252D01*
X98127915Y-98476674D01*
X98128266Y-98479344D01*
X98130350Y-98484063D01*
X98138000Y-98550001D01*
X98138000Y-99200001D01*
X98130350Y-99265939D01*
X98128266Y-99270657D01*
X98127915Y-99273327D01*
X98112338Y-99306731D01*
X98087599Y-99362760D01*
X98012759Y-99437600D01*
X97956730Y-99462339D01*
X97923326Y-99477916D01*
X97920656Y-99478267D01*
X97915938Y-99480351D01*
X97850000Y-99488001D01*
X96950000Y-99488001D01*
X96884062Y-99480351D01*
X96879343Y-99478267D01*
X96876673Y-99477916D01*
X96843251Y-99462331D01*
X96787241Y-99437600D01*
X96712401Y-99362760D01*
X96687679Y-99306771D01*
X96672084Y-99273327D01*
X96671732Y-99270654D01*
X96669650Y-99265939D01*
X96662000Y-99200001D01*
X96662000Y-98550001D01*
X96669650Y-98484063D01*
X96671732Y-98479347D01*
X96672084Y-98476674D01*
X96687687Y-98443211D01*
X96712401Y-98387242D01*
X96787241Y-98312402D01*
X96843210Y-98287688D01*
X96876673Y-98272085D01*
X96879346Y-98271733D01*
X96884062Y-98269651D01*
X96950000Y-98262001D01*
X97850000Y-98262001D01*
X97915938Y-98269651D01*
G37*
G36*
X207915938Y-98219652D02*
G01*
X207920653Y-98221734D01*
X207923326Y-98222086D01*
X207956770Y-98237681D01*
X208012759Y-98262403D01*
X208087599Y-98337243D01*
X208112330Y-98393253D01*
X208127915Y-98426675D01*
X208128266Y-98429345D01*
X208130350Y-98434064D01*
X208138000Y-98500002D01*
X208138000Y-99150002D01*
X208130350Y-99215940D01*
X208128266Y-99220658D01*
X208127915Y-99223328D01*
X208112338Y-99256732D01*
X208087599Y-99312761D01*
X208012759Y-99387601D01*
X207956730Y-99412340D01*
X207923326Y-99427917D01*
X207920656Y-99428268D01*
X207915938Y-99430352D01*
X207850000Y-99438002D01*
X206950000Y-99438002D01*
X206884062Y-99430352D01*
X206879343Y-99428268D01*
X206876673Y-99427917D01*
X206843251Y-99412332D01*
X206787241Y-99387601D01*
X206712401Y-99312761D01*
X206687679Y-99256772D01*
X206672084Y-99223328D01*
X206671732Y-99220655D01*
X206669650Y-99215940D01*
X206662000Y-99150002D01*
X206662000Y-98500002D01*
X206669650Y-98434064D01*
X206671732Y-98429348D01*
X206672084Y-98426675D01*
X206687687Y-98393212D01*
X206712401Y-98337243D01*
X206787241Y-98262403D01*
X206843210Y-98237689D01*
X206876673Y-98222086D01*
X206879346Y-98221734D01*
X206884062Y-98219652D01*
X206950000Y-98212002D01*
X207850000Y-98212002D01*
X207915938Y-98219652D01*
G37*
G36*
X207915938Y-96569652D02*
G01*
X207920653Y-96571734D01*
X207923326Y-96572086D01*
X207956770Y-96587681D01*
X208012759Y-96612403D01*
X208087599Y-96687243D01*
X208112330Y-96743253D01*
X208127915Y-96776675D01*
X208128266Y-96779345D01*
X208130350Y-96784064D01*
X208138000Y-96850002D01*
X208138000Y-97500002D01*
X208130350Y-97565940D01*
X208128266Y-97570658D01*
X208127915Y-97573328D01*
X208112338Y-97606732D01*
X208087599Y-97662761D01*
X208012759Y-97737601D01*
X207956730Y-97762340D01*
X207923326Y-97777917D01*
X207920656Y-97778268D01*
X207915938Y-97780352D01*
X207850000Y-97788002D01*
X206950000Y-97788002D01*
X206884062Y-97780352D01*
X206879343Y-97778268D01*
X206876673Y-97777917D01*
X206843251Y-97762332D01*
X206787241Y-97737601D01*
X206712401Y-97662761D01*
X206687679Y-97606772D01*
X206672084Y-97573328D01*
X206671732Y-97570655D01*
X206669650Y-97565940D01*
X206662000Y-97500002D01*
X206662000Y-96850002D01*
X206669650Y-96784064D01*
X206671732Y-96779348D01*
X206672084Y-96776675D01*
X206687687Y-96743212D01*
X206712401Y-96687243D01*
X206787241Y-96612403D01*
X206843210Y-96587689D01*
X206876673Y-96572086D01*
X206879346Y-96571734D01*
X206884062Y-96569652D01*
X206950000Y-96562002D01*
X207850000Y-96562002D01*
X207915938Y-96569652D01*
G37*
G36*
X97915938Y-96569649D02*
G01*
X97920653Y-96571731D01*
X97923326Y-96572083D01*
X97956770Y-96587678D01*
X98012759Y-96612400D01*
X98087599Y-96687240D01*
X98112330Y-96743250D01*
X98127915Y-96776672D01*
X98128266Y-96779342D01*
X98130350Y-96784061D01*
X98138000Y-96849999D01*
X98138000Y-97499999D01*
X98130350Y-97565937D01*
X98128266Y-97570655D01*
X98127915Y-97573325D01*
X98112338Y-97606729D01*
X98087599Y-97662758D01*
X98012759Y-97737598D01*
X97956730Y-97762337D01*
X97923326Y-97777914D01*
X97920656Y-97778265D01*
X97915938Y-97780349D01*
X97850000Y-97787999D01*
X96950000Y-97787999D01*
X96884062Y-97780349D01*
X96879343Y-97778265D01*
X96876673Y-97777914D01*
X96843251Y-97762329D01*
X96787241Y-97737598D01*
X96712401Y-97662758D01*
X96687679Y-97606769D01*
X96672084Y-97573325D01*
X96671732Y-97570652D01*
X96669650Y-97565937D01*
X96662000Y-97499999D01*
X96662000Y-96849999D01*
X96669650Y-96784061D01*
X96671732Y-96779345D01*
X96672084Y-96776672D01*
X96687687Y-96743209D01*
X96712401Y-96687240D01*
X96787241Y-96612400D01*
X96843210Y-96587686D01*
X96876673Y-96572083D01*
X96879346Y-96571731D01*
X96884062Y-96569649D01*
X96950000Y-96561999D01*
X97850000Y-96561999D01*
X97915938Y-96569649D01*
G37*
G36*
X149515938Y-96119650D02*
G01*
X149520653Y-96121732D01*
X149523326Y-96122084D01*
X149556770Y-96137679D01*
X149612759Y-96162401D01*
X149687599Y-96237241D01*
X149712330Y-96293251D01*
X149727915Y-96326673D01*
X149728266Y-96329343D01*
X149730350Y-96334062D01*
X149738000Y-96400000D01*
X149738000Y-97300000D01*
X149730350Y-97365938D01*
X149728266Y-97370656D01*
X149727915Y-97373326D01*
X149712338Y-97406730D01*
X149687599Y-97462759D01*
X149612759Y-97537599D01*
X149556730Y-97562338D01*
X149523326Y-97577915D01*
X149520656Y-97578266D01*
X149515938Y-97580350D01*
X149450000Y-97588000D01*
X148800000Y-97588000D01*
X148734062Y-97580350D01*
X148729343Y-97578266D01*
X148726673Y-97577915D01*
X148693251Y-97562330D01*
X148637241Y-97537599D01*
X148562401Y-97462759D01*
X148537679Y-97406770D01*
X148522084Y-97373326D01*
X148521732Y-97370653D01*
X148519650Y-97365938D01*
X148512000Y-97300000D01*
X148512000Y-96400000D01*
X148519650Y-96334062D01*
X148521732Y-96329346D01*
X148522084Y-96326673D01*
X148537687Y-96293210D01*
X148562401Y-96237241D01*
X148637241Y-96162401D01*
X148693210Y-96137687D01*
X148726673Y-96122084D01*
X148729346Y-96121732D01*
X148734062Y-96119650D01*
X148800000Y-96112000D01*
X149450000Y-96112000D01*
X149515938Y-96119650D01*
G37*
G36*
X151565938Y-96119650D02*
G01*
X151570653Y-96121732D01*
X151573326Y-96122084D01*
X151606770Y-96137679D01*
X151662759Y-96162401D01*
X151737599Y-96237241D01*
X151762330Y-96293251D01*
X151777915Y-96326673D01*
X151778266Y-96329343D01*
X151780350Y-96334062D01*
X151788000Y-96400000D01*
X151788000Y-97300000D01*
X151780350Y-97365938D01*
X151778266Y-97370656D01*
X151777915Y-97373326D01*
X151762338Y-97406730D01*
X151737599Y-97462759D01*
X151662759Y-97537599D01*
X151606730Y-97562338D01*
X151573326Y-97577915D01*
X151570656Y-97578266D01*
X151565938Y-97580350D01*
X151500000Y-97588000D01*
X150850000Y-97588000D01*
X150784062Y-97580350D01*
X150779343Y-97578266D01*
X150776673Y-97577915D01*
X150743251Y-97562330D01*
X150687241Y-97537599D01*
X150612401Y-97462759D01*
X150587679Y-97406770D01*
X150572084Y-97373326D01*
X150571732Y-97370653D01*
X150569650Y-97365938D01*
X150562000Y-97300000D01*
X150562000Y-96400000D01*
X150569650Y-96334062D01*
X150571732Y-96329346D01*
X150572084Y-96326673D01*
X150587687Y-96293210D01*
X150612401Y-96237241D01*
X150687241Y-96162401D01*
X150743210Y-96137687D01*
X150776673Y-96122084D01*
X150779346Y-96121732D01*
X150784062Y-96119650D01*
X150850000Y-96112000D01*
X151500000Y-96112000D01*
X151565938Y-96119650D01*
G37*
G36*
X207915938Y-94519652D02*
G01*
X207920653Y-94521734D01*
X207923326Y-94522086D01*
X207956770Y-94537681D01*
X208012759Y-94562403D01*
X208087599Y-94637243D01*
X208112330Y-94693253D01*
X208127915Y-94726675D01*
X208128266Y-94729345D01*
X208130350Y-94734064D01*
X208138000Y-94800002D01*
X208138000Y-95450002D01*
X208130350Y-95515940D01*
X208128266Y-95520658D01*
X208127915Y-95523328D01*
X208112338Y-95556732D01*
X208087599Y-95612761D01*
X208012759Y-95687601D01*
X207956730Y-95712340D01*
X207923326Y-95727917D01*
X207920656Y-95728268D01*
X207915938Y-95730352D01*
X207850000Y-95738002D01*
X206950000Y-95738002D01*
X206884062Y-95730352D01*
X206879343Y-95728268D01*
X206876673Y-95727917D01*
X206843251Y-95712332D01*
X206787241Y-95687601D01*
X206712401Y-95612761D01*
X206687679Y-95556772D01*
X206672084Y-95523328D01*
X206671732Y-95520655D01*
X206669650Y-95515940D01*
X206662000Y-95450002D01*
X206662000Y-94800002D01*
X206669650Y-94734064D01*
X206671732Y-94729348D01*
X206672084Y-94726675D01*
X206687687Y-94693212D01*
X206712401Y-94637243D01*
X206787241Y-94562403D01*
X206843210Y-94537689D01*
X206876673Y-94522086D01*
X206879346Y-94521734D01*
X206884062Y-94519652D01*
X206950000Y-94512002D01*
X207850000Y-94512002D01*
X207915938Y-94519652D01*
G37*
G36*
X97915938Y-94519649D02*
G01*
X97920653Y-94521731D01*
X97923326Y-94522083D01*
X97956770Y-94537678D01*
X98012759Y-94562400D01*
X98087599Y-94637240D01*
X98112330Y-94693250D01*
X98127915Y-94726672D01*
X98128266Y-94729342D01*
X98130350Y-94734061D01*
X98138000Y-94799999D01*
X98138000Y-95449999D01*
X98130350Y-95515937D01*
X98128266Y-95520655D01*
X98127915Y-95523325D01*
X98112338Y-95556729D01*
X98087599Y-95612758D01*
X98012759Y-95687598D01*
X97956730Y-95712337D01*
X97923326Y-95727914D01*
X97920656Y-95728265D01*
X97915938Y-95730349D01*
X97850000Y-95737999D01*
X96950000Y-95737999D01*
X96884062Y-95730349D01*
X96879343Y-95728265D01*
X96876673Y-95727914D01*
X96843251Y-95712329D01*
X96787241Y-95687598D01*
X96712401Y-95612758D01*
X96687679Y-95556769D01*
X96672084Y-95523325D01*
X96671732Y-95520652D01*
X96669650Y-95515937D01*
X96662000Y-95449999D01*
X96662000Y-94799999D01*
X96669650Y-94734061D01*
X96671732Y-94729345D01*
X96672084Y-94726672D01*
X96687687Y-94693209D01*
X96712401Y-94637240D01*
X96787241Y-94562400D01*
X96843210Y-94537686D01*
X96876673Y-94522083D01*
X96879346Y-94521731D01*
X96884062Y-94519649D01*
X96950000Y-94511999D01*
X97850000Y-94511999D01*
X97915938Y-94519649D01*
G37*
G36*
X160772788Y-92484410D02*
G01*
X160821420Y-92484410D01*
X160875578Y-92494534D01*
X160928171Y-92499714D01*
X160968126Y-92511834D01*
X161009669Y-92519600D01*
X161067207Y-92541890D01*
X161122892Y-92558782D01*
X161154706Y-92575787D01*
X161188250Y-92588782D01*
X161246534Y-92624870D01*
X161302349Y-92654704D01*
X161325800Y-92673950D01*
X161351071Y-92689597D01*
X161407058Y-92740636D01*
X161459644Y-92783792D01*
X161475228Y-92802781D01*
X161492600Y-92818618D01*
X161543036Y-92885406D01*
X161588732Y-92941087D01*
X161597567Y-92957617D01*
X161608009Y-92971444D01*
X161649554Y-93054877D01*
X161684654Y-93120544D01*
X161688396Y-93132882D01*
X161693374Y-93142878D01*
X161722776Y-93246215D01*
X161743722Y-93315265D01*
X161744410Y-93322251D01*
X161745782Y-93327073D01*
X161760036Y-93480911D01*
X161763667Y-93517769D01*
X161760034Y-93554654D01*
X161745782Y-93708464D01*
X161744410Y-93713285D01*
X161743722Y-93720273D01*
X161722771Y-93789337D01*
X161693374Y-93892659D01*
X161688397Y-93902652D01*
X161684654Y-93914994D01*
X161649547Y-93980674D01*
X161608009Y-94064093D01*
X161597569Y-94077916D01*
X161588732Y-94094451D01*
X161543026Y-94150143D01*
X161492600Y-94216919D01*
X161475231Y-94232752D01*
X161459644Y-94251746D01*
X161407047Y-94294910D01*
X161351071Y-94345940D01*
X161325805Y-94361583D01*
X161302349Y-94380834D01*
X161246523Y-94410673D01*
X161188250Y-94446755D01*
X161154713Y-94459746D01*
X161122892Y-94476756D01*
X161067195Y-94493651D01*
X161009669Y-94515937D01*
X160968132Y-94523701D01*
X160928171Y-94535824D01*
X160875575Y-94541004D01*
X160821420Y-94551128D01*
X160772788Y-94551128D01*
X160725667Y-94555769D01*
X160678546Y-94551128D01*
X160629914Y-94551128D01*
X160575757Y-94541004D01*
X160523163Y-94535824D01*
X160483202Y-94523702D01*
X160441664Y-94515937D01*
X160384134Y-94493650D01*
X160328442Y-94476756D01*
X160296622Y-94459748D01*
X160263083Y-94446755D01*
X160204803Y-94410669D01*
X160148985Y-94380834D01*
X160125531Y-94361586D01*
X160100262Y-94345940D01*
X160044276Y-94294902D01*
X159991690Y-94251746D01*
X159976105Y-94232756D01*
X159958733Y-94216919D01*
X159908294Y-94150128D01*
X159862602Y-94094451D01*
X159853766Y-94077921D01*
X159843324Y-94064093D01*
X159801772Y-93980646D01*
X159766680Y-93914994D01*
X159762937Y-93902657D01*
X159757959Y-93892659D01*
X159728546Y-93789284D01*
X159707612Y-93720273D01*
X159706924Y-93713290D01*
X159705551Y-93708464D01*
X159691283Y-93554483D01*
X159687667Y-93517769D01*
X159691280Y-93481083D01*
X159705551Y-93327073D01*
X159706924Y-93322245D01*
X159707612Y-93315265D01*
X159728541Y-93246268D01*
X159757959Y-93142878D01*
X159762938Y-93132877D01*
X159766680Y-93120544D01*
X159801764Y-93054904D01*
X159843324Y-92971444D01*
X159853768Y-92957613D01*
X159862602Y-92941087D01*
X159908285Y-92885421D01*
X159958733Y-92818618D01*
X159976108Y-92802777D01*
X159991690Y-92783792D01*
X160044265Y-92740644D01*
X160100262Y-92689597D01*
X160125536Y-92673947D01*
X160148985Y-92654704D01*
X160204791Y-92624874D01*
X160263083Y-92588782D01*
X160296629Y-92575786D01*
X160328442Y-92558782D01*
X160384122Y-92541891D01*
X160441664Y-92519600D01*
X160483209Y-92511833D01*
X160523163Y-92499714D01*
X160575754Y-92494534D01*
X160629914Y-92484410D01*
X160678546Y-92484410D01*
X160725667Y-92479769D01*
X160772788Y-92484410D01*
G37*
G36*
X144364890Y-92240974D02*
G01*
X144413522Y-92240974D01*
X144467680Y-92251098D01*
X144520273Y-92256278D01*
X144560228Y-92268398D01*
X144601771Y-92276164D01*
X144659309Y-92298454D01*
X144714994Y-92315346D01*
X144746808Y-92332351D01*
X144780352Y-92345346D01*
X144838636Y-92381434D01*
X144894451Y-92411268D01*
X144917902Y-92430514D01*
X144943173Y-92446161D01*
X144999160Y-92497200D01*
X145051746Y-92540356D01*
X145067330Y-92559345D01*
X145084702Y-92575182D01*
X145135138Y-92641970D01*
X145180834Y-92697651D01*
X145189669Y-92714181D01*
X145200111Y-92728008D01*
X145241656Y-92811441D01*
X145276756Y-92877108D01*
X145280498Y-92889446D01*
X145285476Y-92899442D01*
X145314878Y-93002779D01*
X145335824Y-93071829D01*
X145336512Y-93078815D01*
X145337884Y-93083637D01*
X145352138Y-93237475D01*
X145355769Y-93274333D01*
X145352136Y-93311218D01*
X145337884Y-93465028D01*
X145336512Y-93469849D01*
X145335824Y-93476837D01*
X145314873Y-93545901D01*
X145285476Y-93649223D01*
X145280499Y-93659216D01*
X145276756Y-93671558D01*
X145241649Y-93737238D01*
X145200111Y-93820657D01*
X145189671Y-93834480D01*
X145180834Y-93851015D01*
X145135128Y-93906707D01*
X145084702Y-93973483D01*
X145067333Y-93989316D01*
X145051746Y-94008310D01*
X144999149Y-94051474D01*
X144943173Y-94102504D01*
X144917907Y-94118147D01*
X144894451Y-94137398D01*
X144838625Y-94167237D01*
X144780352Y-94203319D01*
X144746815Y-94216310D01*
X144714994Y-94233320D01*
X144659297Y-94250215D01*
X144601771Y-94272501D01*
X144560234Y-94280265D01*
X144520273Y-94292388D01*
X144467677Y-94297568D01*
X144413522Y-94307692D01*
X144364890Y-94307692D01*
X144317769Y-94312333D01*
X144270648Y-94307692D01*
X144222016Y-94307692D01*
X144167859Y-94297568D01*
X144115265Y-94292388D01*
X144075304Y-94280266D01*
X144033766Y-94272501D01*
X143976236Y-94250214D01*
X143920544Y-94233320D01*
X143888724Y-94216312D01*
X143855185Y-94203319D01*
X143796905Y-94167233D01*
X143741087Y-94137398D01*
X143717633Y-94118150D01*
X143692364Y-94102504D01*
X143636378Y-94051466D01*
X143583792Y-94008310D01*
X143568207Y-93989320D01*
X143550835Y-93973483D01*
X143500396Y-93906692D01*
X143454704Y-93851015D01*
X143445868Y-93834485D01*
X143435426Y-93820657D01*
X143393874Y-93737210D01*
X143358782Y-93671558D01*
X143355039Y-93659221D01*
X143350061Y-93649223D01*
X143320648Y-93545848D01*
X143299714Y-93476837D01*
X143299026Y-93469854D01*
X143297653Y-93465028D01*
X143283385Y-93311047D01*
X143279769Y-93274333D01*
X143283382Y-93237647D01*
X143297653Y-93083637D01*
X143299026Y-93078809D01*
X143299714Y-93071829D01*
X143320643Y-93002832D01*
X143350061Y-92899442D01*
X143355040Y-92889441D01*
X143358782Y-92877108D01*
X143393866Y-92811468D01*
X143435426Y-92728008D01*
X143445870Y-92714177D01*
X143454704Y-92697651D01*
X143500387Y-92641985D01*
X143550835Y-92575182D01*
X143568210Y-92559341D01*
X143583792Y-92540356D01*
X143636367Y-92497208D01*
X143692364Y-92446161D01*
X143717638Y-92430511D01*
X143741087Y-92411268D01*
X143796893Y-92381438D01*
X143855185Y-92345346D01*
X143888731Y-92332350D01*
X143920544Y-92315346D01*
X143976224Y-92298455D01*
X144033766Y-92276164D01*
X144075311Y-92268397D01*
X144115265Y-92256278D01*
X144167856Y-92251098D01*
X144222016Y-92240974D01*
X144270648Y-92240974D01*
X144317769Y-92236333D01*
X144364890Y-92240974D01*
G37*
G36*
X181496773Y-90825012D02*
G01*
X181509101Y-90833249D01*
X182923315Y-92247463D01*
X182931552Y-92259791D01*
X182934444Y-92274333D01*
X182931552Y-92288875D01*
X182923315Y-92301203D01*
X181509101Y-93715417D01*
X181496773Y-93723654D01*
X181482231Y-93726546D01*
X181467689Y-93723654D01*
X181455361Y-93715417D01*
X180041147Y-92301203D01*
X180032910Y-92288875D01*
X180030018Y-92274333D01*
X180032910Y-92259791D01*
X180041147Y-92247463D01*
X181455361Y-90833249D01*
X181467689Y-90825012D01*
X181482231Y-90822120D01*
X181496773Y-90825012D01*
G37*
G36*
X123364890Y-91240974D02*
G01*
X123413522Y-91240974D01*
X123467680Y-91251098D01*
X123520273Y-91256278D01*
X123560228Y-91268398D01*
X123601771Y-91276164D01*
X123659309Y-91298454D01*
X123714994Y-91315346D01*
X123746808Y-91332351D01*
X123780352Y-91345346D01*
X123838636Y-91381434D01*
X123894451Y-91411268D01*
X123917902Y-91430514D01*
X123943173Y-91446161D01*
X123999160Y-91497200D01*
X124051746Y-91540356D01*
X124067330Y-91559345D01*
X124084702Y-91575182D01*
X124135138Y-91641970D01*
X124180834Y-91697651D01*
X124189669Y-91714181D01*
X124200111Y-91728008D01*
X124241656Y-91811441D01*
X124276756Y-91877108D01*
X124280498Y-91889446D01*
X124285476Y-91899442D01*
X124314878Y-92002779D01*
X124335824Y-92071829D01*
X124336512Y-92078815D01*
X124337884Y-92083637D01*
X124352137Y-92237463D01*
X124355769Y-92274333D01*
X124352137Y-92311205D01*
X124337884Y-92465028D01*
X124336512Y-92469849D01*
X124335824Y-92476837D01*
X124314873Y-92545901D01*
X124285476Y-92649223D01*
X124280499Y-92659216D01*
X124276756Y-92671558D01*
X124241649Y-92737238D01*
X124200111Y-92820657D01*
X124189671Y-92834480D01*
X124180834Y-92851015D01*
X124135128Y-92906707D01*
X124084702Y-92973483D01*
X124067333Y-92989316D01*
X124051746Y-93008310D01*
X123999149Y-93051474D01*
X123943173Y-93102504D01*
X123917907Y-93118147D01*
X123894451Y-93137398D01*
X123838625Y-93167237D01*
X123780352Y-93203319D01*
X123746815Y-93216310D01*
X123714994Y-93233320D01*
X123659297Y-93250215D01*
X123601771Y-93272501D01*
X123560234Y-93280265D01*
X123520273Y-93292388D01*
X123467677Y-93297568D01*
X123413522Y-93307692D01*
X123364890Y-93307692D01*
X123317769Y-93312333D01*
X123270648Y-93307692D01*
X123222016Y-93307692D01*
X123167859Y-93297568D01*
X123115265Y-93292388D01*
X123075304Y-93280266D01*
X123033766Y-93272501D01*
X122976236Y-93250214D01*
X122920544Y-93233320D01*
X122888724Y-93216312D01*
X122855185Y-93203319D01*
X122796905Y-93167233D01*
X122741087Y-93137398D01*
X122717633Y-93118150D01*
X122692364Y-93102504D01*
X122636378Y-93051466D01*
X122583792Y-93008310D01*
X122568207Y-92989320D01*
X122550835Y-92973483D01*
X122500396Y-92906692D01*
X122454704Y-92851015D01*
X122445868Y-92834485D01*
X122435426Y-92820657D01*
X122393874Y-92737210D01*
X122358782Y-92671558D01*
X122355039Y-92659221D01*
X122350061Y-92649223D01*
X122320648Y-92545848D01*
X122299714Y-92476837D01*
X122299026Y-92469854D01*
X122297653Y-92465028D01*
X122283385Y-92311047D01*
X122279769Y-92274333D01*
X122283382Y-92237647D01*
X122297653Y-92083637D01*
X122299026Y-92078809D01*
X122299714Y-92071829D01*
X122320643Y-92002832D01*
X122350061Y-91899442D01*
X122355040Y-91889441D01*
X122358782Y-91877108D01*
X122393866Y-91811468D01*
X122435426Y-91728008D01*
X122445870Y-91714177D01*
X122454704Y-91697651D01*
X122500387Y-91641985D01*
X122550835Y-91575182D01*
X122568210Y-91559341D01*
X122583792Y-91540356D01*
X122636367Y-91497208D01*
X122692364Y-91446161D01*
X122717638Y-91430511D01*
X122741087Y-91411268D01*
X122796893Y-91381438D01*
X122855185Y-91345346D01*
X122888731Y-91332350D01*
X122920544Y-91315346D01*
X122976224Y-91298455D01*
X123033766Y-91276164D01*
X123075311Y-91268397D01*
X123115265Y-91256278D01*
X123167856Y-91251098D01*
X123222016Y-91240974D01*
X123270648Y-91240974D01*
X123317769Y-91236333D01*
X123364890Y-91240974D01*
G37*
G36*
X164332311Y-88476346D02*
G01*
X164344639Y-88484583D01*
X165758853Y-89898797D01*
X165767090Y-89911125D01*
X165769982Y-89925667D01*
X165767090Y-89940209D01*
X165758853Y-89952537D01*
X164344639Y-91366751D01*
X164332311Y-91374988D01*
X164317769Y-91377880D01*
X164303227Y-91374988D01*
X164290899Y-91366751D01*
X162876685Y-89952537D01*
X162868448Y-89940209D01*
X162865556Y-89925667D01*
X162868448Y-89911125D01*
X162876685Y-89898797D01*
X164290899Y-88484583D01*
X164303227Y-88476346D01*
X164317769Y-88473454D01*
X164332311Y-88476346D01*
G37*
G36*
X140740209Y-88232910D02*
G01*
X140752537Y-88241147D01*
X142166751Y-89655361D01*
X142174988Y-89667689D01*
X142177880Y-89682231D01*
X142174988Y-89696773D01*
X142166751Y-89709101D01*
X140752537Y-91123315D01*
X140740209Y-91131552D01*
X140725667Y-91134444D01*
X140711125Y-91131552D01*
X140698797Y-91123315D01*
X139284583Y-89709101D01*
X139276346Y-89696773D01*
X139273454Y-89682231D01*
X139276346Y-89667689D01*
X139284583Y-89655361D01*
X140698797Y-88241147D01*
X140711125Y-88232910D01*
X140725667Y-88230018D01*
X140740209Y-88232910D01*
G37*
G36*
X119740209Y-87232910D02*
G01*
X119752537Y-87241147D01*
X121166751Y-88655361D01*
X121174988Y-88667689D01*
X121177880Y-88682231D01*
X121174988Y-88696773D01*
X121166751Y-88709101D01*
X119752537Y-90123315D01*
X119740209Y-90131552D01*
X119725667Y-90134444D01*
X119711125Y-90131552D01*
X119698797Y-90123315D01*
X118284583Y-88709101D01*
X118276346Y-88696773D01*
X118273454Y-88682231D01*
X118276346Y-88667689D01*
X118284583Y-88655361D01*
X119698797Y-87241147D01*
X119711125Y-87232910D01*
X119725667Y-87230018D01*
X119740209Y-87232910D01*
G37*
G36*
X185121454Y-87648872D02*
G01*
X185170086Y-87648872D01*
X185224244Y-87658996D01*
X185276837Y-87664176D01*
X185316792Y-87676296D01*
X185358335Y-87684062D01*
X185415873Y-87706352D01*
X185471558Y-87723244D01*
X185503372Y-87740249D01*
X185536916Y-87753244D01*
X185595200Y-87789332D01*
X185651015Y-87819166D01*
X185674466Y-87838412D01*
X185699737Y-87854059D01*
X185755724Y-87905098D01*
X185808310Y-87948254D01*
X185823894Y-87967243D01*
X185841266Y-87983080D01*
X185891702Y-88049868D01*
X185937398Y-88105549D01*
X185946233Y-88122079D01*
X185956675Y-88135906D01*
X185998220Y-88219339D01*
X186033320Y-88285006D01*
X186037062Y-88297344D01*
X186042040Y-88307340D01*
X186071442Y-88410677D01*
X186092388Y-88479727D01*
X186093076Y-88486713D01*
X186094448Y-88491535D01*
X186108701Y-88645361D01*
X186112333Y-88682231D01*
X186108701Y-88719103D01*
X186094448Y-88872926D01*
X186093076Y-88877747D01*
X186092388Y-88884735D01*
X186071437Y-88953799D01*
X186042040Y-89057121D01*
X186037063Y-89067114D01*
X186033320Y-89079456D01*
X185998213Y-89145136D01*
X185956675Y-89228555D01*
X185946235Y-89242378D01*
X185937398Y-89258913D01*
X185891692Y-89314605D01*
X185841266Y-89381381D01*
X185823897Y-89397214D01*
X185808310Y-89416208D01*
X185755713Y-89459372D01*
X185699737Y-89510402D01*
X185674471Y-89526045D01*
X185651015Y-89545296D01*
X185595189Y-89575135D01*
X185536916Y-89611217D01*
X185503379Y-89624208D01*
X185471558Y-89641218D01*
X185415861Y-89658113D01*
X185358335Y-89680399D01*
X185316798Y-89688163D01*
X185276837Y-89700286D01*
X185224241Y-89705466D01*
X185170086Y-89715590D01*
X185121454Y-89715590D01*
X185074333Y-89720231D01*
X185027212Y-89715590D01*
X184978580Y-89715590D01*
X184924423Y-89705466D01*
X184871829Y-89700286D01*
X184831868Y-89688164D01*
X184790330Y-89680399D01*
X184732800Y-89658112D01*
X184677108Y-89641218D01*
X184645288Y-89624210D01*
X184611749Y-89611217D01*
X184553469Y-89575131D01*
X184497651Y-89545296D01*
X184474197Y-89526048D01*
X184448928Y-89510402D01*
X184392942Y-89459364D01*
X184340356Y-89416208D01*
X184324771Y-89397218D01*
X184307399Y-89381381D01*
X184256960Y-89314590D01*
X184211268Y-89258913D01*
X184202432Y-89242383D01*
X184191990Y-89228555D01*
X184150438Y-89145108D01*
X184115346Y-89079456D01*
X184111603Y-89067119D01*
X184106625Y-89057121D01*
X184077212Y-88953746D01*
X184056278Y-88884735D01*
X184055590Y-88877752D01*
X184054217Y-88872926D01*
X184039949Y-88718945D01*
X184036333Y-88682231D01*
X184039946Y-88645545D01*
X184054217Y-88491535D01*
X184055590Y-88486707D01*
X184056278Y-88479727D01*
X184077207Y-88410730D01*
X184106625Y-88307340D01*
X184111604Y-88297339D01*
X184115346Y-88285006D01*
X184150430Y-88219366D01*
X184191990Y-88135906D01*
X184202434Y-88122075D01*
X184211268Y-88105549D01*
X184256951Y-88049883D01*
X184307399Y-87983080D01*
X184324774Y-87967239D01*
X184340356Y-87948254D01*
X184392931Y-87905106D01*
X184448928Y-87854059D01*
X184474202Y-87838409D01*
X184497651Y-87819166D01*
X184553457Y-87789336D01*
X184611749Y-87753244D01*
X184645295Y-87740248D01*
X184677108Y-87723244D01*
X184732788Y-87706353D01*
X184790330Y-87684062D01*
X184831875Y-87676295D01*
X184871829Y-87664176D01*
X184924420Y-87658996D01*
X184978580Y-87648872D01*
X185027212Y-87648872D01*
X185074333Y-87644231D01*
X185121454Y-87648872D01*
G37*
G36*
X152795793Y-77581444D02*
G01*
X153187775Y-77639589D01*
X153572170Y-77735875D01*
X153945276Y-77869374D01*
X154303500Y-78038802D01*
X154643393Y-78242526D01*
X154961680Y-78478584D01*
X155255297Y-78744703D01*
X155521416Y-79038320D01*
X155757474Y-79356607D01*
X155961198Y-79696500D01*
X156130626Y-80054724D01*
X156264125Y-80427830D01*
X156360411Y-80812225D01*
X156418556Y-81204207D01*
X156438000Y-81600000D01*
X156418556Y-81995793D01*
X156360411Y-82387775D01*
X156264125Y-82772170D01*
X156130626Y-83145276D01*
X155961198Y-83503500D01*
X155757474Y-83843393D01*
X155521416Y-84161680D01*
X155255297Y-84455297D01*
X154961680Y-84721416D01*
X154643393Y-84957474D01*
X154303500Y-85161198D01*
X153945276Y-85330626D01*
X153572170Y-85464125D01*
X153187775Y-85560411D01*
X152795793Y-85618556D01*
X152400000Y-85638000D01*
X152004207Y-85618556D01*
X151612225Y-85560411D01*
X151227830Y-85464125D01*
X150854724Y-85330626D01*
X150496500Y-85161198D01*
X150156607Y-84957474D01*
X149838320Y-84721416D01*
X149544703Y-84455297D01*
X149278584Y-84161680D01*
X149042526Y-83843393D01*
X148838802Y-83503500D01*
X148669374Y-83145276D01*
X148535875Y-82772170D01*
X148439589Y-82387775D01*
X148381444Y-81995793D01*
X148362000Y-81600000D01*
X148381444Y-81204207D01*
X148439589Y-80812225D01*
X148535875Y-80427830D01*
X148669374Y-80054724D01*
X148838802Y-79696500D01*
X149042526Y-79356607D01*
X149278584Y-79038320D01*
X149544703Y-78744703D01*
X149838320Y-78478584D01*
X150156607Y-78242526D01*
X150496500Y-78038802D01*
X150854724Y-77869374D01*
X151227830Y-77735875D01*
X151612225Y-77639589D01*
X152004207Y-77581444D01*
X152400000Y-77562000D01*
X152795793Y-77581444D01*
G37*
G36*
X131795793Y-76581444D02*
G01*
X132187775Y-76639589D01*
X132572170Y-76735875D01*
X132945276Y-76869374D01*
X133303500Y-77038802D01*
X133643393Y-77242526D01*
X133961680Y-77478584D01*
X134255297Y-77744703D01*
X134521416Y-78038320D01*
X134757474Y-78356607D01*
X134961198Y-78696500D01*
X135130626Y-79054724D01*
X135264125Y-79427830D01*
X135360411Y-79812225D01*
X135418556Y-80204207D01*
X135438000Y-80600000D01*
X135418556Y-80995793D01*
X135360411Y-81387775D01*
X135264125Y-81772170D01*
X135130626Y-82145276D01*
X134961198Y-82503500D01*
X134757474Y-82843393D01*
X134521416Y-83161680D01*
X134255297Y-83455297D01*
X133961680Y-83721416D01*
X133643393Y-83957474D01*
X133303500Y-84161198D01*
X132945276Y-84330626D01*
X132572170Y-84464125D01*
X132187775Y-84560411D01*
X131795793Y-84618556D01*
X131400000Y-84638000D01*
X131004207Y-84618556D01*
X130612225Y-84560411D01*
X130227830Y-84464125D01*
X129854724Y-84330626D01*
X129496500Y-84161198D01*
X129156607Y-83957474D01*
X128838320Y-83721416D01*
X128544703Y-83455297D01*
X128278584Y-83161680D01*
X128042526Y-82843393D01*
X127838802Y-82503500D01*
X127669374Y-82145276D01*
X127535875Y-81772170D01*
X127439589Y-81387775D01*
X127381444Y-80995793D01*
X127362000Y-80600000D01*
X127381444Y-80204207D01*
X127439589Y-79812225D01*
X127535875Y-79427830D01*
X127669374Y-79054724D01*
X127838802Y-78696500D01*
X128042526Y-78356607D01*
X128278584Y-78038320D01*
X128544703Y-77744703D01*
X128838320Y-77478584D01*
X129156607Y-77242526D01*
X129496500Y-77038802D01*
X129854724Y-76869374D01*
X130227830Y-76735875D01*
X130612225Y-76639589D01*
X131004207Y-76581444D01*
X131400000Y-76562000D01*
X131795793Y-76581444D01*
G37*
G36*
X173795793Y-76581444D02*
G01*
X174187775Y-76639589D01*
X174572170Y-76735875D01*
X174945276Y-76869374D01*
X175303500Y-77038802D01*
X175643393Y-77242526D01*
X175961680Y-77478584D01*
X176255297Y-77744703D01*
X176521416Y-78038320D01*
X176757474Y-78356607D01*
X176961198Y-78696500D01*
X177130626Y-79054724D01*
X177264125Y-79427830D01*
X177360411Y-79812225D01*
X177418556Y-80204207D01*
X177438000Y-80600000D01*
X177418556Y-80995793D01*
X177360411Y-81387775D01*
X177264125Y-81772170D01*
X177130626Y-82145276D01*
X176961198Y-82503500D01*
X176757474Y-82843393D01*
X176521416Y-83161680D01*
X176255297Y-83455297D01*
X175961680Y-83721416D01*
X175643393Y-83957474D01*
X175303500Y-84161198D01*
X174945276Y-84330626D01*
X174572170Y-84464125D01*
X174187775Y-84560411D01*
X173795793Y-84618556D01*
X173400000Y-84638000D01*
X173004207Y-84618556D01*
X172612225Y-84560411D01*
X172227830Y-84464125D01*
X171854724Y-84330626D01*
X171496500Y-84161198D01*
X171156607Y-83957474D01*
X170838320Y-83721416D01*
X170544703Y-83455297D01*
X170278584Y-83161680D01*
X170042526Y-82843393D01*
X169838802Y-82503500D01*
X169669374Y-82145276D01*
X169535875Y-81772170D01*
X169439589Y-81387775D01*
X169381444Y-80995793D01*
X169362000Y-80600000D01*
X169381444Y-80204207D01*
X169439589Y-79812225D01*
X169535875Y-79427830D01*
X169669374Y-79054724D01*
X169838802Y-78696500D01*
X170042526Y-78356607D01*
X170278584Y-78038320D01*
X170544703Y-77744703D01*
X170838320Y-77478584D01*
X171156607Y-77242526D01*
X171496500Y-77038802D01*
X171854724Y-76869374D01*
X172227830Y-76735875D01*
X172612225Y-76639589D01*
X173004207Y-76581444D01*
X173400000Y-76562000D01*
X173795793Y-76581444D01*
G37*
G36*
X96823850Y-75004656D02*
G01*
X97166257Y-75080025D01*
X97498507Y-75191973D01*
X97816707Y-75339188D01*
X98117124Y-75519943D01*
X98396237Y-75732119D01*
X98650773Y-75973229D01*
X98877749Y-76240446D01*
X99074504Y-76530637D01*
X99238729Y-76840399D01*
X99368501Y-77166102D01*
X99462297Y-77503926D01*
X99519019Y-77849911D01*
X99538000Y-78200000D01*
X99519019Y-78550089D01*
X99462297Y-78896074D01*
X99368501Y-79233898D01*
X99238729Y-79559601D01*
X99074504Y-79869363D01*
X98877749Y-80159554D01*
X98650773Y-80426771D01*
X98396237Y-80667881D01*
X98117124Y-80880057D01*
X97816707Y-81060812D01*
X97498507Y-81208027D01*
X97166257Y-81319975D01*
X96823850Y-81395344D01*
X96475302Y-81433251D01*
X96124698Y-81433251D01*
X95776150Y-81395344D01*
X95433743Y-81319975D01*
X95101493Y-81208027D01*
X94783293Y-81060812D01*
X94482876Y-80880057D01*
X94203763Y-80667881D01*
X93949227Y-80426771D01*
X93722251Y-80159554D01*
X93525496Y-79869363D01*
X93361271Y-79559601D01*
X93231499Y-79233898D01*
X93137703Y-78896074D01*
X93080981Y-78550089D01*
X93062000Y-78200000D01*
X93080981Y-77849911D01*
X93137703Y-77503926D01*
X93231499Y-77166102D01*
X93361271Y-76840399D01*
X93525496Y-76530637D01*
X93722251Y-76240446D01*
X93949227Y-75973229D01*
X94203763Y-75732119D01*
X94482876Y-75519943D01*
X94783293Y-75339188D01*
X95101493Y-75191973D01*
X95433743Y-75080025D01*
X95776150Y-75004656D01*
X96124698Y-74966749D01*
X96475302Y-74966749D01*
X96823850Y-75004656D01*
G37*
G36*
X209073850Y-75004656D02*
G01*
X209416257Y-75080025D01*
X209748507Y-75191973D01*
X210066707Y-75339188D01*
X210367124Y-75519943D01*
X210646237Y-75732119D01*
X210900773Y-75973229D01*
X211127749Y-76240446D01*
X211324504Y-76530637D01*
X211488729Y-76840399D01*
X211618501Y-77166102D01*
X211712297Y-77503926D01*
X211769019Y-77849911D01*
X211788000Y-78200000D01*
X211769019Y-78550089D01*
X211712297Y-78896074D01*
X211618501Y-79233898D01*
X211488729Y-79559601D01*
X211324504Y-79869363D01*
X211127749Y-80159554D01*
X210900773Y-80426771D01*
X210646237Y-80667881D01*
X210367124Y-80880057D01*
X210066707Y-81060812D01*
X209748507Y-81208027D01*
X209416257Y-81319975D01*
X209073850Y-81395344D01*
X208725302Y-81433251D01*
X208374698Y-81433251D01*
X208026150Y-81395344D01*
X207683743Y-81319975D01*
X207351493Y-81208027D01*
X207033293Y-81060812D01*
X206732876Y-80880057D01*
X206453763Y-80667881D01*
X206199227Y-80426771D01*
X205972251Y-80159554D01*
X205775496Y-79869363D01*
X205611271Y-79559601D01*
X205481499Y-79233898D01*
X205387703Y-78896074D01*
X205330981Y-78550089D01*
X205312000Y-78200000D01*
X205330981Y-77849911D01*
X205387703Y-77503926D01*
X205481499Y-77166102D01*
X205611271Y-76840399D01*
X205775496Y-76530637D01*
X205972251Y-76240446D01*
X206199227Y-75973229D01*
X206453763Y-75732119D01*
X206732876Y-75519943D01*
X207033293Y-75339188D01*
X207351493Y-75191973D01*
X207683743Y-75080025D01*
X208026150Y-75004656D01*
X208374698Y-74966749D01*
X208725302Y-74966749D01*
X209073850Y-75004656D01*
G37*
G36*
X129523850Y-42254656D02*
G01*
X129866257Y-42330025D01*
X130198507Y-42441973D01*
X130516707Y-42589188D01*
X130817124Y-42769943D01*
X131096237Y-42982119D01*
X131350773Y-43223229D01*
X131577749Y-43490446D01*
X131774504Y-43780637D01*
X131938729Y-44090399D01*
X132068501Y-44416102D01*
X132162297Y-44753926D01*
X132219019Y-45099911D01*
X132238000Y-45450000D01*
X132219019Y-45800089D01*
X132162297Y-46146074D01*
X132068501Y-46483898D01*
X131938729Y-46809601D01*
X131774504Y-47119363D01*
X131577749Y-47409554D01*
X131350773Y-47676771D01*
X131096237Y-47917881D01*
X130817124Y-48130057D01*
X130516707Y-48310812D01*
X130198507Y-48458027D01*
X129866257Y-48569975D01*
X129523850Y-48645344D01*
X129175302Y-48683251D01*
X128824698Y-48683251D01*
X128476150Y-48645344D01*
X128133743Y-48569975D01*
X127801493Y-48458027D01*
X127483293Y-48310812D01*
X127182876Y-48130057D01*
X126903763Y-47917881D01*
X126649227Y-47676771D01*
X126422251Y-47409554D01*
X126225496Y-47119363D01*
X126061271Y-46809601D01*
X125931499Y-46483898D01*
X125837703Y-46146074D01*
X125780981Y-45800089D01*
X125762000Y-45450000D01*
X125780981Y-45099911D01*
X125837703Y-44753926D01*
X125931499Y-44416102D01*
X126061271Y-44090399D01*
X126225496Y-43780637D01*
X126422251Y-43490446D01*
X126649227Y-43223229D01*
X126903763Y-42982119D01*
X127182876Y-42769943D01*
X127483293Y-42589188D01*
X127801493Y-42441973D01*
X128133743Y-42330025D01*
X128476150Y-42254656D01*
X128824698Y-42216749D01*
X129175302Y-42216749D01*
X129523850Y-42254656D01*
G37*
G36*
X176423850Y-41904656D02*
G01*
X176766257Y-41980025D01*
X177098507Y-42091973D01*
X177416707Y-42239188D01*
X177717124Y-42419943D01*
X177996237Y-42632119D01*
X178250773Y-42873229D01*
X178477749Y-43140446D01*
X178674504Y-43430637D01*
X178838729Y-43740399D01*
X178968501Y-44066102D01*
X179062297Y-44403926D01*
X179119019Y-44749911D01*
X179138000Y-45100000D01*
X179119019Y-45450089D01*
X179062297Y-45796074D01*
X178968501Y-46133898D01*
X178838729Y-46459601D01*
X178674504Y-46769363D01*
X178477749Y-47059554D01*
X178250773Y-47326771D01*
X177996237Y-47567881D01*
X177717124Y-47780057D01*
X177416707Y-47960812D01*
X177098507Y-48108027D01*
X176766257Y-48219975D01*
X176423850Y-48295344D01*
X176075302Y-48333251D01*
X175724698Y-48333251D01*
X175376150Y-48295344D01*
X175033743Y-48219975D01*
X174701493Y-48108027D01*
X174383293Y-47960812D01*
X174082876Y-47780057D01*
X173803763Y-47567881D01*
X173549227Y-47326771D01*
X173322251Y-47059554D01*
X173125496Y-46769363D01*
X172961271Y-46459601D01*
X172831499Y-46133898D01*
X172737703Y-45796074D01*
X172680981Y-45450089D01*
X172662000Y-45100000D01*
X172680981Y-44749911D01*
X172737703Y-44403926D01*
X172831499Y-44066102D01*
X172961271Y-43740399D01*
X173125496Y-43430637D01*
X173322251Y-43140446D01*
X173549227Y-42873229D01*
X173803763Y-42632119D01*
X174082876Y-42419943D01*
X174383293Y-42239188D01*
X174701493Y-42091973D01*
X175033743Y-41980025D01*
X175376150Y-41904656D01*
X175724698Y-41866749D01*
X176075302Y-41866749D01*
X176423850Y-41904656D01*
G37*
G36*
X146040938Y-45869650D02*
G01*
X146045653Y-45871732D01*
X146048326Y-45872084D01*
X146081770Y-45887679D01*
X146137759Y-45912401D01*
X146212599Y-45987241D01*
X146237330Y-46043251D01*
X146252915Y-46076673D01*
X146253266Y-46079343D01*
X146255350Y-46084062D01*
X146263000Y-46150000D01*
X146263000Y-47050000D01*
X146255350Y-47115938D01*
X146253266Y-47120656D01*
X146252915Y-47123326D01*
X146237338Y-47156730D01*
X146212599Y-47212759D01*
X146137759Y-47287599D01*
X146081730Y-47312338D01*
X146048326Y-47327915D01*
X146045656Y-47328266D01*
X146040938Y-47330350D01*
X145975000Y-47338000D01*
X145325000Y-47338000D01*
X145259062Y-47330350D01*
X145254343Y-47328266D01*
X145251673Y-47327915D01*
X145218251Y-47312330D01*
X145162241Y-47287599D01*
X145087401Y-47212759D01*
X145062679Y-47156770D01*
X145047084Y-47123326D01*
X145046732Y-47120653D01*
X145044650Y-47115938D01*
X145037000Y-47050000D01*
X145037000Y-46150000D01*
X145044650Y-46084062D01*
X145046732Y-46079346D01*
X145047084Y-46076673D01*
X145062687Y-46043210D01*
X145087401Y-45987241D01*
X145162241Y-45912401D01*
X145218210Y-45887687D01*
X145251673Y-45872084D01*
X145254346Y-45871732D01*
X145259062Y-45869650D01*
X145325000Y-45862000D01*
X145975000Y-45862000D01*
X146040938Y-45869650D01*
G37*
G36*
X148090938Y-45869650D02*
G01*
X148095653Y-45871732D01*
X148098326Y-45872084D01*
X148131770Y-45887679D01*
X148187759Y-45912401D01*
X148262599Y-45987241D01*
X148287330Y-46043251D01*
X148302915Y-46076673D01*
X148303266Y-46079343D01*
X148305350Y-46084062D01*
X148313000Y-46150000D01*
X148313000Y-47050000D01*
X148305350Y-47115938D01*
X148303266Y-47120656D01*
X148302915Y-47123326D01*
X148287338Y-47156730D01*
X148262599Y-47212759D01*
X148187759Y-47287599D01*
X148131730Y-47312338D01*
X148098326Y-47327915D01*
X148095656Y-47328266D01*
X148090938Y-47330350D01*
X148025000Y-47338000D01*
X147375000Y-47338000D01*
X147309062Y-47330350D01*
X147304343Y-47328266D01*
X147301673Y-47327915D01*
X147268251Y-47312330D01*
X147212241Y-47287599D01*
X147137401Y-47212759D01*
X147112679Y-47156770D01*
X147097084Y-47123326D01*
X147096732Y-47120653D01*
X147094650Y-47115938D01*
X147087000Y-47050000D01*
X147087000Y-46150000D01*
X147094650Y-46084062D01*
X147096732Y-46079346D01*
X147097084Y-46076673D01*
X147112687Y-46043210D01*
X147137401Y-45987241D01*
X147212241Y-45912401D01*
X147268210Y-45887687D01*
X147301673Y-45872084D01*
X147304346Y-45871732D01*
X147309062Y-45869650D01*
X147375000Y-45862000D01*
X148025000Y-45862000D01*
X148090938Y-45869650D01*
G37*
G36*
X149805937Y-45844650D02*
G01*
X149810652Y-45846732D01*
X149813325Y-45847084D01*
X149846769Y-45862679D01*
X149902758Y-45887401D01*
X149977598Y-45962241D01*
X150002329Y-46018251D01*
X150017914Y-46051673D01*
X150018265Y-46054343D01*
X150020349Y-46059062D01*
X150027999Y-46125000D01*
X150027999Y-47025000D01*
X150020349Y-47090938D01*
X150018265Y-47095656D01*
X150017914Y-47098326D01*
X150002337Y-47131730D01*
X149977598Y-47187759D01*
X149902758Y-47262599D01*
X149846729Y-47287338D01*
X149813325Y-47302915D01*
X149810655Y-47303266D01*
X149805937Y-47305350D01*
X149739999Y-47313000D01*
X149089999Y-47313000D01*
X149024061Y-47305350D01*
X149019342Y-47303266D01*
X149016672Y-47302915D01*
X148983250Y-47287330D01*
X148927240Y-47262599D01*
X148852400Y-47187759D01*
X148827678Y-47131770D01*
X148812083Y-47098326D01*
X148811731Y-47095653D01*
X148809649Y-47090938D01*
X148801999Y-47025000D01*
X148801999Y-46125000D01*
X148809649Y-46059062D01*
X148811731Y-46054346D01*
X148812083Y-46051673D01*
X148827686Y-46018210D01*
X148852400Y-45962241D01*
X148927240Y-45887401D01*
X148983209Y-45862687D01*
X149016672Y-45847084D01*
X149019345Y-45846732D01*
X149024061Y-45844650D01*
X149089999Y-45837000D01*
X149739999Y-45837000D01*
X149805937Y-45844650D01*
G37*
G36*
X151855937Y-45844650D02*
G01*
X151860652Y-45846732D01*
X151863325Y-45847084D01*
X151896769Y-45862679D01*
X151952758Y-45887401D01*
X152027598Y-45962241D01*
X152052329Y-46018251D01*
X152067914Y-46051673D01*
X152068265Y-46054343D01*
X152070349Y-46059062D01*
X152077999Y-46125000D01*
X152077999Y-47025000D01*
X152070349Y-47090938D01*
X152068265Y-47095656D01*
X152067914Y-47098326D01*
X152052337Y-47131730D01*
X152027598Y-47187759D01*
X151952758Y-47262599D01*
X151896729Y-47287338D01*
X151863325Y-47302915D01*
X151860655Y-47303266D01*
X151855937Y-47305350D01*
X151789999Y-47313000D01*
X151139999Y-47313000D01*
X151074061Y-47305350D01*
X151069342Y-47303266D01*
X151066672Y-47302915D01*
X151033250Y-47287330D01*
X150977240Y-47262599D01*
X150902400Y-47187759D01*
X150877678Y-47131770D01*
X150862083Y-47098326D01*
X150861731Y-47095653D01*
X150859649Y-47090938D01*
X150851999Y-47025000D01*
X150851999Y-46125000D01*
X150859649Y-46059062D01*
X150861731Y-46054346D01*
X150862083Y-46051673D01*
X150877686Y-46018210D01*
X150902400Y-45962241D01*
X150977240Y-45887401D01*
X151033209Y-45862687D01*
X151066672Y-45847084D01*
X151069345Y-45846732D01*
X151074061Y-45844650D01*
X151139999Y-45837000D01*
X151789999Y-45837000D01*
X151855937Y-45844650D01*
G37*
G36*
X153555938Y-45844650D02*
G01*
X153560653Y-45846732D01*
X153563326Y-45847084D01*
X153596770Y-45862679D01*
X153652759Y-45887401D01*
X153727599Y-45962241D01*
X153752330Y-46018251D01*
X153767915Y-46051673D01*
X153768266Y-46054343D01*
X153770350Y-46059062D01*
X153778000Y-46125000D01*
X153778000Y-47025000D01*
X153770350Y-47090938D01*
X153768266Y-47095656D01*
X153767915Y-47098326D01*
X153752338Y-47131730D01*
X153727599Y-47187759D01*
X153652759Y-47262599D01*
X153596730Y-47287338D01*
X153563326Y-47302915D01*
X153560656Y-47303266D01*
X153555938Y-47305350D01*
X153490000Y-47313000D01*
X152840000Y-47313000D01*
X152774062Y-47305350D01*
X152769343Y-47303266D01*
X152766673Y-47302915D01*
X152733251Y-47287330D01*
X152677241Y-47262599D01*
X152602401Y-47187759D01*
X152577679Y-47131770D01*
X152562084Y-47098326D01*
X152561732Y-47095653D01*
X152559650Y-47090938D01*
X152552000Y-47025000D01*
X152552000Y-46125000D01*
X152559650Y-46059062D01*
X152561732Y-46054346D01*
X152562084Y-46051673D01*
X152577687Y-46018210D01*
X152602401Y-45962241D01*
X152677241Y-45887401D01*
X152733210Y-45862687D01*
X152766673Y-45847084D01*
X152769346Y-45846732D01*
X152774062Y-45844650D01*
X152840000Y-45837000D01*
X153490000Y-45837000D01*
X153555938Y-45844650D01*
G37*
G36*
X155605938Y-45844650D02*
G01*
X155610653Y-45846732D01*
X155613326Y-45847084D01*
X155646770Y-45862679D01*
X155702759Y-45887401D01*
X155777599Y-45962241D01*
X155802330Y-46018251D01*
X155817915Y-46051673D01*
X155818266Y-46054343D01*
X155820350Y-46059062D01*
X155828000Y-46125000D01*
X155828000Y-47025000D01*
X155820350Y-47090938D01*
X155818266Y-47095656D01*
X155817915Y-47098326D01*
X155802338Y-47131730D01*
X155777599Y-47187759D01*
X155702759Y-47262599D01*
X155646730Y-47287338D01*
X155613326Y-47302915D01*
X155610656Y-47303266D01*
X155605938Y-47305350D01*
X155540000Y-47313000D01*
X154890000Y-47313000D01*
X154824062Y-47305350D01*
X154819343Y-47303266D01*
X154816673Y-47302915D01*
X154783251Y-47287330D01*
X154727241Y-47262599D01*
X154652401Y-47187759D01*
X154627679Y-47131770D01*
X154612084Y-47098326D01*
X154611732Y-47095653D01*
X154609650Y-47090938D01*
X154602000Y-47025000D01*
X154602000Y-46125000D01*
X154609650Y-46059062D01*
X154611732Y-46054346D01*
X154612084Y-46051673D01*
X154627687Y-46018210D01*
X154652401Y-45962241D01*
X154727241Y-45887401D01*
X154783210Y-45862687D01*
X154816673Y-45847084D01*
X154819346Y-45846732D01*
X154824062Y-45844650D01*
X154890000Y-45837000D01*
X155540000Y-45837000D01*
X155605938Y-45844650D01*
G37*
G36*
X157255938Y-45844650D02*
G01*
X157260653Y-45846732D01*
X157263326Y-45847084D01*
X157296770Y-45862679D01*
X157352759Y-45887401D01*
X157427599Y-45962241D01*
X157452330Y-46018251D01*
X157467915Y-46051673D01*
X157468266Y-46054343D01*
X157470350Y-46059062D01*
X157478000Y-46125000D01*
X157478000Y-47025000D01*
X157470350Y-47090938D01*
X157468266Y-47095656D01*
X157467915Y-47098326D01*
X157452338Y-47131730D01*
X157427599Y-47187759D01*
X157352759Y-47262599D01*
X157296730Y-47287338D01*
X157263326Y-47302915D01*
X157260656Y-47303266D01*
X157255938Y-47305350D01*
X157190000Y-47313000D01*
X156540000Y-47313000D01*
X156474062Y-47305350D01*
X156469343Y-47303266D01*
X156466673Y-47302915D01*
X156433251Y-47287330D01*
X156377241Y-47262599D01*
X156302401Y-47187759D01*
X156277679Y-47131770D01*
X156262084Y-47098326D01*
X156261732Y-47095653D01*
X156259650Y-47090938D01*
X156252000Y-47025000D01*
X156252000Y-46125000D01*
X156259650Y-46059062D01*
X156261732Y-46054346D01*
X156262084Y-46051673D01*
X156277687Y-46018210D01*
X156302401Y-45962241D01*
X156377241Y-45887401D01*
X156433210Y-45862687D01*
X156466673Y-45847084D01*
X156469346Y-45846732D01*
X156474062Y-45844650D01*
X156540000Y-45837000D01*
X157190000Y-45837000D01*
X157255938Y-45844650D01*
G37*
G36*
X159305938Y-45844650D02*
G01*
X159310653Y-45846732D01*
X159313326Y-45847084D01*
X159346770Y-45862679D01*
X159402759Y-45887401D01*
X159477599Y-45962241D01*
X159502330Y-46018251D01*
X159517915Y-46051673D01*
X159518266Y-46054343D01*
X159520350Y-46059062D01*
X159528000Y-46125000D01*
X159528000Y-47025000D01*
X159520350Y-47090938D01*
X159518266Y-47095656D01*
X159517915Y-47098326D01*
X159502338Y-47131730D01*
X159477599Y-47187759D01*
X159402759Y-47262599D01*
X159346730Y-47287338D01*
X159313326Y-47302915D01*
X159310656Y-47303266D01*
X159305938Y-47305350D01*
X159240000Y-47313000D01*
X158590000Y-47313000D01*
X158524062Y-47305350D01*
X158519343Y-47303266D01*
X158516673Y-47302915D01*
X158483251Y-47287330D01*
X158427241Y-47262599D01*
X158352401Y-47187759D01*
X158327679Y-47131770D01*
X158312084Y-47098326D01*
X158311732Y-47095653D01*
X158309650Y-47090938D01*
X158302000Y-47025000D01*
X158302000Y-46125000D01*
X158309650Y-46059062D01*
X158311732Y-46054346D01*
X158312084Y-46051673D01*
X158327687Y-46018210D01*
X158352401Y-45962241D01*
X158427241Y-45887401D01*
X158483210Y-45862687D01*
X158516673Y-45847084D01*
X158519346Y-45846732D01*
X158524062Y-45844650D01*
X158590000Y-45837000D01*
X159240000Y-45837000D01*
X159305938Y-45844650D01*
G37*
M02*
