%TF.GenerationSoftware,KiCad,Pcbnew,7.0.6*%
%TF.CreationDate,2023-10-06T12:50:56+02:00*%
%TF.ProjectId,MagLev,4d61674c-6576-42e6-9b69-6361645f7063,V1.0*%
%TF.SameCoordinates,Original*%
%TF.FileFunction,Legend,Top*%
%TF.FilePolarity,Positive*%
%FSLAX46Y46*%
G04 Gerber Fmt 4.6, Leading zero omitted, Abs format (unit mm)*
G04 Created by KiCad (PCBNEW 7.0.6) date 2023-10-06 12:50:56*
%MOMM*%
%LPD*%
G01*
G04 APERTURE LIST*
%ADD10C,0.153000*%
G04 APERTURE END LIST*
D10*
X174900000Y-50600000D02*
X172600000Y-50600000D01*
X173400000Y-51400000D02*
X172600000Y-50600000D01*
X173400000Y-49800000D01*
X173400000Y-51400000D01*
G36*
X173400000Y-51400000D02*
G01*
X172600000Y-50600000D01*
X173400000Y-49800000D01*
X173400000Y-51400000D01*
G37*
X123960180Y-73144663D02*
X123626847Y-72668472D01*
X123388752Y-73144663D02*
X123388752Y-72144663D01*
X123388752Y-72144663D02*
X123769704Y-72144663D01*
X123769704Y-72144663D02*
X123864942Y-72192282D01*
X123864942Y-72192282D02*
X123912561Y-72239901D01*
X123912561Y-72239901D02*
X123960180Y-72335139D01*
X123960180Y-72335139D02*
X123960180Y-72477996D01*
X123960180Y-72477996D02*
X123912561Y-72573234D01*
X123912561Y-72573234D02*
X123864942Y-72620853D01*
X123864942Y-72620853D02*
X123769704Y-72668472D01*
X123769704Y-72668472D02*
X123388752Y-72668472D01*
X124293514Y-72144663D02*
X124960180Y-73144663D01*
X124960180Y-72144663D02*
X124293514Y-73144663D01*
X175827361Y-51903893D02*
X175120255Y-51196787D01*
X175120255Y-51196787D02*
X175389629Y-50927413D01*
X175389629Y-50927413D02*
X175490644Y-50893741D01*
X175490644Y-50893741D02*
X175557987Y-50893741D01*
X175557987Y-50893741D02*
X175659003Y-50927413D01*
X175659003Y-50927413D02*
X175760018Y-51028428D01*
X175760018Y-51028428D02*
X175793690Y-51129443D01*
X175793690Y-51129443D02*
X175793690Y-51196787D01*
X175793690Y-51196787D02*
X175760018Y-51297802D01*
X175760018Y-51297802D02*
X175490644Y-51567176D01*
X176399781Y-50590695D02*
X176534468Y-50523352D01*
X176534468Y-50523352D02*
X176601812Y-50523352D01*
X176601812Y-50523352D02*
X176702827Y-50557023D01*
X176702827Y-50557023D02*
X176803842Y-50658039D01*
X176803842Y-50658039D02*
X176837514Y-50759054D01*
X176837514Y-50759054D02*
X176837514Y-50826397D01*
X176837514Y-50826397D02*
X176803842Y-50927413D01*
X176803842Y-50927413D02*
X176534468Y-51196787D01*
X176534468Y-51196787D02*
X175827361Y-50489680D01*
X175827361Y-50489680D02*
X176063064Y-50253978D01*
X176063064Y-50253978D02*
X176164079Y-50220306D01*
X176164079Y-50220306D02*
X176231422Y-50220306D01*
X176231422Y-50220306D02*
X176332438Y-50253978D01*
X176332438Y-50253978D02*
X176399781Y-50321321D01*
X176399781Y-50321321D02*
X176433453Y-50422336D01*
X176433453Y-50422336D02*
X176433453Y-50489680D01*
X176433453Y-50489680D02*
X176399781Y-50590695D01*
X176399781Y-50590695D02*
X176164079Y-50826397D01*
X176467125Y-49849916D02*
X176904857Y-49412184D01*
X176904857Y-49412184D02*
X176938529Y-49917260D01*
X176938529Y-49917260D02*
X177039544Y-49816245D01*
X177039544Y-49816245D02*
X177140560Y-49782573D01*
X177140560Y-49782573D02*
X177207903Y-49782573D01*
X177207903Y-49782573D02*
X177308918Y-49816245D01*
X177308918Y-49816245D02*
X177477277Y-49984604D01*
X177477277Y-49984604D02*
X177510949Y-50085619D01*
X177510949Y-50085619D02*
X177510949Y-50152962D01*
X177510949Y-50152962D02*
X177477277Y-50253978D01*
X177477277Y-50253978D02*
X177275247Y-50456008D01*
X177275247Y-50456008D02*
X177174231Y-50489680D01*
X177174231Y-50489680D02*
X177106888Y-50489680D01*
X177813995Y-50051947D02*
X178352743Y-49513199D01*
X178453758Y-49277497D02*
X177746651Y-48570390D01*
X177746651Y-48570390D02*
X178487430Y-48839764D01*
X178487430Y-48839764D02*
X178218056Y-48098985D01*
X178218056Y-48098985D02*
X178925163Y-48806092D01*
X178689460Y-47627581D02*
X178824147Y-47492894D01*
X178824147Y-47492894D02*
X178925163Y-47459222D01*
X178925163Y-47459222D02*
X179059850Y-47459222D01*
X179059850Y-47459222D02*
X179228208Y-47560237D01*
X179228208Y-47560237D02*
X179463911Y-47795940D01*
X179463911Y-47795940D02*
X179564926Y-47964298D01*
X179564926Y-47964298D02*
X179564926Y-48098985D01*
X179564926Y-48098985D02*
X179531254Y-48200001D01*
X179531254Y-48200001D02*
X179396567Y-48334688D01*
X179396567Y-48334688D02*
X179295552Y-48368359D01*
X179295552Y-48368359D02*
X179160865Y-48368359D01*
X179160865Y-48368359D02*
X178992506Y-48267344D01*
X178992506Y-48267344D02*
X178756804Y-48031642D01*
X178756804Y-48031642D02*
X178655789Y-47863283D01*
X178655789Y-47863283D02*
X178655789Y-47728596D01*
X178655789Y-47728596D02*
X178689460Y-47627581D01*
X179935315Y-47728596D02*
X180070002Y-47661253D01*
X180070002Y-47661253D02*
X180238361Y-47492894D01*
X180238361Y-47492894D02*
X180272033Y-47391879D01*
X180272033Y-47391879D02*
X180272033Y-47324535D01*
X180272033Y-47324535D02*
X180238361Y-47223520D01*
X180238361Y-47223520D02*
X180171017Y-47156176D01*
X180171017Y-47156176D02*
X180070002Y-47122505D01*
X180070002Y-47122505D02*
X180002659Y-47122505D01*
X180002659Y-47122505D02*
X179901643Y-47156176D01*
X179901643Y-47156176D02*
X179733285Y-47257192D01*
X179733285Y-47257192D02*
X179632269Y-47290863D01*
X179632269Y-47290863D02*
X179564926Y-47290863D01*
X179564926Y-47290863D02*
X179463911Y-47257192D01*
X179463911Y-47257192D02*
X179396567Y-47189848D01*
X179396567Y-47189848D02*
X179362895Y-47088833D01*
X179362895Y-47088833D02*
X179362895Y-47021489D01*
X179362895Y-47021489D02*
X179396567Y-46920474D01*
X179396567Y-46920474D02*
X179564926Y-46752115D01*
X179564926Y-46752115D02*
X179699613Y-46684772D01*
X180676094Y-47055161D02*
X179968987Y-46348054D01*
X176965803Y-53042335D02*
X176258697Y-52335229D01*
X176258697Y-52335229D02*
X176528071Y-52065855D01*
X176528071Y-52065855D02*
X176629086Y-52032183D01*
X176629086Y-52032183D02*
X176696429Y-52032183D01*
X176696429Y-52032183D02*
X176797445Y-52065855D01*
X176797445Y-52065855D02*
X176898460Y-52166870D01*
X176898460Y-52166870D02*
X176932132Y-52267885D01*
X176932132Y-52267885D02*
X176932132Y-52335229D01*
X176932132Y-52335229D02*
X176898460Y-52436244D01*
X176898460Y-52436244D02*
X176629086Y-52705618D01*
X177538223Y-51729137D02*
X177672910Y-51661794D01*
X177672910Y-51661794D02*
X177740254Y-51661794D01*
X177740254Y-51661794D02*
X177841269Y-51695465D01*
X177841269Y-51695465D02*
X177942284Y-51796481D01*
X177942284Y-51796481D02*
X177975956Y-51897496D01*
X177975956Y-51897496D02*
X177975956Y-51964839D01*
X177975956Y-51964839D02*
X177942284Y-52065855D01*
X177942284Y-52065855D02*
X177672910Y-52335229D01*
X177672910Y-52335229D02*
X176965803Y-51628122D01*
X176965803Y-51628122D02*
X177201506Y-51392420D01*
X177201506Y-51392420D02*
X177302521Y-51358748D01*
X177302521Y-51358748D02*
X177369864Y-51358748D01*
X177369864Y-51358748D02*
X177470880Y-51392420D01*
X177470880Y-51392420D02*
X177538223Y-51459763D01*
X177538223Y-51459763D02*
X177571895Y-51560778D01*
X177571895Y-51560778D02*
X177571895Y-51628122D01*
X177571895Y-51628122D02*
X177538223Y-51729137D01*
X177538223Y-51729137D02*
X177302521Y-51964839D01*
X178211658Y-50853671D02*
X178683063Y-51325076D01*
X177773925Y-50752656D02*
X178110643Y-51426091D01*
X178110643Y-51426091D02*
X178548376Y-50988358D01*
X178952437Y-51190389D02*
X179491185Y-50651641D01*
X179592200Y-50415939D02*
X178885093Y-49708832D01*
X178885093Y-49708832D02*
X179625872Y-49978206D01*
X179625872Y-49978206D02*
X179356498Y-49237427D01*
X179356498Y-49237427D02*
X180063605Y-49944534D01*
X180400322Y-49607817D02*
X179693215Y-48900710D01*
X180669696Y-49271099D02*
X180804383Y-49203756D01*
X180804383Y-49203756D02*
X180972742Y-49035397D01*
X180972742Y-49035397D02*
X181006413Y-48934382D01*
X181006413Y-48934382D02*
X181006413Y-48867038D01*
X181006413Y-48867038D02*
X180972742Y-48766023D01*
X180972742Y-48766023D02*
X180905398Y-48698680D01*
X180905398Y-48698680D02*
X180804383Y-48665008D01*
X180804383Y-48665008D02*
X180737039Y-48665008D01*
X180737039Y-48665008D02*
X180636024Y-48698680D01*
X180636024Y-48698680D02*
X180467665Y-48799695D01*
X180467665Y-48799695D02*
X180366650Y-48833367D01*
X180366650Y-48833367D02*
X180299307Y-48833367D01*
X180299307Y-48833367D02*
X180198291Y-48799695D01*
X180198291Y-48799695D02*
X180130948Y-48732351D01*
X180130948Y-48732351D02*
X180097276Y-48631336D01*
X180097276Y-48631336D02*
X180097276Y-48563993D01*
X180097276Y-48563993D02*
X180130948Y-48462977D01*
X180130948Y-48462977D02*
X180299307Y-48294619D01*
X180299307Y-48294619D02*
X180433994Y-48227275D01*
X180838055Y-47755871D02*
X180972742Y-47621184D01*
X180972742Y-47621184D02*
X181073757Y-47587512D01*
X181073757Y-47587512D02*
X181208444Y-47587512D01*
X181208444Y-47587512D02*
X181376803Y-47688527D01*
X181376803Y-47688527D02*
X181612505Y-47924229D01*
X181612505Y-47924229D02*
X181713520Y-48092588D01*
X181713520Y-48092588D02*
X181713520Y-48227275D01*
X181713520Y-48227275D02*
X181679848Y-48328290D01*
X181679848Y-48328290D02*
X181545161Y-48462977D01*
X181545161Y-48462977D02*
X181444146Y-48496649D01*
X181444146Y-48496649D02*
X181309459Y-48496649D01*
X181309459Y-48496649D02*
X181141100Y-48395634D01*
X181141100Y-48395634D02*
X180905398Y-48159932D01*
X180905398Y-48159932D02*
X180804383Y-47991573D01*
X180804383Y-47991573D02*
X180804383Y-47856886D01*
X180804383Y-47856886D02*
X180838055Y-47755871D01*
X178575649Y-53709373D02*
X177868543Y-53002267D01*
X177868543Y-53002267D02*
X178137917Y-52732892D01*
X178137917Y-52732892D02*
X178238932Y-52699221D01*
X178238932Y-52699221D02*
X178306275Y-52699221D01*
X178306275Y-52699221D02*
X178407291Y-52732892D01*
X178407291Y-52732892D02*
X178508306Y-52833908D01*
X178508306Y-52833908D02*
X178541978Y-52934923D01*
X178541978Y-52934923D02*
X178541978Y-53002267D01*
X178541978Y-53002267D02*
X178508306Y-53103282D01*
X178508306Y-53103282D02*
X178238932Y-53372656D01*
X179148069Y-52396175D02*
X179282756Y-52328831D01*
X179282756Y-52328831D02*
X179350100Y-52328831D01*
X179350100Y-52328831D02*
X179451115Y-52362503D01*
X179451115Y-52362503D02*
X179552130Y-52463518D01*
X179552130Y-52463518D02*
X179585802Y-52564534D01*
X179585802Y-52564534D02*
X179585802Y-52631877D01*
X179585802Y-52631877D02*
X179552130Y-52732892D01*
X179552130Y-52732892D02*
X179282756Y-53002267D01*
X179282756Y-53002267D02*
X178575649Y-52295160D01*
X178575649Y-52295160D02*
X178811352Y-52059457D01*
X178811352Y-52059457D02*
X178912367Y-52025786D01*
X178912367Y-52025786D02*
X178979710Y-52025786D01*
X178979710Y-52025786D02*
X179080726Y-52059457D01*
X179080726Y-52059457D02*
X179148069Y-52126801D01*
X179148069Y-52126801D02*
X179181741Y-52227816D01*
X179181741Y-52227816D02*
X179181741Y-52295160D01*
X179181741Y-52295160D02*
X179148069Y-52396175D01*
X179148069Y-52396175D02*
X178912367Y-52631877D01*
X179619474Y-51251335D02*
X179282756Y-51588053D01*
X179282756Y-51588053D02*
X179585802Y-51958442D01*
X179585802Y-51958442D02*
X179585802Y-51891099D01*
X179585802Y-51891099D02*
X179619474Y-51790083D01*
X179619474Y-51790083D02*
X179787832Y-51621725D01*
X179787832Y-51621725D02*
X179888848Y-51588053D01*
X179888848Y-51588053D02*
X179956191Y-51588053D01*
X179956191Y-51588053D02*
X180057206Y-51621725D01*
X180057206Y-51621725D02*
X180225565Y-51790083D01*
X180225565Y-51790083D02*
X180259237Y-51891099D01*
X180259237Y-51891099D02*
X180259237Y-51958442D01*
X180259237Y-51958442D02*
X180225565Y-52059457D01*
X180225565Y-52059457D02*
X180057206Y-52227816D01*
X180057206Y-52227816D02*
X179956191Y-52261488D01*
X179956191Y-52261488D02*
X179888848Y-52261488D01*
X180562283Y-51857427D02*
X181101031Y-51318679D01*
X181134703Y-51082976D02*
X181269390Y-51015633D01*
X181269390Y-51015633D02*
X181437749Y-50847274D01*
X181437749Y-50847274D02*
X181471420Y-50746259D01*
X181471420Y-50746259D02*
X181471420Y-50678915D01*
X181471420Y-50678915D02*
X181437749Y-50577900D01*
X181437749Y-50577900D02*
X181370405Y-50510557D01*
X181370405Y-50510557D02*
X181269390Y-50476885D01*
X181269390Y-50476885D02*
X181202046Y-50476885D01*
X181202046Y-50476885D02*
X181101031Y-50510557D01*
X181101031Y-50510557D02*
X180932672Y-50611572D01*
X180932672Y-50611572D02*
X180831657Y-50645244D01*
X180831657Y-50645244D02*
X180764313Y-50645244D01*
X180764313Y-50645244D02*
X180663298Y-50611572D01*
X180663298Y-50611572D02*
X180595955Y-50544228D01*
X180595955Y-50544228D02*
X180562283Y-50443213D01*
X180562283Y-50443213D02*
X180562283Y-50375870D01*
X180562283Y-50375870D02*
X180595955Y-50274854D01*
X180595955Y-50274854D02*
X180764313Y-50106496D01*
X180764313Y-50106496D02*
X180899000Y-50039152D01*
X182212199Y-49938137D02*
X182212199Y-50005480D01*
X182212199Y-50005480D02*
X182144855Y-50140167D01*
X182144855Y-50140167D02*
X182077512Y-50207511D01*
X182077512Y-50207511D02*
X181942825Y-50274854D01*
X181942825Y-50274854D02*
X181808138Y-50274854D01*
X181808138Y-50274854D02*
X181707123Y-50241183D01*
X181707123Y-50241183D02*
X181538764Y-50140167D01*
X181538764Y-50140167D02*
X181437749Y-50039152D01*
X181437749Y-50039152D02*
X181336733Y-49870793D01*
X181336733Y-49870793D02*
X181303062Y-49769778D01*
X181303062Y-49769778D02*
X181303062Y-49635091D01*
X181303062Y-49635091D02*
X181370405Y-49500404D01*
X181370405Y-49500404D02*
X181437749Y-49433061D01*
X181437749Y-49433061D02*
X181572436Y-49365717D01*
X181572436Y-49365717D02*
X181639779Y-49365717D01*
X182582588Y-49702435D02*
X181875481Y-48995328D01*
X182986649Y-49298374D02*
X182279542Y-49197358D01*
X182279542Y-48591267D02*
X182279542Y-49399389D01*
X182912908Y-51648999D02*
X182340488Y-51547984D01*
X182508847Y-52053060D02*
X181801740Y-51345953D01*
X181801740Y-51345953D02*
X182071114Y-51076579D01*
X182071114Y-51076579D02*
X182172129Y-51042907D01*
X182172129Y-51042907D02*
X182239473Y-51042907D01*
X182239473Y-51042907D02*
X182340488Y-51076579D01*
X182340488Y-51076579D02*
X182441503Y-51177594D01*
X182441503Y-51177594D02*
X182475175Y-51278610D01*
X182475175Y-51278610D02*
X182475175Y-51345953D01*
X182475175Y-51345953D02*
X182441503Y-51446968D01*
X182441503Y-51446968D02*
X182172129Y-51716342D01*
X183148610Y-51345953D02*
X183283297Y-51278610D01*
X183283297Y-51278610D02*
X183451656Y-51110251D01*
X183451656Y-51110251D02*
X183485328Y-51009236D01*
X183485328Y-51009236D02*
X183485328Y-50941892D01*
X183485328Y-50941892D02*
X183451656Y-50840877D01*
X183451656Y-50840877D02*
X183384312Y-50773533D01*
X183384312Y-50773533D02*
X183283297Y-50739862D01*
X183283297Y-50739862D02*
X183215954Y-50739862D01*
X183215954Y-50739862D02*
X183114938Y-50773533D01*
X183114938Y-50773533D02*
X182946580Y-50874549D01*
X182946580Y-50874549D02*
X182845564Y-50908220D01*
X182845564Y-50908220D02*
X182778221Y-50908220D01*
X182778221Y-50908220D02*
X182677206Y-50874549D01*
X182677206Y-50874549D02*
X182609862Y-50807205D01*
X182609862Y-50807205D02*
X182576190Y-50706190D01*
X182576190Y-50706190D02*
X182576190Y-50638846D01*
X182576190Y-50638846D02*
X182609862Y-50537831D01*
X182609862Y-50537831D02*
X182778221Y-50369472D01*
X182778221Y-50369472D02*
X182912908Y-50302129D01*
X183081267Y-50066427D02*
X183485328Y-49662365D01*
X183990404Y-50571503D02*
X183283297Y-49864396D01*
X183142213Y-53157830D02*
X183680961Y-52619082D01*
X183680961Y-53157830D02*
X183142213Y-52619082D01*
X183916663Y-51507914D02*
X183579945Y-51844632D01*
X183579945Y-51844632D02*
X183882991Y-52215021D01*
X183882991Y-52215021D02*
X183882991Y-52147678D01*
X183882991Y-52147678D02*
X183916663Y-52046662D01*
X183916663Y-52046662D02*
X184085022Y-51878304D01*
X184085022Y-51878304D02*
X184186037Y-51844632D01*
X184186037Y-51844632D02*
X184253380Y-51844632D01*
X184253380Y-51844632D02*
X184354396Y-51878304D01*
X184354396Y-51878304D02*
X184522754Y-52046662D01*
X184522754Y-52046662D02*
X184556426Y-52147678D01*
X184556426Y-52147678D02*
X184556426Y-52215021D01*
X184556426Y-52215021D02*
X184522754Y-52316036D01*
X184522754Y-52316036D02*
X184354396Y-52484395D01*
X184354396Y-52484395D02*
X184253380Y-52518067D01*
X184253380Y-52518067D02*
X184186037Y-52518067D01*
X184152365Y-51272212D02*
X185095174Y-51743616D01*
X185095174Y-51743616D02*
X184623770Y-50800807D01*
X184246983Y-53521822D02*
X184145968Y-53555493D01*
X184145968Y-53555493D02*
X184044953Y-53656509D01*
X184044953Y-53656509D02*
X183977609Y-53791196D01*
X183977609Y-53791196D02*
X183977609Y-53925883D01*
X183977609Y-53925883D02*
X184011281Y-54026898D01*
X184011281Y-54026898D02*
X184112296Y-54195257D01*
X184112296Y-54195257D02*
X184213311Y-54296272D01*
X184213311Y-54296272D02*
X184381670Y-54397287D01*
X184381670Y-54397287D02*
X184482685Y-54430959D01*
X184482685Y-54430959D02*
X184617372Y-54430959D01*
X184617372Y-54430959D02*
X184752059Y-54363615D01*
X184752059Y-54363615D02*
X184819403Y-54296272D01*
X184819403Y-54296272D02*
X184886746Y-54161585D01*
X184886746Y-54161585D02*
X184886746Y-54094241D01*
X184886746Y-54094241D02*
X184651044Y-53858539D01*
X184651044Y-53858539D02*
X184516357Y-53993226D01*
X185257136Y-53858539D02*
X184550029Y-53151432D01*
X184550029Y-53151432D02*
X185661197Y-53454478D01*
X185661197Y-53454478D02*
X184954090Y-52747371D01*
X185997914Y-53117761D02*
X185290807Y-52410654D01*
X185290807Y-52410654D02*
X185459166Y-52242295D01*
X185459166Y-52242295D02*
X185593853Y-52174952D01*
X185593853Y-52174952D02*
X185728540Y-52174952D01*
X185728540Y-52174952D02*
X185829555Y-52208623D01*
X185829555Y-52208623D02*
X185997914Y-52309639D01*
X185997914Y-52309639D02*
X186098929Y-52410654D01*
X186098929Y-52410654D02*
X186199945Y-52579013D01*
X186199945Y-52579013D02*
X186233616Y-52680028D01*
X186233616Y-52680028D02*
X186233616Y-52814715D01*
X186233616Y-52814715D02*
X186166273Y-52949402D01*
X186166273Y-52949402D02*
X185997914Y-53117761D01*
X123195895Y-66069663D02*
X123767323Y-66069663D01*
X123481609Y-67069663D02*
X123481609Y-66069663D01*
X124005419Y-66069663D02*
X124672085Y-67069663D01*
X124672085Y-66069663D02*
X124005419Y-67069663D01*
X137519663Y-71330295D02*
X138233948Y-71330295D01*
X138233948Y-71330295D02*
X138376805Y-71368390D01*
X138376805Y-71368390D02*
X138472044Y-71444581D01*
X138472044Y-71444581D02*
X138519663Y-71558866D01*
X138519663Y-71558866D02*
X138519663Y-71635057D01*
X138519663Y-70568390D02*
X138519663Y-70949342D01*
X138519663Y-70949342D02*
X137519663Y-70949342D01*
X138424424Y-69844580D02*
X138472044Y-69882676D01*
X138472044Y-69882676D02*
X138519663Y-69996961D01*
X138519663Y-69996961D02*
X138519663Y-70073152D01*
X138519663Y-70073152D02*
X138472044Y-70187438D01*
X138472044Y-70187438D02*
X138376805Y-70263628D01*
X138376805Y-70263628D02*
X138281567Y-70301723D01*
X138281567Y-70301723D02*
X138091091Y-70339819D01*
X138091091Y-70339819D02*
X137948234Y-70339819D01*
X137948234Y-70339819D02*
X137757758Y-70301723D01*
X137757758Y-70301723D02*
X137662520Y-70263628D01*
X137662520Y-70263628D02*
X137567282Y-70187438D01*
X137567282Y-70187438D02*
X137519663Y-70073152D01*
X137519663Y-70073152D02*
X137519663Y-69996961D01*
X137519663Y-69996961D02*
X137567282Y-69882676D01*
X137567282Y-69882676D02*
X137614901Y-69844580D01*
X137519663Y-69273152D02*
X138233948Y-69273152D01*
X138233948Y-69273152D02*
X138376805Y-69311247D01*
X138376805Y-69311247D02*
X138472044Y-69387438D01*
X138472044Y-69387438D02*
X138519663Y-69501723D01*
X138519663Y-69501723D02*
X138519663Y-69577914D01*
X138519663Y-68511247D02*
X138519663Y-68892199D01*
X138519663Y-68892199D02*
X137519663Y-68892199D01*
X138424424Y-67787437D02*
X138472044Y-67825533D01*
X138472044Y-67825533D02*
X138519663Y-67939818D01*
X138519663Y-67939818D02*
X138519663Y-68016009D01*
X138519663Y-68016009D02*
X138472044Y-68130295D01*
X138472044Y-68130295D02*
X138376805Y-68206485D01*
X138376805Y-68206485D02*
X138281567Y-68244580D01*
X138281567Y-68244580D02*
X138091091Y-68282676D01*
X138091091Y-68282676D02*
X137948234Y-68282676D01*
X137948234Y-68282676D02*
X137757758Y-68244580D01*
X137757758Y-68244580D02*
X137662520Y-68206485D01*
X137662520Y-68206485D02*
X137567282Y-68130295D01*
X137567282Y-68130295D02*
X137519663Y-68016009D01*
X137519663Y-68016009D02*
X137519663Y-67939818D01*
X137519663Y-67939818D02*
X137567282Y-67825533D01*
X137567282Y-67825533D02*
X137614901Y-67787437D01*
X137519663Y-67216009D02*
X138233948Y-67216009D01*
X138233948Y-67216009D02*
X138376805Y-67254104D01*
X138376805Y-67254104D02*
X138472044Y-67330295D01*
X138472044Y-67330295D02*
X138519663Y-67444580D01*
X138519663Y-67444580D02*
X138519663Y-67520771D01*
X138519663Y-66454104D02*
X138519663Y-66835056D01*
X138519663Y-66835056D02*
X137519663Y-66835056D01*
X138424424Y-65730294D02*
X138472044Y-65768390D01*
X138472044Y-65768390D02*
X138519663Y-65882675D01*
X138519663Y-65882675D02*
X138519663Y-65958866D01*
X138519663Y-65958866D02*
X138472044Y-66073152D01*
X138472044Y-66073152D02*
X138376805Y-66149342D01*
X138376805Y-66149342D02*
X138281567Y-66187437D01*
X138281567Y-66187437D02*
X138091091Y-66225533D01*
X138091091Y-66225533D02*
X137948234Y-66225533D01*
X137948234Y-66225533D02*
X137757758Y-66187437D01*
X137757758Y-66187437D02*
X137662520Y-66149342D01*
X137662520Y-66149342D02*
X137567282Y-66073152D01*
X137567282Y-66073152D02*
X137519663Y-65958866D01*
X137519663Y-65958866D02*
X137519663Y-65882675D01*
X137519663Y-65882675D02*
X137567282Y-65768390D01*
X137567282Y-65768390D02*
X137614901Y-65730294D01*
X137519663Y-65158866D02*
X138233948Y-65158866D01*
X138233948Y-65158866D02*
X138376805Y-65196961D01*
X138376805Y-65196961D02*
X138472044Y-65273152D01*
X138472044Y-65273152D02*
X138519663Y-65387437D01*
X138519663Y-65387437D02*
X138519663Y-65463628D01*
X138519663Y-64396961D02*
X138519663Y-64777913D01*
X138519663Y-64777913D02*
X137519663Y-64777913D01*
X138424424Y-63673151D02*
X138472044Y-63711247D01*
X138472044Y-63711247D02*
X138519663Y-63825532D01*
X138519663Y-63825532D02*
X138519663Y-63901723D01*
X138519663Y-63901723D02*
X138472044Y-64016009D01*
X138472044Y-64016009D02*
X138376805Y-64092199D01*
X138376805Y-64092199D02*
X138281567Y-64130294D01*
X138281567Y-64130294D02*
X138091091Y-64168390D01*
X138091091Y-64168390D02*
X137948234Y-64168390D01*
X137948234Y-64168390D02*
X137757758Y-64130294D01*
X137757758Y-64130294D02*
X137662520Y-64092199D01*
X137662520Y-64092199D02*
X137567282Y-64016009D01*
X137567282Y-64016009D02*
X137519663Y-63901723D01*
X137519663Y-63901723D02*
X137519663Y-63825532D01*
X137519663Y-63825532D02*
X137567282Y-63711247D01*
X137567282Y-63711247D02*
X137614901Y-63673151D01*
X96159663Y-118761247D02*
X95159663Y-118761247D01*
X95159663Y-118761247D02*
X95159663Y-118523152D01*
X95159663Y-118523152D02*
X95207282Y-118380295D01*
X95207282Y-118380295D02*
X95302520Y-118285057D01*
X95302520Y-118285057D02*
X95397758Y-118237438D01*
X95397758Y-118237438D02*
X95588234Y-118189819D01*
X95588234Y-118189819D02*
X95731091Y-118189819D01*
X95731091Y-118189819D02*
X95921567Y-118237438D01*
X95921567Y-118237438D02*
X96016805Y-118285057D01*
X96016805Y-118285057D02*
X96112044Y-118380295D01*
X96112044Y-118380295D02*
X96159663Y-118523152D01*
X96159663Y-118523152D02*
X96159663Y-118761247D01*
X96112044Y-117380295D02*
X96159663Y-117475533D01*
X96159663Y-117475533D02*
X96159663Y-117666009D01*
X96159663Y-117666009D02*
X96112044Y-117761247D01*
X96112044Y-117761247D02*
X96016805Y-117808866D01*
X96016805Y-117808866D02*
X95635853Y-117808866D01*
X95635853Y-117808866D02*
X95540615Y-117761247D01*
X95540615Y-117761247D02*
X95492996Y-117666009D01*
X95492996Y-117666009D02*
X95492996Y-117475533D01*
X95492996Y-117475533D02*
X95540615Y-117380295D01*
X95540615Y-117380295D02*
X95635853Y-117332676D01*
X95635853Y-117332676D02*
X95731091Y-117332676D01*
X95731091Y-117332676D02*
X95826329Y-117808866D01*
X96112044Y-116951723D02*
X96159663Y-116856485D01*
X96159663Y-116856485D02*
X96159663Y-116666009D01*
X96159663Y-116666009D02*
X96112044Y-116570771D01*
X96112044Y-116570771D02*
X96016805Y-116523152D01*
X96016805Y-116523152D02*
X95969186Y-116523152D01*
X95969186Y-116523152D02*
X95873948Y-116570771D01*
X95873948Y-116570771D02*
X95826329Y-116666009D01*
X95826329Y-116666009D02*
X95826329Y-116808866D01*
X95826329Y-116808866D02*
X95778710Y-116904104D01*
X95778710Y-116904104D02*
X95683472Y-116951723D01*
X95683472Y-116951723D02*
X95635853Y-116951723D01*
X95635853Y-116951723D02*
X95540615Y-116904104D01*
X95540615Y-116904104D02*
X95492996Y-116808866D01*
X95492996Y-116808866D02*
X95492996Y-116666009D01*
X95492996Y-116666009D02*
X95540615Y-116570771D01*
X96159663Y-116094580D02*
X95492996Y-116094580D01*
X95159663Y-116094580D02*
X95207282Y-116142199D01*
X95207282Y-116142199D02*
X95254901Y-116094580D01*
X95254901Y-116094580D02*
X95207282Y-116046961D01*
X95207282Y-116046961D02*
X95159663Y-116094580D01*
X95159663Y-116094580D02*
X95254901Y-116094580D01*
X95492996Y-115189819D02*
X96302520Y-115189819D01*
X96302520Y-115189819D02*
X96397758Y-115237438D01*
X96397758Y-115237438D02*
X96445377Y-115285057D01*
X96445377Y-115285057D02*
X96492996Y-115380295D01*
X96492996Y-115380295D02*
X96492996Y-115523152D01*
X96492996Y-115523152D02*
X96445377Y-115618390D01*
X96112044Y-115189819D02*
X96159663Y-115285057D01*
X96159663Y-115285057D02*
X96159663Y-115475533D01*
X96159663Y-115475533D02*
X96112044Y-115570771D01*
X96112044Y-115570771D02*
X96064424Y-115618390D01*
X96064424Y-115618390D02*
X95969186Y-115666009D01*
X95969186Y-115666009D02*
X95683472Y-115666009D01*
X95683472Y-115666009D02*
X95588234Y-115618390D01*
X95588234Y-115618390D02*
X95540615Y-115570771D01*
X95540615Y-115570771D02*
X95492996Y-115475533D01*
X95492996Y-115475533D02*
X95492996Y-115285057D01*
X95492996Y-115285057D02*
X95540615Y-115189819D01*
X95492996Y-114713628D02*
X96159663Y-114713628D01*
X95588234Y-114713628D02*
X95540615Y-114666009D01*
X95540615Y-114666009D02*
X95492996Y-114570771D01*
X95492996Y-114570771D02*
X95492996Y-114427914D01*
X95492996Y-114427914D02*
X95540615Y-114332676D01*
X95540615Y-114332676D02*
X95635853Y-114285057D01*
X95635853Y-114285057D02*
X96159663Y-114285057D01*
X96112044Y-113427914D02*
X96159663Y-113523152D01*
X96159663Y-113523152D02*
X96159663Y-113713628D01*
X96159663Y-113713628D02*
X96112044Y-113808866D01*
X96112044Y-113808866D02*
X96016805Y-113856485D01*
X96016805Y-113856485D02*
X95635853Y-113856485D01*
X95635853Y-113856485D02*
X95540615Y-113808866D01*
X95540615Y-113808866D02*
X95492996Y-113713628D01*
X95492996Y-113713628D02*
X95492996Y-113523152D01*
X95492996Y-113523152D02*
X95540615Y-113427914D01*
X95540615Y-113427914D02*
X95635853Y-113380295D01*
X95635853Y-113380295D02*
X95731091Y-113380295D01*
X95731091Y-113380295D02*
X95826329Y-113856485D01*
X96159663Y-112523152D02*
X95159663Y-112523152D01*
X96112044Y-112523152D02*
X96159663Y-112618390D01*
X96159663Y-112618390D02*
X96159663Y-112808866D01*
X96159663Y-112808866D02*
X96112044Y-112904104D01*
X96112044Y-112904104D02*
X96064424Y-112951723D01*
X96064424Y-112951723D02*
X95969186Y-112999342D01*
X95969186Y-112999342D02*
X95683472Y-112999342D01*
X95683472Y-112999342D02*
X95588234Y-112951723D01*
X95588234Y-112951723D02*
X95540615Y-112904104D01*
X95540615Y-112904104D02*
X95492996Y-112808866D01*
X95492996Y-112808866D02*
X95492996Y-112618390D01*
X95492996Y-112618390D02*
X95540615Y-112523152D01*
X96159663Y-111285056D02*
X95159663Y-111285056D01*
X95540615Y-111285056D02*
X95492996Y-111189818D01*
X95492996Y-111189818D02*
X95492996Y-110999342D01*
X95492996Y-110999342D02*
X95540615Y-110904104D01*
X95540615Y-110904104D02*
X95588234Y-110856485D01*
X95588234Y-110856485D02*
X95683472Y-110808866D01*
X95683472Y-110808866D02*
X95969186Y-110808866D01*
X95969186Y-110808866D02*
X96064424Y-110856485D01*
X96064424Y-110856485D02*
X96112044Y-110904104D01*
X96112044Y-110904104D02*
X96159663Y-110999342D01*
X96159663Y-110999342D02*
X96159663Y-111189818D01*
X96159663Y-111189818D02*
X96112044Y-111285056D01*
X95492996Y-110475532D02*
X96159663Y-110237437D01*
X95492996Y-109999342D02*
X96159663Y-110237437D01*
X96159663Y-110237437D02*
X96397758Y-110332675D01*
X96397758Y-110332675D02*
X96445377Y-110380294D01*
X96445377Y-110380294D02*
X96492996Y-110475532D01*
X96159663Y-108856484D02*
X95159663Y-108856484D01*
X96159663Y-108285056D02*
X95588234Y-108713627D01*
X95159663Y-108285056D02*
X95731091Y-108856484D01*
X96112044Y-107475532D02*
X96159663Y-107570770D01*
X96159663Y-107570770D02*
X96159663Y-107761246D01*
X96159663Y-107761246D02*
X96112044Y-107856484D01*
X96112044Y-107856484D02*
X96016805Y-107904103D01*
X96016805Y-107904103D02*
X95635853Y-107904103D01*
X95635853Y-107904103D02*
X95540615Y-107856484D01*
X95540615Y-107856484D02*
X95492996Y-107761246D01*
X95492996Y-107761246D02*
X95492996Y-107570770D01*
X95492996Y-107570770D02*
X95540615Y-107475532D01*
X95540615Y-107475532D02*
X95635853Y-107427913D01*
X95635853Y-107427913D02*
X95731091Y-107427913D01*
X95731091Y-107427913D02*
X95826329Y-107904103D01*
X95492996Y-107094579D02*
X96159663Y-106856484D01*
X96159663Y-106856484D02*
X95492996Y-106618389D01*
X96159663Y-106237436D02*
X95492996Y-106237436D01*
X95159663Y-106237436D02*
X95207282Y-106285055D01*
X95207282Y-106285055D02*
X95254901Y-106237436D01*
X95254901Y-106237436D02*
X95207282Y-106189817D01*
X95207282Y-106189817D02*
X95159663Y-106237436D01*
X95159663Y-106237436D02*
X95254901Y-106237436D01*
X95492996Y-105761246D02*
X96159663Y-105761246D01*
X95588234Y-105761246D02*
X95540615Y-105713627D01*
X95540615Y-105713627D02*
X95492996Y-105618389D01*
X95492996Y-105618389D02*
X95492996Y-105475532D01*
X95492996Y-105475532D02*
X95540615Y-105380294D01*
X95540615Y-105380294D02*
X95635853Y-105332675D01*
X95635853Y-105332675D02*
X96159663Y-105332675D01*
X96159663Y-104094579D02*
X95159663Y-104094579D01*
X95159663Y-104094579D02*
X95159663Y-103856484D01*
X95159663Y-103856484D02*
X95207282Y-103713627D01*
X95207282Y-103713627D02*
X95302520Y-103618389D01*
X95302520Y-103618389D02*
X95397758Y-103570770D01*
X95397758Y-103570770D02*
X95588234Y-103523151D01*
X95588234Y-103523151D02*
X95731091Y-103523151D01*
X95731091Y-103523151D02*
X95921567Y-103570770D01*
X95921567Y-103570770D02*
X96016805Y-103618389D01*
X96016805Y-103618389D02*
X96112044Y-103713627D01*
X96112044Y-103713627D02*
X96159663Y-103856484D01*
X96159663Y-103856484D02*
X96159663Y-104094579D01*
X95492996Y-102666008D02*
X96159663Y-102666008D01*
X95492996Y-103094579D02*
X96016805Y-103094579D01*
X96016805Y-103094579D02*
X96112044Y-103046960D01*
X96112044Y-103046960D02*
X96159663Y-102951722D01*
X96159663Y-102951722D02*
X96159663Y-102808865D01*
X96159663Y-102808865D02*
X96112044Y-102713627D01*
X96112044Y-102713627D02*
X96064424Y-102666008D01*
X96112044Y-101808865D02*
X96159663Y-101904103D01*
X96159663Y-101904103D02*
X96159663Y-102094579D01*
X96159663Y-102094579D02*
X96112044Y-102189817D01*
X96112044Y-102189817D02*
X96016805Y-102237436D01*
X96016805Y-102237436D02*
X95635853Y-102237436D01*
X95635853Y-102237436D02*
X95540615Y-102189817D01*
X95540615Y-102189817D02*
X95492996Y-102094579D01*
X95492996Y-102094579D02*
X95492996Y-101904103D01*
X95492996Y-101904103D02*
X95540615Y-101808865D01*
X95540615Y-101808865D02*
X95635853Y-101761246D01*
X95635853Y-101761246D02*
X95731091Y-101761246D01*
X95731091Y-101761246D02*
X95826329Y-102237436D01*
X96112044Y-100904103D02*
X96159663Y-100999341D01*
X96159663Y-100999341D02*
X96159663Y-101189817D01*
X96159663Y-101189817D02*
X96112044Y-101285055D01*
X96112044Y-101285055D02*
X96064424Y-101332674D01*
X96064424Y-101332674D02*
X95969186Y-101380293D01*
X95969186Y-101380293D02*
X95683472Y-101380293D01*
X95683472Y-101380293D02*
X95588234Y-101332674D01*
X95588234Y-101332674D02*
X95540615Y-101285055D01*
X95540615Y-101285055D02*
X95492996Y-101189817D01*
X95492996Y-101189817D02*
X95492996Y-100999341D01*
X95492996Y-100999341D02*
X95540615Y-100904103D01*
X96159663Y-100475531D02*
X95159663Y-100475531D01*
X95778710Y-100380293D02*
X96159663Y-100094579D01*
X95492996Y-100094579D02*
X95873948Y-100475531D01*
X96769663Y-118904104D02*
X97769663Y-118570771D01*
X97769663Y-118570771D02*
X96769663Y-118237438D01*
X97722044Y-117523152D02*
X97769663Y-117618390D01*
X97769663Y-117618390D02*
X97769663Y-117808866D01*
X97769663Y-117808866D02*
X97722044Y-117904104D01*
X97722044Y-117904104D02*
X97626805Y-117951723D01*
X97626805Y-117951723D02*
X97245853Y-117951723D01*
X97245853Y-117951723D02*
X97150615Y-117904104D01*
X97150615Y-117904104D02*
X97102996Y-117808866D01*
X97102996Y-117808866D02*
X97102996Y-117618390D01*
X97102996Y-117618390D02*
X97150615Y-117523152D01*
X97150615Y-117523152D02*
X97245853Y-117475533D01*
X97245853Y-117475533D02*
X97341091Y-117475533D01*
X97341091Y-117475533D02*
X97436329Y-117951723D01*
X97769663Y-117046961D02*
X97102996Y-117046961D01*
X97293472Y-117046961D02*
X97198234Y-116999342D01*
X97198234Y-116999342D02*
X97150615Y-116951723D01*
X97150615Y-116951723D02*
X97102996Y-116856485D01*
X97102996Y-116856485D02*
X97102996Y-116761247D01*
X97722044Y-116475532D02*
X97769663Y-116380294D01*
X97769663Y-116380294D02*
X97769663Y-116189818D01*
X97769663Y-116189818D02*
X97722044Y-116094580D01*
X97722044Y-116094580D02*
X97626805Y-116046961D01*
X97626805Y-116046961D02*
X97579186Y-116046961D01*
X97579186Y-116046961D02*
X97483948Y-116094580D01*
X97483948Y-116094580D02*
X97436329Y-116189818D01*
X97436329Y-116189818D02*
X97436329Y-116332675D01*
X97436329Y-116332675D02*
X97388710Y-116427913D01*
X97388710Y-116427913D02*
X97293472Y-116475532D01*
X97293472Y-116475532D02*
X97245853Y-116475532D01*
X97245853Y-116475532D02*
X97150615Y-116427913D01*
X97150615Y-116427913D02*
X97102996Y-116332675D01*
X97102996Y-116332675D02*
X97102996Y-116189818D01*
X97102996Y-116189818D02*
X97150615Y-116094580D01*
X97769663Y-115618389D02*
X97102996Y-115618389D01*
X96769663Y-115618389D02*
X96817282Y-115666008D01*
X96817282Y-115666008D02*
X96864901Y-115618389D01*
X96864901Y-115618389D02*
X96817282Y-115570770D01*
X96817282Y-115570770D02*
X96769663Y-115618389D01*
X96769663Y-115618389D02*
X96864901Y-115618389D01*
X97769663Y-114999342D02*
X97722044Y-115094580D01*
X97722044Y-115094580D02*
X97674424Y-115142199D01*
X97674424Y-115142199D02*
X97579186Y-115189818D01*
X97579186Y-115189818D02*
X97293472Y-115189818D01*
X97293472Y-115189818D02*
X97198234Y-115142199D01*
X97198234Y-115142199D02*
X97150615Y-115094580D01*
X97150615Y-115094580D02*
X97102996Y-114999342D01*
X97102996Y-114999342D02*
X97102996Y-114856485D01*
X97102996Y-114856485D02*
X97150615Y-114761247D01*
X97150615Y-114761247D02*
X97198234Y-114713628D01*
X97198234Y-114713628D02*
X97293472Y-114666009D01*
X97293472Y-114666009D02*
X97579186Y-114666009D01*
X97579186Y-114666009D02*
X97674424Y-114713628D01*
X97674424Y-114713628D02*
X97722044Y-114761247D01*
X97722044Y-114761247D02*
X97769663Y-114856485D01*
X97769663Y-114856485D02*
X97769663Y-114999342D01*
X97102996Y-114237437D02*
X97769663Y-114237437D01*
X97198234Y-114237437D02*
X97150615Y-114189818D01*
X97150615Y-114189818D02*
X97102996Y-114094580D01*
X97102996Y-114094580D02*
X97102996Y-113951723D01*
X97102996Y-113951723D02*
X97150615Y-113856485D01*
X97150615Y-113856485D02*
X97245853Y-113808866D01*
X97245853Y-113808866D02*
X97769663Y-113808866D01*
X97769663Y-112046961D02*
X97769663Y-112618389D01*
X97769663Y-112332675D02*
X96769663Y-112332675D01*
X96769663Y-112332675D02*
X96912520Y-112427913D01*
X96912520Y-112427913D02*
X97007758Y-112523151D01*
X97007758Y-112523151D02*
X97055377Y-112618389D01*
X97674424Y-111618389D02*
X97722044Y-111570770D01*
X97722044Y-111570770D02*
X97769663Y-111618389D01*
X97769663Y-111618389D02*
X97722044Y-111666008D01*
X97722044Y-111666008D02*
X97674424Y-111618389D01*
X97674424Y-111618389D02*
X97769663Y-111618389D01*
X96769663Y-110951723D02*
X96769663Y-110856485D01*
X96769663Y-110856485D02*
X96817282Y-110761247D01*
X96817282Y-110761247D02*
X96864901Y-110713628D01*
X96864901Y-110713628D02*
X96960139Y-110666009D01*
X96960139Y-110666009D02*
X97150615Y-110618390D01*
X97150615Y-110618390D02*
X97388710Y-110618390D01*
X97388710Y-110618390D02*
X97579186Y-110666009D01*
X97579186Y-110666009D02*
X97674424Y-110713628D01*
X97674424Y-110713628D02*
X97722044Y-110761247D01*
X97722044Y-110761247D02*
X97769663Y-110856485D01*
X97769663Y-110856485D02*
X97769663Y-110951723D01*
X97769663Y-110951723D02*
X97722044Y-111046961D01*
X97722044Y-111046961D02*
X97674424Y-111094580D01*
X97674424Y-111094580D02*
X97579186Y-111142199D01*
X97579186Y-111142199D02*
X97388710Y-111189818D01*
X97388710Y-111189818D02*
X97150615Y-111189818D01*
X97150615Y-111189818D02*
X96960139Y-111142199D01*
X96960139Y-111142199D02*
X96864901Y-111094580D01*
X96864901Y-111094580D02*
X96817282Y-111046961D01*
X96817282Y-111046961D02*
X96769663Y-110951723D01*
X121399715Y-92875403D02*
X121938463Y-93414151D01*
X118402997Y-89926070D02*
X118941745Y-90464818D01*
X118941745Y-89926070D02*
X118402997Y-90464818D01*
X141083301Y-115192386D02*
X141622049Y-114653638D01*
X141083301Y-114653638D02*
X141622049Y-115192386D01*
X144675403Y-111600284D02*
X145214151Y-111061536D01*
X138807613Y-90283301D02*
X139346361Y-90822049D01*
X139346361Y-90283301D02*
X138807613Y-90822049D01*
X142399715Y-93875403D02*
X142938463Y-94414151D01*
X163716698Y-88007613D02*
X163177950Y-88546361D01*
X163716698Y-88546361D02*
X163177950Y-88007613D01*
X160124596Y-91599715D02*
X159585848Y-92138463D01*
X186472002Y-113548929D02*
X185933254Y-113010181D01*
X185933254Y-113548929D02*
X186472002Y-113010181D01*
X183400284Y-110324596D02*
X182861536Y-109785848D01*
X119124596Y-112599715D02*
X118585848Y-113138463D01*
X122716698Y-109007613D02*
X122177950Y-109546361D01*
X122716698Y-109546361D02*
X122177950Y-109007613D01*
X182476069Y-93772002D02*
X183014817Y-93233254D01*
X182476069Y-93233254D02*
X183014817Y-93772002D01*
X185675403Y-90600284D02*
X186214151Y-90061536D01*
X162400284Y-109324596D02*
X161861536Y-108785848D01*
X165992386Y-112916698D02*
X165453638Y-112377950D01*
X165453638Y-112916698D02*
X165992386Y-112377950D01*
%TO.C,TP7*%
X153200000Y-112700000D02*
G75*
G03*
X153200000Y-112700000I-1200000J0D01*
G01*
%TO.C,Q8*%
X113150000Y-123510000D02*
X107140000Y-123510000D01*
X110900000Y-116690000D02*
X107140000Y-116690000D01*
X107140000Y-123510000D02*
X107140000Y-122250000D01*
X107140000Y-116690000D02*
X107140000Y-117950000D01*
%TO.C,R73*%
X196590835Y-72680282D02*
X196269718Y-72359165D01*
X197630282Y-71640835D02*
X197309165Y-71319718D01*
%TO.C,C35*%
X145926248Y-104365000D02*
X146448752Y-104365000D01*
X145926248Y-105835000D02*
X146448752Y-105835000D01*
%TO.C,R57*%
X160172936Y-123265000D02*
X160627064Y-123265000D01*
X160172936Y-124735000D02*
X160627064Y-124735000D01*
%TO.C,R51*%
X193156384Y-101394320D02*
X193156384Y-101848448D01*
X191686384Y-101394320D02*
X191686384Y-101848448D01*
%TO.C,C4*%
X164290000Y-136900000D02*
X164290000Y-135900000D01*
X163790000Y-136400000D02*
X164790000Y-136400000D01*
X163604437Y-135660000D02*
X165290000Y-135660000D01*
X163604437Y-135660000D02*
X162540000Y-134595563D01*
X169995563Y-135660000D02*
X168310000Y-135660000D01*
X169995563Y-135660000D02*
X171060000Y-134595563D01*
X162540000Y-134595563D02*
X162540000Y-127140000D01*
X171060000Y-134595563D02*
X171060000Y-127140000D01*
X162540000Y-127140000D02*
X165290000Y-127140000D01*
X171060000Y-127140000D02*
X168310000Y-127140000D01*
%TO.C,D34*%
X185991384Y-101321384D02*
X185991384Y-101051384D01*
X185991384Y-101051384D02*
X188821384Y-101051384D01*
X185991384Y-94691384D02*
X187091384Y-94691384D01*
X185991384Y-94421384D02*
X185991384Y-94691384D01*
X179571384Y-101321384D02*
X185991384Y-101321384D01*
X179571384Y-94421384D02*
X185991384Y-94421384D01*
%TO.C,C30*%
X115135000Y-97588748D02*
X115135000Y-98111252D01*
X113665000Y-97588748D02*
X113665000Y-98111252D01*
%TO.C,R71*%
X106040835Y-127080282D02*
X105719718Y-126759165D01*
X107080282Y-126040835D02*
X106759165Y-125719718D01*
%TO.C,Q1*%
X191150000Y-109790000D02*
X197160000Y-109790000D01*
X193400000Y-116610000D02*
X197160000Y-116610000D01*
X197160000Y-109790000D02*
X197160000Y-111050000D01*
X197160000Y-116610000D02*
X197160000Y-115350000D01*
%TO.C,J1*%
X146910000Y-42340000D02*
X146910000Y-45950000D01*
X137790000Y-42340000D02*
X146910000Y-42340000D01*
X137790000Y-42340000D02*
X137790000Y-45950000D01*
X145350000Y-45650000D02*
X145350000Y-50450000D01*
X139350000Y-45650000D02*
X139350000Y-50450000D01*
X137790000Y-45650000D02*
X146910000Y-45650000D01*
X149610000Y-46190000D02*
X147710000Y-46190000D01*
X149610000Y-47530000D02*
X149610000Y-46190000D01*
X146910000Y-48950000D02*
X146910000Y-51950000D01*
X137790000Y-48950000D02*
X137790000Y-51950000D01*
X146910000Y-54950000D02*
X146910000Y-57260000D01*
X137790000Y-54950000D02*
X137790000Y-57260000D01*
X137790000Y-57260000D02*
X146910000Y-57260000D01*
X139350000Y-50450000D02*
G75*
G03*
X145350000Y-50450000I3000000J0D01*
G01*
%TO.C,C23*%
X168490000Y-96500000D02*
X168490000Y-95500000D01*
X167990000Y-96000000D02*
X168990000Y-96000000D01*
X167804437Y-95260000D02*
X169490000Y-95260000D01*
X167804437Y-95260000D02*
X166740000Y-94195563D01*
X174195563Y-95260000D02*
X172510000Y-95260000D01*
X174195563Y-95260000D02*
X175260000Y-94195563D01*
X166740000Y-94195563D02*
X166740000Y-86740000D01*
X175260000Y-94195563D02*
X175260000Y-86740000D01*
X166740000Y-86740000D02*
X169490000Y-86740000D01*
X175260000Y-86740000D02*
X172510000Y-86740000D01*
%TO.C,Q14*%
X117787904Y-66610372D02*
X113538192Y-62360660D01*
X121019382Y-60196913D02*
X118360660Y-57538192D01*
X113538192Y-62360660D02*
X114429146Y-61469706D01*
X118360660Y-57538192D02*
X117469706Y-58429146D01*
%TO.C,D38*%
X197494041Y-128563604D02*
X196136396Y-127205959D01*
X196136396Y-127205959D02*
X194114071Y-129228284D01*
X195471716Y-130585929D02*
X197494041Y-128563604D01*
%TO.C,R61*%
X206177064Y-84310000D02*
X205722936Y-84310000D01*
X206177064Y-82840000D02*
X205722936Y-82840000D01*
%TO.C,R6*%
X179886162Y-125744485D02*
X180207279Y-125423368D01*
X180925609Y-126783932D02*
X181246726Y-126462815D01*
%TO.C,R46*%
X206152064Y-88335000D02*
X205697936Y-88335000D01*
X206152064Y-86865000D02*
X205697936Y-86865000D01*
%TO.C,D43*%
X109936396Y-131194041D02*
X111294041Y-129836396D01*
X111294041Y-129836396D02*
X109271716Y-127814071D01*
X107914071Y-129171716D02*
X109936396Y-131194041D01*
%TO.C,Q13*%
X118930000Y-101530000D02*
X118930000Y-101800000D01*
X118930000Y-101800000D02*
X116100000Y-101800000D01*
X118930000Y-108160000D02*
X117830000Y-108160000D01*
X118930000Y-108430000D02*
X118930000Y-108160000D01*
X125350000Y-101530000D02*
X118930000Y-101530000D01*
X125350000Y-108430000D02*
X118930000Y-108430000D01*
%TO.C,R39*%
X131127064Y-64835000D02*
X130672936Y-64835000D01*
X131127064Y-63365000D02*
X130672936Y-63365000D01*
%TO.C,R8*%
X181286162Y-127144485D02*
X181607279Y-126823368D01*
X182325609Y-128183932D02*
X182646726Y-127862815D01*
%TO.C,R56*%
X162165000Y-58427064D02*
X162165000Y-57972936D01*
X163635000Y-58427064D02*
X163635000Y-57972936D01*
%TO.C,R34*%
X163672936Y-143465000D02*
X164127064Y-143465000D01*
X163672936Y-144935000D02*
X164127064Y-144935000D01*
%TO.C,R15*%
X164772936Y-105965000D02*
X165227064Y-105965000D01*
X164772936Y-107435000D02*
X165227064Y-107435000D01*
%TO.C,Q5*%
X204450000Y-107360000D02*
X198440000Y-107360000D01*
X202200000Y-100540000D02*
X198440000Y-100540000D01*
X198440000Y-107360000D02*
X198440000Y-106100000D01*
X198440000Y-100540000D02*
X198440000Y-101800000D01*
%TO.C,R31*%
X124427636Y-127651346D02*
X124106519Y-127330229D01*
X125467083Y-126611899D02*
X125145966Y-126290782D01*
%TO.C,D1*%
X190485786Y-109795278D02*
X187185786Y-109795278D01*
X190485786Y-109795278D02*
X190485786Y-116805278D01*
X187185786Y-109795278D02*
X187185786Y-116805278D01*
%TO.C,C29*%
X190885000Y-98801248D02*
X190885000Y-99323752D01*
X189415000Y-98801248D02*
X189415000Y-99323752D01*
%TO.C,D35*%
X118905000Y-94225000D02*
X118905000Y-94495000D01*
X118905000Y-94495000D02*
X116075000Y-94495000D01*
X118905000Y-100855000D02*
X117805000Y-100855000D01*
X118905000Y-101125000D02*
X118905000Y-100855000D01*
X125325000Y-94225000D02*
X118905000Y-94225000D01*
X125325000Y-101125000D02*
X118905000Y-101125000D01*
%TO.C,TP6*%
X165325000Y-98725000D02*
G75*
G03*
X165325000Y-98725000I-1200000J0D01*
G01*
%TO.C,D36*%
X107305959Y-74636396D02*
X108663604Y-75994041D01*
X108663604Y-75994041D02*
X110685929Y-73971716D01*
X109328284Y-72614071D02*
X107305959Y-74636396D01*
%TO.C,R12*%
X151635000Y-46047936D02*
X151635000Y-46502064D01*
X150165000Y-46047936D02*
X150165000Y-46502064D01*
%TO.C,TP14*%
X123400000Y-83000000D02*
G75*
G03*
X123400000Y-83000000I-1200000J0D01*
G01*
%TO.C,C32*%
X151885000Y-50838748D02*
X151885000Y-51361252D01*
X150415000Y-50838748D02*
X150415000Y-51361252D01*
%TO.C,RV2*%
X133080000Y-149220000D02*
X134360000Y-149220000D01*
X133080000Y-149220000D02*
X133080000Y-144380000D01*
X133460000Y-149220000D02*
X133460000Y-149220000D01*
X133460000Y-149220000D02*
X134360000Y-149220000D01*
X133460000Y-149220000D02*
X134360000Y-149220000D01*
X136840000Y-149220000D02*
X138120000Y-149220000D01*
X138120000Y-149220000D02*
X138120000Y-144380000D01*
X133080000Y-144380000D02*
X133441000Y-144380000D01*
X135340000Y-144380000D02*
X135860000Y-144380000D01*
X137759000Y-144380000D02*
X138120000Y-144380000D01*
%TO.C,C19*%
X109690000Y-104618752D02*
X109690000Y-104096248D01*
X111160000Y-104618752D02*
X111160000Y-104096248D01*
%TO.C,D5*%
X189906430Y-73990000D02*
X186606430Y-73990000D01*
X189906430Y-73990000D02*
X189906430Y-81000000D01*
X186606430Y-73990000D02*
X186606430Y-81000000D01*
%TO.C,R33*%
X173095224Y-136397665D02*
X172774107Y-136718782D01*
X172055777Y-135358218D02*
X171734660Y-135679335D01*
%TO.C,R21*%
X140727064Y-145135000D02*
X140272936Y-145135000D01*
X140727064Y-143665000D02*
X140272936Y-143665000D01*
%TO.C,U13*%
X191200000Y-106960000D02*
X193000000Y-106960000D01*
X191200000Y-106960000D02*
X190400000Y-106960000D01*
X191200000Y-103840000D02*
X192000000Y-103840000D01*
X191200000Y-103840000D02*
X190400000Y-103840000D01*
%TO.C,C3*%
X160310000Y-125950000D02*
X160310000Y-126950000D01*
X160810000Y-126450000D02*
X159810000Y-126450000D01*
X160995563Y-127190000D02*
X159310000Y-127190000D01*
X160995563Y-127190000D02*
X162060000Y-128254437D01*
X154604437Y-127190000D02*
X156290000Y-127190000D01*
X154604437Y-127190000D02*
X153540000Y-128254437D01*
X162060000Y-128254437D02*
X162060000Y-135710000D01*
X153540000Y-128254437D02*
X153540000Y-135710000D01*
X162060000Y-135710000D02*
X159310000Y-135710000D01*
X153540000Y-135710000D02*
X156290000Y-135710000D01*
%TO.C,R68*%
X178235000Y-85272936D02*
X178235000Y-85727064D01*
X176765000Y-85272936D02*
X176765000Y-85727064D01*
%TO.C,U9*%
X153360000Y-58400000D02*
X153360000Y-64410000D01*
X146540000Y-60650000D02*
X146540000Y-64410000D01*
X153360000Y-64410000D02*
X152100000Y-64410000D01*
X146540000Y-64410000D02*
X147800000Y-64410000D01*
%TO.C,R72*%
X138435000Y-155172936D02*
X138435000Y-155627064D01*
X136965000Y-155172936D02*
X136965000Y-155627064D01*
%TO.C,U3*%
X142030000Y-98750000D02*
X142030000Y-99890000D01*
X142260000Y-99890000D02*
X142030000Y-99890000D01*
X142260000Y-99890000D02*
X142260000Y-102610000D01*
X137540000Y-99890000D02*
X137770000Y-99890000D01*
X142260000Y-102610000D02*
X140950000Y-102610000D01*
X138850000Y-102610000D02*
X137540000Y-102610000D01*
X137540000Y-102610000D02*
X137540000Y-99890000D01*
%TO.C,C15*%
X150635000Y-69876248D02*
X150635000Y-70398752D01*
X149165000Y-69876248D02*
X149165000Y-70398752D01*
%TO.C,R42*%
X139190000Y-155527064D02*
X139190000Y-155072936D01*
X140660000Y-155527064D02*
X140660000Y-155072936D01*
%TO.C,R41*%
X151590000Y-74352064D02*
X151590000Y-73897936D01*
X153060000Y-74352064D02*
X153060000Y-73897936D01*
%TO.C,R9*%
X163672936Y-145465000D02*
X164127064Y-145465000D01*
X163672936Y-146935000D02*
X164127064Y-146935000D01*
%TO.C,R49*%
X157665000Y-74327064D02*
X157665000Y-73872936D01*
X159135000Y-74327064D02*
X159135000Y-73872936D01*
%TO.C,R27*%
X173972936Y-111965000D02*
X174427064Y-111965000D01*
X173972936Y-113435000D02*
X174427064Y-113435000D01*
%TO.C,R63*%
X130672936Y-69615000D02*
X131127064Y-69615000D01*
X130672936Y-71085000D02*
X131127064Y-71085000D01*
%TO.C,C6*%
X148910000Y-125950000D02*
X148910000Y-126950000D01*
X149410000Y-126450000D02*
X148410000Y-126450000D01*
X149595563Y-127190000D02*
X147910000Y-127190000D01*
X149595563Y-127190000D02*
X150660000Y-128254437D01*
X143204437Y-127190000D02*
X144890000Y-127190000D01*
X143204437Y-127190000D02*
X142140000Y-128254437D01*
X150660000Y-128254437D02*
X150660000Y-135710000D01*
X142140000Y-128254437D02*
X142140000Y-135710000D01*
X150660000Y-135710000D02*
X147910000Y-135710000D01*
X142140000Y-135710000D02*
X144890000Y-135710000D01*
%TO.C,D33*%
X122705959Y-59136396D02*
X124063604Y-60494041D01*
X124063604Y-60494041D02*
X126085929Y-58471716D01*
X124728284Y-57114071D02*
X122705959Y-59136396D01*
%TO.C,R23*%
X127899277Y-141426573D02*
X128220394Y-141747690D01*
X126859830Y-142466020D02*
X127180947Y-142787137D01*
%TO.C,F1*%
X128421076Y-55289381D02*
X126460619Y-53328924D01*
X130839381Y-52871076D02*
X128878924Y-50910619D01*
%TO.C,R67*%
X180727064Y-86835000D02*
X180272936Y-86835000D01*
X180727064Y-85365000D02*
X180272936Y-85365000D01*
%TO.C,Q9*%
X113149999Y-116310000D02*
X107139999Y-116310000D01*
X110899999Y-109490000D02*
X107139999Y-109490000D01*
X107139999Y-116310000D02*
X107139999Y-115050000D01*
X107139999Y-109490000D02*
X107139999Y-110750000D01*
%TO.C,R16*%
X165227064Y-109535000D02*
X164772936Y-109535000D01*
X165227064Y-108065000D02*
X164772936Y-108065000D01*
%TO.C,R55*%
X155627064Y-63535000D02*
X155172936Y-63535000D01*
X155627064Y-62065000D02*
X155172936Y-62065000D01*
%TO.C,TP21*%
X162900000Y-137400000D02*
G75*
G03*
X162900000Y-137400000I-1200000J0D01*
G01*
%TO.C,R25*%
X140727064Y-147235000D02*
X140272936Y-147235000D01*
X140727064Y-145765000D02*
X140272936Y-145765000D01*
%TO.C,R64*%
X164665000Y-58427064D02*
X164665000Y-57972936D01*
X166135000Y-58427064D02*
X166135000Y-57972936D01*
%TO.C,R24*%
X129262611Y-132012155D02*
X129583728Y-131691038D01*
X130302058Y-133051602D02*
X130623175Y-132730485D01*
%TO.C,R70*%
X160635000Y-146772936D02*
X160635000Y-147227064D01*
X159165000Y-146772936D02*
X159165000Y-147227064D01*
%TO.C,J4*%
X124924118Y-50311953D02*
X123467478Y-51768593D01*
X123714966Y-49102800D02*
X124924118Y-50311953D01*
X123467478Y-51768593D02*
X123884671Y-52185786D01*
X119465254Y-55770817D02*
X120921894Y-54314177D01*
X118256101Y-54561665D02*
X119465254Y-55770817D01*
%TO.C,R1*%
X176003817Y-139895459D02*
X176324934Y-139574342D01*
X177043264Y-140934906D02*
X177364381Y-140613789D01*
%TO.C,D50*%
X182438604Y-57730959D02*
X181080959Y-59088604D01*
X181080959Y-59088604D02*
X183103284Y-61110929D01*
X184460929Y-59753284D02*
X182438604Y-57730959D01*
%TO.C,C11*%
X182638748Y-62365000D02*
X183161252Y-62365000D01*
X182638748Y-63835000D02*
X183161252Y-63835000D01*
%TO.C,R65*%
X122187389Y-65452058D02*
X121866272Y-65773175D01*
X121147942Y-64412611D02*
X120826825Y-64733728D01*
%TO.C,C16*%
X144661252Y-60635000D02*
X144138748Y-60635000D01*
X144661252Y-59165000D02*
X144138748Y-59165000D01*
%TO.C,R35*%
X153785000Y-46097936D02*
X153785000Y-46552064D01*
X152315000Y-46097936D02*
X152315000Y-46552064D01*
%TO.C,TP20*%
X142700000Y-141100000D02*
G75*
G03*
X142700000Y-141100000I-1200000J0D01*
G01*
%TO.C,U8*%
X140875000Y-73200000D02*
X140875000Y-72625000D01*
X140875000Y-73200000D02*
X135125000Y-73200000D01*
X140875000Y-72625000D02*
X142475000Y-72625000D01*
X140875000Y-62550000D02*
X140875000Y-63200000D01*
X140875000Y-62550000D02*
X135125000Y-62550000D01*
X135125000Y-73200000D02*
X135125000Y-72550000D01*
X135125000Y-62550000D02*
X135125000Y-63200000D01*
%TO.C,D47*%
X203360000Y-110590000D02*
X201440000Y-110590000D01*
X201440000Y-110590000D02*
X201440000Y-113450000D01*
X203360000Y-113450000D02*
X203360000Y-110590000D01*
%TO.C,C24*%
X129206620Y-131318613D02*
X128837153Y-131688080D01*
X128167173Y-130279166D02*
X127797706Y-130648633D01*
%TO.C,R37*%
X100547936Y-106240000D02*
X101002064Y-106240000D01*
X100547936Y-107710000D02*
X101002064Y-107710000D01*
%TO.C,C22*%
X131290000Y-96500000D02*
X131290000Y-95500000D01*
X130790000Y-96000000D02*
X131790000Y-96000000D01*
X130604437Y-95260000D02*
X132290000Y-95260000D01*
X130604437Y-95260000D02*
X129540000Y-94195563D01*
X136995563Y-95260000D02*
X135310000Y-95260000D01*
X136995563Y-95260000D02*
X138060000Y-94195563D01*
X129540000Y-94195563D02*
X129540000Y-86740000D01*
X138060000Y-94195563D02*
X138060000Y-86740000D01*
X129540000Y-86740000D02*
X132290000Y-86740000D01*
X138060000Y-86740000D02*
X135310000Y-86740000D01*
%TO.C,U6*%
X172275000Y-72025000D02*
X172275000Y-71800000D01*
X172275000Y-72025000D02*
X171950000Y-72025000D01*
X172275000Y-71800000D02*
X173700000Y-71800000D01*
X172275000Y-64775000D02*
X172275000Y-65100000D01*
X172275000Y-64775000D02*
X171950000Y-64775000D01*
X165025000Y-72025000D02*
X165350000Y-72025000D01*
X165025000Y-72025000D02*
X165025000Y-71700000D01*
X165025000Y-64775000D02*
X165350000Y-64775000D01*
X165025000Y-64775000D02*
X165025000Y-65100000D01*
%TO.C,D41*%
X101440000Y-92560000D02*
X103360000Y-92560000D01*
X103360000Y-92560000D02*
X103360000Y-89700000D01*
X101440000Y-89700000D02*
X101440000Y-92560000D01*
%TO.C,Q7*%
X190550000Y-83490000D02*
X196560000Y-83490000D01*
X192800000Y-90310000D02*
X196560000Y-90310000D01*
X196560000Y-83490000D02*
X196560000Y-84750000D01*
X196560000Y-90310000D02*
X196560000Y-89050000D01*
%TO.C,J2*%
X171905000Y-42478000D02*
X156545000Y-42478000D01*
X171905000Y-42478000D02*
X171905000Y-51108000D01*
X171785000Y-42478000D02*
X171785000Y-51108000D01*
X171666905Y-42478000D02*
X171666905Y-51108000D01*
X171548810Y-42478000D02*
X171548810Y-51108000D01*
X171430715Y-42478000D02*
X171430715Y-51108000D01*
X171312620Y-42478000D02*
X171312620Y-51108000D01*
X171194525Y-42478000D02*
X171194525Y-51108000D01*
X171076430Y-42478000D02*
X171076430Y-51108000D01*
X170958335Y-42478000D02*
X170958335Y-51108000D01*
X170840240Y-42478000D02*
X170840240Y-51108000D01*
X170722145Y-42478000D02*
X170722145Y-51108000D01*
X170604050Y-42478000D02*
X170604050Y-51108000D01*
X170485955Y-42478000D02*
X170485955Y-51108000D01*
X170367860Y-42478000D02*
X170367860Y-51108000D01*
X170249765Y-42478000D02*
X170249765Y-51108000D01*
X170131670Y-42478000D02*
X170131670Y-51108000D01*
X170013575Y-42478000D02*
X170013575Y-51108000D01*
X169895480Y-42478000D02*
X169895480Y-51108000D01*
X169777385Y-42478000D02*
X169777385Y-51108000D01*
X169659290Y-42478000D02*
X169659290Y-51108000D01*
X169541195Y-42478000D02*
X169541195Y-51108000D01*
X169423100Y-42478000D02*
X169423100Y-51108000D01*
X169305000Y-42478000D02*
X169305000Y-51108000D01*
X166765000Y-42478000D02*
X166765000Y-51108000D01*
X164225000Y-42478000D02*
X164225000Y-51108000D01*
X161685000Y-42478000D02*
X161685000Y-51108000D01*
X159145000Y-42478000D02*
X159145000Y-51108000D01*
X156545000Y-42478000D02*
X156545000Y-51108000D01*
X171905000Y-51108000D02*
X156545000Y-51108000D01*
X170935000Y-51108000D02*
X170935000Y-51458000D01*
X170215000Y-51108000D02*
X170215000Y-51458000D01*
X168395000Y-51108000D02*
X168395000Y-51518000D01*
X167675000Y-51108000D02*
X167675000Y-51518000D01*
X165855000Y-51108000D02*
X165855000Y-51518000D01*
X165135000Y-51108000D02*
X165135000Y-51518000D01*
X163315000Y-51108000D02*
X163315000Y-51518000D01*
X162595000Y-51108000D02*
X162595000Y-51518000D01*
X160775000Y-51108000D02*
X160775000Y-51518000D01*
X160055000Y-51108000D02*
X160055000Y-51518000D01*
X158235000Y-51108000D02*
X158235000Y-51518000D01*
X157515000Y-51108000D02*
X157515000Y-51518000D01*
X171434800Y-54810800D02*
X171434800Y-55920800D01*
X170324800Y-55920800D02*
X171434800Y-55920800D01*
%TO.C,D2*%
X190485786Y-119095278D02*
X187185786Y-119095278D01*
X190485786Y-119095278D02*
X190485786Y-126105278D01*
X187185786Y-119095278D02*
X187185786Y-126105278D01*
%TO.C,C10*%
X143523752Y-96985000D02*
X143001248Y-96985000D01*
X143523752Y-95515000D02*
X143001248Y-95515000D01*
%TO.C,Q10*%
X112687904Y-71710372D02*
X108438192Y-67460660D01*
X115919382Y-65296913D02*
X113260660Y-62638192D01*
X108438192Y-67460660D02*
X109329146Y-66569706D01*
X113260660Y-62638192D02*
X112369706Y-63529146D01*
%TO.C,C31*%
X154135000Y-50838748D02*
X154135000Y-51361252D01*
X152665000Y-50838748D02*
X152665000Y-51361252D01*
%TO.C,D44*%
X125411612Y-146569257D02*
X126769257Y-145211612D01*
X126769257Y-145211612D02*
X124746932Y-143189287D01*
X123389287Y-144546932D02*
X125411612Y-146569257D01*
%TO.C,TP23*%
X162300000Y-141900000D02*
G75*
G03*
X162300000Y-141900000I-1200000J0D01*
G01*
%TO.C,C18*%
X128619336Y-141397099D02*
X128249869Y-141027632D01*
X129658783Y-140357652D02*
X129289316Y-139988185D01*
%TO.C,C20*%
X195156384Y-105572632D02*
X195156384Y-106095136D01*
X193686384Y-105572632D02*
X193686384Y-106095136D01*
%TO.C,TP1*%
X146200000Y-84800000D02*
G75*
G03*
X146200000Y-84800000I-1200000J0D01*
G01*
%TO.C,R28*%
X119489112Y-131947635D02*
X119810229Y-132268752D01*
X118449665Y-132987082D02*
X118770782Y-133308199D01*
%TO.C,C26*%
X120879151Y-130509247D02*
X121248618Y-130878714D01*
X119839704Y-131548694D02*
X120209171Y-131918161D01*
%TO.C,R74*%
X182852064Y-57010000D02*
X182397936Y-57010000D01*
X182852064Y-55540000D02*
X182397936Y-55540000D01*
%TO.C,R66*%
X180727064Y-84735000D02*
X180272936Y-84735000D01*
X180727064Y-83265000D02*
X180272936Y-83265000D01*
%TO.C,U14*%
X113675000Y-103335000D02*
X111875000Y-103335000D01*
X113675000Y-103335000D02*
X114475000Y-103335000D01*
X113675000Y-106455000D02*
X112875000Y-106455000D01*
X113675000Y-106455000D02*
X114475000Y-106455000D01*
%TO.C,R69*%
X107472936Y-94165000D02*
X107927064Y-94165000D01*
X107472936Y-95635000D02*
X107927064Y-95635000D01*
%TO.C,R19*%
X133582649Y-135796235D02*
X133903766Y-136117352D01*
X132543202Y-136835682D02*
X132864319Y-137156799D01*
%TO.C,D32*%
X172050000Y-56490000D02*
X170750000Y-56490000D01*
X170750000Y-59610000D02*
X172750000Y-59610000D01*
%TO.C,R45*%
X141240000Y-155502064D02*
X141240000Y-155047936D01*
X142710000Y-155502064D02*
X142710000Y-155047936D01*
%TO.C,D9*%
X141910000Y-110250000D02*
X141910000Y-106950000D01*
X141910000Y-110250000D02*
X134900000Y-110250000D01*
X141910000Y-106950000D02*
X134900000Y-106950000D01*
%TO.C,TP16*%
X185300000Y-121400000D02*
G75*
G03*
X185300000Y-121400000I-1200000J0D01*
G01*
%TO.C,R0*%
X107472936Y-96165000D02*
X107927064Y-96165000D01*
X107472936Y-97635000D02*
X107927064Y-97635000D01*
%TO.C,D29*%
X123562706Y-56456533D02*
X122643467Y-55537294D01*
X120437294Y-57743467D02*
X121851508Y-59157681D01*
%TO.C,C17*%
X145885000Y-63588748D02*
X145885000Y-64111252D01*
X144415000Y-63588748D02*
X144415000Y-64111252D01*
%TO.C,R50*%
X132105282Y-49884165D02*
X131784165Y-50205282D01*
X131065835Y-48844718D02*
X130744718Y-49165835D01*
%TO.C,R62*%
X130672936Y-67615000D02*
X131127064Y-67615000D01*
X130672936Y-69085000D02*
X131127064Y-69085000D01*
%TO.C,DS1*%
X105840000Y-98040000D02*
X105840000Y-99960000D01*
X105840000Y-99960000D02*
X108700000Y-99960000D01*
X108700000Y-98040000D02*
X105840000Y-98040000D01*
%TO.C,C2*%
X150386252Y-139135000D02*
X149863748Y-139135000D01*
X150386252Y-137665000D02*
X149863748Y-137665000D01*
%TO.C,C34*%
X155373752Y-109335000D02*
X154851248Y-109335000D01*
X155373752Y-107865000D02*
X154851248Y-107865000D01*
%TO.C,Q15*%
X156610000Y-145650001D02*
X156610000Y-151660001D01*
X149790000Y-147900001D02*
X149790000Y-151660001D01*
X156610000Y-151660001D02*
X155350000Y-151660001D01*
X149790000Y-151660001D02*
X151050000Y-151660001D01*
%TO.C,Q3*%
X113850000Y-93410000D02*
X107840000Y-93410000D01*
X111600000Y-86590000D02*
X107840000Y-86590000D01*
X107840000Y-93410000D02*
X107840000Y-92150000D01*
X107840000Y-86590000D02*
X107840000Y-87850000D01*
%TO.C,D4*%
X114450000Y-84209999D02*
X117750000Y-84209999D01*
X114450000Y-84209999D02*
X114450000Y-77199999D01*
X117750000Y-84209999D02*
X117750000Y-77199999D01*
%TO.C,D31*%
X157750000Y-67710000D02*
X159050000Y-67710000D01*
X159050000Y-64590000D02*
X157050000Y-64590000D01*
%TO.C,R98*%
X177418032Y-141309671D02*
X177739149Y-140988554D01*
X178457479Y-142349118D02*
X178778596Y-142028001D01*
%TO.C,D40*%
X125760000Y-71660000D02*
X125760000Y-69740000D01*
X125760000Y-69740000D02*
X122900000Y-69740000D01*
X122900000Y-71660000D02*
X125760000Y-71660000D01*
%TO.C,R58*%
X140027064Y-124735000D02*
X139572936Y-124735000D01*
X140027064Y-123265000D02*
X139572936Y-123265000D01*
%TO.C,D30*%
X168800000Y-56490000D02*
X167500000Y-56490000D01*
X167500000Y-59610000D02*
X169500000Y-59610000D01*
%TO.C,D11*%
X202550000Y-79490000D02*
X199250000Y-79490000D01*
X202550000Y-79490000D02*
X202550000Y-86500000D01*
X199250000Y-79490000D02*
X199250000Y-86500000D01*
%TO.C,D46*%
X165235000Y-152460000D02*
X165235000Y-150540000D01*
X165235000Y-150540000D02*
X162375000Y-150540000D01*
X162375000Y-152460000D02*
X165235000Y-152460000D01*
%TO.C,TP22*%
X139900000Y-139600000D02*
G75*
G03*
X139900000Y-139600000I-1200000J0D01*
G01*
%TO.C,R11*%
X175565835Y-131330282D02*
X175244718Y-131009165D01*
X176605282Y-130290835D02*
X176284165Y-129969718D01*
%TO.C,U5*%
X171600000Y-106240000D02*
X168150000Y-106240000D01*
X171600000Y-106240000D02*
X173550000Y-106240000D01*
X171600000Y-111360000D02*
X169650000Y-111360000D01*
X171600000Y-111360000D02*
X173550000Y-111360000D01*
%TO.C,C12*%
X182638748Y-64365000D02*
X183161252Y-64365000D01*
X182638748Y-65835000D02*
X183161252Y-65835000D01*
%TO.C,Q4*%
X113850000Y-85960000D02*
X107840000Y-85960000D01*
X111600000Y-79140000D02*
X107840000Y-79140000D01*
X107840000Y-85960000D02*
X107840000Y-84700000D01*
X107840000Y-79140000D02*
X107840000Y-80400000D01*
%TO.C,Q2*%
X191150000Y-117352237D02*
X197160000Y-117352237D01*
X193400000Y-124172237D02*
X197160000Y-124172237D01*
X197160000Y-117352237D02*
X197160000Y-118612237D01*
X197160000Y-124172237D02*
X197160000Y-122912237D01*
%TO.C,R18*%
X149935436Y-139665000D02*
X150389564Y-139665000D01*
X149935436Y-141135000D02*
X150389564Y-141135000D01*
%TO.C,Q11*%
X182060000Y-80962500D02*
X182060000Y-79287500D01*
X182060000Y-80962500D02*
X182060000Y-81612500D01*
X178940000Y-80962500D02*
X178940000Y-80312500D01*
X178940000Y-80962500D02*
X178940000Y-81612500D01*
%TO.C,R60*%
X167927064Y-154635000D02*
X167472936Y-154635000D01*
X167927064Y-153165000D02*
X167472936Y-153165000D01*
%TO.C,R43*%
X206177064Y-86310000D02*
X205722936Y-86310000D01*
X206177064Y-84840000D02*
X205722936Y-84840000D01*
%TO.C,R48*%
X155665000Y-74327064D02*
X155665000Y-73872936D01*
X157135000Y-74327064D02*
X157135000Y-73872936D01*
%TO.C,C14*%
X131198752Y-66835000D02*
X130676248Y-66835000D01*
X131198752Y-65365000D02*
X130676248Y-65365000D01*
%TO.C,Q6*%
X190550000Y-76240000D02*
X196560000Y-76240000D01*
X192800000Y-83060000D02*
X196560000Y-83060000D01*
X196560000Y-76240000D02*
X196560000Y-77500000D01*
X196560000Y-83060000D02*
X196560000Y-81800000D01*
%TO.C,R2*%
X108910000Y-104167936D02*
X108910000Y-104622064D01*
X107440000Y-104167936D02*
X107440000Y-104622064D01*
%TO.C,D39*%
X125760000Y-69310000D02*
X125760000Y-67390000D01*
X125760000Y-67390000D02*
X122900000Y-67390000D01*
X122900000Y-69310000D02*
X125760000Y-69310000D01*
%TO.C,R40*%
X180727064Y-78535000D02*
X180272936Y-78535000D01*
X180727064Y-77065000D02*
X180272936Y-77065000D01*
%TO.C,R29*%
X122317540Y-129119208D02*
X122638657Y-129440325D01*
X121278093Y-130158655D02*
X121599210Y-130479772D01*
%TO.C,R4*%
X166622936Y-138490000D02*
X167077064Y-138490000D01*
X166622936Y-139960000D02*
X167077064Y-139960000D01*
%TO.C,C25*%
X174784990Y-131379882D02*
X175154457Y-131749349D01*
X173745543Y-132419329D02*
X174115010Y-132788796D01*
%TO.C,R26*%
X154389564Y-141135000D02*
X153935436Y-141135000D01*
X154389564Y-139665000D02*
X153935436Y-139665000D01*
%TO.C,D45*%
X143460000Y-152560000D02*
X143460000Y-150640000D01*
X143460000Y-150640000D02*
X140600000Y-150640000D01*
X140600000Y-152560000D02*
X143460000Y-152560000D01*
%TO.C,R54*%
X143827064Y-124735000D02*
X143372936Y-124735000D01*
X143827064Y-123265000D02*
X143372936Y-123265000D01*
%TO.C,D37*%
X182018825Y-144038820D02*
X180661180Y-142681175D01*
X180661180Y-142681175D02*
X178638855Y-144703500D01*
X179996500Y-146061145D02*
X182018825Y-144038820D01*
%TO.C,C13*%
X162885000Y-67301248D02*
X162885000Y-67823752D01*
X161415000Y-67301248D02*
X161415000Y-67823752D01*
%TO.C,R32*%
X130727705Y-138598146D02*
X131048822Y-138919263D01*
X129688258Y-139637593D02*
X130009375Y-139958710D01*
%TO.C,R14*%
X156265000Y-143627064D02*
X156265000Y-143172936D01*
X157735000Y-143627064D02*
X157735000Y-143172936D01*
%TO.C,D7*%
X114750000Y-127310000D02*
X118050000Y-127310000D01*
X114750000Y-127310000D02*
X114750000Y-120300000D01*
X118050000Y-127310000D02*
X118050000Y-120300000D01*
%TO.C,C8*%
X128631387Y-146870834D02*
X128261920Y-146501367D01*
X129670834Y-145831387D02*
X129301367Y-145461920D01*
%TO.C,C9*%
X139201248Y-95515000D02*
X139723752Y-95515000D01*
X139201248Y-96985000D02*
X139723752Y-96985000D01*
%TO.C,RESET1*%
X189210000Y-72850000D02*
X182750000Y-72850000D01*
X189210000Y-72820000D02*
X189210000Y-72850000D01*
X189210000Y-70920000D02*
X189210000Y-68320000D01*
X189210000Y-66390000D02*
X189210000Y-66420000D01*
X189210000Y-66390000D02*
X182750000Y-66390000D01*
X182750000Y-72850000D02*
X182750000Y-72820000D01*
X182750000Y-70920000D02*
X182750000Y-68320000D01*
X182750000Y-66390000D02*
X182750000Y-66420000D01*
%TO.C,R10*%
X173148873Y-137093548D02*
X173469990Y-136772431D01*
X174188320Y-138132995D02*
X174509437Y-137811878D01*
%TO.C,Q18*%
X204449999Y-99860000D02*
X198439999Y-99860000D01*
X202199999Y-93040000D02*
X198439999Y-93040000D01*
X198439999Y-99860000D02*
X198439999Y-98600000D01*
X198439999Y-93040000D02*
X198439999Y-94300000D01*
%TO.C,C21*%
X185508167Y-130658228D02*
X185138700Y-131027695D01*
X184468720Y-129618781D02*
X184099253Y-129988248D01*
%TO.C,C1*%
X188301240Y-133522012D02*
X187931773Y-133891479D01*
X187261793Y-132482565D02*
X186892326Y-132852032D01*
%TO.C,D8*%
X114750000Y-118210000D02*
X118050000Y-118210000D01*
X114750000Y-118210000D02*
X114750000Y-111200000D01*
X118050000Y-118210000D02*
X118050000Y-111200000D01*
%TO.C,D42*%
X101440000Y-114260000D02*
X103360000Y-114260000D01*
X103360000Y-114260000D02*
X103360000Y-111400000D01*
X101440000Y-111400000D02*
X101440000Y-114260000D01*
%TO.C,R22*%
X185539485Y-131390577D02*
X185860602Y-131069460D01*
X186578932Y-132430024D02*
X186900049Y-132108907D01*
%TO.C,R47*%
X179127064Y-76335000D02*
X178672936Y-76335000D01*
X179127064Y-74865000D02*
X178672936Y-74865000D01*
%TO.C,RV1*%
X165880000Y-146920000D02*
X167160000Y-146920000D01*
X165880000Y-146920000D02*
X165880000Y-142080000D01*
X166260000Y-146920000D02*
X166260000Y-146920000D01*
X166260000Y-146920000D02*
X167160000Y-146920000D01*
X166260000Y-146920000D02*
X167160000Y-146920000D01*
X169640000Y-146920000D02*
X170920000Y-146920000D01*
X170920000Y-146920000D02*
X170920000Y-142080000D01*
X165880000Y-142080000D02*
X166241000Y-142080000D01*
X168140000Y-142080000D02*
X168660000Y-142080000D01*
X170559000Y-142080000D02*
X170920000Y-142080000D01*
%TO.C,R59*%
X163972936Y-123315000D02*
X164427064Y-123315000D01*
X163972936Y-124785000D02*
X164427064Y-124785000D01*
%TO.C,C7*%
X134890000Y-136850000D02*
X134890000Y-135850000D01*
X134390000Y-136350000D02*
X135390000Y-136350000D01*
X134204437Y-135610000D02*
X135890000Y-135610000D01*
X134204437Y-135610000D02*
X133140000Y-134545563D01*
X140595563Y-135610000D02*
X138910000Y-135610000D01*
X140595563Y-135610000D02*
X141660000Y-134545563D01*
X133140000Y-134545563D02*
X133140000Y-127090000D01*
X141660000Y-134545563D02*
X141660000Y-127090000D01*
X133140000Y-127090000D02*
X135890000Y-127090000D01*
X141660000Y-127090000D02*
X138910000Y-127090000D01*
%TO.C,R20*%
X132168435Y-137210448D02*
X132489552Y-137531565D01*
X131128988Y-138249895D02*
X131450105Y-138571012D01*
%TO.C,D10*%
X191450000Y-71235000D02*
X194750000Y-71235000D01*
X191450000Y-71235000D02*
X191450000Y-64225000D01*
X194750000Y-71235000D02*
X194750000Y-64225000D01*
%TO.C,C33*%
X157351248Y-103615000D02*
X157873752Y-103615000D01*
X157351248Y-105085000D02*
X157873752Y-105085000D01*
%TO.C,R53*%
X159665000Y-58427064D02*
X159665000Y-57972936D01*
X161135000Y-58427064D02*
X161135000Y-57972936D01*
%TO.C,R7*%
X148627500Y-143627064D02*
X148627500Y-143172936D01*
X150097500Y-143627064D02*
X150097500Y-143172936D01*
%TO.C,R17*%
X165165000Y-103927064D02*
X165165000Y-103472936D01*
X166635000Y-103927064D02*
X166635000Y-103472936D01*
%TO.C,R13*%
X175619718Y-144840835D02*
X175940835Y-144519718D01*
X176659165Y-145880282D02*
X176980282Y-145559165D01*
%TO.C,R52*%
X157165000Y-58427064D02*
X157165000Y-57972936D01*
X158635000Y-58427064D02*
X158635000Y-57972936D01*
%TO.C,Y3*%
X180700000Y-54025000D02*
X175600000Y-54025000D01*
X175600000Y-54025000D02*
X175600000Y-70000000D01*
X180700000Y-70000000D02*
X180700000Y-54025000D01*
%TO.C,R30*%
X123013423Y-129065558D02*
X122692306Y-128744441D01*
X124052870Y-128026111D02*
X123731753Y-127704994D01*
%TO.C,C27*%
X174538912Y-138531937D02*
X174908379Y-138162470D01*
X175578359Y-139571384D02*
X175947826Y-139201917D01*
%TO.C,U4*%
X154022500Y-141820000D02*
X150862500Y-141820000D01*
X154022500Y-141820000D02*
X154022500Y-142750000D01*
X154022500Y-144980000D02*
X152562500Y-144980000D01*
X154022500Y-144980000D02*
X154022500Y-144050000D01*
%TO.C,U2*%
X127594016Y-133391592D02*
X125154497Y-130952074D01*
X127594016Y-133391592D02*
X128972874Y-134770451D01*
X121321978Y-139663630D02*
X119943120Y-138284771D01*
X121321978Y-139663630D02*
X122700837Y-141042488D01*
%TO.C,C5*%
X153901248Y-137665000D02*
X154423752Y-137665000D01*
X153901248Y-139135000D02*
X154423752Y-139135000D01*
%TO.C,U1*%
X177649300Y-131886015D02*
X175209782Y-134325534D01*
X177649300Y-131886015D02*
X179028159Y-130507157D01*
X183921338Y-138158053D02*
X182542479Y-139536911D01*
X183921338Y-138158053D02*
X185300196Y-136779194D01*
%TO.C,R5*%
X182700377Y-128558697D02*
X183021494Y-128237580D01*
X183739824Y-129598144D02*
X184060941Y-129277027D01*
%TO.C,R38*%
X130672936Y-61365000D02*
X131127064Y-61365000D01*
X130672936Y-62835000D02*
X131127064Y-62835000D01*
%TO.C,D3*%
X114450000Y-93510001D02*
X117750000Y-93510001D01*
X114450000Y-93510001D02*
X114450000Y-86500001D01*
X117750000Y-93510001D02*
X117750000Y-86500001D01*
%TO.C,D28*%
X142310000Y-61250000D02*
X142310000Y-57950000D01*
X142310000Y-61250000D02*
X135300000Y-61250000D01*
X142310000Y-57950000D02*
X135300000Y-57950000D01*
%TO.C,TP8*%
X156900000Y-112700000D02*
G75*
G03*
X156900000Y-112700000I-1200000J0D01*
G01*
%TO.C,R44*%
X153640000Y-74352064D02*
X153640000Y-73897936D01*
X155110000Y-74352064D02*
X155110000Y-73897936D01*
%TO.C,D48*%
X203360000Y-88790000D02*
X201440000Y-88790000D01*
X201440000Y-88790000D02*
X201440000Y-91650000D01*
X203360000Y-91650000D02*
X203360000Y-88790000D01*
%TO.C,R3*%
X116661328Y-134753341D02*
X116982445Y-135074458D01*
X115621881Y-135792788D02*
X115942998Y-136113905D01*
%TO.C,R99*%
X118074898Y-133361849D02*
X118396015Y-133682966D01*
X117035451Y-134401296D02*
X117356568Y-134722413D01*
%TO.C,TP13*%
X113800000Y-127100000D02*
G75*
G03*
X113800000Y-127100000I-1200000J0D01*
G01*
%TO.C,TP15*%
X193900000Y-95300000D02*
G75*
G03*
X193900000Y-95300000I-1200000J0D01*
G01*
%TO.C,D49*%
X194713820Y-71706175D02*
X193356175Y-73063820D01*
X193356175Y-73063820D02*
X195378500Y-75086145D01*
X196736145Y-73728500D02*
X194713820Y-71706175D01*
%TO.C,C28*%
X143165000Y-69148752D02*
X143165000Y-68626248D01*
X144635000Y-69148752D02*
X144635000Y-68626248D01*
%TO.C,R36*%
X100647936Y-102615000D02*
X101102064Y-102615000D01*
X100647936Y-104085000D02*
X101102064Y-104085000D01*
%TO.C,D6*%
X189906430Y-83190000D02*
X186606430Y-83190000D01*
X189906430Y-83190000D02*
X189906430Y-90200000D01*
X186606430Y-83190000D02*
X186606430Y-90200000D01*
%TO.C,Q12*%
X186001384Y-108571384D02*
X186001384Y-108301384D01*
X186001384Y-108301384D02*
X188831384Y-108301384D01*
X186001384Y-101941384D02*
X187101384Y-101941384D01*
X186001384Y-101671384D02*
X186001384Y-101941384D01*
X179581384Y-108571384D02*
X186001384Y-108571384D01*
X179581384Y-101671384D02*
X186001384Y-101671384D01*
%TO.C,Y8*%
X122276060Y-85844470D02*
G75*
G03*
X126135775Y-89712556I9123940J5244470D01*
G01*
X126135775Y-89712557D02*
X125580794Y-89795782D01*
X125940004Y-89221046D01*
X126135775Y-89712557D01*
G36*
X126135775Y-89712557D02*
G01*
X125580794Y-89795782D01*
X125940004Y-89221046D01*
X126135775Y-89712557D01*
G37*
%TO.C,X2*%
X137644470Y-110723940D02*
G75*
G03*
X141512556Y-106864225I-5244470J9123940D01*
G01*
X141595782Y-107419206D02*
X141021046Y-107059996D01*
X141512557Y-106864225D01*
X141595782Y-107419206D01*
G36*
X141595782Y-107419206D02*
G01*
X141021046Y-107059996D01*
X141512557Y-106864225D01*
X141595782Y-107419206D01*
G37*
%TO.C,Y2*%
X143276060Y-86844470D02*
G75*
G03*
X147135775Y-90712556I9123940J5244470D01*
G01*
X147135775Y-90712557D02*
X146580794Y-90795782D01*
X146940004Y-90221046D01*
X147135775Y-90712557D01*
G36*
X147135775Y-90712557D02*
G01*
X146580794Y-90795782D01*
X146940004Y-90221046D01*
X147135775Y-90712557D01*
G37*
%TO.C,X1*%
X167155530Y-92476060D02*
G75*
G03*
X163287444Y-96335775I5244470J-9123940D01*
G01*
X163778954Y-96140004D02*
X163287443Y-96335775D01*
X163204218Y-95780794D01*
X163778954Y-96140004D01*
G36*
X163778954Y-96140004D02*
G01*
X163287443Y-96335775D01*
X163204218Y-95780794D01*
X163778954Y-96140004D01*
G37*
%TO.C,Y5*%
X182523940Y-117355530D02*
G75*
G03*
X178664225Y-113487444I-9123940J-5244470D01*
G01*
X178859996Y-113978954D02*
X178664225Y-113487443D01*
X179219206Y-113404218D01*
X178859996Y-113978954D01*
G36*
X178859996Y-113978954D02*
G01*
X178664225Y-113487443D01*
X179219206Y-113404218D01*
X178859996Y-113978954D01*
G37*
%TO.C,Y9*%
X126155530Y-113476060D02*
G75*
G03*
X122287444Y-117335775I5244470J-9123940D01*
G01*
X122778954Y-117140004D02*
X122287443Y-117335775D01*
X122204218Y-116780794D01*
X122778954Y-117140004D01*
G36*
X122778954Y-117140004D02*
G01*
X122287443Y-117335775D01*
X122204218Y-116780794D01*
X122778954Y-117140004D01*
G37*
%TO.C,Y6*%
X178644470Y-89723940D02*
G75*
G03*
X182512556Y-85864225I-5244470J9123940D01*
G01*
X182595782Y-86419206D02*
X182021046Y-86059996D01*
X182512557Y-85864225D01*
X182595782Y-86419206D01*
G36*
X182595782Y-86419206D02*
G01*
X182021046Y-86059996D01*
X182512557Y-85864225D01*
X182595782Y-86419206D01*
G37*
%TO.C,Y1*%
X161523940Y-116355530D02*
G75*
G03*
X157664225Y-112487444I-9123940J-5244470D01*
G01*
X157859996Y-112978954D02*
X157664225Y-112487443D01*
X158219206Y-112404218D01*
X157859996Y-112978954D01*
G36*
X157859996Y-112978954D02*
G01*
X157664225Y-112487443D01*
X158219206Y-112404218D01*
X157859996Y-112978954D01*
G37*
%TD*%
M02*
