%TF.GenerationSoftware,KiCad,Pcbnew,7.0.6*%
%TF.CreationDate,2023-08-13T13:34:14+02:00*%
%TF.ProjectId,MagLev,4d61674c-6576-42e6-9b69-6361645f7063,V1.0*%
%TF.SameCoordinates,Original*%
%TF.FileFunction,Paste,Top*%
%TF.FilePolarity,Positive*%
%FSLAX46Y46*%
G04 Gerber Fmt 4.6, Leading zero omitted, Abs format (unit mm)*
G04 Created by KiCad (PCBNEW 7.0.6) date 2023-08-13 13:34:14*
%MOMM*%
%LPD*%
G01*
G04 APERTURE LIST*
G04 Aperture macros list*
%AMRoundRect*
0 Rectangle with rounded corners*
0 $1 Rounding radius*
0 $2 $3 $4 $5 $6 $7 $8 $9 X,Y pos of 4 corners*
0 Add a 4 corners polygon primitive as box body*
4,1,4,$2,$3,$4,$5,$6,$7,$8,$9,$2,$3,0*
0 Add four circle primitives for the rounded corners*
1,1,$1+$1,$2,$3*
1,1,$1+$1,$4,$5*
1,1,$1+$1,$6,$7*
1,1,$1+$1,$8,$9*
0 Add four rect primitives between the rounded corners*
20,1,$1+$1,$2,$3,$4,$5,0*
20,1,$1+$1,$4,$5,$6,$7,0*
20,1,$1+$1,$6,$7,$8,$9,0*
20,1,$1+$1,$8,$9,$2,$3,0*%
%AMRotRect*
0 Rectangle, with rotation*
0 The origin of the aperture is its center*
0 $1 length*
0 $2 width*
0 $3 Rotation angle, in degrees counterclockwise*
0 Add horizontal line*
21,1,$1,$2,0,0,$3*%
G04 Aperture macros list end*
%ADD10R,2.000000X1.500000*%
%ADD11R,2.000000X3.800000*%
%ADD12RoundRect,0.250000X0.565685X0.070711X0.070711X0.565685X-0.565685X-0.070711X-0.070711X-0.565685X0*%
%ADD13RoundRect,0.250000X-0.337500X-0.475000X0.337500X-0.475000X0.337500X0.475000X-0.337500X0.475000X0*%
%ADD14RoundRect,0.250000X-0.350000X-0.450000X0.350000X-0.450000X0.350000X0.450000X-0.350000X0.450000X0*%
%ADD15RoundRect,0.250000X-0.450000X0.350000X-0.450000X-0.350000X0.450000X-0.350000X0.450000X0.350000X0*%
%ADD16RoundRect,0.250000X1.000000X-2.000000X1.000000X2.000000X-1.000000X2.000000X-1.000000X-2.000000X0*%
%ADD17RoundRect,0.250000X1.275000X1.125000X-1.275000X1.125000X-1.275000X-1.125000X1.275000X-1.125000X0*%
%ADD18RoundRect,0.250000X0.850000X0.350000X-0.850000X0.350000X-0.850000X-0.350000X0.850000X-0.350000X0*%
%ADD19RoundRect,0.250000X-0.475000X0.337500X-0.475000X-0.337500X0.475000X-0.337500X0.475000X0.337500X0*%
%ADD20R,3.000000X2.000000*%
%ADD21RotRect,2.000000X1.500000X135.000000*%
%ADD22RotRect,2.000000X3.800000X135.000000*%
%ADD23RoundRect,0.250000X-0.088388X0.548008X-0.548008X0.088388X0.088388X-0.548008X0.548008X-0.088388X0*%
%ADD24RoundRect,0.250000X0.350000X0.450000X-0.350000X0.450000X-0.350000X-0.450000X0.350000X-0.450000X0*%
%ADD25RoundRect,0.250000X0.070711X-0.565685X0.565685X-0.070711X-0.070711X0.565685X-0.565685X0.070711X0*%
%ADD26RoundRect,0.250000X0.548008X0.088388X0.088388X0.548008X-0.548008X-0.088388X-0.088388X-0.548008X0*%
%ADD27RoundRect,0.250000X-0.850000X-0.350000X0.850000X-0.350000X0.850000X0.350000X-0.850000X0.350000X0*%
%ADD28RoundRect,0.250000X-1.275000X-1.125000X1.275000X-1.125000X1.275000X1.125000X-1.275000X1.125000X0*%
%ADD29RoundRect,0.250000X0.450000X-0.350000X0.450000X0.350000X-0.450000X0.350000X-0.450000X-0.350000X0*%
%ADD30RoundRect,0.250000X-0.650000X1.500000X-0.650000X-1.500000X0.650000X-1.500000X0.650000X1.500000X0*%
%ADD31RoundRect,0.250000X0.088388X-0.548008X0.548008X-0.088388X-0.088388X0.548008X-0.548008X0.088388X0*%
%ADD32R,1.600000X2.000000*%
%ADD33R,2.000000X2.000000*%
%ADD34RoundRect,0.250000X0.475000X-0.337500X0.475000X0.337500X-0.475000X0.337500X-0.475000X-0.337500X0*%
%ADD35RoundRect,0.250000X-0.070711X0.565685X-0.565685X0.070711X0.070711X-0.565685X0.565685X-0.070711X0*%
%ADD36RoundRect,0.150000X0.512500X0.150000X-0.512500X0.150000X-0.512500X-0.150000X0.512500X-0.150000X0*%
%ADD37RoundRect,0.250000X-1.000000X2.000000X-1.000000X-2.000000X1.000000X-2.000000X1.000000X2.000000X0*%
%ADD38R,1.500000X2.000000*%
%ADD39R,3.800000X2.000000*%
%ADD40R,0.900000X2.300000*%
%ADD41R,0.900000X2.475000*%
%ADD42RoundRect,0.250000X-0.565685X-0.070711X-0.070711X-0.565685X0.565685X0.070711X0.070711X0.565685X0*%
%ADD43RoundRect,0.250000X1.308148X0.742462X0.742462X1.308148X-1.308148X-0.742462X-0.742462X-1.308148X0*%
%ADD44RotRect,0.400000X1.400000X225.000000*%
%ADD45RotRect,2.300000X1.900000X225.000000*%
%ADD46RotRect,1.800000X1.900000X225.000000*%
%ADD47RoundRect,0.250000X-0.548008X-0.088388X-0.088388X-0.548008X0.548008X0.088388X0.088388X0.548008X0*%
%ADD48RoundRect,0.250000X0.337500X0.475000X-0.337500X0.475000X-0.337500X-0.475000X0.337500X-0.475000X0*%
%ADD49R,1.750000X0.450000*%
%ADD50RoundRect,0.250000X-0.450000X0.325000X-0.450000X-0.325000X0.450000X-0.325000X0.450000X0.325000X0*%
%ADD51RoundRect,0.250000X-0.097227X0.574524X-0.574524X0.097227X0.097227X-0.574524X0.574524X-0.097227X0*%
%ADD52R,1.600000X0.550000*%
%ADD53R,0.550000X1.600000*%
%ADD54RoundRect,0.250000X0.450000X-0.325000X0.450000X0.325000X-0.450000X0.325000X-0.450000X-0.325000X0*%
%ADD55R,1.000000X2.000000*%
%ADD56RoundRect,0.250000X0.574524X0.097227X0.097227X0.574524X-0.574524X-0.097227X-0.097227X-0.574524X0*%
%ADD57RoundRect,0.250000X-0.574524X-0.097227X-0.097227X-0.574524X0.574524X0.097227X0.097227X0.574524X0*%
%ADD58RoundRect,0.150000X-0.512500X-0.150000X0.512500X-0.150000X0.512500X0.150000X-0.512500X0.150000X0*%
%ADD59R,0.700000X1.000000*%
%ADD60R,0.700000X0.600000*%
%ADD61RoundRect,0.250000X1.500000X0.650000X-1.500000X0.650000X-1.500000X-0.650000X1.500000X-0.650000X0*%
%ADD62RotRect,0.700000X1.000000X135.000000*%
%ADD63RotRect,0.700000X0.600000X135.000000*%
%ADD64RoundRect,0.250000X-0.325000X-0.450000X0.325000X-0.450000X0.325000X0.450000X-0.325000X0.450000X0*%
%ADD65RoundRect,0.250000X0.650000X-1.500000X0.650000X1.500000X-0.650000X1.500000X-0.650000X-1.500000X0*%
%ADD66RoundRect,0.250000X0.325000X0.450000X-0.325000X0.450000X-0.325000X-0.450000X0.325000X-0.450000X0*%
%ADD67RoundRect,0.150000X-0.825000X-0.150000X0.825000X-0.150000X0.825000X0.150000X-0.825000X0.150000X0*%
%ADD68RoundRect,0.150000X-0.150000X0.587500X-0.150000X-0.587500X0.150000X-0.587500X0.150000X0.587500X0*%
%ADD69R,1.550000X1.300000*%
%ADD70R,2.000000X7.875000*%
%ADD71RoundRect,0.250000X0.097227X-0.574524X0.574524X-0.097227X-0.097227X0.574524X-0.574524X0.097227X0*%
%ADD72R,1.900000X0.800000*%
%ADD73RoundRect,0.150000X-0.689429X0.477297X0.477297X-0.689429X0.689429X-0.477297X-0.477297X0.689429X0*%
%ADD74RoundRect,0.150000X-0.477297X-0.689429X0.689429X0.477297X0.477297X0.689429X-0.689429X-0.477297X0*%
G04 APERTURE END LIST*
D10*
%TO.C,Q8*%
X112200000Y-120100000D03*
D11*
X105900000Y-120100000D03*
D10*
X112200000Y-122400000D03*
X112200000Y-117800000D03*
%TD*%
D12*
%TO.C,R73*%
X197657107Y-72707107D03*
X196242893Y-71292893D03*
%TD*%
D13*
%TO.C,C35*%
X145150000Y-105100000D03*
X147225000Y-105100000D03*
%TD*%
D14*
%TO.C,R57*%
X159400000Y-124000000D03*
X161400000Y-124000000D03*
%TD*%
D15*
%TO.C,R51*%
X192421384Y-100621384D03*
X192421384Y-102621384D03*
%TD*%
D16*
%TO.C,C4*%
X166800000Y-135150000D03*
X166800000Y-127650000D03*
%TD*%
D17*
%TO.C,D34*%
X183096384Y-99396384D03*
X183096384Y-96346384D03*
X179746384Y-99396384D03*
X179746384Y-96346384D03*
D18*
X187721384Y-100151384D03*
X187721384Y-95591384D03*
%TD*%
D19*
%TO.C,C30*%
X114400000Y-96812500D03*
X114400000Y-98887500D03*
%TD*%
D12*
%TO.C,R71*%
X107107107Y-127107107D03*
X105692893Y-125692893D03*
%TD*%
D10*
%TO.C,Q1*%
X192100000Y-113200000D03*
D11*
X198400000Y-113200000D03*
D10*
X192100000Y-110900000D03*
X192100000Y-115500000D03*
%TD*%
D20*
%TO.C,J1*%
X147850000Y-47450000D03*
X147850000Y-53450000D03*
X136850000Y-53450000D03*
X136850000Y-47450000D03*
%TD*%
D16*
%TO.C,C23*%
X171000000Y-94750000D03*
X171000000Y-87250000D03*
%TD*%
D21*
%TO.C,Q14*%
X119527386Y-63527386D03*
D22*
X115072614Y-59072614D03*
D21*
X117901041Y-65153732D03*
X121153732Y-61901041D03*
%TD*%
D23*
%TO.C,D38*%
X196224784Y-128475216D03*
X194775216Y-129924784D03*
%TD*%
D24*
%TO.C,R61*%
X206950000Y-83575000D03*
X204950000Y-83575000D03*
%TD*%
D25*
%TO.C,R6*%
X179859337Y-126810757D03*
X181273551Y-125396543D03*
%TD*%
D24*
%TO.C,R46*%
X206925000Y-87600000D03*
X204925000Y-87600000D03*
%TD*%
D26*
%TO.C,D43*%
X110024784Y-129924784D03*
X108575216Y-128475216D03*
%TD*%
D27*
%TO.C,Q13*%
X117200000Y-102700000D03*
D28*
X121825000Y-103455000D03*
X121825000Y-106505000D03*
X125175000Y-103455000D03*
X125175000Y-106505000D03*
D27*
X117200000Y-107260000D03*
%TD*%
D24*
%TO.C,R39*%
X131900000Y-64100000D03*
X129900000Y-64100000D03*
%TD*%
D25*
%TO.C,R8*%
X181259337Y-128210757D03*
X182673551Y-126796543D03*
%TD*%
D29*
%TO.C,R56*%
X162900000Y-59200000D03*
X162900000Y-57200000D03*
%TD*%
D14*
%TO.C,R34*%
X162900000Y-144200000D03*
X164900000Y-144200000D03*
%TD*%
%TO.C,R15*%
X164000000Y-106700000D03*
X166000000Y-106700000D03*
%TD*%
D10*
%TO.C,Q5*%
X203500000Y-103950000D03*
D11*
X197200000Y-103950000D03*
D10*
X203500000Y-106250000D03*
X203500000Y-101650000D03*
%TD*%
D12*
%TO.C,R31*%
X125493908Y-127678171D03*
X124079694Y-126263957D03*
%TD*%
D30*
%TO.C,D1*%
X188835786Y-111805278D03*
X188835786Y-116805278D03*
%TD*%
D19*
%TO.C,C29*%
X190150000Y-98025000D03*
X190150000Y-100100000D03*
%TD*%
D28*
%TO.C,D35*%
X121800000Y-96150000D03*
X121800000Y-99200000D03*
X125150000Y-96150000D03*
X125150000Y-99200000D03*
D27*
X117175000Y-95395000D03*
X117175000Y-99955000D03*
%TD*%
D31*
%TO.C,D36*%
X108575216Y-74724784D03*
X110024784Y-73275216D03*
%TD*%
D15*
%TO.C,R12*%
X150900000Y-45275000D03*
X150900000Y-47275000D03*
%TD*%
D19*
%TO.C,C32*%
X151150000Y-50062500D03*
X151150000Y-52137500D03*
%TD*%
D32*
%TO.C,RV2*%
X134425000Y-143752000D03*
D33*
X135600000Y-149848000D03*
D32*
X136775000Y-143752000D03*
%TD*%
D34*
%TO.C,C19*%
X110425000Y-105395000D03*
X110425000Y-103320000D03*
%TD*%
D30*
%TO.C,D5*%
X188256430Y-76000000D03*
X188256430Y-81000000D03*
%TD*%
D35*
%TO.C,R33*%
X173122049Y-135331393D03*
X171707835Y-136745607D03*
%TD*%
D24*
%TO.C,R21*%
X141500000Y-144400000D03*
X139500000Y-144400000D03*
%TD*%
D36*
%TO.C,U13*%
X192337500Y-106350000D03*
X192337500Y-105400000D03*
X192337500Y-104450000D03*
X190062500Y-104450000D03*
X190062500Y-106350000D03*
%TD*%
D37*
%TO.C,C3*%
X157800000Y-127700000D03*
X157800000Y-135200000D03*
%TD*%
D15*
%TO.C,R68*%
X177500000Y-84500000D03*
X177500000Y-86500000D03*
%TD*%
D38*
%TO.C,U9*%
X152250000Y-59350000D03*
X149950000Y-59350000D03*
D39*
X149950000Y-65650000D03*
D38*
X147650000Y-59350000D03*
%TD*%
D15*
%TO.C,R72*%
X137700000Y-154400000D03*
X137700000Y-156400000D03*
%TD*%
D40*
%TO.C,U3*%
X141400000Y-98800000D03*
D41*
X139900000Y-98887500D03*
D40*
X138400000Y-98800000D03*
%TD*%
D19*
%TO.C,C15*%
X149900000Y-69100000D03*
X149900000Y-71175000D03*
%TD*%
D29*
%TO.C,R42*%
X139925000Y-156300000D03*
X139925000Y-154300000D03*
%TD*%
%TO.C,R41*%
X152325000Y-75125000D03*
X152325000Y-73125000D03*
%TD*%
D14*
%TO.C,R9*%
X162900000Y-146200000D03*
X164900000Y-146200000D03*
%TD*%
D29*
%TO.C,R49*%
X158400000Y-75100000D03*
X158400000Y-73100000D03*
%TD*%
D14*
%TO.C,R27*%
X173200000Y-112700000D03*
X175200000Y-112700000D03*
%TD*%
%TO.C,R63*%
X129900000Y-70350000D03*
X131900000Y-70350000D03*
%TD*%
D37*
%TO.C,C6*%
X146400000Y-127700000D03*
X146400000Y-135200000D03*
%TD*%
D31*
%TO.C,D33*%
X123975216Y-59224784D03*
X125424784Y-57775216D03*
%TD*%
D42*
%TO.C,R23*%
X126833005Y-141399748D03*
X128247219Y-142813962D03*
%TD*%
D43*
%TO.C,F1*%
X130223313Y-54673313D03*
X127076687Y-51526687D03*
%TD*%
D24*
%TO.C,R67*%
X181500000Y-86100000D03*
X179500000Y-86100000D03*
%TD*%
D10*
%TO.C,Q9*%
X112199999Y-112900000D03*
D11*
X105899999Y-112900000D03*
D10*
X112199999Y-115200000D03*
X112199999Y-110600000D03*
%TD*%
D24*
%TO.C,R16*%
X166000000Y-108800000D03*
X164000000Y-108800000D03*
%TD*%
%TO.C,R55*%
X156400000Y-62800000D03*
X154400000Y-62800000D03*
%TD*%
%TO.C,R25*%
X141500000Y-146500000D03*
X139500000Y-146500000D03*
%TD*%
D29*
%TO.C,R64*%
X165400000Y-59200000D03*
X165400000Y-57200000D03*
%TD*%
D25*
%TO.C,R24*%
X129235786Y-133078427D03*
X130650000Y-131664213D03*
%TD*%
D15*
%TO.C,R70*%
X159900000Y-146000000D03*
X159900000Y-148000000D03*
%TD*%
D44*
%TO.C,J4*%
X123036143Y-52044365D03*
X122576524Y-52503984D03*
X122116905Y-52963604D03*
X121657285Y-53423223D03*
X121197666Y-53882842D03*
D45*
X122753301Y-48296699D03*
D46*
X120914823Y-50135176D03*
X119288477Y-51761522D03*
D45*
X117450000Y-53600000D03*
%TD*%
D25*
%TO.C,R1*%
X175976992Y-140961731D03*
X177391206Y-139547517D03*
%TD*%
D47*
%TO.C,D50*%
X182350216Y-59000216D03*
X183799784Y-60449784D03*
%TD*%
D13*
%TO.C,C11*%
X181862500Y-63100000D03*
X183937500Y-63100000D03*
%TD*%
D35*
%TO.C,R65*%
X122214214Y-64385786D03*
X120800000Y-65800000D03*
%TD*%
D48*
%TO.C,C16*%
X145437500Y-59900000D03*
X143362500Y-59900000D03*
%TD*%
D15*
%TO.C,R35*%
X153050000Y-45325000D03*
X153050000Y-47325000D03*
%TD*%
D49*
%TO.C,U8*%
X141600000Y-72100000D03*
X141600000Y-71450000D03*
X141600000Y-70800000D03*
X141600000Y-70150000D03*
X141600000Y-69500000D03*
X141600000Y-68850000D03*
X141600000Y-68200000D03*
X141600000Y-67550000D03*
X141600000Y-66900000D03*
X141600000Y-66250000D03*
X141600000Y-65600000D03*
X141600000Y-64950000D03*
X141600000Y-64300000D03*
X141600000Y-63650000D03*
X134400000Y-63650000D03*
X134400000Y-64300000D03*
X134400000Y-64950000D03*
X134400000Y-65600000D03*
X134400000Y-66250000D03*
X134400000Y-66900000D03*
X134400000Y-67550000D03*
X134400000Y-68200000D03*
X134400000Y-68850000D03*
X134400000Y-69500000D03*
X134400000Y-70150000D03*
X134400000Y-70800000D03*
X134400000Y-71450000D03*
X134400000Y-72100000D03*
%TD*%
D50*
%TO.C,D47*%
X202400000Y-111425000D03*
X202400000Y-113475000D03*
%TD*%
D51*
%TO.C,C24*%
X129235786Y-130250000D03*
X127768540Y-131717246D03*
%TD*%
D14*
%TO.C,R37*%
X99775000Y-106975000D03*
X101775000Y-106975000D03*
%TD*%
D16*
%TO.C,C22*%
X133800000Y-94750000D03*
X133800000Y-87250000D03*
%TD*%
D52*
%TO.C,U6*%
X172900000Y-71200000D03*
X172900000Y-70400000D03*
X172900000Y-69600000D03*
X172900000Y-68800000D03*
X172900000Y-68000000D03*
X172900000Y-67200000D03*
X172900000Y-66400000D03*
X172900000Y-65600000D03*
D53*
X171450000Y-64150000D03*
X170650000Y-64150000D03*
X169850000Y-64150000D03*
X169050000Y-64150000D03*
X168250000Y-64150000D03*
X167450000Y-64150000D03*
X166650000Y-64150000D03*
X165850000Y-64150000D03*
D52*
X164400000Y-65600000D03*
X164400000Y-66400000D03*
X164400000Y-67200000D03*
X164400000Y-68000000D03*
X164400000Y-68800000D03*
X164400000Y-69600000D03*
X164400000Y-70400000D03*
X164400000Y-71200000D03*
D53*
X165850000Y-72650000D03*
X166650000Y-72650000D03*
X167450000Y-72650000D03*
X168250000Y-72650000D03*
X169050000Y-72650000D03*
X169850000Y-72650000D03*
X170650000Y-72650000D03*
X171450000Y-72650000D03*
%TD*%
D54*
%TO.C,D41*%
X102400000Y-91725000D03*
X102400000Y-89675000D03*
%TD*%
D10*
%TO.C,Q7*%
X191500000Y-86900000D03*
D11*
X197800000Y-86900000D03*
D10*
X191500000Y-84600000D03*
X191500000Y-89200000D03*
%TD*%
D55*
%TO.C,J2*%
X170575000Y-54568000D03*
X168035000Y-54600000D03*
X165495000Y-54600000D03*
X162955000Y-54600000D03*
X160415000Y-54600000D03*
X157875000Y-54600000D03*
%TD*%
D30*
%TO.C,D2*%
X188835786Y-121105278D03*
X188835786Y-126105278D03*
%TD*%
D48*
%TO.C,C10*%
X144300000Y-96250000D03*
X142225000Y-96250000D03*
%TD*%
D21*
%TO.C,Q10*%
X114427386Y-68627386D03*
D22*
X109972614Y-64172614D03*
D21*
X112801041Y-70253732D03*
X116053732Y-67001041D03*
%TD*%
D19*
%TO.C,C31*%
X153400000Y-50062500D03*
X153400000Y-52137500D03*
%TD*%
D26*
%TO.C,D44*%
X125500000Y-145300000D03*
X124050432Y-143850432D03*
%TD*%
D56*
%TO.C,C18*%
X129687949Y-141426265D03*
X128220703Y-139959019D03*
%TD*%
D19*
%TO.C,C20*%
X194421384Y-104796384D03*
X194421384Y-106871384D03*
%TD*%
D42*
%TO.C,R28*%
X118422840Y-131920810D03*
X119837054Y-133335024D03*
%TD*%
D57*
%TO.C,C26*%
X119810538Y-130480081D03*
X121277784Y-131947327D03*
%TD*%
D24*
%TO.C,R74*%
X183625000Y-56275000D03*
X181625000Y-56275000D03*
%TD*%
%TO.C,R66*%
X181500000Y-84000000D03*
X179500000Y-84000000D03*
%TD*%
D58*
%TO.C,U14*%
X112537500Y-103945000D03*
X112537500Y-104895000D03*
X112537500Y-105845000D03*
X114812500Y-105845000D03*
X114812500Y-103945000D03*
%TD*%
D14*
%TO.C,R69*%
X106700000Y-94900000D03*
X108700000Y-94900000D03*
%TD*%
D42*
%TO.C,R19*%
X132516377Y-135769410D03*
X133930591Y-137183624D03*
%TD*%
D59*
%TO.C,D32*%
X172400000Y-58800000D03*
D60*
X172400000Y-57100000D03*
X170400000Y-57100000D03*
X170400000Y-59000000D03*
%TD*%
D29*
%TO.C,R45*%
X141975000Y-156275000D03*
X141975000Y-154275000D03*
%TD*%
D61*
%TO.C,D9*%
X139900000Y-108600000D03*
X134900000Y-108600000D03*
%TD*%
D14*
%TO.C,R0*%
X106700000Y-96900000D03*
X108700000Y-96900000D03*
%TD*%
D62*
%TO.C,D29*%
X122176777Y-58337437D03*
D63*
X123378858Y-57135355D03*
X121964645Y-55721142D03*
X120621142Y-57064645D03*
%TD*%
D19*
%TO.C,C17*%
X145150000Y-62812500D03*
X145150000Y-64887500D03*
%TD*%
D35*
%TO.C,R50*%
X132132107Y-48817893D03*
X130717893Y-50232107D03*
%TD*%
D14*
%TO.C,R62*%
X129900000Y-68350000D03*
X131900000Y-68350000D03*
%TD*%
D64*
%TO.C,DS1*%
X106675000Y-99000000D03*
X108725000Y-99000000D03*
%TD*%
D48*
%TO.C,C2*%
X151162500Y-138400000D03*
X149087500Y-138400000D03*
%TD*%
%TO.C,C34*%
X156150000Y-108600000D03*
X154075000Y-108600000D03*
%TD*%
D38*
%TO.C,Q15*%
X153200000Y-146600001D03*
D39*
X153200000Y-152900001D03*
D38*
X155500000Y-146600001D03*
X150900000Y-146600001D03*
%TD*%
D10*
%TO.C,Q3*%
X112900000Y-90000000D03*
D11*
X106600000Y-90000000D03*
D10*
X112900000Y-92300000D03*
X112900000Y-87700000D03*
%TD*%
D65*
%TO.C,D4*%
X116100000Y-82199999D03*
X116100000Y-77199999D03*
%TD*%
D59*
%TO.C,D31*%
X157400000Y-65400000D03*
D60*
X157400000Y-67100000D03*
X159400000Y-67100000D03*
X159400000Y-65200000D03*
%TD*%
D25*
%TO.C,R98*%
X177391207Y-142375943D03*
X178805421Y-140961729D03*
%TD*%
D66*
%TO.C,D40*%
X124925000Y-70700000D03*
X122875000Y-70700000D03*
%TD*%
D24*
%TO.C,R58*%
X140800000Y-124000000D03*
X138800000Y-124000000D03*
%TD*%
D59*
%TO.C,D30*%
X169150000Y-58800000D03*
D60*
X169150000Y-57100000D03*
X167150000Y-57100000D03*
X167150000Y-59000000D03*
%TD*%
D30*
%TO.C,D11*%
X200900000Y-81500000D03*
X200900000Y-86500000D03*
%TD*%
D66*
%TO.C,D46*%
X164400000Y-151500000D03*
X162350000Y-151500000D03*
%TD*%
D12*
%TO.C,R11*%
X176632107Y-131357107D03*
X175217893Y-129942893D03*
%TD*%
D67*
%TO.C,U5*%
X169125000Y-106895000D03*
X169125000Y-108165000D03*
X169125000Y-109435000D03*
X169125000Y-110705000D03*
X174075000Y-110705000D03*
X174075000Y-109435000D03*
X174075000Y-108165000D03*
X174075000Y-106895000D03*
%TD*%
D13*
%TO.C,C12*%
X181862500Y-65100000D03*
X183937500Y-65100000D03*
%TD*%
D10*
%TO.C,Q4*%
X112900000Y-82550000D03*
D11*
X106600000Y-82550000D03*
D10*
X112900000Y-84850000D03*
X112900000Y-80250000D03*
%TD*%
%TO.C,Q2*%
X192100000Y-120762237D03*
D11*
X198400000Y-120762237D03*
D10*
X192100000Y-118462237D03*
X192100000Y-123062237D03*
%TD*%
D14*
%TO.C,R18*%
X149162500Y-140400000D03*
X151162500Y-140400000D03*
%TD*%
D68*
%TO.C,Q11*%
X181450000Y-80025000D03*
X179550000Y-80025000D03*
X180500000Y-81900000D03*
%TD*%
D24*
%TO.C,R60*%
X168700000Y-153900000D03*
X166700000Y-153900000D03*
%TD*%
%TO.C,R43*%
X206950000Y-85575000D03*
X204950000Y-85575000D03*
%TD*%
D29*
%TO.C,R48*%
X156400000Y-75100000D03*
X156400000Y-73100000D03*
%TD*%
D48*
%TO.C,C14*%
X131975000Y-66100000D03*
X129900000Y-66100000D03*
%TD*%
D10*
%TO.C,Q6*%
X191500000Y-79650000D03*
D11*
X197800000Y-79650000D03*
D10*
X191500000Y-77350000D03*
X191500000Y-81950000D03*
%TD*%
D15*
%TO.C,R2*%
X108175000Y-103395000D03*
X108175000Y-105395000D03*
%TD*%
D66*
%TO.C,D39*%
X124925000Y-68350000D03*
X122875000Y-68350000D03*
%TD*%
D24*
%TO.C,R40*%
X181500000Y-77800000D03*
X179500000Y-77800000D03*
%TD*%
D42*
%TO.C,R29*%
X121251268Y-129092383D03*
X122665482Y-130506597D03*
%TD*%
D14*
%TO.C,R4*%
X165850000Y-139225000D03*
X167850000Y-139225000D03*
%TD*%
D57*
%TO.C,C25*%
X173716377Y-131350716D03*
X175183623Y-132817962D03*
%TD*%
D24*
%TO.C,R26*%
X155162500Y-140400000D03*
X153162500Y-140400000D03*
%TD*%
D66*
%TO.C,D45*%
X142625000Y-151600000D03*
X140575000Y-151600000D03*
%TD*%
D24*
%TO.C,R54*%
X144600000Y-124000000D03*
X142600000Y-124000000D03*
%TD*%
D23*
%TO.C,D37*%
X180749568Y-143950432D03*
X179300000Y-145400000D03*
%TD*%
D19*
%TO.C,C13*%
X162150000Y-66525000D03*
X162150000Y-68600000D03*
%TD*%
D42*
%TO.C,R32*%
X129661433Y-138571321D03*
X131075647Y-139985535D03*
%TD*%
D29*
%TO.C,R14*%
X157000000Y-144400000D03*
X157000000Y-142400000D03*
%TD*%
D65*
%TO.C,D7*%
X116400000Y-125300000D03*
X116400000Y-120300000D03*
%TD*%
D56*
%TO.C,C8*%
X129700000Y-146900000D03*
X128232754Y-145432754D03*
%TD*%
D13*
%TO.C,C9*%
X138425000Y-96250000D03*
X140500000Y-96250000D03*
%TD*%
D69*
%TO.C,RESET1*%
X189960000Y-71870000D03*
X182000000Y-71870000D03*
X189960000Y-67370000D03*
X182000000Y-67370000D03*
%TD*%
D25*
%TO.C,R10*%
X173122048Y-138159820D03*
X174536262Y-136745606D03*
%TD*%
D10*
%TO.C,Q18*%
X203499999Y-96450000D03*
D11*
X197199999Y-96450000D03*
D10*
X203499999Y-98750000D03*
X203499999Y-94150000D03*
%TD*%
D51*
%TO.C,C21*%
X185537333Y-129589615D03*
X184070087Y-131056861D03*
%TD*%
%TO.C,C1*%
X188330406Y-132453399D03*
X186863160Y-133920645D03*
%TD*%
D65*
%TO.C,D8*%
X116400000Y-116200000D03*
X116400000Y-111200000D03*
%TD*%
D54*
%TO.C,D42*%
X102400000Y-113425000D03*
X102400000Y-111375000D03*
%TD*%
D25*
%TO.C,R22*%
X185512660Y-132456849D03*
X186926874Y-131042635D03*
%TD*%
D24*
%TO.C,R47*%
X179900000Y-75600000D03*
X177900000Y-75600000D03*
%TD*%
D32*
%TO.C,RV1*%
X167225000Y-141452000D03*
D33*
X168400000Y-147548000D03*
D32*
X169575000Y-141452000D03*
%TD*%
D14*
%TO.C,R59*%
X163200000Y-124050000D03*
X165200000Y-124050000D03*
%TD*%
D16*
%TO.C,C7*%
X137400000Y-135100000D03*
X137400000Y-127600000D03*
%TD*%
D42*
%TO.C,R20*%
X131102163Y-137183623D03*
X132516377Y-138597837D03*
%TD*%
D65*
%TO.C,D10*%
X193100000Y-69225000D03*
X193100000Y-64225000D03*
%TD*%
D13*
%TO.C,C33*%
X156575000Y-104350000D03*
X158650000Y-104350000D03*
%TD*%
D29*
%TO.C,R53*%
X160400000Y-59200000D03*
X160400000Y-57200000D03*
%TD*%
%TO.C,R7*%
X149362500Y-144400000D03*
X149362500Y-142400000D03*
%TD*%
%TO.C,R17*%
X165900000Y-104700000D03*
X165900000Y-102700000D03*
%TD*%
D25*
%TO.C,R13*%
X175592893Y-145907107D03*
X177007107Y-144492893D03*
%TD*%
D29*
%TO.C,R52*%
X157900000Y-59200000D03*
X157900000Y-57200000D03*
%TD*%
D70*
%TO.C,Y3*%
X178150000Y-58162500D03*
X178150000Y-70037500D03*
%TD*%
D12*
%TO.C,R30*%
X124079695Y-129092383D03*
X122665481Y-127678169D03*
%TD*%
D71*
%TO.C,C27*%
X174509746Y-139600550D03*
X175976992Y-138133304D03*
%TD*%
D72*
%TO.C,U4*%
X151762500Y-142450000D03*
X151762500Y-144350000D03*
X154762500Y-143400000D03*
%TD*%
D73*
%TO.C,U2*%
X125401985Y-132083445D03*
X124503959Y-132981470D03*
X123605933Y-133879496D03*
X122707908Y-134777522D03*
X121809882Y-135675547D03*
X120911856Y-136573573D03*
X120013831Y-137471599D03*
X123514009Y-140971777D03*
X124412035Y-140073752D03*
X125310061Y-139175726D03*
X126208086Y-138277700D03*
X127106112Y-137379675D03*
X128004138Y-136481649D03*
X128902163Y-135583623D03*
%TD*%
D13*
%TO.C,C5*%
X153125000Y-138400000D03*
X155200000Y-138400000D03*
%TD*%
D74*
%TO.C,U1*%
X176341153Y-134078046D03*
X177239178Y-134976072D03*
X178137204Y-135874098D03*
X179035230Y-136772123D03*
X179933255Y-137670149D03*
X180831281Y-138568175D03*
X181729307Y-139466200D03*
X185229485Y-135966022D03*
X184331460Y-135067996D03*
X183433434Y-134169970D03*
X182535408Y-133271945D03*
X181637383Y-132373919D03*
X180739357Y-131475893D03*
X179841331Y-130577868D03*
%TD*%
D25*
%TO.C,R5*%
X182673552Y-129624969D03*
X184087766Y-128210755D03*
%TD*%
D14*
%TO.C,R38*%
X129900000Y-62100000D03*
X131900000Y-62100000D03*
%TD*%
D65*
%TO.C,D3*%
X116100000Y-91500001D03*
X116100000Y-86500001D03*
%TD*%
D61*
%TO.C,D28*%
X140300000Y-59600000D03*
X135300000Y-59600000D03*
%TD*%
D29*
%TO.C,R44*%
X154375000Y-75125000D03*
X154375000Y-73125000D03*
%TD*%
D50*
%TO.C,D48*%
X202400000Y-89625000D03*
X202400000Y-91675000D03*
%TD*%
D42*
%TO.C,R3*%
X115595056Y-134726516D03*
X117009270Y-136140730D03*
%TD*%
%TO.C,R99*%
X117008626Y-133335024D03*
X118422840Y-134749238D03*
%TD*%
D47*
%TO.C,D49*%
X194625432Y-72975432D03*
X196075000Y-74425000D03*
%TD*%
D34*
%TO.C,C28*%
X143900000Y-69925000D03*
X143900000Y-67850000D03*
%TD*%
D14*
%TO.C,R36*%
X99875000Y-103350000D03*
X101875000Y-103350000D03*
%TD*%
D30*
%TO.C,D6*%
X188256430Y-85200000D03*
X188256430Y-90200000D03*
%TD*%
D18*
%TO.C,Q12*%
X187731384Y-107401384D03*
D17*
X183106384Y-106646384D03*
X183106384Y-103596384D03*
X179756384Y-106646384D03*
X179756384Y-103596384D03*
D18*
X187731384Y-102841384D03*
%TD*%
M02*
