M48
; DRILL file {KiCad 7.0.6} date Fri Oct  6 12:54:07 2023
; FORMAT={-:-/ absolute / metric / decimal}
; #@! TF.CreationDate,2023-10-06T12:54:07+02:00
; #@! TF.GenerationSoftware,Kicad,Pcbnew,7.0.6
; #@! TF.FileFunction,Plated,1,2,PTH
FMAT,2
METRIC
; #@! TA.AperFunction,Plated,PTH,ViaDrill
T1C0.400
; #@! TA.AperFunction,Plated,PTH,ViaDrill
T2C0.500
; #@! TA.AperFunction,Plated,PTH,ComponentDrill
T3C0.750
; #@! TA.AperFunction,Plated,PTH,ViaDrill
T4C0.800
; #@! TA.AperFunction,Plated,PTH,ComponentDrill
T5C1.000
; #@! TA.AperFunction,Plated,PTH,ComponentDrill
T6C3.200
; #@! TA.AperFunction,Plated,PTH,ComponentDrill
T7C3.600
%
G90
G05
T1
X97.4Y-95.1
X97.4Y-98.85
X97.4Y-104.6
X97.4Y-108.35
X100.975Y-123.275
X101.9Y-103.35
X102.4Y-89.675
X102.5Y-121.1
X105.506Y-106.252
X106.0Y-112.0
X106.0Y-113.6
X106.6Y-81.6
X106.6Y-83.5
X106.6Y-103.9
X106.7Y-94.8
X106.7Y-99.0
X106.8Y-101.3
X107.1Y-127.1
X108.575Y-128.475
X108.7Y-94.9
X110.4Y-103.3
X112.2Y-115.2
X112.2Y-113.0
X112.2Y-122.4
X112.9Y-82.6
X112.9Y-84.85
X112.9Y-92.3
X114.15Y-93.85
X114.4Y-96.812
X114.4Y-98.85
X114.8Y-106.0
X116.1Y-67.0
X116.1Y-76.4
X116.1Y-78.1
X116.4Y-110.4
X116.4Y-112.0
X117.15Y-88.85
X117.2Y-107.2
X117.95Y-137.325
X118.2Y-84.9
X118.675Y-139.5
X118.825Y-146.575
X121.073Y-71.259
X121.2Y-62.0
X121.3Y-142.2
X121.875Y-139.2
X121.975Y-137.725
X122.2Y-58.3
X122.6Y-142.8
X122.665Y-127.678
X122.7Y-77.1
X122.8Y-55.1
X124.891Y-54.609
X126.243Y-138.314
X126.6Y-85.9
X126.6Y-88.682
X126.973Y-126.397
X127.077Y-51.527
X127.106Y-137.38
X127.45Y-59.05
X128.141Y-57.859
X129.15Y-59.6
X129.15Y-150.531
X129.236Y-133.078
X129.661Y-138.571
X129.9Y-66.1
X131.65Y-59.6
X131.9Y-55.1
X132.0Y-48.6
X132.195Y-141.105
X132.552Y-138.634
X132.68Y-56.07
X133.0Y-142.8
X133.3Y-85.8
X133.3Y-87.3
X133.3Y-88.7
X134.0Y-108.6
X134.4Y-85.8
X134.4Y-87.3
X134.4Y-88.7
X134.5Y-131.625
X135.2Y-142.0
X135.698Y-65.6
X135.7Y-70.8
X135.7Y-108.6
X135.9Y-67.7
X136.7Y-141.9
X137.7Y-130.401
X138.15Y-127.412
X139.9Y-98.8
X140.5Y-96.2
X141.8Y-125.5
X142.2Y-96.2
X142.4Y-149.5
X142.7Y-130.4
X142.7Y-132.6
X142.753Y-111.853
X143.4Y-59.9
X143.45Y-115.35
X143.9Y-67.85
X144.15Y-46.6
X144.6Y-124.0
X145.0Y-116.0
X145.0Y-119.8
X145.15Y-64.888
X145.55Y-68.85
X145.65Y-46.6
X145.8Y-113.0
X145.9Y-156.6
X147.13Y-111.93
X147.506Y-70.006
X149.65Y-156.6
X151.0Y-146.6
X151.15Y-52.1
X151.2Y-87.8
X152.25Y-59.35
X152.4Y-73.1
X153.4Y-52.1
X154.3Y-96.4
X154.4Y-73.1
X155.2Y-138.4
X155.2Y-140.4
X155.215Y-46.575
X155.35Y-156.6
X156.4Y-75.1
X156.4Y-94.35
X157.4Y-65.4
X157.8Y-114.6
X157.8Y-127.7
X158.4Y-75.1
X158.65Y-71.35
X158.915Y-46.575
X159.05Y-156.6
X159.4Y-65.2
X159.891Y-72.858
X160.064Y-114.6
X161.15Y-74.85
X162.0Y-148.0
X162.15Y-61.6
X162.15Y-68.6
X162.15Y-60.6
X163.0Y-71.2
X163.65Y-60.6
X164.0Y-72.2
X164.092Y-76.099
X164.399Y-61.6
X164.9Y-128.2
X164.975Y-73.4
X165.9Y-102.6
X166.0Y-62.2
X166.0Y-67.2
X166.112Y-151.312
X166.4Y-68.6
X166.4Y-69.652
X166.65Y-71.0
X166.8Y-135.15
X167.6Y-62.4
X168.502Y-137.77
X168.7Y-153.4
X169.1Y-110.7
X169.15Y-58.85
X169.175Y-126.175
X170.0Y-150.1
X170.4Y-85.6
X170.4Y-87.1
X170.4Y-88.6
X170.6Y-54.6
X171.15Y-131.425
X171.2Y-71.25
X171.6Y-85.6
X171.65Y-87.1
X171.65Y-88.6
X171.7Y-68.0
X171.7Y-69.6
X171.708Y-136.746
X171.734Y-133.891
X172.0Y-128.775
X172.15Y-72.6
X172.4Y-58.85
X173.13Y-73.93
X173.45Y-59.85
X173.9Y-141.0
X174.7Y-141.9
X175.1Y-66.9
X175.4Y-71.35
X175.9Y-149.5
X177.5Y-86.5
X178.7Y-121.575
X178.8Y-127.525
X179.301Y-118.0
X179.4Y-86.1
X179.5Y-80.0
X179.975Y-132.875
X180.0Y-57.75
X181.0Y-135.4
X182.0Y-67.4
X182.0Y-137.4
X182.206Y-133.74
X182.225Y-59.1
X182.674Y-126.797
X183.6Y-85.8
X183.7Y-90.9
X183.9Y-63.1
X183.938Y-65.1
X184.2Y-137.0
X184.2Y-139.1
X184.3Y-140.3
X184.775Y-58.95
X185.062Y-61.375
X185.65Y-77.85
X187.0Y-119.6
X187.1Y-138.2
X187.7Y-102.9
X188.15Y-89.35
X188.15Y-91.35
X188.257Y-57.8
X188.35Y-132.475
X188.4Y-58.95
X188.45Y-60.25
X188.475Y-61.375
X188.8Y-125.2
X188.8Y-127.0
X190.0Y-67.4
X190.1Y-104.4
X190.15Y-75.6
X190.15Y-100.1
X191.5Y-77.35
X191.5Y-84.6
X191.6Y-87.0
X192.138Y-118.5
X192.2Y-120.8
X193.075Y-65.275
X193.125Y-63.325
X194.4Y-106.9
X195.6Y-108.15
X196.4Y-108.9
X197.8Y-85.8
X197.8Y-87.8
X198.1Y-107.9
X198.4Y-119.6
X198.4Y-121.8
X201.0Y-85.6
X201.0Y-87.4
X202.4Y-113.475
X203.5Y-101.65
X203.625Y-116.475
X204.9Y-87.6
X205.025Y-91.3
X205.7Y-115.75
X206.525Y-114.025
X207.4Y-98.825
X207.4Y-104.625
X207.4Y-108.35
X207.549Y-95.125
X208.725Y-92.075
T2
X116.4Y-120.3
X122.702Y-134.784
X125.494Y-127.678
X146.0Y-92.0
X156.0Y-98.4
X167.4Y-67.1
X170.4Y-67.6
T3
X147.4Y-100.33
X147.4Y-101.6
X147.4Y-102.87
X152.4Y-104.58
X152.4Y-105.85
X152.4Y-107.12
X155.4Y-101.6
X156.67Y-101.6
X157.94Y-101.6
T4
X118.9Y-124.9
X134.525Y-129.85
X136.8Y-47.45
X136.8Y-53.4
X140.726Y-83.279
X160.625Y-131.475
X171.0Y-93.7
X171.1Y-95.8
X184.549Y-75.499
X188.849Y-111.805
X197.9Y-92.1
X198.4Y-113.2
X203.4Y-103.9
T5
X119.726Y-88.682
X119.726Y-114.518
X123.318Y-92.274
X123.318Y-110.926
X140.482Y-113.274
X140.726Y-89.682
X144.074Y-109.682
X144.318Y-93.274
X160.482Y-109.926
X160.726Y-93.518
X164.074Y-113.518
X164.318Y-89.926
X181.482Y-92.274
X181.482Y-110.926
X185.074Y-88.682
X185.074Y-114.518
T6
X96.3Y-78.2
X96.3Y-125.0
X129.0Y-45.45
X129.1Y-157.7
X175.8Y-157.7
X175.9Y-45.1
X208.5Y-125.0
X208.55Y-78.2
T7
X131.4Y-80.6
X131.4Y-122.6
X132.4Y-101.6
X152.4Y-81.6
X152.4Y-121.6
X172.4Y-101.6
X173.4Y-80.6
X173.4Y-122.6
T0
M30
